<?xml version="1.0" encoding="utf-8"?>
<!-- Generator: Adobe Illustrator 16.0.0, SVG Export Plug-In . SVG Version: 6.00 Build 0)  -->
<!DOCTYPE svg PUBLIC "-//W3C//DTD SVG 1.1//EN" "http://www.w3.org/Graphics/SVG/1.1/DTD/svg11.dtd">
<svg version="1.1" xmlns="http://www.w3.org/2000/svg" xmlns:xlink="http://www.w3.org/1999/xlink" x="0px" y="0px"
	 width="2081.186px" height="1442.827px" viewBox="0 0 2081.186 1442.827" enable-background="new 0 0 2081.186 1442.827"
	 xml:space="preserve">
<g id="Background" display="none">
</g>
<g id="Illustration">
	<g>
		<linearGradient id="SVGID_1_" gradientUnits="userSpaceOnUse" x1="0" y1="756.5723" x2="1964.8799" y2="756.5723">
			<stop  offset="0" style="stop-color:#DAE3FE"/>
			<stop  offset="1" style="stop-color:#E9EFFD"/>
		</linearGradient>
		<path fill="url(#SVGID_1_)" d="M400.58,198.083c-112.659,71.215-192.284,16.223-260.377,91.648
			c-212.427,235.3,56.764,324.481-68.28,360.573c-135.793,39.193-51.316,212.142,25.094,262.128
			c76.411,49.986,133.235,80.057,24.672,131.152s-127.53,107.6-82.009,199.543c45.52,91.943,131.76,120.917,490.159,126.369
			c358.399,5.453,1052.48-6.105,1241.823-58.424c189.344-52.317,51.311-186.934,130.916-287.49
			c79.606-100.556,95.266-159.597-26.652-257.142s-52.463-198.487-15.859-269.681c36.604-71.194,64.761-200.313-82.16-237.143
			c-146.921-36.83-317.75,110.123-391.643,35.47s-41.364-173.664-202.737-148.738c-161.372,24.926-215.634,217.86-356.358,207.247
			C686.444,342.982,639.396,47.12,400.58,198.083z"/>
		<g>
			<g>
				<path fill="#BDD0FB" d="M1319.065,2.373c-1.452-3.562-6.649-2.975-7.192,0.832c-8.529,59.831-31.897,274.359,54.302,371.811
					c100.72,113.869,173.986,140.186,150.454,330.201c-23.284,188.018-86.095,521.422-59.091,620.865
					c0.509,1.875,2.038,3.291,3.952,3.629l0,0c3.166,0.56,6.022-1.973,5.837-5.182c-1.695-29.332-7.417-156.223,12.302-271.852
					c22.469-131.755,119.572-459.822,74.405-715.787C1511.709,97.025,1355.466,91.651,1319.065,2.373z"/>
				<path fill="#BDD0FB" d="M1484.144,1333.715c-2.611-0.461-4.596-2.582-4.866-5.219c-2.895-28.307-16.517-184.877,26.637-268.006
					c47.562-91.619,124.281-176.87,86.8-395.142c-21.234-123.656-7.906-191.068-1.148-214.442c1.022-3.537,5.863-3.937,7.421-0.602
					c19.474,41.717,100.717,217.398,113.382,271.754c14.409,61.838,23.934,182.125-73.498,237.084
					c-95.901,54.095-182.489,191.475-147.878,367.625C1491.792,1330.839,1488.229,1334.437,1484.144,1333.715L1484.144,1333.715z"/>
				
					<linearGradient id="SVGID_2_" gradientUnits="userSpaceOnUse" x1="2078.9316" y1="756.2939" x2="1743.6484" y2="1233.9985" gradientTransform="matrix(0.9847 0.174 -0.174 0.9847 2.6162 -244.2441)">
					<stop  offset="0" style="stop-color:#CB236D"/>
					<stop  offset="1" style="stop-color:#4C246D"/>
				</linearGradient>
				<path fill="url(#SVGID_2_)" d="M1505.173,1337.432c-2.85-0.504-5.11-2.672-5.713-5.502
					c-5.352-25.117-25.704-145.484,56.681-219.314c85.918-76.996,148.681-82.082,165.455-130.305
					c1.024-2.947,5.235-2.77,5.912,0.275c9.602,43.218,33.321,192.576-80.947,250.155
					c-113.383,57.133-131.219,83.353-133.116,98.679C1512.949,1335.416,1509.139,1338.133,1505.173,1337.432L1505.173,1337.432z"/>
				<path opacity="0.47" fill="#FFFFFF" d="M1358.933,105.775c8.254,6.829,15.973,14.222,23.571,21.744
					c7.595,7.527,14.89,15.353,22.013,23.332c7.101,8,13.959,16.215,20.641,24.573c6.646,8.387,13.075,16.946,19.294,25.658
					c24.805,34.9,45.868,72.489,62.564,111.941c8.344,19.726,15.556,39.94,21.47,60.53c2.891,10.313,5.575,20.687,7.792,31.166
					l0.863,3.922l0.775,3.94c0.51,2.628,1.051,5.25,1.533,7.883c0.901,5.278,1.879,10.542,2.614,15.846
					c3.228,21.169,4.936,42.56,5.212,63.953c0.236,21.394-0.961,42.791-3.584,63.994c-0.054,0.431-0.446,0.737-0.877,0.685
					c-0.424-0.053-0.726-0.432-0.687-0.854v-0.006c2.006-21.2,2.858-42.499,2.21-63.756c-0.748-21.248-2.626-42.457-6.065-63.425
					c-0.788-5.253-1.817-10.465-2.769-15.69c-0.508-2.606-1.074-5.201-1.608-7.801l-0.813-3.899l-0.899-3.88
					c-2.313-10.365-5.092-20.622-8.07-30.811c-5.965-20.379-13.144-40.405-21.483-59.937c-4.139-9.779-8.6-19.422-13.309-28.94
					c-4.711-9.518-9.647-18.925-14.866-28.176c-10.464-18.484-21.742-36.513-33.907-53.939
					c-6.052-8.733-12.328-17.313-18.803-25.742c-6.442-8.456-13.11-16.74-19.947-24.885c-13.719-16.238-28.022-32.073-43.531-46.646
					l-0.012-0.011c-0.207-0.194-0.217-0.518-0.022-0.725C1358.418,105.621,1358.726,105.604,1358.933,105.775z"/>
				<path opacity="0.47" fill="#FFFFFF" d="M1715.037,1022.922c-2.126,7.82-5.217,15.281-8.664,22.584
					c-3.515,7.266-7.44,14.361-11.971,21.072c-4.485,6.739-9.452,13.172-14.89,19.199c-5.422,6.039-11.298,11.688-17.606,16.822
					c-6.309,5.129-12.968,9.86-20.025,13.932c-7.061,4.063-14.431,7.574-22.004,10.567l-11.314,4.157
					c-0.925,0.348-1.867,0.652-2.777,1.035l-2.735,1.138c-1.817,0.771-3.667,1.473-5.435,2.353
					c-7.21,3.225-14.102,7.117-20.669,11.469c-6.556,4.373-12.776,9.247-18.536,14.629c-5.728,5.415-10.992,11.318-15.738,17.62
					c-4.738,6.309-8.989,12.991-12.744,19.956c-3.705,6.992-6.894,14.267-9.614,21.72c-5.521,14.899-8.831,30.562-11.063,46.341
					c-1.032,7.908-1.729,15.867-2.142,23.848c-0.343,7.984-0.452,15.984-0.325,23.99v0.006c0.006,0.359-0.281,0.656-0.641,0.662
					c-0.351,0.005-0.642-0.269-0.661-0.616c-0.44-8.022-0.673-16.065-0.527-24.113c0.183-8.046,0.65-16.092,1.462-24.116
					c0.843-8.021,2.105-16.004,3.799-23.906c1.657-7.91,3.848-15.717,6.486-23.376c2.645-7.657,5.776-15.161,9.456-22.408
					c3.715-7.228,7.991-14.183,12.847-20.724c4.843-6.549,10.234-12.701,16.114-18.357c5.901-5.635,12.319-10.72,19.1-15.246
					c6.782-4.52,13.897-8.557,21.322-11.901c1.823-0.911,3.724-1.64,5.595-2.438l2.815-1.178c0.938-0.396,1.904-0.713,2.855-1.073
					l11.272-4.118c7.356-2.861,14.515-6.225,21.379-10.125c6.859-3.905,13.413-8.35,19.609-13.254
					c6.185-4.919,12.034-10.273,17.478-16.028c5.431-5.767,10.471-11.913,15.113-18.359c4.632-6.454,8.828-13.231,12.633-20.232
					c1.871-3.517,3.645-7.089,5.273-10.729c1.616-3.638,3.196-7.327,4.452-11.087l0.006-0.02c0.093-0.277,0.394-0.428,0.671-0.335
					C1714.961,1022.369,1715.109,1022.653,1715.037,1022.922z"/>
			</g>
			<g>
				<path fill="#BDD0FB" d="M428.739,1362.659c2.889,0,5.092-2.585,4.611-5.433c-4.789-28.34-32.865-157.936-145.921-158.967
					c-100.163-0.912-160.944,49.123-182.13,70.273c-3.785,3.779-2.105,10.256,3.052,11.674c13.678,3.759,36.441,12.91,51.048,34.113
					c22.026,31.973,79.125,26.953,114.701-16.996c35.243-43.536,123.039-69.614,150.059,61.574
					C424.608,1361.08,426.512,1362.659,428.739,1362.659L428.739,1362.659z"/>
				<path fill="#BDD0FB" d="M201.194,722.619c-2.158-4.744-9.112-4.146-10.466,0.887c-12.273,45.639-37.609,181.866,74.38,246.339
					c135.701,78.124,138.976,42.788,155.897,180.341c14.564,118.39,19.533,190.384,20.635,208.145
					c0.151,2.439,2.171,4.329,4.615,4.329l0,0c2.616,0,4.712-2.155,4.623-4.77c-1.28-37.274-10.604-283.599-37.245-404.082
					C366.249,739.509,255.292,841.545,201.194,722.619z"/>
				<path fill="#BDD0FB" d="M285.896,383.585c-0.853-4.822-7.825-4.71-8.543,0.135c-3.606,24.322-10.485,55.365-23.364,75.629
					c-23.9,37.609-67.316,174.565,51.889,242.844c119.205,68.279,148.518,104.421,147.632,235.542
					c-0.809,119.839,6.405,375.574,7.651,418.69c0.101,3.479,2.95,6.233,6.431,6.233l0,0c3.546,0,6.423-2.861,6.434-6.407
					c0.159-56.082,0.948-463.758-9.276-562.543C448.549,637.18,316.555,556.994,285.896,383.585z"/>
				<path fill="#91B3FA" d="M684.195,63.407c-0.245-5.571-7.632-7.305-10.374-2.449c-13.236,23.44-43.024,63.424-102.636,92.364
					c-89.418,43.411-249.891,133.189-154.198,329.328c99.485,203.909,64.17,346.34,71.025,417.647
					c6.348,66.034,13.033,406.28,13.987,456.236c0.065,3.41,2.849,6.126,6.26,6.126l0,0c3.52,0,6.349-2.898,6.26-6.417
					c-1.387-55.102-11.23-447.949-11.41-510.844c-0.193-67.668-16.929-299.216,43.549-383.658
					C605.169,380.048,693.504,275.235,684.195,63.407z"/>
				<path opacity="0.47" fill="#FFFFFF" d="M286.668,486.686c-1.399,3.969-2.363,8.239-3.125,12.458
					c-0.732,4.245-1.196,8.537-1.405,12.837c-0.415,8.6,0.147,17.244,1.745,25.69c3.198,16.896,10.289,32.969,20.311,46.959
					c4.979,7.037,10.649,13.521,16.747,19.684c6.073,6.175,12.481,12.039,19.029,17.771c13.096,11.458,26.751,22.415,39.573,34.41
					c6.403,5.997,12.667,12.174,18.512,18.754c5.856,6.566,11.362,13.452,16.445,20.646c5.004,7.25,9.58,14.784,13.721,22.553
					c1.009,1.955,1.961,3.939,2.944,5.907l1.463,2.958l1.334,3.017l2.66,6.037l2.396,6.144l1.195,3.072
					c0.395,1.026,0.719,2.075,1.082,3.112l2.122,6.239c0.726,2.073,1.268,4.204,1.91,6.304c0.607,2.109,1.262,4.205,1.83,6.325
					l1.586,6.388c0.514,2.133,1.094,4.251,1.498,6.408l1.326,6.442l0.662,3.222c0.203,1.076,0.367,2.16,0.552,3.24
					c3.046,17.268,4.784,34.727,5.669,52.201c0.029,0.58-0.417,1.074-0.998,1.104c-0.576,0.029-1.068-0.41-1.104-0.984l0-0.006
					c-1.095-17.389-3.038-34.728-6.27-51.818c-3.243-17.078-7.713-33.941-14.079-50.082l-2.404-6.041l-2.663-5.93l-1.334-2.963
					l-1.461-2.901c-0.981-1.93-1.931-3.877-2.938-5.793c-4.128-7.614-8.679-14.989-13.645-22.079
					c-5.059-7.025-10.483-13.783-16.264-20.236c-5.771-6.465-11.97-12.548-18.323-18.468c-12.72-11.841-26.356-22.729-39.572-34.229
					c-6.605-5.753-13.104-11.667-19.292-17.928c-6.22-6.21-12.005-12.99-17.094-20.226c-10.228-14.435-17.569-31.094-20.515-48.604
					c-0.786-4.364-1.225-8.784-1.466-13.205c-0.249-4.423-0.203-8.861,0.14-13.274c0.328-4.414,0.917-8.805,1.781-13.144
					c0.89-4.348,1.999-8.594,3.652-12.81c0.225-0.574,0.873-0.856,1.447-0.631c0.561,0.22,0.844,0.844,0.646,1.408L286.668,486.686z
					"/>
				<path opacity="0.47" fill="#FFFFFF" d="M203.145,747.609c0.199,1.947,0.588,3.943,1.032,5.891
					c0.454,1.953,0.96,3.896,1.557,5.811c1.179,3.836,2.621,7.588,4.284,11.235c1.675,3.642,3.533,7.196,5.562,10.647
					c2.07,3.429,4.264,6.783,6.674,9.98c9.627,12.814,21.712,23.648,35.038,32.535c6.662,4.482,13.654,8.376,20.84,12.063
					c7.261,3.703,14.381,7.691,21.37,11.899c13.994,8.39,27.312,17.956,39.655,28.671c6.136,5.4,12.015,11.093,17.599,17.064
					c5.584,5.975,10.784,12.305,15.654,18.869c9.722,13.152,17.896,27.41,24.566,42.307c1.602,3.753,3.264,7.48,4.675,11.311
					c0.713,1.91,1.518,3.787,2.155,5.725l1.998,5.781c0.698,1.916,1.234,3.885,1.84,5.83c0.574,1.955,1.217,3.89,1.733,5.861
					c1.018,3.945,2.164,7.855,3.012,11.84c3.695,15.863,6.139,31.99,7.453,48.189c0.032,0.396-0.264,0.744-0.66,0.775
					c-0.39,0.032-0.733-0.256-0.775-0.642c-1.733-16.097-4.406-32.087-8.35-47.755c-3.905-15.676-9.216-30.979-15.863-45.658
					c-13.376-29.346-33.172-55.588-57.513-76.656c-12.189-10.514-25.346-19.906-39.2-28.154
					c-6.918-4.137-13.971-8.059-21.172-11.703c-7.239-3.728-14.413-7.785-21.193-12.391c-13.571-9.188-25.836-20.533-35.331-33.968
					c-4.724-6.714-8.857-13.876-11.912-21.499c-1.548-3.8-2.863-7.692-3.906-11.657c-1.048-3.97-1.807-7.987-2.05-12.143
					c-0.02-0.339,0.238-0.628,0.576-0.647c0.329-0.02,0.612,0.224,0.646,0.548L203.145,747.609z"/>
				<path opacity="0.47" fill="#FFFFFF" d="M152.419,1254.488c15.899-12.171,33.636-21.771,52.225-29.245
					c9.301-3.732,18.874-6.804,28.612-9.245c9.754-2.387,19.703-3.994,29.717-4.85c5.004-0.512,10.041-0.543,15.066-0.631
					l7.542,0.247c1.258,0.013,2.511,0.13,3.763,0.254l3.757,0.347c9.997,1.038,19.94,2.922,29.501,6.03l3.607,1.089l3.523,1.333
					c2.34,0.911,4.714,1.734,7.021,2.718c4.541,2.138,9.179,4.076,13.476,6.677c8.86,4.708,16.951,10.673,24.77,16.858
					c0.275,0.217,0.321,0.616,0.104,0.891c-0.21,0.266-0.591,0.318-0.864,0.124l-0.028-0.021
					c-8.066-5.75-16.204-11.432-25.096-15.764c-4.316-2.406-8.936-4.171-13.422-6.202c-2.284-0.919-4.632-1.678-6.942-2.525
					l-3.478-1.237l-3.557-0.994c-9.419-2.879-19.186-4.443-28.958-5.363l-3.674-0.301c-1.224-0.109-2.448-0.212-3.679-0.211
					l-7.372-0.164c-4.915,0.139-9.832,0.228-14.729,0.734c-9.796,0.863-19.533,2.488-29.102,4.84
					c-9.573,2.335-18.979,5.347-28.216,8.821c-2.322,0.837-4.599,1.79-6.883,2.728c-2.3,0.9-4.555,1.907-6.819,2.895
					c-4.526,1.982-8.973,4.145-13.406,6.338c-4.387,2.281-8.784,4.56-13.071,7.038c-4.281,2.476-8.538,5.049-12.625,7.804
					l-0.025,0.018c-0.291,0.195-0.685,0.119-0.88-0.172C152.091,1255.066,152.156,1254.691,152.419,1254.488z"/>
				<path opacity="0.33" fill="#FFFFFF" d="M649.502,123.151c-6.468,8.491-13.475,16.515-20.589,24.452
					c-3.544,3.981-7.207,7.851-10.872,11.722c-3.743,3.792-7.407,7.668-11.239,11.375l-5.72,5.59l-5.83,5.476
					c-3.86,3.681-7.848,7.223-11.828,10.774l-2.991,2.657l-3.046,2.593l-6.094,5.188c-2.013,1.752-4.112,3.399-6.18,5.085
					l-6.228,5.028c-4.182,3.315-8.479,6.484-12.713,9.733c-4.268,3.205-8.659,6.246-12.983,9.376
					c-4.326,3.126-8.679,6.052-12.877,9.267c-2.134,1.553-4.199,3.19-6.262,4.831c-1.03,0.822-2.076,1.625-3.093,2.461l-3.019,2.547
					c-8.04,6.801-15.626,14.125-22.514,22.055c-6.889,7.924-13.067,16.457-18.338,25.525c-5.26,9.07-9.683,18.64-13.05,28.588
					c-3.389,9.944-5.784,20.209-7.519,30.588l-1.159,7.813l-0.787,7.866c-0.318,2.618-0.379,5.258-0.539,7.891
					c-0.115,2.635-0.352,5.266-0.322,7.908l-0.076,7.921c-0.021,2.641,0.142,5.282,0.203,7.923
					c0.078,5.287,0.566,10.558,0.924,15.835l0.142,1.979l0.212,1.973l0.431,3.946c0.296,2.63,0.552,5.265,0.882,7.892l1.137,7.863
					c0.387,2.62,0.721,5.249,1.224,7.852c1.792,10.445,3.804,20.862,6.22,31.194c4.762,20.684,10.696,41.1,17.204,61.333
					c0.085,0.262-0.058,0.544-0.32,0.63c-0.258,0.084-0.536-0.055-0.626-0.309c-7.091-20.063-13.375-40.43-18.562-61.102
					c-5.17-20.666-9.239-41.672-11.235-62.955c-0.424-5.326-0.979-10.644-1.121-15.992c-0.094-2.673-0.288-5.342-0.298-8.018
					l-0.018-8.028c-0.061-2.677,0.147-5.352,0.233-8.029c0.13-2.675,0.163-5.356,0.454-8.024l0.708-8.013l1.087-7.978
					c1.621-10.614,4.107-21.113,7.519-31.325c3.414-10.213,7.917-20.064,13.286-29.404c5.379-9.337,11.692-18.127,18.721-26.274
					c7.027-8.154,14.756-15.669,22.921-22.631l3.066-2.607c1.032-0.856,2.092-1.676,3.136-2.517
					c2.092-1.677,4.187-3.351,6.346-4.935c4.239-3.26,8.685-6.313,12.989-9.397c4.301-3.086,8.668-6.082,12.916-9.243
					c4.214-3.206,8.492-6.331,12.655-9.604c4.126-3.32,8.354-6.516,12.432-9.898l6.117-5.073l3.06-2.537l3.004-2.601
					c3.991-3.486,8.057-6.889,11.962-10.475l5.911-5.319l5.809-5.431c3.92-3.573,7.675-7.318,11.513-10.981
					c3.741-3.758,7.552-7.453,11.243-11.265c7.413-7.59,14.666-15.363,21.598-23.389l0.008-0.01
					c0.181-0.209,0.496-0.232,0.705-0.051C649.632,122.644,649.66,122.943,649.502,123.151z"/>
			</g>
		</g>
		<g>
			<g>
				<path fill="#BDD0FB" d="M1918.275,1167.435c0,0,120.422-14.043,159.482,27.897c1.737,1.865-0.227,4.369-3.376,4.377
					l-22.899,0.053c-5.473,0.014-8.282,4.653-4.522,7.476c12.02,9.022,30.28,25.169,34.117,42.327
					c1.024,4.577-5.397,8.165-11.31,6.215c-31.695-10.457-120.518-37.822-178.661-36.631L1918.275,1167.435z"/>
				<path fill="#7D97F4" d="M1918.203,1122.808l-632.892-26.652l0.396,168.599l615.156-1.443c17.694-0.041,33.345-8.1,39.04-20.015
					c10.676-22.336,23.974-60.3,14.579-97.531C1951.279,1133.071,1936.317,1123.57,1918.203,1122.808z"/>
				<path fill="#91B3FA" d="M1519.668,1124.189l-176.47-5.299c-14.625-0.439-26.826,7.889-26.802,18.295l0.199,85.171
					c0.023,10.08,11.539,18.224,25.72,18.191l176.456-0.414c14.182-0.033,25.658-8.231,25.635-18.312l-0.187-79.459
					C1544.197,1132.606,1533.382,1124.601,1519.668,1124.189z"/>
			</g>
			<g>
				
					<linearGradient id="SVGID_3_" gradientUnits="userSpaceOnUse" x1="5127.3008" y1="5547.9775" x2="4671.6992" y2="6470.3472" gradientTransform="matrix(0.0023 1 -1 0.0023 7515.9507 -3642.7266)">
					<stop  offset="0" style="stop-color:#4042E2"/>
					<stop  offset="1" style="stop-color:#4F52FF"/>
				</linearGradient>
				<path fill="url(#SVGID_3_)" d="M1286.088,1396.801l654.152-1.533c16.323-0.038,30.839-7.604,35.583-18.711
					c21.223-49.689,9.173-92.84-0.791-115.48c-4.416-10.035-17.453-16.863-32.251-16.828l-657.048,1.541L1286.088,1396.801z"/>
				<path fill="#7D97F4" d="M1928.993,1259.225l-96.562,3.89c-12.032,0.485-21.444,7.575-21.424,16.142l0.189,80.862
					c0.02,8.696,9.744,15.8,21.972,16.054l95.292,1.977c10.925,0.227,20.565-5.103,22.852-12.703
					c5.912-19.655,14.035-58.319,0.938-94.055C1949.509,1263.912,1939.854,1258.787,1928.993,1259.225z"/>
				<path fill="#7D97F4" d="M1769.358,1265.881L1769.358,1265.881c-11.884,0.612-21.088,7.657-21.068,16.125l0.182,77.416
					c0.021,9.027,10.469,16.27,23.164,16.058l0,0c12.34-0.206,22.197-7.39,22.177-16.163l-0.182-77.416
					C1793.609,1272.563,1782.462,1265.206,1769.358,1265.881z"/>
			</g>
			<g>
				
					<linearGradient id="SVGID_4_" gradientUnits="userSpaceOnUse" x1="5070.5" y1="5323.8486" x2="4396.6221" y2="6423.8545" gradientTransform="matrix(0.0023 1 -1 0.0023 7515.9507 -3642.7266)">
					<stop  offset="0" style="stop-color:#4042E2"/>
					<stop  offset="1" style="stop-color:#4F52FF"/>
				</linearGradient>
				<path fill="url(#SVGID_4_)" d="M1830.867,934.263l-635.215,20.195l0.374,159.705l642.393,10.599
					c17.656,0.291,33.615-7.766,38.665-19.8c21.813-51.983,23.843-103.57-9.037-154.462
					C1861.407,940.223,1846.772,933.758,1830.867,934.263z"/>
				<path fill="#7D97F4" d="M1807.061,948.863l-34.536,1.981c-10.462,0.601-18.337,7.042-17.71,14.488l10.987,130.456
					c0.576,6.849,8.195,12.328,17.823,12.817l23.863,1.213c11.175,0.568,20.687-5.738,20.668-13.702l-0.313-133.651
					C1827.824,954.486,1818.251,948.221,1807.061,948.863z"/>
				<path fill="#7D97F4" d="M1724.533,954.442l-12.607,0.029c-9.733,0.022-17.495,5.803-17.073,12.715l7.626,124.976
					c0.397,6.516,7.954,11.642,17.131,11.62l13.373-0.031c9.763-0.022,17.535-5.837,17.07-12.768l-8.393-124.974
					C1741.225,959.516,1733.682,954.421,1724.533,954.442z"/>
			</g>
		</g>
		<g>
			<g>
				<g>
					<linearGradient id="SVGID_5_" gradientUnits="userSpaceOnUse" x1="615.7725" y1="349.1299" x2="679.7723" y2="825.1299">
						<stop  offset="0" style="stop-color:#E1473D"/>
						<stop  offset="1" style="stop-color:#E9605A"/>
					</linearGradient>
					<path fill="url(#SVGID_5_)" d="M566.368,318.998c0,0,0,332.401,82.15,420.635c69.979-69.979,65.415-101.926,65.415-101.926
						S647.934,319,660.604,288.191C586.145,318.998,566.368,318.998,566.368,318.998z"/>
					<linearGradient id="SVGID_6_" gradientUnits="userSpaceOnUse" x1="703.1719" y1="-82.042" x2="695.1719" y2="103.9579">
						<stop  offset="0" style="stop-color:#FE7062"/>
						<stop  offset="1" style="stop-color:#FF928E"/>
					</linearGradient>
					<path fill="url(#SVGID_6_)" d="M706.327,251.055c-47.16-1.521-139.959,68.593-139.959,68.593h12.308
						c31.27,0,59.505,18.384,71.693,47.182l57.479,135.645l92.799-71.799C800.646,430.676,753.486,252.577,706.327,251.055z"/>
				</g>
				<g>
					
						<linearGradient id="SVGID_7_" gradientUnits="userSpaceOnUse" x1="-7577.9492" y1="922.1328" x2="-7513.9492" y2="1398.1333" gradientTransform="matrix(-1 0 0 1 -6305.8848 0)">
						<stop  offset="0" style="stop-color:#E1473D"/>
						<stop  offset="1" style="stop-color:#E9605A"/>
					</linearGradient>
					<path fill="url(#SVGID_7_)" d="M1398.512,318.998c0,0,0,332.401-82.149,420.635c-69.979-69.979-65.415-101.926-65.415-101.926
						s65.999-318.708,53.328-349.516C1378.735,318.998,1398.512,318.998,1398.512,318.998z"/>
					
						<linearGradient id="SVGID_8_" gradientUnits="userSpaceOnUse" x1="-7559.5811" y1="-268.3101" x2="-7567.5811" y2="-82.3102" gradientTransform="matrix(-1 0 0 1 -6305.8848 0)">
						<stop  offset="0" style="stop-color:#FE7062"/>
						<stop  offset="1" style="stop-color:#FF928E"/>
					</linearGradient>
					<path fill="url(#SVGID_8_)" d="M1258.553,251.055c47.16-1.521,139.959,68.593,139.959,68.593h-12.307
						c-31.271,0-59.506,18.384-71.694,47.182l-57.479,135.645l-92.799-71.799C1164.233,430.676,1211.394,252.577,1258.553,251.055z"
						/>
				</g>
			</g>
			<g>
				<linearGradient id="SVGID_9_" gradientUnits="userSpaceOnUse" x1="649.7651" y1="14.9746" x2="628.7626" y2="498.0232">
					<stop  offset="0" style="stop-color:#E1473D"/>
					<stop  offset="1" style="stop-color:#E9605A"/>
				</linearGradient>
				<path fill="url(#SVGID_9_)" d="M530.618,1014.986c3.042-15.213,83.671-447.259,138.437-495.94
					c0,284.481,12.17,512.673,12.17,512.673L530.618,1014.986z"/>
				<linearGradient id="SVGID_10_" gradientUnits="userSpaceOnUse" x1="1396.3301" y1="47.4336" x2="1375.3275" y2="530.4823">
					<stop  offset="0" style="stop-color:#E1473D"/>
					<stop  offset="1" style="stop-color:#E9605A"/>
				</linearGradient>
				<path fill="url(#SVGID_10_)" d="M1434.262,1014.986c-3.043-15.213-83.671-447.259-138.437-495.94
					c0,284.481-12.171,512.673-12.171,512.673L1434.262,1014.986z"/>
			</g>
			<g>
				<linearGradient id="SVGID_11_" gradientUnits="userSpaceOnUse" x1="987.8984" y1="196.3887" x2="987.1345" y2="66.5094">
					<stop  offset="0" style="stop-color:#FE7062"/>
					<stop  offset="1" style="stop-color:#FF928E"/>
				</linearGradient>
				<path fill="url(#SVGID_11_)" d="M1038.161,197.648H926.347l-8.367,90.339l31.672-42.243c2.095-2.801,5.357-4.437,8.854-4.526
					l47.741-1.199c3.785-0.097,7.372,1.701,9.578,4.779l31.084,43.386l11.789-33.668L1038.161,197.648z"/>
				<g>
					<linearGradient id="SVGID_12_" gradientUnits="userSpaceOnUse" x1="1071.7383" y1="-76.3926" x2="1065.7382" y2="111.6068">
						<stop  offset="0" style="stop-color:#FE7062"/>
						<stop  offset="1" style="stop-color:#FF928E"/>
					</linearGradient>
					<path fill="url(#SVGID_12_)" d="M1078.154,252.499l-39.43-54.444v168.863l38.511,19.016l7.511-110.614
						C1085.299,267.174,1082.966,259.095,1078.154,252.499z"/>
					
						<linearGradient id="SVGID_13_" gradientUnits="userSpaceOnUse" x1="-6850.3213" y1="-203.7354" x2="-6856.3213" y2="-15.7349" gradientTransform="matrix(-1 0 0 1 -5962.2246 0)">
						<stop  offset="0" style="stop-color:#FE7062"/>
						<stop  offset="1" style="stop-color:#FF928E"/>
					</linearGradient>
					<path fill="url(#SVGID_13_)" d="M886.196,252.499l38.529-54.444v168.863l-37.609,19.016l-7.511-110.614
						C879.052,267.174,881.385,259.095,886.196,252.499z"/>
				</g>
			</g>
			<g>
				<linearGradient id="SVGID_14_" gradientUnits="userSpaceOnUse" x1="528.6475" y1="835.6094" x2="562.8745" y2="1208.6853">
					<stop  offset="0" style="stop-color:#E1473D"/>
					<stop  offset="1" style="stop-color:#E9605A"/>
				</linearGradient>
				<path fill="url(#SVGID_14_)" d="M546.619,886.119c-14.206,0.475-26.283,10.549-29.332,24.432
					c-16.693,75.994-68.12,312.191-73.844,363.709c-6.845,61.609,158.309,103.125,158.309,103.125l57.323-495.023L546.619,886.119z"
					/>
				<linearGradient id="SVGID_15_" gradientUnits="userSpaceOnUse" x1="1384.1572" y1="757.1221" x2="1418.3843" y2="1130.1982">
					<stop  offset="0" style="stop-color:#E1473D"/>
					<stop  offset="1" style="stop-color:#E9605A"/>
				</linearGradient>
				<path fill="url(#SVGID_15_)" d="M1418.261,886.119c14.206,0.475,26.283,10.549,29.332,24.432
					c16.693,75.994,68.12,312.191,73.844,363.709c6.846,61.609-158.31,103.125-158.31,103.125l-57.322-495.023L1418.261,886.119z"/>
			</g>
			<linearGradient id="SVGID_16_" gradientUnits="userSpaceOnUse" x1="982.7939" y1="1282.1563" x2="1012.7878" y2="1924.03">
				<stop  offset="0" style="stop-color:#FE7062"/>
				<stop  offset="1" style="stop-color:#FF928E"/>
			</linearGradient>
			<path fill="url(#SVGID_16_)" d="M1385.547,1269.732c-6.845-94.731-37.649-464.385-37.649-464.385L622.28,821.021
				c0,0-99.259,552.498,0,576.456c82.946,20.021,547.23,6.581,697.599,1.622c32.949-1.086,60.309-25.906,64.482-58.609
				C1386.696,1322.191,1387.654,1298.885,1385.547,1269.732z"/>
			<linearGradient id="SVGID_17_" gradientUnits="userSpaceOnUse" x1="932.144" y1="307.1738" x2="986.149" y2="874.2296">
				<stop  offset="0" style="stop-color:#FE7062"/>
				<stop  offset="1" style="stop-color:#FF928E"/>
			</linearGradient>
			<path fill="url(#SVGID_17_)" d="M1005.031,343.279c-56.816-2.841-129.888,30.051-184.277,44.798
				C714.132,416.986,673.13,471.64,649.469,576.964c-20.225,90.031-44.02,178.679-49.235,271.288
				c-1.149,20.398-7.218,67.805,14.607,82.104c54.764,35.859,711.927,113.549,742.73-15.998
				c30.805-129.547-23.959-451.283-102.682-492.355C1176.168,380.929,1073.486,346.702,1005.031,343.279z"/>
			<linearGradient id="SVGID_18_" gradientUnits="userSpaceOnUse" x1="998.2148" y1="1437.5352" x2="976.2148" y2="1147.5359">
				<stop  offset="0" style="stop-color:#E1473D"/>
				<stop  offset="1" style="stop-color:#E9605A"/>
			</linearGradient>
			<path fill="url(#SVGID_18_)" d="M1252.726,1349.676c0,0-451.822,12.163-533.972,0c-58.737-8.717-58.372-144.195-53.375-220.73
				c0.525-8.01,1.095-15.357,1.644-21.86c1.46-16.909,15.517-29.962,32.472-30.259c249.826-4.153,478.544-1.301,559.096,0
				c17.319,0.273,31.49,13.76,32.54,31.057c0.616,10.064,1.369,21.998,2.146,34.891l0.022,0.023
				c3.194,52.188,7.257,119.984,8.215,141.457C1303.133,1320.764,1252.726,1349.676,1252.726,1349.676z"/>
			<linearGradient id="SVGID_19_" gradientUnits="userSpaceOnUse" x1="978.7188" y1="1064.0664" x2="946.7181" y2="444.0576">
				<stop  offset="0" style="stop-color:#E1473D"/>
				<stop  offset="1" style="stop-color:#E9605A"/>
			</linearGradient>
			<path fill="url(#SVGID_19_)" d="M1296.388,1142.773l-22.271-24.091c-6.298-7.142-15.357-10.034-24.873-10.034H704.204
				c-9.104,0-17.822,2.55-24.097,9.19l-11.615,11.702c0.525-8.01,1.095-15.654,1.644-22.158
				c1.46-16.909,15.517-30.111,32.472-30.408c249.826-4.152,478.543-1.375,559.095-0.074c17.32,0.273,31.49,13.723,32.541,31.021
				C1294.858,1117.983,1295.611,1129.881,1296.388,1142.773z"/>
			<linearGradient id="SVGID_20_" gradientUnits="userSpaceOnUse" x1="980.8477" y1="864.8848" x2="1046.8474" y2="584.8851">
				<stop  offset="0" style="stop-color:#E1473D"/>
				<stop  offset="1" style="stop-color:#E9605A"/>
			</linearGradient>
			<path fill="url(#SVGID_20_)" d="M1126.457,801.182c-3.259-3.158-7.743-4.859-12.279-4.717l-264.403,8.314
				c-4.658,0.146-9.067,2.226-12.13,5.738c-3.063,3.514-4.537,8.143-4.048,12.777l7.551,72.028
				c0.899,8.532,8.089,15.325,16.669,15.325h256.804c9.26,0,17.104-8.139,17.104-17.398v-80.027
				C1131.725,808.685,1129.716,804.34,1126.457,801.182z"/>
			<path fill="#FFFFFF" d="M1069.83,894.301c-2.847,0-5.691-0.015-8.475-0.03c-4.191-0.022-8.527-0.045-12.784-0.016
				c-8.619,0.06-18.063,0.041-28.869-0.053c-5.532-0.047-11.063-0.057-16.597-0.066c-4.691-0.008-9.383-0.016-14.074-0.047
				c-4.78-0.031-9.561-0.082-14.342-0.132c-5.396-0.057-10.793-0.112-16.189-0.143c-9.996-0.057-19.801-0.145-29.144-0.262
				c-5.118-0.064-10.236-0.107-15.354-0.149c-3.601-0.03-7.201-0.061-10.801-0.098c-3.417-0.035-6.834-0.084-10.251-0.132
				c-3.704-0.053-7.407-0.105-11.111-0.141c-5.042-0.049-10.082-0.109-15.123-0.173c-4.948-0.063-9.043-3.658-9.737-8.551
				l-7.486-52.83c-0.4-2.824,0.432-5.688,2.282-7.859s4.547-3.445,7.399-3.498l245.757-4.484c2.759-0.033,5.175,0.951,7.324,3.062
				c2.176,2.137,2.47,5.058,2.47,7.634v53.474c0,1.14,0.275,2.516,0.565,3.974c0.548,2.746,1.115,5.586,0.097,7.85
				c-0.343,0.759-1.295,0.992-4.18,1.355c-0.254,0.032-0.455,0.057-0.564,0.075c-5.457,0.913-10.804,0.93-15.813,0.874
				c-4.01-0.053-8.1,0.064-12.052,0.173c-2.923,0.08-5.944,0.163-8.923,0.182C1072.519,894.298,1071.174,894.301,1069.83,894.301z
				 M1052.895,892.241c2.846,0,5.69,0.015,8.473,0.029c4.09,0.022,8.321,0.046,12.477,0.019c2.957-0.019,5.968-0.101,8.88-0.181
				c3.973-0.108,8.078-0.221,12.13-0.174c4.919,0.059,10.165,0.041,15.459-0.847c0.127-0.021,0.355-0.051,0.645-0.087
				c0.551-0.069,2.106-0.265,2.711-0.454c0.6-1.673,0.123-4.062-0.34-6.375c-0.31-1.558-0.604-3.028-0.604-4.365v-53.474
				c0-2.269-0.227-4.592-1.871-6.206c-1.747-1.714-3.672-2.531-5.887-2.489l-245.757,4.484l-0.018-1l0.018,1
				c-2.279,0.041-4.435,1.061-5.913,2.795c-1.479,1.735-2.144,4.024-1.824,6.281l7.486,52.83c0.554,3.909,3.827,6.782,7.782,6.832
				c5.039,0.063,10.078,0.124,15.117,0.173c3.707,0.035,7.413,0.088,11.12,0.141c3.414,0.049,6.829,0.097,10.243,0.132
				c3.599,0.037,7.198,0.067,10.797,0.098c5.121,0.043,10.242,0.085,15.363,0.149c9.337,0.117,19.138,0.205,29.129,0.262
				c5.4,0.03,10.799,0.087,16.199,0.143c4.778,0.051,9.557,0.101,14.335,0.132c4.688,0.031,9.376,0.039,14.064,0.047
				c5.537,0.01,11.074,0.02,16.61,0.066c10.796,0.093,20.228,0.112,28.837,0.053
				C1049.998,892.245,1051.447,892.241,1052.895,892.241z"/>
		</g>
		<g>
			
				<linearGradient id="SVGID_21_" gradientUnits="userSpaceOnUse" x1="5183.8203" y1="810.3389" x2="5045.3115" y2="980.6159" gradientTransform="matrix(-0.9922 -0.1247 -0.1247 0.9922 6647.5884 595.5908)">
				<stop  offset="0" style="stop-color:#FF928E"/>
				<stop  offset="1" style="stop-color:#FEB3B1"/>
			</linearGradient>
			<path fill="url(#SVGID_21_)" d="M1416.35,801.404c0.901-1.725,3.452-1.453,3.973,0.422c1.929,6.939,6.594,19.047,16.384,23.346
				c0.493,0.217,0.96,0.436,1.412,0.656c0.444-1.331,0.45-2.877-0.613-4.502c-3.044-4.652,2.451-11.005,2.451-11.005
				s0.363,5.595,4.616,9.118c3.664,3.035,5.422,9.787,2.919,15.327c-5.299,20.581-13.233,47.802,17.674,67.688
				s74.433-37.53,74.433-37.53l-21.603,68.484c0,0-33.345,24.606-72.129-9.994c-38.785-34.601-13.078-84.947-13.078-84.947
				S1403.206,826.533,1416.35,801.404z"/>
			<linearGradient id="SVGID_22_" gradientUnits="userSpaceOnUse" x1="1586.96" y1="781.6455" x2="1622.9583" y2="886.6408">
				<stop  offset="0" style="stop-color:#09005D"/>
				<stop  offset="1" style="stop-color:#1A0F91"/>
			</linearGradient>
			<path fill="url(#SVGID_22_)" d="M1545.01,764.301c0,0-8.954-40.165,37.055-29.533c0,0,22.333-3.648,23.469,17.431
				c0,0,14.396,9.485,3.855,27.728c0,0,42.783-16.525,61.424,20.975s1.506,58.135-16.456,63.509c0,0,14.553,7.308,7.664,23.806
				c-6.889,16.5-41.773,28.13-62.381,8.066c0,0-58.638,7.748-57.464-33.67c0,0-27.272-17.611,1.372-51.841
				C1572.193,776.541,1545.01,764.301,1545.01,764.301z"/>
			<linearGradient id="SVGID_23_" gradientUnits="userSpaceOnUse" x1="1538.4209" y1="997.1348" x2="1328.4" y2="1402.1746">
				<stop  offset="0" style="stop-color:#FE7062"/>
				<stop  offset="1" style="stop-color:#FF928E"/>
			</linearGradient>
			<path fill="url(#SVGID_23_)" d="M1542.483,857.401c9.245-2.772,36.164-7.889,61.769,15.74c4.343,4.007,6.118,10.097,4.569,15.8
				c-6.878,25.318-25.022,100.122-9.112,132.488c0,0-28.037,30.906-58.625,5.996c0,0-13.724-59.813-31.699-86.071
				c-12.41-18.128,19.789-68.075,27.936-80.142C1538.554,859.387,1540.372,858.034,1542.483,857.401z"/>
			<linearGradient id="SVGID_24_" gradientUnits="userSpaceOnUse" x1="1566.7002" y1="824.7197" x2="1560.7004" y2="983.7108">
				<stop  offset="0" style="stop-color:#FF928E"/>
				<stop  offset="1" style="stop-color:#FEB3B1"/>
			</linearGradient>
			<path fill="url(#SVGID_24_)" d="M1568.011,807.1c0,0,13.673,38.675,14.701,55.737c0,0-15.111,6.871-29.351-4.728
				c0,0-1.494-38.629-3.653-45.547L1568.011,807.1z"/>
			
				<linearGradient id="SVGID_25_" gradientUnits="userSpaceOnUse" x1="-6488.8877" y1="-1088.3052" x2="-6502.3867" y2="-1019.3091" gradientTransform="matrix(0.9602 0.2794 -0.2794 0.9602 8849.4551 1001.4688)">
				<stop  offset="0" style="stop-color:#FF928E"/>
				<stop  offset="1" style="stop-color:#FEB3B1"/>
			</linearGradient>
			<path fill="url(#SVGID_25_)" d="M1549.019,754.366c0,0-35.763,50.048-14.385,64.585c21.377,14.537,46.836-21.029,46.836-21.029
				s8.298-27.394-0.379-36.686C1572.414,751.943,1549.019,754.366,1549.019,754.366z"/>
			<linearGradient id="SVGID_26_" gradientUnits="userSpaceOnUse" x1="1580.1592" y1="783.9785" x2="1616.1567" y2="888.9718">
				<stop  offset="0" style="stop-color:#09005D"/>
				<stop  offset="1" style="stop-color:#1A0F91"/>
			</linearGradient>
			<path fill="url(#SVGID_26_)" d="M1565.571,742.406c0,0-16.429,3.893-18.731,11.326s23.298,14.327,30.472,14.664l5.779,29.997
				c0,0,17.086-28.219,10.318-44.516C1586.641,737.58,1565.571,742.406,1565.571,742.406z"/>
			
				<linearGradient id="SVGID_27_" gradientUnits="userSpaceOnUse" x1="-6462.9595" y1="-1083.167" x2="-6476.4585" y2="-1014.1724" gradientTransform="matrix(0.9602 0.2794 -0.2794 0.9602 8849.4551 1001.4688)">
				<stop  offset="0" style="stop-color:#FF928E"/>
				<stop  offset="1" style="stop-color:#FEB3B1"/>
			</linearGradient>
			<path fill="url(#SVGID_27_)" d="M1574.537,794.239c0,0,13.92-16.121,19.456-5.611c5.537,10.51-12.529,18.399-18.783,13.24
				L1574.537,794.239z"/>
			<linearGradient id="SVGID_28_" gradientUnits="userSpaceOnUse" x1="1587.2168" y1="1293.7734" x2="1806.2063" y2="1364.27">
				<stop  offset="0" style="stop-color:#FF928E"/>
				<stop  offset="1" style="stop-color:#FEB3B1"/>
			</linearGradient>
			<path fill="url(#SVGID_28_)" d="M1505.376,1153.01c0.105,2.715-4.662,24.254-7.257,35.742c-1.044,4.623-0.316,9.461,2.037,13.573
				l89.856,151.233c1.087,1.83,1.878,3.811,2.359,5.884c1.646,7.097,5.062,24.49,3.278,40.313l-4.648,9.654l20.104-4.564
				l4.374-53.988l-5.691-3.471c-4.917-2.998-8.745-7.479-10.938-12.805c-8.125-19.736-28.302-69.977-33.503-94.46
				c-5.911-27.826-36.812-50.427-36.812-50.427l5.429-12.834L1505.376,1153.01z"/>
			
				<linearGradient id="SVGID_29_" gradientUnits="userSpaceOnUse" x1="4868.042" y1="1378.8926" x2="4916.293" y2="1378.8926" gradientTransform="matrix(-1 -0.0095 -0.0095 1 6514.6377 48.4873)">
				<stop  offset="0" style="stop-color:#09005D"/>
				<stop  offset="1" style="stop-color:#1A0F91"/>
			</linearGradient>
			<path fill="url(#SVGID_29_)" d="M1633.448,1386.268c0,0-10.855-17.211-12.133-23.912c-1.277-6.699-4.833-18.531-11.526-14.969
				c0,0-3.154,32.546-2.067,45.264c1.088,12.717-14.376,12.308-14.376,12.308s-4.262,0.599-7.383,3.72
				c-2.155,2.154-0.614,5.893,2.428,6.088c5.06,0.326,13.098,0.412,21.537-1.219c2.95-0.57,5.137-3.08,5.314-6.079l2.229-37.458
				l13.694,17.292L1633.448,1386.268z"/>
			
				<linearGradient id="SVGID_30_" gradientUnits="userSpaceOnUse" x1="5067.9863" y1="1250.7285" x2="4821.1113" y2="1329.6711" gradientTransform="matrix(-1 -0.0095 -0.0095 1 6514.6377 48.4873)">
				<stop  offset="0" style="stop-color:#FF928E"/>
				<stop  offset="1" style="stop-color:#FEB3B1"/>
			</linearGradient>
			<path fill="url(#SVGID_30_)" d="M1559.056,1177.1c0,0,3.169,135.277,3.599,154.49c0.429,19.213-3.034,61.79-22.295,74.517
				l8.381,6.205c0,0,10.475-8.901,20.707-26.034c11.494-19.246,14.971-22.763,14.971-22.763l-3.814-7.812
				c-1.67-3.42-2.161-7.288-1.392-11.016c4.156-20.145,18.041-87.147,21.828-101.577c4.472-17.032,4.789-39.778-10.765-58.818
				C1574.721,1165.252,1559.056,1177.1,1559.056,1177.1z"/>
			
				<linearGradient id="SVGID_31_" gradientUnits="userSpaceOnUse" x1="4912.7764" y1="1387.6074" x2="4970.2959" y2="1387.6074" gradientTransform="matrix(-1 -0.0095 -0.0095 1 6514.6377 48.4873)">
				<stop  offset="0" style="stop-color:#09005D"/>
				<stop  offset="1" style="stop-color:#1A0F91"/>
			</linearGradient>
			<path fill="url(#SVGID_31_)" d="M1576.841,1418.408c0.598,0.006,1.106-0.422,1.189-1.014c0.642-4.51,3.31-22.591,5.493-27.272
				c2.501-5.361,10.671-27.929-0.004-29.845c0,0-26.541,38.775-31.635,44.004c-5.096,5.227-11.525,1.825-11.525,1.825
				s-4.963,1.467-8.707,6.251c-1.781,2.276-0.122,5.619,2.77,5.646l17.876,0.17c5.191,0.05,9.861-3.104,11.791-7.924
				c3.146-7.859,8.553-19.388,14.853-24.502l-3.273,31.346C1575.595,1417.792,1576.139,1418.402,1576.841,1418.408
				L1576.841,1418.408z"/>
			<linearGradient id="SVGID_32_" gradientUnits="userSpaceOnUse" x1="1605.0234" y1="1017.2246" x2="1485.0111" y2="1320.256">
				<stop  offset="0" style="stop-color:#09005D"/>
				<stop  offset="1" style="stop-color:#1A0F91"/>
			</linearGradient>
			<path fill="url(#SVGID_32_)" d="M1536.853,1012.841c0,0,4.028,12.839-2.16,33.988l-38.391,134.063
				c-0.604,2.105,0.533,4.311,2.596,5.051c11.483,4.121,49.233,15.771,100.766,12.219c2.594-0.18,4.77-2.017,5.334-4.555
				c3.396-15.284,14.98-67.431,17.366-78.145c9.089-40.827,19.237-84.855-25.408-111.479
				C1576.379,1012.798,1557.188,1017.992,1536.853,1012.841z"/>
			<linearGradient id="SVGID_33_" gradientUnits="userSpaceOnUse" x1="1664.7578" y1="845.6064" x2="1607.7604" y2="973.1003">
				<stop  offset="0" style="stop-color:#FF928E"/>
				<stop  offset="1" style="stop-color:#FEB3B1"/>
			</linearGradient>
			<path fill="url(#SVGID_33_)" d="M1607.916,878.193c0,0,43.681,36.301,54.521,85.904s-63.828,54.875-63.828,54.875
				s-10.137-11.318-22.171-7.281c-12.034,4.036-0.932-19.756,13.148-19.693s7.558,11.196,27.476,2.174
				c19.403-8.789,31.396-35.971-18.109-77.175c-2.869-2.388-5.159-5.433-6.538-8.903
				C1582.797,883.885,1590.425,868.014,1607.916,878.193z"/>
		</g>
		<g>
			<g>
				<path fill="#011993" d="M88.989,1262.344l823.48,29.211l-3.832,121.205l-826.071-21.943
					c-17.545-0.465-32.187-13.456-34.813-30.81c-2.697-17.826-1.792-43.651,11.149-77.741
					C63.609,1269.871,75.74,1261.873,88.989,1262.344z"/>
				<g>
					<path fill="#011993" d="M1146.63,1352.594l-104.553-27.254c-5.331,13.766-7.869,33.298-0.727,59.689l105.022-21.943
						C1151.949,1361.922,1152.142,1354.031,1146.63,1352.594z"/>
					
						<linearGradient id="SVGID_34_" gradientUnits="userSpaceOnUse" x1="1431.4316" y1="256.3247" x2="882.246" y2="820.7236" gradientTransform="matrix(0.9297 0.3683 -0.3683 0.9297 -115.2607 508.0581)">
						<stop  offset="0" style="stop-color:#FF928E"/>
						<stop  offset="1" style="stop-color:#FEB3B1"/>
					</linearGradient>
					<path fill="url(#SVGID_34_)" d="M912.47,1291.555c-30.901,64.67-3.832,121.205-3.832,121.205l132.713-27.73
						c-7.143-26.392-4.604-45.924,0.727-59.689L912.47,1291.555z"/>
				</g>
			</g>
			
				<linearGradient id="SVGID_35_" gradientUnits="userSpaceOnUse" x1="1096.5322" y1="272.8081" x2="600.9005" y2="782.1696" gradientTransform="matrix(0.9297 0.3683 -0.3683 0.9297 -115.2607 508.0581)">
				<stop  offset="0" style="stop-color:#4042E2"/>
				<stop  offset="1" style="stop-color:#4F52FF"/>
			</linearGradient>
			<path fill="url(#SVGID_35_)" d="M85.058,1298.418c-0.875-0.346-1.478-1.213-1.439-2.206c0.046-1.26,1.106-2.241,2.365-2.194
				l787.236,29.499c1.263,0.05,2.244,1.106,2.193,2.364c-0.045,1.26-1.106,2.242-2.364,2.194l-787.236-29.499
				C85.546,1298.566,85.292,1298.512,85.058,1298.418z"/>
			
				<linearGradient id="SVGID_36_" gradientUnits="userSpaceOnUse" x1="1109.3477" y1="317.5693" x2="613.715" y2="826.9318" gradientTransform="matrix(0.9297 0.3683 -0.3683 0.9297 -115.2607 508.0581)">
				<stop  offset="0" style="stop-color:#4042E2"/>
				<stop  offset="1" style="stop-color:#4F52FF"/>
			</linearGradient>
			<path fill="url(#SVGID_36_)" d="M80.485,1344.754c-0.874-0.346-1.478-1.213-1.438-2.207c0.046-1.26,1.106-2.241,2.365-2.193
				l787.236,29.496c1.263,0.051,2.243,1.104,2.194,2.365c-0.046,1.26-1.106,2.242-2.365,2.193L81.24,1344.912
				C80.974,1344.902,80.72,1344.848,80.485,1344.754z"/>
		</g>
		<g>
			
				<linearGradient id="SVGID_37_" gradientUnits="userSpaceOnUse" x1="540.1084" y1="914.5293" x2="557.1084" y2="826.5292" gradientTransform="matrix(1 0 0 1 -123.2061 0)">
				<stop  offset="0" style="stop-color:#FF928E"/>
				<stop  offset="1" style="stop-color:#FEB3B1"/>
			</linearGradient>
			<path fill="url(#SVGID_37_)" d="M447.57,761.732c0,0-4.076-7.373-3.638-13.304c0.438-5.932-3.258-14.644,0.675-13.999
				c3.934,0.645,4.745,0.119,5.813,7.236C451.489,748.785,461.091,775.037,447.57,761.732z"/>
			<g>
				
					<linearGradient id="SVGID_38_" gradientUnits="userSpaceOnUse" x1="-2466.9946" y1="1396.5039" x2="-2680.0486" y2="1563.7944" gradientTransform="matrix(-1 0 0 1 -2279.0859 0)">
					<stop  offset="0" style="stop-color:#4042E2"/>
					<stop  offset="1" style="stop-color:#4F52FF"/>
				</linearGradient>
				<path fill="url(#SVGID_38_)" d="M257.621,1439.229c14.328-0.4,21.738-2.088,25.569-3.654c0.009,1.424,0,2.875-0.045,4.377
					c-0.05,1.604-1.238,2.886-2.7,2.876l-78.667-0.508c-2.51-0.017-3.978-2.928-2.89-5.229
					C209.203,1437.941,235.473,1439.848,257.621,1439.229z"/>
				
					<linearGradient id="SVGID_39_" gradientUnits="userSpaceOnUse" x1="413.4839" y1="1218.7813" x2="384.9849" y2="1344.7766" gradientTransform="matrix(1 0 0 1 -123.2061 0)">
					<stop  offset="0" style="stop-color:#09005D"/>
					<stop  offset="1" style="stop-color:#1A0F91"/>
				</linearGradient>
				<path fill="url(#SVGID_39_)" d="M279.833,1409.065c-1.802-6.396-7.708-10.736-14.351-10.526l-6.57,0.207
					c-34.965,8.384-52.66,27.714-59.607,37.422c-0.135,0.188-0.216,0.393-0.312,0.593c10.315,0.853,36.585,2.759,58.733,2.14
					c14.328-0.402,21.738-2.089,25.569-3.654C283.23,1424.061,281.58,1415.27,279.833,1409.065z"/>
			</g>
			
				<linearGradient id="SVGID_40_" gradientUnits="userSpaceOnUse" x1="386.4526" y1="1350.7188" x2="375.2659" y2="1448.3486" gradientTransform="matrix(1 0 0 1 -123.2061 0)">
				<stop  offset="0" style="stop-color:#FF928E"/>
				<stop  offset="1" style="stop-color:#FEB3B1"/>
			</linearGradient>
			<path fill="url(#SVGID_40_)" d="M247.866,1376.176l5.494,26.45c0.403,1.938,1.892,3.39,3.696,3.559
				c2.208,0.207,5.351,0.329,8.512-0.136c2.835-0.416,4.809-3.297,4.306-6.389l-3.819-23.484H247.866z"/>
			<g>
				
					<linearGradient id="SVGID_41_" gradientUnits="userSpaceOnUse" x1="554.6265" y1="1396.5039" x2="341.57" y2="1563.7964" gradientTransform="matrix(1 0 0 1 -123.2061 0)">
					<stop  offset="0" style="stop-color:#4042E2"/>
					<stop  offset="1" style="stop-color:#4F52FF"/>
				</linearGradient>
				<path fill="url(#SVGID_41_)" d="M361.707,1439.229c-14.327-0.4-21.738-2.088-25.569-3.654c-0.009,1.424-0.001,2.875,0.045,4.377
					c0.05,1.604,1.238,2.886,2.7,2.876l78.667-0.508c2.511-0.017,3.978-2.928,2.89-5.229
					C410.125,1437.941,383.854,1439.848,361.707,1439.229z"/>
				
					<linearGradient id="SVGID_42_" gradientUnits="userSpaceOnUse" x1="542.7988" y1="1248.0313" x2="514.2999" y2="1374.0266" gradientTransform="matrix(1 0 0 1 -123.2061 0)">
					<stop  offset="0" style="stop-color:#09005D"/>
					<stop  offset="1" style="stop-color:#1A0F91"/>
				</linearGradient>
				<path fill="url(#SVGID_42_)" d="M420.439,1437.09c-0.095-0.201-0.176-0.404-0.311-0.594
					c-6.948-9.707-24.642-29.037-59.607-37.422l-16.773-0.528c0,0-7.469,12.981-7.61,37.028c3.831,1.566,11.242,3.254,25.569,3.654
					C383.854,1439.848,410.125,1437.941,420.439,1437.09z"/>
			</g>
			
				<linearGradient id="SVGID_43_" gradientUnits="userSpaceOnUse" x1="477.5762" y1="1361.1582" x2="466.3893" y2="1458.79" gradientTransform="matrix(1 0 0 1 -123.2061 0)">
				<stop  offset="0" style="stop-color:#FF928E"/>
				<stop  offset="1" style="stop-color:#FEB3B1"/>
			</linearGradient>
			<path fill="url(#SVGID_43_)" d="M340.637,1373.125c0.187,1.25,2.485,20.253,3.376,27.621c0.211,1.75,1.479,3.105,3.079,3.297
				c2.856,0.34,7.478,0.651,11.521-0.178c2.181-0.447,3.76-2.543,3.76-4.979v-29.829L340.637,1373.125z"/>
			<linearGradient id="SVGID_44_" gradientUnits="userSpaceOnUse" x1="473.1992" y1="916.9229" x2="671.2195" y2="586.8895">
				<stop  offset="0" style="stop-color:#4042E2"/>
				<stop  offset="1" style="stop-color:#4F52FF"/>
			</linearGradient>
			<path fill="url(#SVGID_44_)" d="M327.18,1026.336c0,0,40.457,153.75,39.725,347.229c-0.013,3.527-2.49,6.572-5.942,7.299
				c-5.086,1.072-12.563,2.344-18.754,2.17c-3.304-0.092-6.066-2.543-6.623-5.801c-5.672-33.268-38.227-220.674-56.775-251.1
				c0,0-12.203,166.913-8.302,253.509c0.097,2.153-1.48,4.021-3.621,4.269c-3.248,0.375-8.444,0.66-15.056-0.042
				c-2.51-0.267-4.536-2.163-4.894-4.663c-4.041-28.154-27.297-195.738-26.309-316.461c0.056-6.808,18.003-36.408,18.003-36.408
				H327.18z"/>
			
				<linearGradient id="SVGID_45_" gradientUnits="userSpaceOnUse" x1="323.6963" y1="854.4629" x2="362.9233" y2="741.8436" gradientTransform="matrix(1 0 0 1 -123.2061 0)">
				<stop  offset="0" style="stop-color:#53D8FF"/>
				<stop  offset="1" style="stop-color:#3840F7"/>
			</linearGradient>
			<path fill="url(#SVGID_45_)" d="M201.066,892.619c-10.997-30.096-7.007-66.438-6.966-66.801l3.03,0.346
				c-0.04,0.357-3.945,36.002,6.802,65.408L201.066,892.619z"/>
			<g>
				
					<linearGradient id="SVGID_46_" gradientUnits="userSpaceOnUse" x1="581.1289" y1="922.4531" x2="598.1289" y2="834.4531" gradientTransform="matrix(1 0 0 1 -123.2061 0)">
					<stop  offset="0" style="stop-color:#FF928E"/>
					<stop  offset="1" style="stop-color:#FEB3B1"/>
				</linearGradient>
				<path fill="url(#SVGID_46_)" d="M482.96,905.208c9.079-49.394-3.95-130.8-3.95-130.8l-17.747,18.393
					c0,0-2.997,66.453-15.631,93.953C453.948,887.745,470.068,891.457,482.96,905.208z"/>
				<linearGradient id="SVGID_47_" gradientUnits="userSpaceOnUse" x1="398.4473" y1="750.293" x2="574.4479" y2="454.2919">
					<stop  offset="0" style="stop-color:#FE7062"/>
					<stop  offset="1" style="stop-color:#FF928E"/>
				</linearGradient>
				<path fill="url(#SVGID_47_)" d="M445.633,886.754c-2.385,5.191-5.112,9-8.228,10.706c-11.408,6.264-33.539-29.478-50.033-60.453
					c-11.863-22.265-20.822-42.062-20.822-42.062c-11.863-13.4-41.245-15.242-68.577-13.533
					c-28.452,1.766-54.645,7.365-56.543,7.781c-0.076,0.02-0.114,0.02-0.114,0.02c-13.097,1.729-24.466,3.17-32.685,4.214
					c-9.604,1.215-18.392,5.96-24.732,13.286c-25.111,29.061-80.23,108.646-15.355,188.84c8.294-4.613,20.101-11.996,28.111-20.557
					c-7.175-20.233-7.763-46.086,7.269-77.803c0.512,2.525,1.158,5.012,1.917,7.461c20.746,65.672,21.847,120.337,21.79,132.921
					c0,1.728,1.025,3.265,2.619,3.892c27.275,10.933,79.814,4.422,97.428,1.803c3.246-0.475,5.41-3.492,4.973-6.738
					c-5.258-38.094,9.092-91.127,23.783-132.674c86.209,85.431,117.001,53.175,126.527,1.351
					C470.068,891.457,453.948,887.745,445.633,886.754z"/>
			</g>
			
				<linearGradient id="SVGID_48_" gradientUnits="userSpaceOnUse" x1="291.7432" y1="1028.998" x2="390.7881" y2="1028.998" gradientTransform="matrix(1 0 0 1 -123.2061 0)">
				<stop  offset="0" style="stop-color:#FF928E"/>
				<stop  offset="1" style="stop-color:#FEB3B1"/>
			</linearGradient>
			<path fill="url(#SVGID_48_)" d="M244.841,1030.123c-7.487-4.201-36.524-22.234-48.193-55.127
				c-8.013,8.552-19.81,15.941-28.111,20.55c12.397,15.323,29.173,30.67,51.381,45.69l0,0c0.788,17.092,13.925,23.418,16.931,28.955
				c3.005,5.535-1.266,4.27,0.633,11.229c1.897,6.96,21.828-11.072,26.573-15.184c4.746-4.113,1.898-15.502,1.898-15.502
				s0.316-2.371,1.582-7.117C268.797,1038.882,244.938,1030.158,244.841,1030.123z"/>
			<g>
				
					<linearGradient id="SVGID_49_" gradientUnits="userSpaceOnUse" x1="411.165" y1="725.4746" x2="368.4528" y2="910.0522" gradientTransform="matrix(1 0 0 1 -123.2061 0)">
					<stop  offset="0" style="stop-color:#FF928E"/>
					<stop  offset="1" style="stop-color:#FEB3B1"/>
				</linearGradient>
				<path fill="url(#SVGID_49_)" d="M255.685,739.848l-5.258,53.726c0,0,30.224,9.103,52.207-6.407l-15.454-48.828L255.685,739.848z
					"/>
				<g>
					<linearGradient id="SVGID_50_" gradientUnits="userSpaceOnUse" x1="331.7432" y1="719.5093" x2="258.7438" y2="731.5092">
						<stop  offset="0" style="stop-color:#FF928E"/>
						<stop  offset="1" style="stop-color:#FEB3B1"/>
					</linearGradient>
					<path fill="url(#SVGID_50_)" d="M306.988,694.061c0.359,0.932,1.878,66.966,1.878,66.966l-37.723,0.065l-10.738-62.372
						C260.405,698.721,300.978,678.454,306.988,694.061z"/>
					
						<linearGradient id="SVGID_51_" gradientUnits="userSpaceOnUse" x1="-894.6587" y1="-1306.7285" x2="-804.146" y2="-1306.7285" gradientTransform="matrix(0.9332 -0.3594 0.3594 0.9332 1552.4504 1640.9756)">
						<stop  offset="0" style="stop-color:#09005D"/>
						<stop  offset="1" style="stop-color:#1A0F91"/>
					</linearGradient>
					<path fill="url(#SVGID_51_)" d="M273.334,706.518c-1.225,1.151-1.849,2.792-1.694,4.466l3.037,32.795
						c0.046,0.498,0.154,0.98,0.336,1.445c1.004,2.565,4.859,10.477,12.888,6.086c6.843-3.74,13.184-7.085,18.333-7.246
						c3.007-0.094,5.488,2.328,5.546,5.336c0.12,6.195,0.108,18.703-1.463,29.813c-0.394,2.785-2.888,4.78-5.694,4.603
						c-7.407-0.469-21.844-1.814-33.439-5.539c-1.904-0.612-3.311-2.216-3.674-4.183c-1.598-8.657-6.176-32.903-8.522-39.55
						c-2.18-6.174-10.65-8.313-14.607-8.984c-1.502-0.255-2.82-1.113-3.655-2.387c-2.507-3.82-6.12-12.07,3.817-18.322
						c2.471-1.554,3.183-4.864,1.679-7.366c-2.693-4.484-4.63-11.401,3.227-17.32c7.954-5.991,15.659-3.17,20.377-0.147
						c2.088,1.337,4.899,1.256,6.743-0.401c0.82-0.737,1.945-1.161,3.474-0.773c2.884,0.729,5.764-0.845,6.513-3.724
						c1.284-4.936,4.766-10.477,13.873-10.976c16.702-0.915,22.586,16.482,20.728,27.888c-1.859,11.405-20.024,11.367-29.881,8.08
						C284.033,697.698,276.711,703.348,273.334,706.518z"/>
					
						<linearGradient id="SVGID_52_" gradientUnits="userSpaceOnUse" x1="-947.77" y1="-1251.4185" x2="-886.9921" y2="-1313.775" gradientTransform="matrix(0.9332 -0.3594 0.3594 0.9332 1552.4504 1640.9756)">
						<stop  offset="0" style="stop-color:#FF928E"/>
						<stop  offset="1" style="stop-color:#FEB3B1"/>
					</linearGradient>
					<path fill="url(#SVGID_52_)" d="M260.231,746.65c0,0,2.387-20.012-5.437-22.996c-7.823-2.983-17.341,1.664-12.069,14.564
						C249.283,754.266,260.231,746.65,260.231,746.65z"/>
				</g>
			</g>
			<g>
				<linearGradient id="SVGID_53_" gradientUnits="userSpaceOnUse" x1="421.9131" y1="685.9082" x2="388.9149" y2="783.4026">
					<stop  offset="0" style="stop-color:#FE7062"/>
					<stop  offset="1" style="stop-color:#FF928E"/>
				</linearGradient>
				<path fill="url(#SVGID_53_)" d="M357.06,902.053c-0.039,0-0.079-0.002-0.119-0.007c-0.52-0.065-0.889-0.538-0.823-1.06
					c0.052-0.416,5.166-41.896,2.39-53.846c-0.119-0.51,0.198-1.02,0.709-1.139c0.507-0.127,1.021,0.198,1.139,0.709
					c2.853,12.277-2.141,52.792-2.354,54.512C357.941,901.702,357.532,902.053,357.06,902.053z"/>
			</g>
			<g>
				<linearGradient id="SVGID_54_" gradientUnits="userSpaceOnUse" x1="477.936" y1="587.8594" x2="472.6027" y2="643.8595">
					<stop  offset="0" style="stop-color:#09005D"/>
					<stop  offset="1" style="stop-color:#1A0F91"/>
				</linearGradient>
				<path fill="url(#SVGID_54_)" d="M477.292,717.702c-0.044-1.114-0.582-2.149-1.466-2.827c-0.885-0.677-2.025-0.926-3.112-0.679
					l-27.13,6.171c-1.053,0.239-1.759,1.232-1.639,2.306l7.888,70.515c0.034,0.305,0.188,0.582,0.428,0.772
					c0.24,0.189,0.546,0.276,0.849,0.239l23.682-2.87c1.939-0.235,3.374-1.92,3.295-3.872L477.292,717.702z"/>
				
					<linearGradient id="SVGID_55_" gradientUnits="userSpaceOnUse" x1="606.0586" y1="723.0435" x2="524.1741" y2="838.5737" gradientTransform="matrix(1 0 0 1 -123.2061 0)">
					<stop  offset="0" style="stop-color:#4042E2"/>
					<stop  offset="1" style="stop-color:#4F52FF"/>
				</linearGradient>
				<path fill="url(#SVGID_55_)" d="M469.663,721.771c-0.035-0.632-0.35-1.215-0.86-1.591s-1.16-0.504-1.774-0.351l-17.85,4.462
					c-1.032,0.258-1.714,1.24-1.595,2.297l6.772,60.05c0.036,0.314,0.2,0.602,0.454,0.79c0.254,0.189,0.575,0.266,0.887,0.21
					l16.46-2.93c0.571-0.102,0.977-0.613,0.944-1.192L469.663,721.771z"/>
				
					<linearGradient id="SVGID_56_" gradientUnits="userSpaceOnUse" x1="503.4531" y1="1528.8633" x2="496.4965" y2="1538.6783" gradientTransform="matrix(0.9792 -0.2029 0.1066 0.5144 -198.7732 34.8242)">
					<stop  offset="0" style="stop-color:#4042E2"/>
					<stop  offset="1" style="stop-color:#4F52FF"/>
				</linearGradient>
				<path fill="url(#SVGID_56_)" d="M459.406,720.154c0.044,0.212-0.249,0.453-0.653,0.537l-5.969,1.237
					c-0.404,0.083-0.769-0.021-0.813-0.233l-0.043-0.207c-0.044-0.212,0.249-0.453,0.653-0.537l5.969-1.237
					c0.405-0.084,0.769,0.02,0.813,0.233L459.406,720.154z"/>
			</g>
			
				<linearGradient id="SVGID_57_" gradientUnits="userSpaceOnUse" x1="568.1157" y1="919.9404" x2="585.1157" y2="831.9402" gradientTransform="matrix(1 0 0 1 -123.2061 0)">
				<stop  offset="0" style="stop-color:#FF928E"/>
				<stop  offset="1" style="stop-color:#FEB3B1"/>
			</linearGradient>
			<path fill="url(#SVGID_57_)" d="M486.715,735.618c-4.383-1.615-12.96-16.458-14.604-11.575c-1.643,4.883,0.694,11.575,0,13.652
				c-0.694,2.076-5.439,13.613-3.303,18.921c1.541,3.83,4.083,15.615,5.378,21.88c0.43,2.079,2.261,3.57,4.385,3.572
				c2.124,0,3.956-1.489,4.388-3.568C483.134,777.666,491.099,737.233,486.715,735.618z"/>
		</g>
	</g>
</g>
</svg>
