<?xml version="1.0" encoding="utf-8"?>
<!-- Generator: Adobe Illustrator 16.0.0, SVG Export Plug-In . SVG Version: 6.00 Build 0)  -->
<!DOCTYPE svg PUBLIC "-//W3C//DTD SVG 1.1//EN" "http://www.w3.org/Graphics/SVG/1.1/DTD/svg11.dtd">
<svg version="1.1" id="Layer_1" xmlns="http://www.w3.org/2000/svg" xmlns:xlink="http://www.w3.org/1999/xlink" x="0px" y="0px"
	 width="400.382px" height="243.691px" viewBox="0 0 400.382 243.691" enable-background="new 0 0 400.382 243.691"
	 xml:space="preserve">
<g id="Astronaut">
	<linearGradient id="SVGID_1_" gradientUnits="userSpaceOnUse" x1="153.5049" y1="136.5332" x2="133.5108" y2="162.5752">
		<stop  offset="0" style="stop-color:#E5F2FC"/>
		<stop  offset="0.2415" style="stop-color:#B6C3CC"/>
	</linearGradient>
	<path fill="url(#SVGID_1_)" d="M151.023,150.792c-0.853-0.369-1.702-0.79-2.555-1.278l-3.285,2.127
		c-0.975-5.05,1.521-17.275,1.521-17.275C146.705,140.39,150.599,149.877,151.023,150.792z"/>
	<linearGradient id="SVGID_2_" gradientUnits="userSpaceOnUse" x1="220.1543" y1="61.8906" x2="225.1008" y2="77.7467">
		<stop  offset="0.3243" style="stop-color:#E5F2FC"/>
		<stop  offset="0.4927" style="stop-color:#BECDD6"/>
	</linearGradient>
	<path fill="url(#SVGID_2_)" d="M228.95,67.088c-3.588,3.22-12.775,5.049-12.775,5.049c6.936-2.133,11.314-5.964,11.314-5.964
		S227.977,66.535,228.95,67.088z"/>
	<linearGradient id="SVGID_3_" gradientUnits="userSpaceOnUse" x1="209.9961" y1="173.582" x2="253.3456" y2="80.7989">
		<stop  offset="0.2163" style="stop-color:#AEB7B4"/>
		<stop  offset="0.6272" style="stop-color:#E2E7E7"/>
	</linearGradient>
	<path fill="url(#SVGID_3_)" d="M241.868,115.302c0,2.561-2.073,4.64-4.64,4.64c-2.561,0-4.646-2.079-4.646-4.64
		c0-2.572,2.085-4.646,4.646-4.646C239.795,110.656,241.868,112.729,241.868,115.302z"/>
	<linearGradient id="SVGID_4_" gradientUnits="userSpaceOnUse" x1="212.0938" y1="23.54" x2="255.0855" y2="129.3074">
		<stop  offset="0.2392" style="stop-color:#E5F2FC"/>
		<stop  offset="0.708" style="stop-color:#BECDD6"/>
	</linearGradient>
	<path fill="url(#SVGID_4_)" d="M267.395,78.523L228.22,95.496c-6.63-4.076-13.019-8.638-19.708-12.535
		c-2.008-1.218-4.319-2.067-6.146-3.588c-1.945-1.706-1.642-3.832-0.971-6.084c0.728-2.494,1.521-4.924,2.311-7.359
		c1.58-4.991,3.223-9.916,5.172-14.781c1.58-4.016,3.282-8.031,5.168-11.923c0.428-0.855,5.599-9.979,5.78-9.979
		c0,0,8.395,7.182,15.33,7.359l-7.666,29.567c0,0,0.487,0.362,1.461,0.915c2.677,1.639,8.943,5.049,15.511,5.353
		C244.461,72.44,260.278,71.525,267.395,78.523z"/>
	<linearGradient id="SVGID_5_" gradientUnits="userSpaceOnUse" x1="319.7246" y1="191.4219" x2="241.773" y2="96.4348">
		<stop  offset="0.2567" style="stop-color:#E5F2FC"/>
		<stop  offset="0.6585" style="stop-color:#9CA7AE"/>
	</linearGradient>
	<path fill="url(#SVGID_5_)" d="M315.301,85.171c1.206-0.672,8.281,6.647,8.988,7.396c5.821,6.142,10.503,16.224,4.848,23.727
		c-6.166,8.156-16.325,14.222-23.988,21.013c-8.703,7.716-18.019,14.744-27.868,20.929c-5.472,3.439-11.108,6.605-16.901,9.481
		c-11.073,5.501-23.792,9.166-36.237,9.445c0,0-7.42,0.297-10.094-21.678l59.829-38.002l15.885-8.026l6.832-13.979
		C296.594,95.478,315.289,85.177,315.301,85.171z"/>
	<linearGradient id="SVGID_6_" gradientUnits="userSpaceOnUse" x1="136.9912" y1="46.3877" x2="129.0904" y2="210.933">
		<stop  offset="0.2392" style="stop-color:#E5F2FC"/>
		<stop  offset="0.3565" style="stop-color:#BECDD6"/>
	</linearGradient>
	<path fill="url(#SVGID_6_)" d="M200.474,119.175l-8.694,13.064l-16.628,9.076l-31.685-28.883
		c-5.513,0.992-13.827,1.277-22.949,1.141c-4.701-0.048-9.597-0.238-14.394-0.428c-18.529-0.903-35.87-2.709-35.87-2.709
		c-5.555-12.643-0.424-29.645-0.424-29.645c11.97-1.378,27.648-2.946,42.375-4.372c5.608-0.528,11.118-1.004,16.156-1.473
		c6.285-0.576,12.57-1.153,18.855-1.699c6.739-0.595,9.748-0.487,14.344,4.574c3.409,3.743,6.95,7.401,10.423,11.103
		c7.72,8.229,15.487,16.408,23.213,24.612C196.96,115.421,198.712,117.304,200.474,119.175z"/>
	<linearGradient id="SVGID_7_" gradientUnits="userSpaceOnUse" x1="49.2749" y1="44.4023" x2="47.754" y2="155.9272">
		<stop  offset="0.2392" style="stop-color:#E5F2FC"/>
		<stop  offset="0.5859" style="stop-color:#BECDD6"/>
	</linearGradient>
	<path fill="url(#SVGID_7_)" d="M54.39,63.356c-4.8-1.526-14.774-7.788-18.909-4.515c-1.093,0.855-1.759,2.376-1.806,4.8
		c-0.092,3.564-0.285,7.171-0.333,10.782c-0.044,1.848-0.095,3.66-0.044,5.514c0.158,8.994,0.603,18,0.776,26.994
		c0.822,1.854,1.978,3.813,3.615,5.501h26.204V80.364L54.39,63.356z"/>
	<linearGradient id="SVGID_8_" gradientUnits="userSpaceOnUse" x1="253.7793" y1="117.459" x2="294.116" y2="160.7166">
		<stop  offset="0.2091" style="stop-color:#E5F2FC"/>
		<stop  offset="0.562" style="stop-color:#BECDD6"/>
	</linearGradient>
	<path fill="url(#SVGID_8_)" d="M287.528,114.542c0,0-14.597,5.887-22.2,17.542l-13.807,22.063l27.47-18.63l8.537-5.655V114.542z"/>
	<linearGradient id="SVGID_9_" gradientUnits="userSpaceOnUse" x1="305.3848" y1="95.7051" x2="343.4012" y2="204.8123">
		<stop  offset="0.2804" style="stop-color:#E5F2FC"/>
		<stop  offset="0.6243" style="stop-color:#BECDD6"/>
	</linearGradient>
	<path fill="url(#SVGID_9_)" d="M361.021,140.021c-9.636,5.032-19.907,8.911-30.423,11.656c-8.405,2.191-16.9,3.678-25.521,4.698
		c-5.056,0.601-10.207,0.904-15.298,0.886c-4.883-0.018-7.432-5.899-8.815-9.678c-1.432-3.92-1.961-7.972-1.942-12.13
		c0.006-0.826,0.018-1.658,0.112-2.483c0.915-21.601,22.937-26.098,22.937-26.098c5.354,4.438,8.336,11.798,9.731,15.998
		c0.611,1.942,0.855,3.22,0.855,3.22c11.252-0.605,43.313-7.176,43.313-7.176L361.021,140.021z"/>
	<linearGradient id="SVGID_10_" gradientUnits="userSpaceOnUse" x1="302.4844" y1="119.9141" x2="311.7395" y2="138.3769">
		<stop  offset="0.1993" style="stop-color:#E5F2FC"/>
		<stop  offset="0.6457" style="stop-color:#BECDD6"/>
	</linearGradient>
	<path fill="url(#SVGID_10_)" d="M312.657,126.09c0,0-7.545,0.428-12.41,4.99c0.605-0.79,5.597-7.235,11.495-8.21h0.06
		C312.413,124.813,312.657,126.09,312.657,126.09z"/>
	<linearGradient id="SVGID_11_" gradientUnits="userSpaceOnUse" x1="166.7163" y1="105.8496" x2="131.9772" y2="105.3385">
		<stop  offset="0.1378" style="stop-color:#E5F2FC"/>
		<stop  offset="0.3414" style="stop-color:#B6C3CC"/>
	</linearGradient>
	<path fill="url(#SVGID_11_)" d="M144.958,113.793c0,0,2.272-12.125,6.065-16.438c0,0-9.639,8.613-10.654,15.077L144.958,113.793z"
		/>
	<linearGradient id="SVGID_12_" gradientUnits="userSpaceOnUse" x1="291.9238" y1="36.9473" x2="318.5392" y2="156.3368">
		<stop  offset="0.2313" style="stop-color:#E5F2FC"/>
		<stop  offset="0.5772" style="stop-color:#BECDD6"/>
	</linearGradient>
	<path fill="url(#SVGID_12_)" d="M329.831,74.121c0,14.691-13.259,26.614-29.613,26.614c-16.367,0-29.627-11.923-29.627-26.614
		c0-14.697,13.26-26.62,29.627-26.62C316.572,47.501,329.831,59.424,329.831,74.121z"/>
	<linearGradient id="SVGID_13_" gradientUnits="userSpaceOnUse" x1="283.0869" y1="54.7666" x2="192.979" y2="200.004">
		<stop  offset="0.2804" style="stop-color:#E5F2FC"/>
		<stop  offset="0.8608" style="stop-color:#BECDD6"/>
	</linearGradient>
	<path fill="url(#SVGID_13_)" d="M182.28,118.664c0,0,51.152-33.339,66.212-38.067c0,0,13.657-3.867,26.721-5.649l24.054,21.861
		l5.341,21.855c0,0-60.583,39.31-70.67,48.595L182.28,118.664z"/>
	<linearGradient id="SVGID_14_" gradientUnits="userSpaceOnUse" x1="175.4722" y1="78.4678" x2="144.0327" y2="289.6836">
		<stop  offset="0.2154" style="stop-color:#E5F2FC"/>
		<stop  offset="0.3965" style="stop-color:#BECDD6"/>
	</linearGradient>
	<path fill="url(#SVGID_14_)" d="M235.702,165.269c-14.112,14.965-64.605-5.168-77.377-10.948c-2.437-1.158-4.929-2.252-7.302-3.47
		c0,0,0,0,0-0.059c-0.853-0.369-1.702-0.79-2.555-1.278l-3.285,2.127l-1.58,1.034l-9.855,6.386l-27.924,18.071
		c-10.887-5.596-17.641-19.829-17.641-19.829c10.221-13.206,18.92-23.121,26.159-30.601c2.857-2.982,5.533-5.596,7.907-7.788
		c17.459-16.242,24.395-15.695,24.395-15.695c21.108-3.226,72.084,26.098,72.084,26.098c9.675,3.528,18.679,10.039,20.38,20.804
		C240.143,157.178,238.806,162.043,235.702,165.269z"/>
	<linearGradient id="SVGID_15_" gradientUnits="userSpaceOnUse" x1="232.2695" y1="100.4492" x2="335.5516" y2="82.9076">
		<stop  offset="0.2255" style="stop-color:#E5F2FC"/>
		<stop  offset="0.4393" style="stop-color:#BECDD6"/>
	</linearGradient>
	<path fill="url(#SVGID_15_)" d="M272.867,75.279l-12.186,2.211c0,0-6.303,35.703,41.378,29.382l1.063-11.395
		C303.122,95.478,285.669,101.074,272.867,75.279z"/>
	<linearGradient id="SVGID_16_" gradientUnits="userSpaceOnUse" x1="277.0781" y1="39.0371" x2="322.2014" y2="127.2517">
		<stop  offset="0.0161" style="stop-color:#FFFFFF"/>
		<stop  offset="0.4089" style="stop-color:#00517E"/>
		<stop  offset="0.6858" style="stop-color:#272D5E"/>
	</linearGradient>
	<path fill="url(#SVGID_16_)" d="M298.072,47.578c0,0-19.336-7.705-25.205,16.301c-2.853,11.668,7.604,24.56,17.91,28.29
		c11.911,4.319,28.652-1.2,24.773-16.485c-1.646-6.517-4.188-13.705-7.997-19.26C305.195,52.984,301.75,49.604,298.072,47.578z"/>
	<linearGradient id="SVGID_17_" gradientUnits="userSpaceOnUse" x1="110.9551" y1="116.6982" x2="148.2122" y2="168.7823">
		<stop  offset="0.0161" style="stop-color:#FFFFFF"/>
		<stop  offset="0.4576" style="stop-color:#00517E"/>
		<stop  offset="0.8153" style="stop-color:#272D5E"/>
	</linearGradient>
	<path fill="url(#SVGID_17_)" d="M143.606,152.669l-9.835,6.368c-6.457-5.472-16.295-16.158-19.426-32.358
		c2.846-2.947,5.507-5.555,7.931-7.789C122.276,118.89,128.265,135.375,143.606,152.669z"/>
	<linearGradient id="SVGID_18_" gradientUnits="userSpaceOnUse" x1="237.8701" y1="70.9561" x2="236.3494" y2="156.8746">
		<stop  offset="0.1159" style="stop-color:#FFFFFF"/>
		<stop  offset="0.4924" style="stop-color:#00517E"/>
		<stop  offset="0.851" style="stop-color:#272D5E"/>
	</linearGradient>
	<polygon fill="url(#SVGID_18_)" points="243.442,91.456 260.409,107.627 232.714,120.743 214.048,106.724 	"/>
	<linearGradient id="SVGID_19_" gradientUnits="userSpaceOnUse" x1="223.9971" y1="-11.541" x2="246.8094" y2="72.1042">
		<stop  offset="0.0161" style="stop-color:#FFFFFF"/>
		<stop  offset="0.3973" style="stop-color:#00517E"/>
		<stop  offset="0.8153" style="stop-color:#272D5E"/>
	</linearGradient>
	<path fill="url(#SVGID_19_)" d="M218.7,34.438c0,0,5.149-32.063,22.567-34.438c0,0,12.273,3.956,0,19.396
		c0,0,9.897,1.188,2.769,8.317l-18.208,18.208L218.7,34.438z"/>
	<linearGradient id="SVGID_20_" gradientUnits="userSpaceOnUse" x1="368.7578" y1="77.6797" x2="389.04" y2="214.5573">
		<stop  offset="0.0371" style="stop-color:#FFFFFF"/>
		<stop  offset="0.4449" style="stop-color:#00517E"/>
		<stop  offset="0.703" style="stop-color:#272D5E"/>
	</linearGradient>
	<path fill="url(#SVGID_20_)" d="M352.715,122.525c0,0,18.992-21.677,23.751-14.258c0,0,2.964,1.129-1.485,6.356
		c0,0,21.672-4.865,25.236,5.822c0,0,1.485,10.094-4.456,14.252c0,0-29.388,4.967-43.046,4.259V122.525z"/>
	<linearGradient id="SVGID_21_" gradientUnits="userSpaceOnUse" x1="69.1719" y1="67.9365" x2="62.3282" y2="132.5709">
		<stop  offset="0.0161" style="stop-color:#FFFFFF"/>
		<stop  offset="0.4553" style="stop-color:#00517E"/>
		<stop  offset="0.8153" style="stop-color:#272D5E"/>
	</linearGradient>
	<path fill="url(#SVGID_21_)" d="M62.864,78.518c0,0-4.533,20.453,1.027,33.915l6.351-1.984l1.979-28.896L62.864,78.518z"/>
	<linearGradient id="SVGID_22_" gradientUnits="userSpaceOnUse" x1="111.6768" y1="51.5723" x2="123.0825" y2="138.6357">
		<stop  offset="0.0161" style="stop-color:#FFFFFF"/>
		<stop  offset="0.5924" style="stop-color:#00517E"/>
		<stop  offset="0.8571" style="stop-color:#272D5E"/>
	</linearGradient>
	<path fill="url(#SVGID_22_)" d="M120.518,113.573c-4.701-0.048-9.597-0.238-14.394-0.428c-0.428-6.368-1.471-29.501,6.032-36.684
		l0.048-0.042c5.608-0.528,11.118-1.004,16.153-1.473C128.357,74.947,114.155,89.816,120.518,113.573z"/>
	<linearGradient id="SVGID_23_" gradientUnits="userSpaceOnUse" x1="51.4268" y1="141.3848" x2="102.626" y2="217.4247">
		<stop  offset="0.2392" style="stop-color:#E5F2FC"/>
		<stop  offset="0.7722" style="stop-color:#BECDD6"/>
	</linearGradient>
	<path fill="url(#SVGID_23_)" d="M102.99,182.509l-16.628,13.96c-5.038,2.044-8.314,0-8.314,0
		c-7.699-4.372-18.148-14.299-25.462-21.713c-5.135-5.174-8.694-9.16-8.694-9.16c-3.042-3.855-1.476-7.081-1.476-7.081
		c5.652-6.416,15.44-8.982,15.44-8.982c5.085,2.085,26.795,8.982,26.795,8.982L102.99,182.509z"/>
	<path fill="#E7E7E7" d="M46.108,243.691c-0.208,0-0.422-0.006-0.633-0.006C29.875,243.472,14.578,235.321,0,219.447l3.499-3.208
		c13.634,14.841,27.758,22.48,41.977,22.693c18.107,0.269,30.464-12.018,30.583-12.143c8.953-8.97,19.636-19.021,31.168-25.723
		c15.136-8.792,28.176-1.229,37.842,6.345c7.17,5.613,15.166,9.998,22.512,12.333c22.801,7.283,51.773-2.181,64.587-21.096
		c17.003-25.081,5.958-69.702,2.175-82.783l4.563-1.324c5.037,17.412,14.863,60.713-2.799,86.774
		c-13.919,20.537-45.297,30.839-69.969,22.961c-7.871-2.507-16.394-7.17-23.994-13.123c-12.779-10.01-22.51-11.798-32.534-5.976
		c-11.053,6.422-21.452,16.218-30.164,24.944C78.921,230.658,66.045,243.691,46.108,243.691z"/>
	<linearGradient id="SVGID_24_" gradientUnits="userSpaceOnUse" x1="194.6582" y1="340.542" x2="92.7696" y2="101.0272">
		<stop  offset="0.2163" style="stop-color:#AEB7B4"/>
		<stop  offset="0.5914" style="stop-color:#E2E7E7"/>
	</linearGradient>
	<path fill="url(#SVGID_24_)" d="M47.486,243.691c-0.205,0-0.418-0.006-0.633-0.006c-15.597-0.214-30.897-8.364-45.473-24.238
		l3.496-3.208c13.634,14.841,27.758,22.48,41.977,22.693c18.11,0.269,30.464-12.018,30.586-12.143
		c8.952-8.97,19.634-19.021,31.168-25.723c15.137-8.792,28.174-1.229,37.842,6.345c7.167,5.613,15.164,9.998,22.512,12.333
		c22.798,7.283,51.771-2.181,64.591-21.096c16.996-25.081,5.952-69.702,2.168-82.783l4.563-1.324
		c5.037,17.412,14.863,60.713-2.798,86.774c-13.919,20.537-45.295,30.839-69.97,22.961c-7.871-2.507-16.393-7.17-23.994-13.123
		c-12.778-10.01-22.506-11.798-32.531-5.976c-11.056,6.422-21.452,16.218-30.167,24.944
		C80.303,230.658,67.423,243.691,47.486,243.691z"/>
	<linearGradient id="SVGID_25_" gradientUnits="userSpaceOnUse" x1="78.791" y1="143.1533" x2="111.9725" y2="196.3237">
		<stop  offset="0.0161" style="stop-color:#FFFFFF"/>
		<stop  offset="0.5187" style="stop-color:#00517E"/>
		<stop  offset="0.8571" style="stop-color:#272D5E"/>
	</linearGradient>
	<path fill="url(#SVGID_25_)" d="M89.873,155.075c-3.413,2.025-7.36,2.756-7.36,2.756c0,5.786,4.17,10.366,7.854,14.287
		c3.193,3.398,6.687,6.173,10.447,8.905c0.085,0.06,2.117,1.586,2.186,1.485c0.006-0.012,4.232-6.262,4.232-6.262L89.873,155.075z"
		/>
</g>
</svg>
