<svg xmlns="http://www.w3.org/2000/svg"  fill="#dbdcde" viewBox="0 0 151.884 161.599">
<g>
	<g id="__id51_skzcyueqw"><path d="M37.681,25.34c-4.386,2.632-11.403,21.053-3.509,20.175c7.018-0.877,7.895-21.052,2.632-17.543" style="fill: rgb(219, 220, 222);"></path></g>
  <g>
		<g id="__id52_skzcyueqw"><path d="M36.419,23.181c-4.595,3.137-7.023,9.908-8.008,15.133c-0.928,4.92,1.077,11.533,7.432,9.341    c5.264-1.815,6.619-9.165,6.836-13.949c0.182-4.007-1.771-10.965-7.137-7.893c-2.797,1.602-0.279,5.922,2.523,4.317    c0.459-0.263-1.375-1.157-0.801-0.158c0.199,0.346,0.237,0.891,0.314,1.272c0.292,1.458,0.13,3.158-0.074,4.615    c-0.287,2.041-1.196,7.048-3.926,7.185c-1.428,0.072,0.416-6.539,0.617-7.17c0.839-2.645,2.327-6.725,4.746-8.376    C41.588,25.692,39.09,21.357,36.419,23.181L36.419,23.181z" style="fill: rgb(219, 220, 222);"></path></g>
	</g>
</g>
  <g>
	<g id="__id53_skzcyueqw"><path d="M73.646,30.603C68.383,31.48,63.12,47.27,69.26,43.761c5.263-1.754,9.649-18.421,2.632-14.035" style="fill: rgb(219, 220, 222);"></path></g>
    <g>
		<g id="__id54_skzcyueqw"><path d="M72.981,28.192c-4.75,1.08-7.527,7.099-8.61,11.348c-1.228,4.813,1.439,8.801,6.473,6.253    c4.167-2.11,6.44-7.913,7.027-12.273c0.645-4.798-2.286-8.845-7.24-5.953c-2.782,1.624-0.267,5.946,2.523,4.317    c0.453-0.265,1.277-0.327,0.414-0.444c-0.44-0.06-0.698-0.82-0.546-0.191c0.238,0.985-0.188,2.301-0.43,3.239    c-0.601,2.337-1.796,5.492-3.954,6.826c-2.232,1.38,0.203-0.556,0.363,1.251c-0.106-1.198,0.365-2.441,0.751-3.55    c0.693-1.991,2.261-5.48,4.559-6.003C77.455,32.299,76.121,27.479,72.981,28.192L72.981,28.192z" style="fill: rgb(219, 220, 222);"></path></g>
	</g>
</g>
  <g>
	<g id="__id55_skzcyueqw"><path d="M42.067,67.445c-3.509,0-7.895,13.158-2.632,13.158c5.264,0,7.018-14.912,0.878-12.281" style="fill: rgb(219, 220, 222);"></path></g>
    <g>
		<g id="__id56_skzcyueqw"><path d="M42.067,64.945c-7.88,0.705-11.425,19.872-1.301,17.986c7.92-1.475,8.196-20.539-1.118-17.02    c-2.985,1.128-1.692,5.963,1.33,4.821c0.198-0.075,0.581-0.215,0.761-0.22c-0.384,0.011-0.648-0.541-0.313,0.018    c0.408,0.681,0.291,1.761,0.26,2.504c-0.07,1.658-0.665,4.199-2.221,5.093c0.138-0.08,0.318,0.599,0.1-0.155    c-0.272-0.941,0.03-2.117,0.246-3.043c0.289-1.234,0.765-2.393,1.373-3.5c0.171-0.311,1.261-1.517,0.884-1.483    C45.251,69.66,45.28,64.658,42.067,64.945L42.067,64.945z" style="fill: rgb(219, 220, 222);"></path></g>
	</g>
</g>
  <g>
	<g id="__id57_skzcyueqw"><path d="M81.541,79.726c-3.509,1.754-15.789,16.667-7.895,15.789c3.509,0,10.526-14.912,6.141-14.912" style="fill: rgb(219, 220, 222);"></path></g>
    <g>
		<g id="__id58_skzcyueqw"><path d="M80.279,77.567c-4.292,2.365-18.654,19.032-7.551,20.475c7.391,0.96,16.04-19.137,7.059-19.939    c-3.213-0.287-3.185,4.715,0,5c-1.021-0.091-1.079-1.207-1.116-0.17c-0.02,0.577-0.231,1.172-0.385,1.724    c-0.426,1.525-1.114,2.957-1.858,4.348c-0.68,1.271-1.472,2.484-2.465,3.533c-0.328,0.347-1.109,0.559-0.316,0.478    c-1.396,0.142-0.497-0.286-0.123,0.754c-0.483-1.344,2.901-5.312,3.763-6.4c1.521-1.922,3.33-4.279,5.517-5.484    C85.626,80.329,83.104,76.01,80.279,77.567L80.279,77.567z" style="fill: rgb(219, 220, 222);"></path></g>
	</g>
</g>
  <g>
	<g id="__id59_skzcyueqw"><path d="M35.927,116.568c-0.878,2.631-5.264,15.789,2.631,12.28c6.141-3.509,1.755-14.035-3.509-8.771" style="fill: rgb(219, 220, 222);"></path></g>
    <g>
		<g id="__id60_skzcyueqw"><path d="M33.516,115.903c-1.585,4.756-4.957,18.373,4.765,15.716c4.689-1.282,6.815-6.762,5.21-11.11    c-1.743-4.725-6.659-5.488-10.209-2.199c-2.37,2.195,1.174,5.723,3.535,3.535c1.349-1.249,2.077-0.266,2.225,1.409    c0.096,1.095-0.246,2.077-0.989,2.876c-0.433,0.465-0.93,0.621-1.524,0.783c-0.532,0.146-0.501-0.22,0.07,0.241    c-0.57-0.461,0.018-3.555,0.246-4.647c0.374-1.789,0.916-3.542,1.494-5.273C39.361,114.165,34.531,112.86,33.516,115.903    L33.516,115.903z" style="fill: rgb(219, 220, 222);"></path></g>
	</g>
</g>
  <g>
	<g id="__id61_skzcyueqw"><path d="M89.435,53.41c-2.631,6.14,4.387,5.263,6.141,0c3.509-7.895-5.263-1.754-7.018,2.631" style="fill: rgb(219, 220, 222);"></path></g>
    <g>
		<g id="__id62_skzcyueqw"><path d="M87.024,52.746c-0.712,1.752-1.018,3.784-0.016,5.491c0.979,1.668,2.935,2.133,4.717,1.84    c3.827-0.627,6.003-4.46,6.94-7.866c0.444-1.615,0.282-3.732-1.353-4.642c-1.449-0.806-2.958-0.398-4.351,0.294    c-2.678,1.331-5.401,4.165-6.562,6.916c-0.53,1.255-0.391,2.666,0.896,3.42c1.06,0.621,2.89,0.36,3.42-0.897    c0.745-1.763,1.811-2.879,3.324-4.169c0.189-0.161,0.273-0.226,0.691-0.507c0.18-0.121,1.28-0.677,0.678-0.431    c0.709-0.29,0.199-0.055-0.218-0.146c-0.565-0.125-1.08-0.632-1.247-1.181c-0.184-0.606-0.043-0.299-0.063,0    c0.038-0.54-0.233,0.662-0.302,0.858c-0.191,0.551-0.417,1.101-0.677,1.6c-0.489,0.938-0.939,1.318-1.834,1.781    c0.475-0.246-0.978,0.156-0.208,0.079c-0.191,0.019-0.719-0.1-0.075,0.031c-0.445-0.09,0.264,0.162,0.367,0.25    c0.386,0.329,0.055-0.092,0.198,0.34c-0.189-0.57-0.007,0.473,0.006-0.224c-0.008,0.436,0.118-0.486,0.116-0.479    c0.093-0.354,0.235-0.693,0.373-1.03C92.36,52.81,91.297,51.329,90.1,51C88.668,50.606,87.538,51.484,87.024,52.746L87.024,52.746    z" style="fill: rgb(219, 220, 222);"></path></g>
	</g>
</g>
  <g>
	<g id="__id63_skzcyueqw"><path d="M62.243,121.831c-0.877,2.632-3.509,11.403,2.632,8.772c4.386-2.632,0-9.649-5.264-3.509" style="fill: rgb(219, 220, 222);"></path></g>
    <g>
		<g id="__id64_skzcyueqw"><path d="M59.832,121.166c-0.794,2.403-1.53,5.028-1.384,7.58c0.213,3.708,3.204,5.619,6.703,4.424    c3.502-1.196,5.191-5.525,3.049-8.655c-2.746-4.013-7.666-2.165-10.356,0.812c-2.155,2.386,1.369,5.933,3.535,3.535    c0.693-0.767,1.357-1.479,2.385-1.738c0.192-0.049,0.255,0.104,0.417,0.394c0.049,0.088,0.039,0.35-0.194,0.621    c-0.271,0.314-0.323,0.277-0.868,0.429c-0.204,0.056-0.245-0.02,0.149,0.157c0.118,0.053,0.466,0.626,0.192,0.162    c0.31,0.524-0.06-0.606-0.012-0.141c-0.07-0.688,0.006-1.46,0.097-2.014c0.235-1.44,0.651-2.854,1.109-4.236    C65.668,119.426,60.839,118.12,59.832,121.166L59.832,121.166z" style="fill: rgb(219, 220, 222);"></path></g>
	</g>
</g>
  <g>
	<g id="__id65_skzcyueqw"><path d="M112.243,86.743c-2.632,3.509-3.509,13.158,2.632,7.895c4.386-4.386,0.877-12.281-2.632-7.018" style="fill: rgb(219, 220, 222);"></path></g>
    <g>
		<g id="__id66_skzcyueqw"><path d="M110.083,85.481c-1.674,2.33-2.587,5.764-2.302,8.617c0.392,3.91,3.703,5.635,7.124,3.618    c3.58-2.111,5.433-6.767,4.076-10.739c-0.551-1.611-1.762-3.157-3.514-3.503c-2.366-0.468-4.112,1.085-5.385,2.884    c-1.866,2.639,2.473,5.133,4.318,2.523c0.135-0.19,0.531-0.571,0.55-0.583c-0.312,0.2-0.72,0.025-0.967-0.18    c0.169,0.14,0.392,0.661,0.433,1.355c0.111,1.886-1.267,3.832-2.682,4.231c0.317-0.026,0.339-0.038,0.066-0.033    c0.222-0.014,0.431,0.03,0.627,0.133c0.186,0.094,0.331,0.23,0.436,0.41c-0.328-0.48,0.139,0.49-0.047-0.121    c-0.183-0.603-0.05-0.073-0.075-0.482c-0.027-0.445,0.006-0.893,0.046-1.336c0.115-1.287,0.716-3.022,1.613-4.271    c0.796-1.109,0.195-2.78-0.897-3.42C112.246,83.847,110.877,84.377,110.083,85.481L110.083,85.481z" style="fill: rgb(219, 220, 222);"></path></g>
	</g>
</g>
  <g>
	<g id="__id67_skzcyueqw"><path d="M88.558,113.937c-0.877,1.754-4.386,10.526,0.877,7.895c3.51-0.877,4.387-10.526-2.631-6.141" style="fill: rgb(219, 220, 222);"></path></g>
    <g>
		<g id="__id68_skzcyueqw"><path d="M86.4,112.675c-1.198,2.443-2.363,5.386-2.295,8.147c0.044,1.782,0.98,3.349,2.739,3.877    c1.6,0.48,3.577-0.342,4.712-1.127c2.479-1.717,3.582-5.271,2.78-8.142c-1.182-4.233-5.796-3.704-8.794-1.898    c-2.758,1.66-0.246,5.984,2.523,4.316c0.441-0.266,0.874-0.526,1.362-0.692c0.467-0.159,0.708-0.072,0.344-0.137    c0.274,0.083,0.251,0.066-0.069-0.051c-0.508-0.254,0.076,0.16-0.252-0.289c0.097,0.132,0.257,0.634,0.064,0.08    c0.041,0.117,0.131,0.742,0.062,0.132c0.019,0.165-0.046,1.188,0.031,0.65c-0.054,0.377-0.164,0.744-0.286,1.104    c0.146-0.43-0.25,0.449-0.347,0.6c0.284-0.443-0.067,0.062-0.145,0.141c-0.444,0.455,0.401-0.233-0.127,0.078    c0.563-0.332-0.517,0.217-0.805,0.315c-0.324,0.075-0.332,0.089-0.024,0.039c0.479-0.042,0.938,0.48,1.169,0.781    c-0.135-0.175,0.064,0.373,0.055,0.007c-0.018-0.71,0.007-0.472,0.129-1.065c0.187-0.905,0.48-1.79,0.79-2.659    c0.139-0.388,0.291-0.771,0.447-1.153c-0.207,0.507,0.18-0.384,0.251-0.53C92.13,112.315,87.819,109.78,86.4,112.675L86.4,112.675    z" style="fill: rgb(219, 220, 222);"></path></g>
	</g>
</g>
  <g>
	<g id="__id69_skzcyueqw"><path d="M124.523,56.042c-1.754,1.754-4.386,6.141-2.631,7.895c1.754,1.754,4.386-0.877,5.263-2.632   c3.509-6.14-0.877-11.403-4.386-4.386" style="fill: rgb(219, 220, 222);"></path></g>
    <g>
		<g id="__id70_skzcyueqw"><path d="M122.755,54.274c-2.209,2.296-5.003,6.534-3.613,9.858c0.835,2,2.837,3.238,5.023,2.774    c2.083-0.441,3.627-2.045,4.794-3.73c2.142-3.092,2.905-7.702,0.401-10.767c-1.021-1.25-2.87-1.546-4.345-1.143    c-2.071,0.566-3.468,2.606-4.405,4.39c-1.499,2.851,2.816,5.378,4.316,2.523c0.385-0.73,0.803-1.638,1.505-2.104    c-0.164,0.109,0.455-0.006-0.032-0.001c-0.323,0.027-0.571-0.072-0.745-0.298c0.199,0.202,0.227,0.226,0.082,0.072    c0.737,1.112-0.253,3.292-0.902,4.493c-0.366,0.677-0.923,1.24-1.576,1.638c-0.248,0.15-0.151-0.277,0.401,0.189    c0.494,0.416,0.098,0.365,0.134,0.112c0.233-1.663,1.358-3.288,2.497-4.472C128.525,55.486,124.994,51.946,122.755,54.274    L122.755,54.274z" style="fill: rgb(219, 220, 222);"></path></g>
	</g>
</g>
  <g>
	<g id="__id71_skzcyueqw"><path d="M121.014,20.077c-1.754,1.754-8.771,13.158-2.631,13.158c3.509-0.877,6.14-14.035,0.877-12.281" style="fill: rgb(219, 220, 222);"></path></g>
    <g>
		<g id="__id72_skzcyueqw"><path d="M119.247,18.309c-2.525,2.675-4.449,6.452-5.46,9.957c-0.508,1.763-0.634,3.931,0.471,5.498    c1.213,1.72,3.72,2.518,5.643,1.544c5.433-2.749,7.72-19.249-1.305-16.764c-3.104,0.854-1.784,5.679,1.33,4.821    c0.718-0.198-0.029-0.09-0.393-0.373c-0.16-0.125,0.133,0.445,0.166,0.588c0.182,0.792,0.022,1.774-0.112,2.564    c-0.171,1.01-0.451,2.055-0.862,2.995c-0.223,0.508-0.508,0.983-0.814,1.445c-0.392,0.592-0.464,0.028,0.295,0.152    c0.421,0.069,0.108,0.249,0.295-0.7c0.215-1.087,0.658-2.125,1.129-3.12c0.821-1.735,1.894-3.737,3.153-5.072    C124.993,19.502,121.463,15.959,119.247,18.309L119.247,18.309z" style="fill: rgb(219, 220, 222);"></path></g>
	</g>
</g>
  <g>
	<g id="__id73_skzcyueqw"><path d="M9.611,99.024c-2.632,1.754-8.772,15.79-0.877,13.158c5.263-2.631,4.386-15.789-2.632-10.526" style="fill: rgb(219, 220, 222);"></path></g>
    <g>
		<g id="__id74_skzcyueqw"><path d="M8.349,96.865c-4.76,3.548-10.463,20.357,0.555,17.875c4.607-1.038,6.151-7.237,5.558-11.238    c-0.759-5.123-5.45-6.941-9.621-4.005c-2.614,1.84-0.12,6.179,2.523,4.317c1.763-1.241,2.141-1.016,2.25,1.211    c0.088,1.795-0.479,4.542-2.496,4.997c0.067-0.016,0.243,0.725,0.229-0.291c-0.017-1.075,0.364-2.16,0.694-3.169    c0.525-1.604,1.907-4.69,2.832-5.38C13.425,99.279,10.937,94.936,8.349,96.865L8.349,96.865z" style="fill: rgb(219, 220, 222);"></path></g>
	</g>
</g>
  <g>
	<g id="__id75_skzcyueqw"><path d="M92.067,18.322c-1.754,0.877-4.386,7.895-0.877,8.772c4.386,0,4.386-10.526,0-7.018" style="fill: rgb(219, 220, 222);"></path></g>
    <g>
		<g id="__id76_skzcyueqw"><path d="M90.805,16.164c-2.609,1.548-3.801,5.394-3.845,8.247c-0.057,3.725,3.77,6.71,7.103,4.27    c2.54-1.861,3.255-5.257,2.716-8.22c-0.612-3.364-4.22-4.517-6.851-2.542c-1.088,0.816-1.646,2.143-0.897,3.42    c0.63,1.074,2.328,1.717,3.421,0.897c0.246-0.185,0.486-0.346,0.756-0.492c-0.31,0.168-0.676,0.145-0.989-0.027    c-0.131-0.072-0.536-0.619-0.294-0.181c-0.329-0.596,0.095,0.64,0.021,0.08c0.148,1.125-0.144,2.32-0.55,2.798    c-0.416,0.49,0.274-0.104-0.262,0.22c0.228-0.087,0.196-0.087-0.093,0c0.39-0.133,0.696-0.083,0.922,0.149    c0.269,0.232,0.013-0.053,0.013-0.052c-0.036-0.322-0.031-0.69,0.021-1.009c0.113-0.71,0.33-1.431,0.633-2.082    c0.177-0.379,0.396-0.736,0.625-1.084c0.041-0.062-0.091,0.025,0.075-0.074C96.098,18.838,93.585,14.515,90.805,16.164    L90.805,16.164z" style="fill: rgb(219, 220, 222);"></path></g>
	</g>
</g>
  <g>
	<g id="__id77_skzcyueqw"><path d="M67.505,2.533c-2.631,2.632-5.263,12.281,1.755,7.895c4.386-2.632,3.509-9.649-2.632-7.018" style="fill: rgb(219, 220, 222);"></path></g>
    <g>
		<g id="__id78_skzcyueqw"><path d="M65.738,0.765c-2.066,2.163-3.215,5.287-3.466,8.23c-0.305,3.559,2.652,5.891,6.022,4.687    c3.453-1.233,6.6-4.459,6.168-8.378C73.978,0.913,69.732-0.514,65.963,1c-1.263,0.507-2.138,1.648-1.746,3.075    c0.331,1.202,1.81,2.255,3.076,1.746c0.472-0.189,1.004-0.432,1.511-0.482c0.447-0.044,0.733,0.112,0.566,0.026    C69.15,5.252,69.472,5.5,69.375,5.268c0.23,0.556,0.131,0.172,0.121,0.794c-0.005,0.367-0.263,1.042-0.737,1.577    c-0.593,0.668-1.486,1.148-2.33,1.397c-0.318,0.068-0.326,0.074-0.023,0.017c-0.501,0.036,0.259,0.071,0.405,0.146    c0.19,0.111,0.341,0.262,0.449,0.454c-0.312-0.442,0.146,0.514-0.005-0.053c0.159,0.6,0.004-0.365,0.017-0.604    C67.3,8.7,67.299,8.68,67.268,8.934c0.038-0.257,0.098-0.51,0.156-0.763c0.343-1.488,1.149-3.137,1.849-3.87    C71.5,1.97,67.968-1.57,65.738,0.765L65.738,0.765z" style="fill: rgb(219, 220, 222);"></path></g>
	</g>
</g>
  <g>
	<g id="__id79_skzcyueqw"><path d="M11.366,65.691c-2.632,2.631-7.018,7.895-6.141,11.403c3.509,1.754,6.141-3.509,6.141-6.14   c0.877-2.632,0.877-7.018-2.632-4.386" style="fill: rgb(219, 220, 222);"></path></g>
    <g>
		<g id="__id80_skzcyueqw"><path d="M9.598,63.923c-2.879,2.921-5.872,6.444-6.801,10.54c-0.537,2.371-0.061,4.291,2.258,5.246    c1.802,0.742,4.124-0.109,5.469-1.364c2.672-2.494,3.436-6.184,3.804-9.673c0.455-4.31-3.229-6.737-6.855-4.263    c-2.646,1.806-0.147,6.141,2.523,4.317c1.46-0.997,0.35,0.207-0.658-1.144c0.028,0.039,0.017,0.831,0.014,0.629    c0.013,1.073-0.455,2.064-0.503,3.134c-0.065,1.455-1.299,4.021-2.958,3.337c0.582,0.582,1.164,1.164,1.746,1.746    c-0.273-1.497,0.929-3.191,1.676-4.375c1.064-1.686,2.427-3.18,3.821-4.596C15.398,65.161,11.864,61.624,9.598,63.923    L9.598,63.923z" style="fill: rgb(219, 220, 222);"></path></g>
	</g>
</g>
  <g>
	<g id="__id81_skzcyueqw"><path d="M49.961,98.147c-1.754,0.877-4.386,7.017-2.631,8.772c3.509,2.632,6.14-7.018,4.386-8.772   c-0.877,0-1.755,0.877-2.632,1.754" style="fill: rgb(219, 220, 222);"></path></g>
    <g>
		<g id="__id82_skzcyueqw"><path d="M48.7,95.988c-2.853,1.688-4.298,5.899-4.447,9.029c-0.17,3.561,3.651,6.278,6.752,4.047    c2.581-1.857,3.56-5.414,3.76-8.437c0.097-1.449-0.206-2.996-1.167-4.117c-1.909-2.227-4.82,0.175-6.28,1.623    c-2.293,2.272,1.244,5.806,3.535,3.535c0.47-0.465,0.87-1.007,1.529-1.111c-0.812-0.214-1.622-0.429-2.433-0.643    c-0.093-0.107-0.358-0.753-0.21-0.229c0.188,0.661-0.003-0.419,0.033,0.356c0.031,0.664-0.062,1.227-0.194,1.846    c-0.143,0.661-0.344,1.323-0.634,1.933c-0.208,0.438-0.679,1.082-0.66,1.068c-0.414,0.298,0.007-0.011,0.204-0.019    c0.29-0.011,0.532,0.088,0.699,0.364c0.121,0.202,0.071,0.133,0.065-0.217c-0.007-0.407,0.096-0.789,0.19-1.182    c0.276-1.146,1.155-3.161,1.78-3.53C53.995,98.666,51.481,94.342,48.7,95.988L48.7,95.988z" style="fill: rgb(219, 220, 222);"></path></g>
	</g>
</g>
  <g>
	<g id="__id83_skzcyueqw"><path d="M64.875,64.813c-1.755,0.877-7.018,11.404-2.632,11.404c3.509,0,5.263-13.158-0.877-10.526" style="fill: rgb(219, 220, 222);"></path></g>
    <g>
		<g id="__id84_skzcyueqw"><path d="M63.613,62.655c-2.875,1.749-4.589,6.284-5.308,9.375c-0.404,1.737-0.513,4.145,0.931,5.479    c1.435,1.327,3.399,1.545,5.105,0.61c5.723-3.135,4.766-18.083-3.641-14.838c-2.975,1.148-1.683,5.984,1.33,4.821    c-0.027,0.01,1.036-0.246,0.614-0.303c0.542,0.074,0.059,0.099-0.064-0.084c0.301,0.446,0.339,1.224,0.35,1.885    c0.021,1.42-0.39,3.415-1.233,4.29c0.724-0.751,1.371,1.097,1.343,0.269c-0.033-0.963,0.384-1.97,0.704-2.86    c0.376-1.042,0.912-2.03,1.47-2.984c0.186-0.318,0.387-0.676,0.608-0.961c0.139-0.179,0.858-0.711,0.314-0.38    C68.886,65.3,66.375,60.975,63.613,62.655L63.613,62.655z" style="fill: rgb(219, 220, 222);"></path></g>
	</g>
</g>
  <g>
	<g id="__id85_skzcyueqw"><path d="M5.225,141.129c-0.877,1.755-3.509,5.264-1.755,7.018c1.755,3.509,7.018-0.877,7.896-2.631   c1.754-3.509,3.509-8.772-0.878-10.526c-3.509-0.877-7.018,2.631-7.895,5.263" style="fill: rgb(219, 220, 222);"></path></g>
    <g>
		<g id="__id86_skzcyueqw"><path d="M3.066,139.867c-1.044,1.967-2.498,3.969-2.648,6.264c-0.148,2.264,1.233,4.666,3.387,5.508    c3.757,1.468,8.409-2.17,9.981-5.4c1.875-3.85,3.534-9.934-0.899-12.781c-5.094-3.273-10.838,1.355-12.705,6.13    c-1.175,3.008,3.661,4.298,4.822,1.33c0.623-1.595,3.44-4.755,5.296-3.151c1.415,1.223-0.252,4.688-0.831,5.949    c-0.712,1.55-2.235,2.791-3.87,3.255c-0.58,0.165,1.514-4.069,1.785-4.579C8.895,139.545,4.579,137.019,3.066,139.867    L3.066,139.867z" style="fill: rgb(219, 220, 222);"></path></g>
	</g>
</g>
  <g>
	<g id="__id87_skzcyueqw"><path d="M46.453,149.024c-0.877,1.754-6.14,12.28,0,9.648C50.839,156.919,49.961,145.516,46.453,149.024" style="fill: rgb(219, 220, 222);"></path></g>
    <g>
		<g id="__id88_skzcyueqw"><path d="M44.294,147.763c-1.299,2.598-2.679,5.377-3.131,8.269c-0.296,1.898-0.084,3.694,1.532,4.931    c1.564,1.196,3.704,0.47,5.286-0.252c3.349-1.528,4.255-6.549,3.845-9.785c-0.213-1.683-0.728-3.589-2.285-4.532    c-1.696-1.026-3.506-0.389-4.856,0.864c-2.369,2.196,1.175,5.724,3.535,3.535c0.391-0.361-0.312,0.144-0.909,0.018    c-0.37-0.081-0.637-0.274-0.798-0.581c0.042,0.055,0.295,0.653,0.149,0.253c0.287,0.793,0.278,1.481,0.245,2.405    c-0.054,1.48-0.517,3.196-1.829,3.638c-0.555,0.187-0.059,0.052,0.281,0.227c0.667,0.345,0.646,1.383,0.663,0.488    c0.01-0.515,0.346-1.604,0.602-2.375c0.525-1.581,1.243-3.091,1.986-4.578C50.048,147.411,45.735,144.878,44.294,147.763    L44.294,147.763z" style="fill: rgb(219, 220, 222);"></path></g>
	</g>
</g>
  <g>
	<g id="__id89_skzcyueqw"><path d="M80.664,143.761c-1.754,2.632-6.141,12.281,0.877,8.772c5.264-2.632,3.509-10.526-2.631-7.896" style="fill: rgb(219, 220, 222);"></path></g>
    <g>
		<g id="__id90_skzcyueqw"><path d="M78.505,142.499c-1.487,2.279-2.809,5.093-3.185,7.803c-0.519,3.74,1.967,6.38,5.781,5.122    c4.027-1.329,6.473-4.832,5.903-9.055c-0.567-4.212-5.309-5.508-8.761-4.143c-2.961,1.172-1.672,6.01,1.33,4.822    c0.747-0.296,1.733-0.546,2.132-0.339c0.156,0.081,0.426,0.588,0.448,0.91c0.104,1.551-1.71,3.023-2.862,3.164    c-0.455,0.056,0.312,0.115,0.554,0.348c0.357,0.344,0.346,1.101,0.349,0.317c0.001-0.309-0.034-0.031,0.084-0.604    c0.099-0.481,0.249-0.951,0.402-1.417c0.498-1.522,1.239-3.023,2.141-4.406C84.589,142.312,80.258,139.811,78.505,142.499    L78.505,142.499z" style="fill: rgb(219, 220, 222);"></path></g>
	</g>
</g>
  <g>
	<g id="__id91_skzcyueqw"><path d="M118.383,121.831c-0.878,0.877-3.509,4.386-3.509,6.141c0.877,2.632,4.386,0.877,6.14,0   c5.264-3.509,1.755-6.141-1.754-8.772" style="fill: rgb(219, 220, 222);"></path></g>
    <g>
		<g id="__id92_skzcyueqw"><path d="M116.616,120.063c-1.861,1.947-4.018,4.842-4.22,7.617c-0.292,4.003,4.453,4.609,7.234,3.629    c3.163-1.114,6.187-3.247,6.566-6.802c0.353-3.304-3.439-5.789-5.675-7.468c-1.093-0.82-2.791-0.177-3.421,0.897    c-0.748,1.278-0.19,2.604,0.897,3.421c1.098,0.824,2.372,1.675,3.112,2.856c0.456,0.728-1.651,1.749-2.304,2.059    c-0.531,0.252-1.165,0.523-1.753,0.583c-0.119,0-0.238,0.001-0.358,0.001c0.538,0.059,0.762,0.448,0.672,1.172    c0.061-0.315,0.176-0.557,0.314-0.845c0.619-1.287,1.48-2.551,2.469-3.586C122.377,121.269,118.846,117.728,116.616,120.063    L116.616,120.063z" style="fill: rgb(219, 220, 222);"></path></g>
	</g>
</g>
  <g>
	<g id="__id93_skzcyueqw"><path d="M146.453,84.112c-1.754,1.754-7.895,11.403-0.877,7.895c2.632-0.877,6.141-9.649,1.755-10.526" style="fill: rgb(219, 220, 222);"></path></g>
    <g>
		<g id="__id94_skzcyueqw"><path d="M144.685,82.344c-1.928,2.012-3.402,4.604-4.431,7.176c-1.328,3.321,0.686,6.364,4.354,5.552    c3.577-0.792,5.552-3.802,6.698-7.045c1.204-3.402,0.714-7.895-3.312-8.957c-3.122-0.824-4.444,4-1.33,4.821    c0.709,0.187,0.238,0.098,0.11-0.082c0.13,0.182,0.127,0.47,0.135,0.721c0.03,0.883-0.278,1.755-0.569,2.577    c-0.669,1.892-1.472,2.664-3.062,3.143c0.554-0.167,1.752,2.043,1.465,1.248c0.173,0.478-0.032,0.545,0.133-0.066    c0.183-0.676,0.528-1.293,0.857-1.905c0.717-1.332,1.538-2.657,2.485-3.647C150.45,83.552,146.918,80.012,144.685,82.344    L144.685,82.344z" style="fill: rgb(219, 220, 222);"></path></g>
	</g>
</g>
</svg>
