<svg xmlns="http://www.w3.org/2000/svg" viewBox="0 0 24 24" fill="fillCurrent"><path d="M3 20.5c-1.241 0-2.25-1.009-2.25-2.25v-12c0-.504.164-.981.476-1.38.007-.011.015-.022.022-.031.006-.008.015-.018.023-.027C1.696 4.298 2.327 4 3 4h18c.671 0 1.301.297 1.731.814.01.01.019.021.026.031.006.007.012.017.018.026.311.399.475.875.475 1.379v12c0 1.241-1.009 2.25-2.25 2.25H3zm-.75-2.25c0 .414.336.75.75.75h18c.414 0 .75-.336.75-.75V6.562l-7.276 5.596c-.704.542-1.583.841-2.474.841-.891 0-1.77-.299-2.474-.841L2.25 6.562V18.25zm8.19-7.281c.444.342.998.53 1.56.53s1.115-.188 1.559-.53l7.111-5.47H3.329l7.111 5.47z"/></svg>
