<?xml version="1.0" encoding="utf-8"?>
<!-- Generator: Adobe Illustrator 16.0.0, SVG Export Plug-In . SVG Version: 6.00 Build 0)  -->
<!DOCTYPE svg PUBLIC "-//W3C//DTD SVG 1.1//EN" "http://www.w3.org/Graphics/SVG/1.1/DTD/svg11.dtd">
<svg version="1.1" id="Layer_1" xmlns="http://www.w3.org/2000/svg" xmlns:xlink="http://www.w3.org/1999/xlink" x="0px" y="0px"
	 width="818.808px" height="825.265px" viewBox="0 0 818.808 825.265" enable-background="new 0 0 818.808 825.265"
	 xml:space="preserve">
<g>
	<linearGradient id="SVGID_1_" gradientUnits="userSpaceOnUse" x1="925.1797" y1="1066.9092" x2="193.261" y2="157.912">
		<stop  offset="0" style="stop-color:#DBE2F3"/>
		<stop  offset="1" style="stop-color:#EAEFF8"/>
	</linearGradient>
	<path fill="url(#SVGID_1_)" d="M723.824,708.433c-16.813,17.698-32.72,29.112-45.287,38.13
		c-147.734,106.001-322.543,75.103-359.695,67.557c-54.862-11.143-160.908-32.682-237.578-122.843
		c-115.995-136.408-97.932-351.313-7.959-493.176C89.762,172.151,176.695,28.128,353.387,5.031
		C460.319-8.947,584.968,19.245,675.234,94.871C864.713,253.616,851.224,574.31,723.824,708.433z"/>
	<g>
		<g>
			<path fill="#98B1DC" d="M30.838,168.297c0.671-4.592,7.066-5.233,8.618-0.859c14.995,42.292,57.789,151.956,116.037,207.759
				c94.84,90.858,164.199,244.094,113.103,329.318C268.596,704.515-42.271,668.685,30.838,168.297z"/>
			<path opacity="0.43" fill="#FFFFFF" d="M43.484,229.231c0.204,1.401,0.483,2.542,0.73,3.781l0.809,3.639l1.694,7.252
				c1.162,4.824,2.398,9.63,3.635,14.436c2.507,9.601,5.133,19.17,7.848,28.716c5.462,19.08,11.441,38.011,17.704,56.847
				c6.236,18.847,13,37.519,20.156,56.04c7.173,18.514,14.609,36.934,22.649,55.099c16.004,36.354,34,71.874,54.435,105.979
				c10.395,16.941,21.237,33.62,33.024,49.634c11.898,15.923,24.479,31.349,38.129,45.788c0.296,0.313,0.791,0.328,1.105,0.031
				c0.307-0.29,0.327-0.769,0.053-1.083l-0.008-0.008c-13.03-14.904-25.237-30.48-36.653-46.623
				c-11.462-16.113-21.978-32.878-32.041-49.891c-10.058-17.023-19.426-34.449-28.396-52.074
				c-8.965-17.633-17.195-35.628-25.322-53.664c-16.104-36.151-30.272-73.149-43.41-110.499
				c-6.53-18.691-12.685-37.517-18.503-56.445c-2.925-9.46-5.762-18.948-8.481-28.471l-3.967-14.313l-1.909-7.173l-0.913-3.593
				c-0.281-1.182-0.603-2.448-0.806-3.492l-0.032-0.172c-0.083-0.421-0.489-0.695-0.909-0.614
				C43.696,228.438,43.426,228.825,43.484,229.231z"/>
		</g>
		<g>
			<path fill="#C0CFEB" d="M173.618,60.343c1.868-4.028,7.909-2.872,8.139,1.563c2.214,42.875,11.541,155.117,49.734,222.181
				c62.188,109.194,83.989,268.641,13.882,332.856C245.373,616.942-29.933,499.279,173.618,60.343z"/>
			<path opacity="0.43" fill="#FFFFFF" d="M168.58,119.67c-0.196,1.344-0.25,2.465-0.363,3.669l-0.252,3.558l-0.427,7.112
				c-0.252,4.742-0.431,9.485-0.607,14.229c-0.323,9.489-0.526,18.981-0.645,28.476c-0.198,18.988,0.119,37.979,0.722,56.963
				c0.574,18.984,1.682,37.954,3.192,56.892c1.525,18.936,3.319,37.856,5.736,56.709c4.758,37.707,11.576,75.19,21.014,112.042
				c4.914,18.372,10.31,36.625,16.754,54.526c6.571,17.848,13.903,35.426,22.488,52.388c0.189,0.376,0.649,0.526,1.024,0.336
				c0.367-0.186,0.519-0.626,0.35-0.996l-0.004-0.009c-7.878-17.225-14.818-34.84-20.88-52.759
				c-6.113-17.903-11.181-36.146-15.764-54.492c-4.576-18.355-8.414-36.891-11.832-55.5c-3.409-18.615-6.046-37.362-8.581-56.118
				c-4.908-37.545-7.805-75.338-9.671-113.172c-0.893-18.922-1.402-37.863-1.577-56.81c-0.103-9.473-0.119-18.948-0.018-28.422
				l0.265-14.207l0.204-7.099l0.141-3.545c0.065-1.159,0.115-2.409,0.213-3.419l0.017-0.17c0.041-0.416-0.264-0.785-0.679-0.826
				C168.997,118.987,168.639,119.274,168.58,119.67z"/>
		</g>
	</g>
	<g>
		<path fill="#98B1DC" d="M212.441,748.087c0,0-9.803-67.961,66.654-73.188c76.456-5.229,449.589,7.842,449.589,7.842
			s-15.684,75.803,0,108.476c-71.882-0.653-487.49,0-487.49,0S210.003,776.24,212.441,748.087z"/>
		<linearGradient id="SVGID_2_" gradientUnits="userSpaceOnUse" x1="292.0332" y1="1002.168" x2="500.5229" y2="723.1818">
			<stop  offset="0" style="stop-color:#201B59"/>
			<stop  offset="1" style="stop-color:#2D2D84"/>
		</linearGradient>
		<path fill="url(#SVGID_2_)" d="M735.872,783.126c-61.31,0-461.649,0-470.499,0c-9.584,0-46.18,2.388-45.308-38.563
			c0.419-19.684,10.901-31.812,21.678-39.499c9.988-7.126,21.964-10.596,34.233-10.596c62.781,0,384.529,0,428.529,0
			c48.792,0,34.416-41.821,34.416-41.821l-0.436,0.118l-458.302-0.595c0,0-67.961,40.233-75.209,81.269
			c-1.712,9.699-1.432,18.626-0.004,26.275c4.148,22.229,23.597,38.549,46.21,38.549h484.69c4.331,0,7.842-3.238,7.842-7.57
			C743.714,786.361,740.203,783.126,735.872,783.126z"/>
		<path fill="#2A3385" d="M708.193,90.075H269.852v594.661h438.342c16.729,0,28.737-15.559,28.737-32.29V119.681
			C736.931,102.95,724.923,90.075,708.193,90.075z"/>
		<linearGradient id="SVGID_3_" gradientUnits="userSpaceOnUse" x1="579.0215" y1="272.1953" x2="412.5294" y2="339.6921">
			<stop  offset="0" style="stop-color:#201B59"/>
			<stop  offset="1" style="stop-color:#2D2D84"/>
		</linearGradient>
		<path fill="url(#SVGID_3_)" d="M270.601,89.388c0,0-70.575,14.059-65.347,68.456c5.227,54.396-0.278,575.516-0.278,575.516
			s21.189-50.619,65.625-50.619C270.601,570.343,270.601,89.388,270.601,89.388z"/>
		<path opacity="0.6" fill="#FFFFFF" d="M681.789,704.299c0,0.541-0.438,0.98-0.979,0.98H338.948c-0.542,0-0.98-0.439-0.98-0.98
			v-1.283c0-0.541,0.438-0.98,0.98-0.98H680.81c0.542,0,0.979,0.439,0.979,0.98V704.299z"/>
		<path opacity="0.6" fill="#FFFFFF" d="M689.358,737.981c0,0.542-0.926,1.896-1.555,1.896H289.993
			c-0.629,0-2.842-1.354-2.842-1.896v-1.449c0-0.541,2.213,0.102,2.842,0.102h397.811c0.629,0,1.555-0.643,1.555-0.102V737.981z"/>
		<path opacity="0.6" fill="#FFFFFF" d="M698.008,768.19c0,1.083-0.878,1.961-1.961,1.961H445.886c-1.083,0-1.96-0.878-1.96-1.961
			v-0.403c0-1.083,0.877-1.961,1.96-1.961h250.161c1.083,0,1.961,0.878,1.961,1.961V768.19z"/>
		<g>
			<g>
				<path fill="#98B1DC" d="M286.069,619.314c-0.855,0-1.081-0.693-1.081-1.55V399.286c0-0.856,0.226-1.549,1.081-1.549
					c0.856,0,1.082,0.692,1.082,1.549v218.479C287.151,618.621,286.926,619.314,286.069,619.314z"/>
			</g>
			<g>
				<path fill="#98B1DC" d="M286.069,366.747c-0.855,0-1.081-0.692-1.081-1.55V259.832c0-0.856,0.226-1.55,1.081-1.55
					c0.856,0,1.082,0.693,1.082,1.55v105.365C287.151,366.055,286.926,366.747,286.069,366.747z"/>
			</g>
			<g>
				<path fill="#98B1DC" d="M286.069,168.412c-0.855,0-1.081-0.693-1.081-1.55v-58.881c0-0.856,0.226-1.549,1.081-1.549
					c0.856,0,1.082,0.692,1.082,1.549v58.881C287.151,167.719,286.926,168.412,286.069,168.412z"/>
			</g>
		</g>
		<g>
			<path fill="#FFFFFF" d="M486.551,281.534c-20.484-0.534-34.938-5.944-43.506-16.203c-8.531-10.214-12.785-22.719-12.785-37.556
				c0-14.828,4.626-27.039,13.925-36.664c9.335-9.662,23.613-14.516,42.95-14.516c19.517-0.001,34.474,4.463,44.782,13.406
				c10.349,8.998,15.549,21.815,15.549,38.425s-5.004,29.78-14.953,39.47C522.6,277.547,507.239,282.073,486.551,281.534z"/>
			<rect x="435.075" y="318.622" fill="#FFFFFF" width="106.994" height="265.796"/>
			<path fill="#FFFFFF" d="M556.148,584.418H394.152c-1.01,0-1.829-0.819-1.829-1.83v-8.006c0-1.404,1.138-2.542,2.541-2.542
				h160.947c1.06,0,1.916,0.858,1.916,1.917v8.881C557.728,583.71,557.021,584.418,556.148,584.418z"/>
			<path fill="#FFFFFF" d="M542.069,330.999h-163.3c-1.163,0-2.105-0.942-2.105-2.104v-8.561c0-0.945,0.767-1.712,1.712-1.712
				h161.927c0.977,0,1.767,0.791,1.767,1.767V330.999z"/>
		</g>
	</g>
	<g>
		<linearGradient id="SVGID_4_" gradientUnits="userSpaceOnUse" x1="233.3506" y1="548.2266" x2="130.85" y2="468.7261">
			<stop  offset="0" style="stop-color:#F9BABA"/>
			<stop  offset="1" style="stop-color:#F5928F"/>
		</linearGradient>
		<path fill="url(#SVGID_4_)" d="M153.701,462.203c0,0,27.5,62.748,66.597,72.463c7.566,1.474,16.456,0.826,20.43,3.297
			c4.517,2.807-0.976,10.374-3.173,16.11c-2.197,5.735-3.051,3.051-4.027,1.22c-0.978-1.83,3.133-7.607-2.238-9.885
			c-5.37-2.278-3.742,1.22-1.22,4.23s2.441,7.648,2.277,7.893c-0.162,0.244-4.23-1.79-8.055-3.58
			c-3.281-1.536-5.12-5.759-5.578-6.929c-7.741-0.902-56.192-8.522-76.789-59.474C141.925,487.549,139.94,436.965,153.701,462.203z"
			/>
		<path fill="#FFFFFF" d="M39.374,610.841c0.305,0,0.57-0.221,0.619-0.53c0.032-0.205,3.311-20.571,9.566-24.134
			c1.006-0.574,2.01-0.647,3.07-0.227c8.409,3.348,4.119,22.53,4.075,22.724c-0.079,0.339,0.133,0.675,0.471,0.752
			c0.337,0.076,0.674-0.134,0.751-0.472c0.191-0.832,4.564-20.429-4.833-24.17c-1.415-0.563-2.813-0.462-4.154,0.301
			c-6.778,3.86-10.05,24.168-10.186,25.03c-0.054,0.343,0.18,0.663,0.522,0.718C39.309,610.838,39.342,610.841,39.374,610.841z"/>
		
			<linearGradient id="SVGID_5_" gradientUnits="userSpaceOnUse" x1="-2362.6377" y1="601.2676" x2="-2398.8989" y2="659.8433" gradientTransform="matrix(-1 0 0 1 -2317.0459 0)">
			<stop  offset="0" style="stop-color:#5560AB"/>
			<stop  offset="1" style="stop-color:#4C57A6"/>
		</linearGradient>
		<polygon fill="url(#SVGID_5_)" points="30.705,608.779 63.174,605.778 70.402,609.786 64.208,617.537 34.551,614.516 		"/>
		<path fill="#2A3385" d="M35.396,806.485l-0.537,12.423c-0.103,2.356-1.796,4.345-4.112,4.794
			c-3.909,0.759-10.203,1.714-16.448,1.542c-2.74-0.075-4.721-2.69-4.096-5.36c1.14-4.868,3.347-12.214,7.002-16.721l13.649-1.064
			C33.378,801.901,35.506,803.957,35.396,806.485z"/>
		
			<linearGradient id="SVGID_6_" gradientUnits="userSpaceOnUse" x1="-4041.4858" y1="1275.8047" x2="-4003.501" y2="831.8555" gradientTransform="matrix(-0.997 0.0777 0.0777 0.997 -3973.2886 -50.0523)">
			<stop  offset="0" style="stop-color:#F9BABA"/>
			<stop  offset="1" style="stop-color:#F5928F"/>
		</linearGradient>
		<path fill="url(#SVGID_6_)" d="M131.071,654.001l3.36,13.374c0,0-1.621,78.753-0.557,110.121c0.167,4.918,1.813,9.662,4.711,13.64
			l15.115,20.739l-35.666-17.461l-1.003-4.108l4.982-8.109l-14.137-86.979c-0.831-5.109-0.172-10.351,1.898-15.096l6.02-13.799
			L131.071,654.001z"/>
		<path fill="#2A3385" d="M156.191,814.856l-10.88,0.849c-2.037,0.158-4.031-0.627-5.398-2.145
			c-3.736-4.143-11.435-12.194-14.813-12.156c-4.547,0.051-2.715,16.088-2.715,16.088l-2.535,0.197l-4.771-19.733
			c-1.2-4.966,0.912-10.142,5.243-12.85c0,0,1.63,7.567,7.501,10.513c5.872,2.945,24.027,13.718,24.027,13.718
			s2.084-0.465,4.431-0.227C159.764,809.463,159.681,814.584,156.191,814.856z"/>
		
			<linearGradient id="SVGID_7_" gradientUnits="userSpaceOnUse" x1="-3965.0781" y1="1282.415" x2="-3927.0828" y2="838.3433" gradientTransform="matrix(-0.997 0.0777 0.0777 0.997 -3973.2886 -50.0523)">
			<stop  offset="0" style="stop-color:#F9BABA"/>
			<stop  offset="1" style="stop-color:#F5928F"/>
		</linearGradient>
		<path fill="url(#SVGID_7_)" d="M84.872,664.08c0,0-38.515,89.265-44.173,109.4c-5.658,20.135-6.902,36.662-6.879,38.216
			c0.038,2.429-2.787,4.98-11.071,5.627c-4.275,0.333-6.504-1.218-7.658-2.797c-0.984-1.347-1.168-3.114-0.547-4.663
			c2.201-5.495,9.181-23.052,11.656-30.962c2.954-9.442,7.611-51.557,10.814-66.323c3.203-14.766,6.875-30.799,24.6-46.685
			C61.614,665.894,73.564,652.211,84.872,664.08z"/>
		<linearGradient id="SVGID_8_" gradientUnits="userSpaceOnUse" x1="396.1885" y1="323.4746" x2="184.6992" y2="440.4686">
			<stop  offset="0" style="stop-color:#F5928F"/>
			<stop  offset="1" style="stop-color:#F37064"/>
		</linearGradient>
		<path fill="url(#SVGID_8_)" d="M102.472,521.364c7.807-50.315-23.908-75.956-23.908-75.956
			c9.475-10.63,23.808-18.676,34.796-23.768c9.926-4.601,21.65-2.959,29.93,4.192c9.108,7.87,19.018,19.015,17.69,29.448
			c-1.406,11.044-17.701,66.87-17.701,66.87S125.002,532.612,102.472,521.364z"/>
		
			<linearGradient id="SVGID_9_" gradientUnits="userSpaceOnUse" x1="-2149.0405" y1="517.0605" x2="-2337.3164" y2="676.049" gradientTransform="matrix(1 0 0 1 2358.3179 0)">
			<stop  offset="0" style="stop-color:#5560AB"/>
			<stop  offset="1" style="stop-color:#4C57A6"/>
		</linearGradient>
		<path fill="url(#SVGID_9_)" d="M78.528,547.84c3.63-14.665,23.943-26.476,23.943-26.476c22.53,11.248,40.807,0.787,40.807,0.787
			s5.524,15.936,3.767,31.282c-1.76,15.347-12.612,113.941-12.612,113.941c-28.58,8.147-74.161-0.174-74.161-0.174
			C76.208,632.921,74.897,562.504,78.528,547.84z"/>
		<linearGradient id="SVGID_10_" gradientUnits="userSpaceOnUse" x1="100.6855" y1="479.3174" x2="125.6855" y2="400.8176">
			<stop  offset="0" style="stop-color:#F9BABA"/>
			<stop  offset="1" style="stop-color:#F5928F"/>
		</linearGradient>
		<path fill="url(#SVGID_10_)" d="M115.037,390.547l-6.159,43.318c-0.615,3.822,2.756,2.942,6.491,1.931
			c6.119-1.654,13.934-4.689,16.233-9.73c0.233-0.513,0.326-1.08,0.359-1.643l1.771-29.843c0.141-2.368-1.303-4.543-3.54-5.333
			l-8.13-2.871C118.932,385.27,115.564,387.27,115.037,390.547z"/>
		<polygon fill="#C0CFEB" points="15.035,686.426 3.9,680.026 30.705,608.779 37.139,613.122 		"/>
		<path fill="#FFFFFF" d="M45.251,618.587c0.017,0,0.033,0,0.05-0.002c0.346-0.026,0.604-0.328,0.577-0.674
			c-0.017-0.207-1.444-20.862,4.411-27.558c1.1-1.259,2.351-1.91,3.822-1.994c1.437-0.065,2.701,0.412,3.876,1.506
			c6.32,5.888,6.692,26.334,6.695,26.539c0.006,0.345,0.285,0.619,0.628,0.619c0.003,0,0.005,0,0.009,0
			c0.346-0.005,0.624-0.29,0.619-0.636c-0.013-0.863-0.385-21.188-7.096-27.44c-1.418-1.321-3.045-1.944-4.802-1.84
			c-1.801,0.101-3.382,0.915-4.697,2.42c-6.293,7.197-4.734,28.27-4.718,28.481C44.652,618.337,44.928,618.587,45.251,618.587z"/>
		
			<linearGradient id="SVGID_11_" gradientUnits="userSpaceOnUse" x1="-3984.2925" y1="899.623" x2="-3998.1582" y2="757.0039" gradientTransform="matrix(-0.997 0.0777 0.0777 0.997 -3973.2886 -50.0523)">
			<stop  offset="0" style="stop-color:#F9BABA"/>
			<stop  offset="1" style="stop-color:#F5928F"/>
		</linearGradient>
		<path fill="url(#SVGID_11_)" d="M94.092,465.004c-1.592,2.111-25.719,30.813-32.628,62.844
			c-6.909,32.029-4.586,53.416-4.586,53.416s7.02,5.235,4.496,8.948s-1.857,6.24-5.083,6.961c-3.227,0.72-7.227,1.735-6.738-4.633
			c0.488-6.367-7.113-7.649-5.851-11.499c1.256-3.832-7.347-107.202,34.268-135.24c0.196-0.133,0.395-0.264,0.594-0.393
			C96.155,451.765,96.652,461.61,94.092,465.004z"/>
		<polygon fill="#98B1DC" points="70.421,610.02 37.139,613.122 15.035,686.426 62.815,687.674 		"/>
		<g>
			<path fill="#98B1DC" d="M14.364,685.279c0.036,0,0.074-0.005,0.112-0.014c0.237-0.063,0.377-0.305,0.316-0.541l-2.137-8.146
				l16.855-52.299c0.074-0.233-0.054-0.482-0.284-0.559c-0.241-0.071-0.486,0.054-0.559,0.285L11.773,676.43
				c-0.026,0.081-0.028,0.168-0.007,0.249l2.169,8.271C13.989,685.148,14.167,685.279,14.364,685.279z"/>
		</g>
		<g>
			<path fill="#98B1DC" d="M4.706,680.172c0.063,0,0.13-0.014,0.189-0.043l5.763-2.755c0.222-0.105,0.315-0.37,0.21-0.59
				c-0.107-0.22-0.375-0.313-0.59-0.209l-5.763,2.755c-0.222,0.105-0.314,0.37-0.209,0.59
				C4.383,680.078,4.541,680.172,4.706,680.172z"/>
		</g>
		<g>
			
				<linearGradient id="SVGID_12_" gradientUnits="userSpaceOnUse" x1="-4050.4902" y1="1526.6572" x2="-3989.3914" y2="1568.1584" gradientTransform="matrix(-0.991 0.1338 0.1338 0.991 -4074.457 -602.6422)">
				<stop  offset="0" style="stop-color:#F9BABA"/>
				<stop  offset="1" style="stop-color:#F5928F"/>
			</linearGradient>
			<path fill="url(#SVGID_12_)" d="M121.854,356.187c0,0,13.179,3.582,24.089,20.455s5.702,26.047-2.096,28.262
				c-7.799,2.216-19.716,3.647-33.866-6.294C95.83,388.669,104.803,352.134,121.854,356.187z"/>
			<path fill="#2A3385" d="M117.139,387.849c0,0-12.965-25.09,10.363-28.557l6.019,3.102c0,0,6.602-15.772-8.414-20.849
				c-15.016-5.077-35.179,3.97-38.608,23.739c-3.43,19.771,1.729,31.541,12.918,39.269c11.188,7.727,13.907-3.114,13.907-3.114
				s-6.572-7.753-4.977-12.591c1.598-4.838,7.432-0.047,7.432-0.047L117.139,387.849z"/>
			
				<linearGradient id="SVGID_13_" gradientUnits="userSpaceOnUse" x1="-4046.8267" y1="1521.2646" x2="-3985.729" y2="1562.765" gradientTransform="matrix(-0.991 0.1338 0.1338 0.991 -4074.457 -602.6422)">
				<stop  offset="0" style="stop-color:#F9BABA"/>
				<stop  offset="1" style="stop-color:#F5928F"/>
			</linearGradient>
			<path fill="url(#SVGID_13_)" d="M114.913,391.14c0,0-6.589-12.938-12.203-6.674c-5.615,6.265,6.85,11.848,11.664,13.551
				L114.913,391.14z"/>
			<path fill="#2A3385" d="M97.699,361.431c0,0-45.306-13.939-52.764,33.317c-7.456,47.257-12.607,62.405-23.841,54.257
				c0,0,1.85,17.655,23.419,9.765C100.499,438.286,66.425,372.702,97.699,361.431z"/>
		</g>
	</g>
	<g>
		<g>
			<g opacity="0.3">
				<path fill="#98B1DC" d="M702.746,198.716c0.094,1.281-0.794,2.452-2.086,2.684c-2.825,0.506-5.716,0.896-8.589,1.162
					c-1.397,0.128-2.636-0.9-2.765-2.298c-0.001-0.017-0.002-0.033-0.004-0.05c-0.1-1.377,0.921-2.587,2.302-2.714
					c2.729-0.251,5.476-0.623,8.158-1.104c1.382-0.247,2.703,0.672,2.95,2.054C702.729,198.539,702.74,198.628,702.746,198.716z
					 M680.654,200.163c0.007,0.1,0.009,0.2,0.004,0.302c-0.063,1.402-1.25,2.488-2.652,2.426c-2.881-0.13-5.783-0.385-8.627-0.756
					c-1.393-0.182-2.37-1.451-2.192-2.85c0.183-1.392,1.458-2.372,2.85-2.19c2.704,0.354,5.461,0.595,8.198,0.718
					C679.534,197.871,680.563,198.896,680.654,200.163z M658.794,196.71c0.021,0.282-0.007,0.573-0.086,0.861
					c-0.375,1.353-1.773,2.146-3.127,1.773c-2.772-0.766-5.547-1.661-8.246-2.663c-1.315-0.489-1.984-1.951-1.498-3.267
					c0.488-1.315,1.952-1.986,3.267-1.498c2.563,0.951,5.197,1.802,7.831,2.528C657.998,194.739,658.718,195.669,658.794,196.71z
					 M638.249,188.454c0.034,0.466-0.061,0.947-0.299,1.389c-0.665,1.235-2.207,1.696-3.443,1.029
					c-2.532-1.367-5.037-2.861-7.443-4.438c-1.173-0.771-1.5-2.345-0.732-3.519c0.77-1.174,2.346-1.501,3.52-0.731
					c2.284,1.498,4.664,2.917,7.071,4.216C637.714,186.828,638.188,187.616,638.249,188.454z M620.063,175.823
					c0.048,0.654-0.156,1.326-0.622,1.858c-0.924,1.057-2.53,1.163-3.585,0.239c-2.162-1.891-4.273-3.901-6.274-5.975
					c-0.975-1.009-0.946-2.618,0.063-3.593c1.011-0.975,2.618-0.946,3.595,0.063c1.901,1.972,3.908,3.882,5.961,5.679
					C619.725,174.554,620.016,175.18,620.063,175.823z M605.124,159.485c0.062,0.848-0.302,1.706-1.039,2.243
					c-1.136,0.825-2.725,0.574-3.551-0.56c-1.691-2.326-3.307-4.754-4.796-7.215c-0.727-1.202-0.342-2.764,0.859-3.49
					c1.2-0.727,2.763-0.342,3.49,0.858c1.415,2.339,2.948,4.646,4.556,6.855C604.934,158.575,605.09,159.029,605.124,159.485z
					 M592.315,67.051c0.025,0.351-0.021,0.712-0.151,1.064c-0.946,2.561-1.792,5.198-2.517,7.837
					c-0.371,1.354-1.769,2.15-3.121,1.779c-1.354-0.371-2.15-1.769-1.78-3.123c0.762-2.78,1.653-5.558,2.649-8.255
					c0.486-1.317,1.948-1.99,3.264-1.503C591.625,65.207,592.245,66.088,592.315,67.051z M594.184,140.256
					c0.077,1.052-0.511,2.082-1.534,2.521c-1.29,0.554-2.784-0.044-3.337-1.334c-1.134-2.645-2.165-5.37-3.067-8.102
					c-0.434-1.334,0.283-2.77,1.616-3.21s2.77,0.283,3.211,1.616c0.856,2.595,1.837,5.183,2.912,7.693
					C594.099,139.707,594.164,139.982,594.184,140.256z M587.037,88.551c0.013,0.167,0.009,0.338-0.014,0.511
					c-0.349,2.709-0.584,5.47-0.702,8.205c-0.061,1.402-1.246,2.49-2.647,2.43c-1.402-0.061-2.497-1.245-2.431-2.648
					c0.125-2.877,0.373-5.783,0.739-8.634c0.179-1.392,1.453-2.375,2.845-2.196C586.046,86.374,586.951,87.371,587.037,88.551z
					 M587.814,119.065c0.093,1.278-0.792,2.449-2.082,2.682c-1.381,0.25-2.703-0.667-2.954-2.048
					c-0.512-2.827-0.909-5.715-1.178-8.583c-0.002-0.018-0.003-0.036-0.005-0.054c-0.1-1.375,0.918-2.584,2.297-2.714
					c1.396-0.132,2.637,0.895,2.769,2.292c0.256,2.724,0.633,5.467,1.119,8.153C587.796,118.885,587.808,118.976,587.814,119.065z"
					/>
				<path fill="#98B1DC" d="M599.985,50.939c0.036,0.499-0.073,1.014-0.349,1.478c-0.668,1.127-1.323,2.288-1.949,3.448
					c-0.665,1.235-2.207,1.698-3.442,1.032c-1.235-0.665-1.699-2.208-1.031-3.442c0.658-1.221,1.348-2.441,2.05-3.627
					c0.716-1.207,2.274-1.606,3.481-0.891C599.489,49.375,599.927,50.137,599.985,50.939z"/>
			</g>
			<g opacity="0.3">
				<path fill="#98B1DC" d="M662.37,4.995c0.089,1.223-0.719,2.364-1.951,2.655c-1.275,0.301-2.565,0.633-3.835,0.988
					c-1.352,0.378-2.754-0.411-3.132-1.762c-0.38-1.357,0.411-2.754,1.762-3.132c1.336-0.374,2.695-0.724,4.038-1.041
					c1.365-0.322,2.734,0.524,3.057,1.89C662.341,4.728,662.36,4.862,662.37,4.995z"/>
				<path fill="#98B1DC" d="M783.875,94.009c0.086,1.167,0.151,2.338,0.197,3.516c0.054,1.402-1.038,2.584-2.439,2.639
					c-1.403,0.055-2.59-1.044-2.64-2.44c-0.106-2.718-0.323-5.425-0.648-8.077c-0.168-1.395,0.82-2.661,2.213-2.832
					c1.395-0.171,2.661,0.821,2.832,2.214C783.591,90.669,783.755,92.345,783.875,94.009z M783.68,110.936
					c0.011,0.142,0.009,0.287-0.006,0.434c-0.272,2.822-0.668,5.664-1.175,8.446c-0.253,1.381-1.576,2.296-2.956,2.044
					c-1.382-0.252-2.3-1.578-2.044-2.956c0.481-2.643,0.856-5.343,1.117-8.024c0.136-1.396,1.377-2.42,2.774-2.284
					C782.641,108.716,783.591,109.724,783.68,110.936z M780.848,75.9c0.088,1.195-0.684,2.32-1.884,2.639
					c-1.357,0.359-2.748-0.449-3.107-1.806c-0.687-2.596-1.495-5.197-2.403-7.732c-0.47-1.322,0.217-2.776,1.537-3.249
					c1.322-0.473,2.777,0.215,3.25,1.537c0.955,2.67,1.806,5.41,2.529,8.143C780.812,75.587,780.837,75.744,780.848,75.9z
					 M779.205,132.264c0.023,0.321-0.016,0.652-0.121,0.978c-0.887,2.691-1.897,5.376-3.006,7.981
					c-0.551,1.291-2.043,1.892-3.334,1.342c-1.292-0.55-1.894-2.041-1.343-3.333c1.053-2.474,2.013-5.023,2.854-7.579
					c0.438-1.333,1.876-2.058,3.209-1.619C778.471,130.364,779.132,131.267,779.205,132.264z M772.977,55.599
					c0.072,0.98-0.433,1.956-1.358,2.439c-1.245,0.649-2.78,0.166-3.43-1.079c-1.24-2.379-2.602-4.739-4.043-7.014
					c-0.751-1.186-0.4-2.756,0.786-3.507c1.187-0.751,2.755-0.399,3.506,0.786c1.52,2.395,2.951,4.879,4.258,7.385
					C772.86,54.927,772.953,55.264,772.977,55.599z M760.842,37.517c0.058,0.784-0.248,1.583-0.895,2.129
					c-1.072,0.905-2.676,0.77-3.581-0.303c-1.736-2.057-3.58-4.064-5.479-5.966c-0.993-0.992-0.992-2.601,0.003-3.594
					c0.993-0.992,2.603-0.99,3.594,0.003c1.999,2.002,3.938,4.114,5.765,6.279C760.608,36.49,760.805,37,760.842,37.517z
					 M745.054,22.51c0.044,0.596-0.122,1.209-0.513,1.722c-0.849,1.117-2.443,1.334-3.561,0.484
					c-2.145-1.631-4.38-3.189-6.647-4.632c-1.183-0.752-1.533-2.322-0.778-3.508c0.753-1.184,2.323-1.533,3.508-0.779
					c2.386,1.518,4.739,3.158,6.995,4.874C744.661,21.131,745.002,21.808,745.054,22.51z M726.369,11.305
					c0.03,0.413-0.04,0.838-0.225,1.242c-0.585,1.276-2.092,1.835-3.368,1.251c-2.447-1.122-4.97-2.152-7.499-3.062
					c-1.32-0.475-2.006-1.933-1.532-3.251c0.475-1.321,1.932-2.006,3.252-1.532c2.664,0.958,5.32,2.042,7.896,3.224
					C725.767,9.578,726.305,10.41,726.369,11.305z M705.674,4.472c0.017,0.232,0.001,0.471-0.049,0.709
					c-0.289,1.373-1.638,2.252-3.01,1.963c-2.629-0.553-5.314-1.002-7.986-1.333c-1.393-0.172-2.381-1.446-2.21-2.834
					c0.173-1.393,1.442-2.382,2.835-2.21c2.813,0.348,5.641,0.82,8.407,1.403C704.795,2.41,705.594,3.371,705.674,4.472z
					 M683.997,2.354c0.003,0.052,0.006,0.104,0.006,0.158c0.017,1.403-1.107,2.554-2.51,2.571c-1.982,0.023-3.985,0.108-5.957,0.252
					c-0.714,0.052-1.427,0.113-2.136,0.18c-1.397,0.132-2.638-0.893-2.77-2.29c-0.161-1.412,0.893-2.637,2.29-2.77
					c0.746-0.07,1.493-0.133,2.245-0.188c2.074-0.151,4.183-0.24,6.267-0.265C682.782-0.016,683.899,1.024,683.997,2.354z"/>
				<path fill="#98B1DC" d="M770.11,152.132c0.037,0.504-0.075,1.023-0.354,1.489c-0.707,1.181-1.453,2.368-2.216,3.529
					c-0.771,1.174-2.347,1.5-3.52,0.729s-1.501-2.345-0.729-3.519c0.725-1.104,1.433-2.232,2.104-3.353
					c0.722-1.203,2.282-1.595,3.485-0.874C769.621,150.577,770.053,151.335,770.11,152.132z"/>
			</g>
			<g>
				<path fill="#98B1DC" d="M740.464,150.856c0.368-0.349,0.476-0.892,0.266-1.354l-5.963-13.168
					c3.719-5.635,6.566-11.902,8.341-18.619l13.784-4.323c0.484-0.151,0.818-0.594,0.832-1.1l0.488-17.333
					c0.015-0.507-0.295-0.967-0.769-1.145l-13.52-5.092c-1.394-6.807-3.884-13.224-7.28-19.059l6.694-12.813
					c0.234-0.449,0.158-0.998-0.189-1.366l-11.911-12.601c-0.349-0.369-0.892-0.475-1.354-0.266l-13.169,5.963
					c-5.634-3.719-11.901-6.567-18.618-8.341l-4.323-13.785c-0.152-0.483-0.594-0.817-1.1-0.832l-17.333-0.488
					c-0.508-0.015-0.967,0.294-1.145,0.769l-5.093,13.52c-6.806,1.393-13.225,3.883-19.058,7.28l-12.813-6.694
					c-0.448-0.234-0.997-0.158-1.365,0.189l-12.602,11.911c-0.368,0.348-0.476,0.892-0.266,1.353l5.963,13.169
					c-3.72,5.634-6.567,11.902-8.342,18.619l-13.784,4.323c-0.483,0.152-0.817,0.593-0.832,1.1l-0.487,17.333
					c-0.015,0.507,0.294,0.967,0.769,1.146l13.52,5.092c1.394,6.806,3.884,13.224,7.28,19.059l-6.694,12.812
					c-0.235,0.449-0.159,0.998,0.189,1.366l11.911,12.602c0.348,0.368,0.892,0.475,1.354,0.266l13.168-5.963
					c5.634,3.72,11.902,6.567,18.619,8.342l4.323,13.784c0.151,0.483,0.594,0.817,1.1,0.831l17.333,0.488
					c0.507,0.015,0.967-0.294,1.145-0.769l5.092-13.52c6.807-1.394,13.225-3.884,19.059-7.28l12.813,6.694
					c0.448,0.234,0.997,0.158,1.365-0.189L740.464,150.856z"/>
				<g>
					<path fill="#C0CFEB" d="M699.251,100.228c0.617,8.474-5.063,16.368-13.597,18.269c-9.382,2.09-18.713-3.843-20.803-13.224
						c-1.014-4.544-0.194-9.211,2.304-13.139c2.497-3.929,6.376-6.65,10.92-7.662c9.382-2.089,18.713,3.843,20.803,13.224
						C699.065,98.541,699.188,99.387,699.251,100.228z M668.532,102.428c0.048,0.654,0.143,1.309,0.288,1.96
						c1.603,7.192,8.757,11.741,15.949,10.14c7.192-1.603,11.744-8.756,10.139-15.95c-1.602-7.192-8.756-11.74-15.948-10.139
						c-3.485,0.776-6.457,2.862-8.373,5.875C669.03,96.763,668.324,99.586,668.532,102.428z"/>
				</g>
				<g>
					<path fill="#C0CFEB" d="M724.331,98.041c0.106,1.456,0.14,2.924,0.099,4.403l0,0c-0.013,0.465-0.034,0.931-0.062,1.396
						c-0.138,2.292-0.459,4.569-0.956,6.797c-0.007,0.03-0.014,0.061-0.021,0.091c-0.019,0.086-0.039,0.172-0.06,0.258
						c-0.038,0.168-0.079,0.335-0.12,0.502c-0.107,0.438-0.484,0.74-0.911,0.772c-0.104,0.007-0.211-0.001-0.318-0.027
						c-0.545-0.134-0.877-0.685-0.744-1.229c0.688-2.806,1.077-5.704,1.159-8.615c0.409-14.461-6.793-27.399-17.963-34.97
						c-6.212-4.211-13.653-6.761-21.696-6.987c-1.41-0.04-2.812-0.009-4.199,0.094c-9.343,0.682-18.093,4.525-24.992,11.046
						c-7.924,7.49-12.457,17.619-12.765,28.519c-0.631,22.511,17.158,41.323,39.659,41.956c1.388,0.039,2.771,0.008,4.146-0.093
						c5.959-0.436,11.757-2.171,16.971-5.101c0.135-0.075,0.279-0.117,0.424-0.127c0.38-0.028,0.761,0.161,0.96,0.516
						c0.273,0.49,0.103,1.109-0.389,1.385c-5.474,3.075-11.561,4.897-17.817,5.354c-1.442,0.105-2.896,0.139-4.352,0.098
						c-23.623-0.664-42.299-20.431-41.635-44.045c0.322-11.443,5.081-22.076,13.401-29.939c7.241-6.846,16.428-10.879,26.235-11.597
						c1.456-0.106,2.929-0.14,4.408-0.098c11.444,0.322,22.077,5.081,29.94,13.4C719.582,79.042,723.617,88.231,724.331,98.041z"/>
				</g>
			</g>
		</g>
		<g>
			<g opacity="0.3">
				<path fill="#98B1DC" d="M775.847,280.336c0.05,0.677-0.346,1.333-1.016,1.583c-1.247,0.468-2.526,0.903-3.801,1.296
					c-0.829,0.255-1.705-0.21-1.962-1.039c-0.259-0.829,0.211-1.707,1.039-1.962c1.214-0.373,2.434-0.789,3.624-1.234
					c0.811-0.305,1.716,0.107,2.021,0.919C775.806,280.043,775.837,280.189,775.847,280.336z"/>
				<path fill="#98B1DC" d="M764.199,283.515c0.058,0.793-0.494,1.518-1.292,1.658c-2.261,0.398-4.566,0.685-6.854,0.852
					c-0.481,0.035-0.965,0.064-1.45,0.091c-0.867,0.044-1.575-0.67-1.65-1.487c-0.045-0.865,0.621-1.604,1.486-1.648
					c0.464-0.024,0.926-0.053,1.386-0.086c2.182-0.159,4.381-0.433,6.535-0.812c0.854-0.151,1.668,0.419,1.819,1.272
					C764.188,283.408,764.195,283.462,764.199,283.515z M747.923,284.356c0.006,0.073,0.007,0.149,0.002,0.226
					c-0.062,0.865-0.812,1.517-1.677,1.456c-2.774-0.193-5.562-0.563-8.282-1.095c-0.851-0.166-1.403-0.995-1.238-1.842
					c0.166-0.852,0.989-1.405,1.841-1.239c2.597,0.508,5.254,0.858,7.9,1.045C747.257,282.962,747.868,283.59,747.923,284.356z
					 M731.931,281.226c0.014,0.198-0.009,0.403-0.075,0.604c-0.27,0.824-1.158,1.271-1.98,1.001
					c-2.639-0.868-5.251-1.91-7.766-3.099c-0.785-0.371-1.118-1.305-0.747-2.091c0.37-0.783,1.307-1.118,2.09-0.747
					c2.396,1.133,4.888,2.127,7.403,2.954C731.478,280.053,731.886,280.61,731.931,281.226z M717.195,274.259
					c0.023,0.324-0.053,0.657-0.239,0.953c-0.465,0.731-1.436,0.949-2.167,0.484c-2.35-1.49-4.625-3.139-6.768-4.902
					c-0.669-0.552-0.763-1.542-0.214-2.209c0.551-0.67,1.54-0.766,2.21-0.215c2.041,1.681,4.213,3.255,6.453,4.676
					C716.907,273.323,717.161,273.779,717.195,274.259z M704.609,263.904c0.033,0.453-0.13,0.916-0.484,1.254
					c-0.628,0.597-1.622,0.57-2.22-0.058c-1.912-2.015-3.72-4.167-5.37-6.396c-0.519-0.697-0.37-1.68,0.327-2.195
					c0.696-0.516,1.68-0.369,2.195,0.327c1.575,2.127,3.299,4.18,5.125,6.103C704.442,263.212,704.584,263.556,704.609,263.904z
					 M694.919,250.812c0.043,0.586-0.248,1.173-0.794,1.481c-0.755,0.426-1.712,0.159-2.138-0.595
					c-1.366-2.419-2.595-4.947-3.648-7.512c-0.328-0.806,0.055-1.72,0.855-2.049c0.802-0.33,1.719,0.054,2.048,0.854
					c1.006,2.446,2.175,4.855,3.478,7.162C694.838,250.363,694.902,250.587,694.919,250.812z M688.726,235.75
					c0.054,0.733-0.417,1.427-1.152,1.627c-0.837,0.228-1.698-0.266-1.928-1.102c-0.728-2.672-1.298-5.425-1.693-8.182
					c-0.11-0.862,0.474-1.654,1.331-1.777c0.858-0.123,1.653,0.473,1.777,1.331c0.376,2.63,0.919,5.255,1.613,7.803
					C688.702,235.55,688.719,235.65,688.726,235.75z M686.754,211.46c0.007,0.09,0.006,0.184-0.005,0.277
					c-0.234,2.276-0.35,4.604-0.34,6.923c-0.001,0.351,0.004,0.695,0.012,1.039c0.017,0.867-0.67,1.585-1.537,1.603
					c-0.868,0.02-1.61-0.674-1.603-1.536c-0.007-0.366-0.012-0.733-0.011-1.101c-0.01-2.422,0.11-4.863,0.357-7.251
					c0.09-0.861,0.86-1.488,1.723-1.399C686.118,210.094,686.7,210.715,686.754,211.46z"/>
			</g>
			<g opacity="0.3">
				<path fill="#98B1DC" d="M818.598,212.565c0.062,0.854-0.575,1.604-1.433,1.678c-0.862,0.074-1.624-0.566-1.697-1.43
					c-0.224-2.6-0.607-5.208-1.142-7.753c-0.17-0.845,0.364-1.681,1.214-1.859c0.849-0.178,1.68,0.366,1.858,1.214
					c0.559,2.669,0.963,5.403,1.196,8.129C818.595,212.544,818.597,212.559,818.598,212.565z M818.803,220.593
					c0.005,0.057,0.006,0.112,0.004,0.17c-0.093,2.731-0.353,5.484-0.773,8.183c-0.134,0.856-0.935,1.443-1.792,1.31
					c-0.857-0.133-1.44-0.939-1.311-1.792c0.401-2.574,0.649-5.201,0.739-7.808c0.028-0.866,0.755-1.544,1.621-1.515
					C818.102,219.168,818.745,219.804,818.803,220.593z M815.302,196.882c0.051,0.693-0.368,1.362-1.058,1.599
					c-0.818,0.28-1.712-0.157-1.992-0.977c-0.848-2.471-1.851-4.909-2.985-7.25c-0.375-0.783-0.052-1.719,0.729-2.097
					c0.779-0.378,1.719-0.052,2.098,0.729c1.188,2.454,2.239,5.012,3.127,7.601C815.266,196.617,815.292,196.75,815.302,196.882z
					 M816.329,236.437c0.013,0.178-0.004,0.361-0.057,0.543c-0.747,2.63-1.665,5.24-2.727,7.758
					c-0.337,0.799-1.258,1.173-2.058,0.836c-0.796-0.337-1.17-1.258-0.835-2.056c1.012-2.4,1.887-4.889,2.601-7.396
					c0.236-0.834,1.105-1.318,1.938-1.081C815.844,235.226,816.281,235.797,816.329,236.437z M808.313,182.461
					c0.041,0.555-0.215,1.113-0.714,1.435c-0.729,0.471-1.701,0.26-2.171-0.468c-1.41-2.189-2.971-4.315-4.638-6.318
					c-0.556-0.667-0.464-1.656,0.203-2.211c0.666-0.554,1.656-0.463,2.211,0.203c1.747,2.101,3.383,4.329,4.863,6.624
					C808.214,181.955,808.294,182.208,808.313,182.461z M798.068,170.137c0.03,0.425-0.109,0.859-0.424,1.192
					c-0.594,0.631-1.588,0.66-2.218,0.064c-1.9-1.791-3.925-3.483-6.018-5.028c-0.698-0.515-0.845-1.499-0.33-2.195
					c0.515-0.697,1.497-0.845,2.193-0.33c2.194,1.619,4.317,3.393,6.308,5.271C797.877,169.391,798.041,169.76,798.068,170.137z
					 M785.165,160.621c0.022,0.298-0.04,0.605-0.199,0.886c-0.426,0.755-1.385,1.021-2.139,0.594
					c-2.272-1.286-4.644-2.442-7.047-3.438c-0.799-0.332-1.181-1.25-0.85-2.05c0.333-0.802,1.25-1.182,2.052-0.85
					c2.521,1.044,5.007,2.256,7.392,3.604C784.848,159.637,785.129,160.115,785.165,160.621z"/>
				<path fill="#98B1DC" d="M810.063,251.274c0.022,0.303-0.044,0.613-0.205,0.896c-0.67,1.165-1.378,2.314-2.103,3.419
					c-0.476,0.724-1.449,0.927-2.175,0.45c-0.721-0.477-0.925-1.448-0.45-2.174c0.692-1.052,1.366-2.149,2.007-3.261
					c0.432-0.751,1.392-1.01,2.143-0.577C809.749,250.297,810.026,250.772,810.063,251.274z"/>
			</g>
			<g>
				<path fill="#98B1DC" d="M789.745,251.448c0.247-0.232,0.318-0.597,0.178-0.905l-3.989-8.812
					c2.488-3.771,4.395-7.964,5.581-12.459l9.225-2.893c0.323-0.102,0.546-0.397,0.556-0.736l0.327-11.599
					c0.009-0.339-0.197-0.646-0.515-0.766l-9.047-3.407c-0.932-4.555-2.599-8.85-4.871-12.753l4.479-8.574
					c0.156-0.3,0.106-0.667-0.127-0.914l-7.971-8.432c-0.233-0.246-0.597-0.318-0.904-0.178l-8.813,3.99
					c-3.77-2.489-7.964-4.395-12.459-5.582l-2.894-9.224c-0.102-0.324-0.396-0.547-0.735-0.557l-11.598-0.327
					c-0.34-0.009-0.647,0.197-0.767,0.515l-3.407,9.047c-4.556,0.933-8.85,2.599-12.754,4.872l-8.573-4.48
					c-0.3-0.156-0.667-0.105-0.914,0.127l-8.432,7.971c-0.246,0.232-0.318,0.597-0.179,0.905l3.991,8.813
					c-2.489,3.77-4.395,7.964-5.582,12.458l-9.224,2.894c-0.323,0.102-0.548,0.396-0.558,0.735l-0.326,11.599
					c-0.01,0.339,0.197,0.646,0.515,0.767l9.046,3.407c0.934,4.554,2.6,8.849,4.872,12.753l-4.479,8.573
					c-0.158,0.301-0.106,0.668,0.126,0.914l7.971,8.432c0.232,0.247,0.597,0.318,0.905,0.179l8.813-3.99
					c3.77,2.488,7.964,4.395,12.458,5.581l2.894,9.225c0.101,0.323,0.396,0.547,0.736,0.556l11.598,0.327
					c0.339,0.009,0.646-0.196,0.766-0.515l3.407-9.046c4.556-0.933,8.85-2.6,12.753-4.872l8.574,4.479
					c0.301,0.157,0.668,0.106,0.914-0.127L789.745,251.448z"/>
				<g>
					<path fill="#C0CFEB" d="M762.378,217.572c0.185,2.525-0.442,5.033-1.825,7.208c-1.701,2.677-4.343,4.529-7.439,5.219
						c-6.387,1.424-12.744-2.616-14.169-9.007c-1.413-6.4,2.619-12.747,9.01-14.17c3.095-0.689,6.273-0.132,8.949,1.569
						c2.677,1.701,4.53,4.343,5.219,7.439C762.25,216.409,762.336,216.991,762.378,217.572z M741.822,219.041
						c0.031,0.421,0.093,0.845,0.187,1.27c1.048,4.699,5.724,7.672,10.424,6.625c2.276-0.508,4.22-1.87,5.471-3.839
						c1.252-1.97,1.659-4.307,1.155-6.584l0,0c-0.507-2.277-1.871-4.221-3.839-5.472c-1.97-1.252-4.308-1.662-6.585-1.154
						C744.359,210.839,741.513,214.795,741.822,219.041z"/>
				</g>
				<g>
					<path fill="#C0CFEB" d="M779.838,216.072c0.072,0.991,0.095,1.993,0.067,3.006c-0.056,2.012-0.316,4.021-0.776,5.975
						c-0.021,0.087-0.043,0.175-0.064,0.263c-0.165,0.678-0.748,1.144-1.408,1.192c-0.16,0.012-0.326-0.002-0.489-0.042
						c-0.843-0.206-1.354-1.057-1.15-1.897c0.447-1.82,0.698-3.696,0.75-5.577v-0.001c0.004-0.103,0.005-0.207,0.007-0.31
						c0.083-4.451-0.947-8.754-2.948-12.602c-1.088-2.089-2.463-4.043-4.106-5.813c-0.013-0.015-0.026-0.029-0.04-0.044
						c-0.041-0.044-0.081-0.088-0.123-0.131c-4.85-5.129-11.405-8.064-18.462-8.263c-0.913-0.026-1.82-0.006-2.72,0.061
						c-6.047,0.441-11.712,2.929-16.179,7.15c-5.13,4.85-8.063,11.406-8.262,18.462c-0.196,7.052,2.362,13.768,7.21,18.898
						c4.85,5.13,11.406,8.065,18.463,8.264c0.898,0.025,1.794,0.005,2.684-0.061c3.858-0.282,7.611-1.404,10.985-3.301
						c0.209-0.117,0.433-0.182,0.655-0.197c0.587-0.043,1.175,0.249,1.482,0.796c0.423,0.757,0.157,1.713-0.601,2.138
						c-3.775,2.122-7.975,3.379-12.291,3.695c-0.996,0.073-1.998,0.096-3.002,0.067c-7.896-0.222-15.231-3.505-20.657-9.245
						c-5.424-5.739-8.295-13.244-8.067-21.143c0.222-7.895,3.504-15.229,9.246-20.654c4.995-4.724,11.333-7.507,18.1-8.001
						c1.004-0.073,2.02-0.097,3.041-0.068C766.466,189.122,778.749,201.139,779.838,216.072z"/>
				</g>
			</g>
		</g>
	</g>
</g>
</svg>
