<svg id="Calque_1" data-name="Calque 1" xmlns="http://www.w3.org/2000/svg" viewBox="0 0 765.28 667"><defs><style>.cls-1{fill:#efd0bb;}.cls-2{fill:#d78553;}</style></defs><title>logos_vecto_</title><polygon class="cls-1" points="393.94 0 472.99 105.4 441.06 128.79 473.43 168.16 222.65 354.26 143.6 249.32 175.02 226.01 142.01 182.87 393.94 0"/><polygon class="cls-2" points="505.05 158.35 584.1 263.76 552.16 287.15 583.41 328.02 332.09 510.95 254.71 407.67 286.13 384.36 253.12 341.22 505.05 158.35"/><polygon class="cls-2" points="612.04 314 689.71 421.86 661.27 441.75 691.97 482.07 442.65 667 365.82 564.28 397.24 540.97 364.23 497.83 612.04 314"/><path d="M110.49,399.15,83.55,501.64H9.71l109-386.5H210.1L318,501.64H241.93L213.69,399.15Zm93-55.62-23.63-89c-6.15-23.91-12.21-54.36-17.44-78.2H161.1c-5.14,24-10.94,55.17-16.79,78.19l-23.45,89Z"/><path d="M418.77,115.14H491.6V369.93c0,106.55-50.58,137.44-121.49,137.44-17.87,0-38.9-3-52.07-7.8l7.89-59.79a122.72,122.72,0,0,0,36.85,5.54c34,0,56-15,56-75.78Z"/><path d="M750,331.27H624.29V440.53h141v61.11H551.47V115.14h206v61.11H624.29v95H750Z"/></svg>