<?xml version="1.0" encoding="utf-8"?>
<!-- Generator: Adobe Illustrator 16.0.0, SVG Export Plug-In . SVG Version: 6.00 Build 0)  -->
<!DOCTYPE svg PUBLIC "-//W3C//DTD SVG 1.1//EN" "http://www.w3.org/Graphics/SVG/1.1/DTD/svg11.dtd">
<svg version="1.1" xmlns="http://www.w3.org/2000/svg" xmlns:xlink="http://www.w3.org/1999/xlink" x="0px" y="0px" width="1280px"
	 height="1024px" viewBox="0 0 1280 1024" enable-background="new 0 0 1280 1024" xml:space="preserve">
<g id="Background">
	<g>
		<linearGradient id="SVGID_1_" gradientUnits="userSpaceOnUse" x1="425.4863" y1="-2.5928" x2="806.1597" y2="910.5952">
			<stop  offset="0" style="stop-color:#9B34C3"/>
			<stop  offset="1" style="stop-color:#4B259F"/>
		</linearGradient>
		<rect fill="url(#SVGID_1_)" width="1280" height="1024"/>
	</g>
	<g opacity="0.45">
		<linearGradient id="SVGID_2_" gradientUnits="userSpaceOnUse" x1="557.2349" y1="438.1367" x2="1080.4814" y2="693.3445">
			<stop  offset="0" style="stop-color:#9B34C3"/>
			<stop  offset="1" style="stop-color:#4B259F"/>
		</linearGradient>
		<path fill="url(#SVGID_2_)" d="M943.574,0c-101.811,148.14,203.881,552.328-88.044,503.15
			C602.232,460.479,562.9,935.34,324.62,821.99C173.94,750.31,61.97,769.29,0,792.92V689.85
			c116.81-62.239,348.996,67.713,400.366-118.207C461.576,350.063,818.01,440.14,792.55,208.76C779.54,90.58,815.99,30.5,854.76,0
			H943.574z"/>
	</g>
	<g opacity="0.45">
		<linearGradient id="SVGID_3_" gradientUnits="userSpaceOnUse" x1="930.1943" y1="896.5137" x2="1061.3621" y2="368.9896">
			<stop  offset="0" style="stop-color:#9B34C3"/>
			<stop  offset="1" style="stop-color:#4B259F"/>
		</linearGradient>
		<path fill="url(#SVGID_3_)" d="M1280,249.18v228.11c-34.42,15.97-69.689,41.34-89.77,81.42
			c-48.48,96.72,59.88,154.21-11.41,251.28c-71.29,97.069-201.03-32.91-303.48,42.649c-50.02,36.9-52.95,108.13-42.84,171.36H664.27
			c11.74-26.5,19.891-58.57,18.601-95.66c-4.08-116.78,120.979-194.03,248.32-239.66c127.34-45.62,201.239-129.149,233.729-289.07
			C1186.61,292.86,1244.15,259.54,1280,249.18z"/>
	</g>
	<g opacity="0.45">
		<linearGradient id="SVGID_4_" gradientUnits="userSpaceOnUse" x1="0" y1="289.48" x2="571.1655" y2="289.48">
			<stop  offset="0" style="stop-color:#9B34C3"/>
			<stop  offset="1" style="stop-color:#4B259F"/>
		</linearGradient>
		<path fill="url(#SVGID_4_)" d="M546.87,108.76c-49.2,88.75-157.74,39.53-168.69,135.79c-10.96,96.25-145.69,88.59-175.64,12.22
			c-29.94-76.36-186.05-9.06-103.72,133.72C156.05,489.73,85.18,558.12,0,578.96V201.85c40.53-32.89,107.01-72.19,177.24-52.57
			c167.52,46.81,108.24-29.04,197.46-74.34C449.94,36.73,529.23,105.69,514.67,0h54.86C573.59,26.6,571.5,64.33,546.87,108.76z"/>
	</g>
</g>
<g id="Illustration">
	<image overflow="visible" width="1280" height="1024" xlink:href="14DEA187.png" >
	</image>
	<linearGradient id="SVGID_5_" gradientUnits="userSpaceOnUse" x1="1169" y1="1151.8086" x2="1080.6038" y2="925.1157">
		<stop  offset="0" style="stop-color:#4B259F"/>
		<stop  offset="0.4637" style="stop-color:#9533C0"/>
		<stop  offset="1" style="stop-color:#FFFFFF"/>
	</linearGradient>
	<path fill="url(#SVGID_5_)" d="M1280,912.431c0,0-25.391-51.621-97.791-32.876c-51.712,13.389-55.793,84.713-55.793,84.713
		s-38.896-24.807-47.695,26.355c-42.813-82.261-105.495-24.647-110.138,15.685c-16.149-30.622-42.314-8.242-53.765,17.692H1280
		V912.431z"/>
	<linearGradient id="SVGID_6_" gradientUnits="userSpaceOnUse" x1="110.8657" y1="1223.3594" x2="200.6874" y2="855.5184">
		<stop  offset="0" style="stop-color:#4B259F"/>
		<stop  offset="0.4637" style="stop-color:#9533C0"/>
		<stop  offset="1" style="stop-color:#FFFFFF"/>
	</linearGradient>
	<path fill="url(#SVGID_6_)" d="M0,844.178c0,0,88.158-44.756,139.151,42.358c63.094-33.566,126.187-7.992,126.187,55.146
		c29.386-4.795,32.843,22.378,21.607,38.362c58.772-19.182,76.058,43.956,76.058,43.956H0V844.178z"/>
	<linearGradient id="SVGID_7_" gradientUnits="userSpaceOnUse" x1="1010.6143" y1="819.6055" x2="1002.0598" y2="710.5359">
		<stop  offset="0" style="stop-color:#4B259F"/>
		<stop  offset="0.4637" style="stop-color:#9533C0"/>
		<stop  offset="1" style="stop-color:#FFFFFF"/>
	</linearGradient>
	<path fill="url(#SVGID_7_)" d="M1061.702,754.268H942.078c0,0-1.574-26.233,28.069-15.216
		c7.346-33.579,40.138-32.267,54.041-11.018C1042.29,705.735,1082.951,728.559,1061.702,754.268z"/>
	<linearGradient id="SVGID_8_" gradientUnits="userSpaceOnUse" x1="459.0234" y1="990.0693" x2="469.7166" y2="883.1384">
		<stop  offset="0" style="stop-color:#4B259F"/>
		<stop  offset="0.4637" style="stop-color:#9533C0"/>
		<stop  offset="1" style="stop-color:#FFFFFF"/>
	</linearGradient>
	<path fill="url(#SVGID_8_)" d="M389.524,921.719h154.817c0,0,1.672-13.709-22.403-10.7c1.337-40.46-30.763-44.138-51.495-22.403
		c-12.706-10.7-26.416,0.55-25.747,9.972C411.927,872.899,381.833,896.307,389.524,921.719z"/>
	<linearGradient id="SVGID_9_" gradientUnits="userSpaceOnUse" x1="1290.709" y1="843.75" x2="1240.4503" y2="660.8943">
		<stop  offset="0" style="stop-color:#4B259F"/>
		<stop  offset="0.4637" style="stop-color:#9533C0"/>
		<stop  offset="1" style="stop-color:#FFFFFF"/>
	</linearGradient>
	<path fill="url(#SVGID_9_)" d="M1280,677.822c-14.467-1.967-32.362,7.744-36.167,31.202c-11.979-11.408-29.663,5.705-18.254,18.825
		H1280V677.822z"/>
	<linearGradient id="SVGID_10_" gradientUnits="userSpaceOnUse" x1="231.9785" y1="852.3008" x2="235.1864" y2="732.5379">
		<stop  offset="0" style="stop-color:#4B259F"/>
		<stop  offset="0.4637" style="stop-color:#9533C0"/>
		<stop  offset="1" style="stop-color:#FFFFFF"/>
	</linearGradient>
	<path fill="url(#SVGID_10_)" d="M182.797,774.145h104.04c0,0-2.149-20.637-22.355-11.393c2.364-33.319-46.001-39.123-53.955-7.524
		C199.563,743.19,175.703,754.153,182.797,774.145z"/>
	<linearGradient id="SVGID_11_" gradientUnits="userSpaceOnUse" x1="771.7139" y1="1026.7139" x2="753.1795" y2="916.9329">
		<stop  offset="0" style="stop-color:#4B259F"/>
		<stop  offset="0.4637" style="stop-color:#9533C0"/>
		<stop  offset="1" style="stop-color:#FFFFFF"/>
	</linearGradient>
	<path fill="url(#SVGID_11_)" d="M661.143,979.601h204.422c0,0,3.397-39.525-44.775-24.086
		c-11.576-44.001-67.216-46.036-75.037-12.97c-18.836-23.159-53.112-10.189-50.643,16.366
		C665.156,945.324,661.143,979.601,661.143,979.601z"/>
	<linearGradient id="SVGID_12_" gradientUnits="userSpaceOnUse" x1="48.8779" y1="686.1875" x2="45.67" y2="574.9806">
		<stop  offset="0" style="stop-color:#4B259F"/>
		<stop  offset="0.4637" style="stop-color:#9533C0"/>
		<stop  offset="1" style="stop-color:#FFFFFF"/>
	</linearGradient>
	<path fill="url(#SVGID_12_)" d="M0,618.146h93.832c0,0-3.688-31.49-31.206-19.008c2.27-24.397-29.22-36.313-46.526-15.036
		c-2.16-9.133-8.292-15.346-16.1-18.479V618.146z"/>
	<g>
		<linearGradient id="SVGID_13_" gradientUnits="userSpaceOnUse" x1="821.9912" y1="104.936" x2="552.8105" y2="136.8728">
			<stop  offset="0.3139" style="stop-color:#FFFFFF"/>
			<stop  offset="0.4392" style="stop-color:#E4F2FB"/>
			<stop  offset="0.76" style="stop-color:#AEBAC3"/>
		</linearGradient>
		<path fill="url(#SVGID_13_)" d="M711.941,165.127c-0.668,1.277-1.336,2.614-2.129,3.957c-3.224,6.083-6.934,12.285-11.193,18.553
			c-0.73,1.218-1.579,2.43-2.432,3.647l-0.425-0.184l-39.542-15.874c0,0-0.486-9.671,2.068-24.392
			c0.486-2.62,1.033-5.359,1.701-8.276c5.415-24.148,18.981-57.488,51.951-84.557c5.902-4.806,12.289-9.431,19.527-13.749
			c0,0,2.555,8.881,3.348,23.908C735.787,90.061,732.809,125.099,711.941,165.127z"/>
		<linearGradient id="SVGID_14_" gradientUnits="userSpaceOnUse" x1="754.4941" y1="69.5762" x2="629.7854" y2="119.7639">
			<stop  offset="0.3139" style="stop-color:#3A788A"/>
			<stop  offset="0.7595" style="stop-color:#33505E"/>
		</linearGradient>
		<path fill="url(#SVGID_14_)" d="M723.726,86.692c0,6.5-5.264,11.751-11.757,11.751l0,0c-6.493,0-11.754-5.251-11.754-11.751l0,0
			c0-6.499,5.261-11.756,11.754-11.756l0,0C718.462,74.936,723.726,80.194,723.726,86.692L723.726,86.692z"/>
		<linearGradient id="SVGID_15_" gradientUnits="userSpaceOnUse" x1="779.0117" y1="47.2241" x2="659.8945" y2="70.542">
			<stop  offset="0.1415" style="stop-color:#FFFFFF"/>
			<stop  offset="0.5674" style="stop-color:#E20613"/>
		</linearGradient>
		<path fill="url(#SVGID_15_)" d="M734.789,68.158c-15.882-0.576-22.82-10.182-22.82-10.182c5.854-4.771,12.291-9.375,19.476-13.717
			C731.444,44.258,734.038,53.128,734.789,68.158z"/>
		<linearGradient id="SVGID_16_" gradientUnits="userSpaceOnUse" x1="673.2783" y1="143.6826" x2="695.3391" y2="155.3786">
			<stop  offset="0" style="stop-color:#E4F2FB"/>
			<stop  offset="0.1793" style="stop-color:#B6C3CC"/>
		</linearGradient>
		<path fill="url(#SVGID_16_)" d="M691.506,132.525c0,0-19.132,24.006-19.64,31.23l6.464,2.282L691.506,132.525z"/>
		<linearGradient id="SVGID_17_" gradientUnits="userSpaceOnUse" x1="693.71" y1="132.2793" x2="666.3222" y2="219.6593">
			<stop  offset="0.2095" style="stop-color:#9E151A"/>
			<stop  offset="0.636" style="stop-color:#E20613"/>
		</linearGradient>
		<path fill="url(#SVGID_17_)" d="M709.813,171.3c-3.224,5.471-6.934,11.049-11.193,16.688c-0.911,1.033-1.886,2.079-2.856,3.113
			l-39.542-14.276c0,0-0.486-8.697,2.068-21.932C660.297,155.925,680.248,166.048,709.813,171.3z"/>
		<linearGradient id="SVGID_18_" gradientUnits="userSpaceOnUse" x1="648.3672" y1="106.7813" x2="651.4089" y2="169.1363">
			<stop  offset="0.2302" style="stop-color:#FFFFFF"/>
			<stop  offset="0.7247" style="stop-color:#E20613"/>
		</linearGradient>
		<path fill="url(#SVGID_18_)" d="M670.173,122.307c0,0-29.459,5.958-39.809,46.866l33.538-11.335L670.173,122.307z"/>
		<linearGradient id="SVGID_19_" gradientUnits="userSpaceOnUse" x1="468.0503" y1="425.9702" x2="410.7244" y2="509.4666">
			<stop  offset="0.1594" style="stop-color:#FFF9C8"/>
			<stop  offset="0.5057" style="stop-color:#FFEC00"/>
		</linearGradient>
		<path fill="url(#SVGID_19_)" d="M452.733,430.535c-2.608,8.461-9.284,15.138-17.746,17.746
			c8.461,2.608,15.138,9.284,17.746,17.746c2.607-8.462,9.284-15.138,17.746-17.746
			C462.018,445.673,455.341,438.996,452.733,430.535z"/>
		<linearGradient id="SVGID_20_" gradientUnits="userSpaceOnUse" x1="827.3262" y1="437.3647" x2="792.4751" y2="488.1261">
			<stop  offset="0.1594" style="stop-color:#FFF9C8"/>
			<stop  offset="0.5057" style="stop-color:#FFEC00"/>
		</linearGradient>
		<path fill="url(#SVGID_20_)" d="M818.014,440.14c-1.586,5.144-5.645,9.203-10.789,10.788c5.145,1.585,9.203,5.645,10.789,10.789
			c1.585-5.144,5.644-9.203,10.788-10.789C823.657,449.343,819.599,445.284,818.014,440.14z"/>
		<linearGradient id="SVGID_21_" gradientUnits="userSpaceOnUse" x1="848.792" y1="178.0986" x2="791.4661" y2="261.595">
			<stop  offset="0.1594" style="stop-color:#FFF9C8"/>
			<stop  offset="0.5057" style="stop-color:#FFEC00"/>
		</linearGradient>
		<path fill="url(#SVGID_21_)" d="M833.475,182.663c-2.607,8.462-9.284,15.138-17.746,17.746
			c8.462,2.607,15.139,9.284,17.746,17.746c2.607-8.461,9.284-15.138,17.746-17.746
			C842.759,197.801,836.082,191.125,833.475,182.663z"/>
		<linearGradient id="SVGID_22_" gradientUnits="userSpaceOnUse" x1="697.9082" y1="146.7197" x2="724.9069" y2="166.7488">
			<stop  offset="0.1403" style="stop-color:#E4F2FB"/>
			<stop  offset="0.3566" style="stop-color:#B6C3CC"/>
		</linearGradient>
		<polygon fill="url(#SVGID_22_)" points="695.561,168.252 718.785,138.935 704.309,171.739 		"/>
		<linearGradient id="SVGID_23_" gradientUnits="userSpaceOnUse" x1="682.3203" y1="182.5889" x2="659.7776" y2="178.9744">
			<stop  offset="0.4996" style="stop-color:#ADB7B4"/>
			<stop  offset="0.5914" style="stop-color:#E2E7E8"/>
		</linearGradient>
		<path fill="url(#SVGID_23_)" d="M675.261,173.522l-0.306,2.613l-4.806,12.719l2.313-16.064c0.244,0.06,0.487,0.125,0.729,0.185
			C673.862,173.159,674.593,173.278,675.261,173.522z"/>
		<linearGradient id="SVGID_24_" gradientUnits="userSpaceOnUse" x1="712.4385" y1="137.7534" x2="624.229" y2="199.7283">
			<stop  offset="0.0393" style="stop-color:#FFFFFF"/>
			<stop  offset="0.421" style="stop-color:#E20613"/>
		</linearGradient>
		<path fill="url(#SVGID_24_)" d="M695.561,128.229c0,0-17.029,13.058-25.388,60.602l13.901-25.076L695.561,128.229z"/>
		<linearGradient id="SVGID_25_" gradientUnits="userSpaceOnUse" x1="756.7305" y1="143.8403" x2="665.8538" y2="206.9597">
			<stop  offset="0.1888" style="stop-color:#FFFFFF"/>
			<stop  offset="0.5525" style="stop-color:#E20613"/>
		</linearGradient>
		<path fill="url(#SVGID_25_)" d="M719.071,138.935c0,0,18.947,23.341,0.917,61.486l-18.672-30.078L719.071,138.935z"/>
	</g>
	<g>
		<path fill="#FFFFFF" d="M177.216,153.847c-1.495,4.851-5.322,8.678-10.173,10.173c4.851,1.495,8.678,5.322,10.173,10.173
			c1.495-4.851,5.322-8.678,10.173-10.173C182.539,162.525,178.711,158.698,177.216,153.847z"/>
		<path fill="#FFFFFF" d="M250.469,87.586c-0.773,2.508-2.752,4.488-5.261,5.261c2.508,0.773,4.488,2.752,5.261,5.261
			c0.773-2.509,2.752-4.488,5.261-5.261C253.221,92.074,251.242,90.095,250.469,87.586z"/>
		<path fill="#FFFFFF" d="M83.573,180.514c-0.773,2.508-2.752,4.487-5.261,5.261c2.508,0.773,4.488,2.752,5.261,5.261
			c0.773-2.509,2.752-4.488,5.261-5.261C86.325,185.001,84.346,183.022,83.573,180.514z"/>
		<path fill="#FFFFFF" d="M255.729,230.458c-0.773,2.509-2.752,4.488-5.261,5.261c2.508,0.773,4.487,2.752,5.261,5.261
			c0.773-2.508,2.752-4.488,5.261-5.261C258.481,234.945,256.502,232.966,255.729,230.458z"/>
		<path fill="#FFFFFF" d="M152.66,214.619c-0.567,1.84-2.02,3.293-3.86,3.86c1.84,0.567,3.293,2.02,3.86,3.86
			c0.567-1.84,2.02-3.293,3.86-3.86C154.679,217.912,153.227,216.459,152.66,214.619z"/>
		<path fill="#FFFFFF" d="M272.351,161.964c-0.567,1.841-2.02,3.293-3.86,3.86c1.841,0.567,3.293,2.02,3.86,3.86
			c0.567-1.841,2.02-3.293,3.86-3.86C274.371,165.258,272.918,163.805,272.351,161.964z"/>
		<path fill="#FFFFFF" d="M125.459,110.577c-0.567,1.841-2.02,3.293-3.86,3.86c1.841,0.567,3.293,2.02,3.86,3.86
			c0.567-1.841,2.02-3.293,3.86-3.86C127.479,113.87,126.026,112.418,125.459,110.577z"/>
		<path fill="#FFFFFF" d="M181.849,102.276c-0.302,0.98-1.075,1.753-2.055,2.056c0.98,0.302,1.753,1.075,2.055,2.055
			c0.302-0.98,1.075-1.753,2.056-2.055C182.924,104.03,182.151,103.257,181.849,102.276z"/>
		<path fill="#FFFFFF" d="M220.252,203.291c-0.302,0.98-1.075,1.753-2.055,2.056c0.98,0.302,1.753,1.075,2.055,2.055
			c0.302-0.98,1.075-1.753,2.055-2.055C221.328,205.044,220.555,204.271,220.252,203.291z"/>
		<path fill="#FFFFFF" d="M100.189,238.924c-0.302,0.98-1.075,1.753-2.055,2.055c0.98,0.302,1.753,1.075,2.055,2.055
			c0.302-0.98,1.075-1.753,2.055-2.055C101.265,240.677,100.492,239.904,100.189,238.924z"/>
		<path fill="#FFFFFF" d="M83.573,131.156c-0.302,0.98-1.075,1.753-2.055,2.055c0.98,0.302,1.753,1.075,2.055,2.055
			c0.302-0.98,1.075-1.753,2.055-2.055C84.648,132.909,83.875,132.136,83.573,131.156z"/>
		<path fill="#FFFFFF" d="M238.178,138.063c-0.302,0.98-1.075,1.753-2.056,2.055c0.98,0.302,1.753,1.075,2.056,2.055
			c0.302-0.98,1.075-1.753,2.055-2.055C239.253,139.817,238.479,139.043,238.178,138.063z"/>
		<path fill="#FFFFFF" d="M298.924,112.382c-0.302,0.98-1.075,1.753-2.056,2.055c0.98,0.302,1.753,1.075,2.056,2.056
			c0.302-0.98,1.075-1.753,2.055-2.056C300,114.136,299.226,113.362,298.924,112.382z"/>
		<path fill="#FFFFFF" d="M287.724,203.291c-0.302,0.98-1.075,1.753-2.055,2.056c0.98,0.302,1.753,1.075,2.055,2.055
			c0.302-0.98,1.075-1.753,2.056-2.055C288.799,205.044,288.026,204.271,287.724,203.291z"/>
		<path fill="#FFFFFF" d="M139.091,151.792c-0.302,0.98-1.076,1.753-2.056,2.055c0.98,0.302,1.753,1.075,2.056,2.055
			c0.302-0.98,1.075-1.753,2.055-2.055C140.167,153.545,139.393,152.771,139.091,151.792z"/>
		<path fill="#FFFFFF" d="M187.39,244.185c-0.302,0.98-1.075,1.753-2.056,2.055c0.98,0.302,1.753,1.075,2.056,2.055
			c0.302-0.98,1.075-1.753,2.055-2.055C188.465,245.938,187.691,245.165,187.39,244.185z"/>
		<path fill="#FFFFFF" d="M185.334,62.379c-0.302,0.98-1.075,1.753-2.055,2.055c0.98,0.302,1.753,1.075,2.055,2.055
			c0.302-0.98,1.076-1.753,2.056-2.055C186.41,64.132,185.636,63.359,185.334,62.379z"/>
		<path fill="#FFFFFF" d="M104.3,79.372c-0.302,0.98-1.075,1.753-2.056,2.056c0.98,0.302,1.753,1.075,2.056,2.055
			c0.302-0.98,1.075-1.753,2.055-2.055C105.375,81.125,104.602,80.352,104.3,79.372z"/>
		<path fill="#FFFFFF" d="M47.41,165.825c-0.302,0.98-1.075,1.753-2.055,2.056c0.98,0.302,1.753,1.075,2.055,2.055
			c0.302-0.98,1.075-1.753,2.056-2.055C48.485,167.578,47.712,166.805,47.41,165.825z"/>
	</g>
	<g>
		<path fill="#FFFFFF" d="M504.974,575.555c-1.495,4.851-5.322,8.678-10.173,10.173c4.851,1.495,8.678,5.322,10.173,10.173
			c1.495-4.851,5.323-8.678,10.173-10.173C510.296,584.232,506.469,580.405,504.974,575.555z"/>
		<path fill="#FFFFFF" d="M296.087,578.411c-0.773,2.509-2.752,4.488-5.261,5.261c2.509,0.773,4.488,2.752,5.261,5.261
			c0.773-2.509,2.752-4.487,5.261-5.261C298.839,582.899,296.86,580.92,296.087,578.411z"/>
		<path fill="#FFFFFF" d="M427.634,585.728c-0.773,2.509-2.752,4.487-5.261,5.261c2.509,0.772,4.488,2.752,5.261,5.261
			c0.773-2.509,2.752-4.488,5.261-5.261C430.387,590.215,428.408,588.236,427.634,585.728z"/>
		<path fill="#FFFFFF" d="M338.88,662.338c-0.773,2.509-2.752,4.488-5.261,5.261c2.508,0.773,4.487,2.753,5.261,5.261
			c0.773-2.508,2.752-4.487,5.261-5.261C341.632,666.826,339.653,664.847,338.88,662.338z"/>
		<path fill="#FFFFFF" d="M235.81,646.5c-0.567,1.84-2.02,3.293-3.86,3.859c1.84,0.567,3.293,2.021,3.86,3.86
			c0.567-1.84,2.02-3.293,3.86-3.86C237.83,649.793,236.377,648.34,235.81,646.5z"/>
		<path fill="#FFFFFF" d="M355.502,593.846c-0.567,1.84-2.02,3.293-3.86,3.859c1.841,0.567,3.293,2.02,3.86,3.86
			c0.567-1.841,2.02-3.293,3.86-3.86C357.521,597.139,356.069,595.686,355.502,593.846z"/>
		<path fill="#FFFFFF" d="M446.233,631.982c-0.567,1.841-2.02,3.293-3.86,3.86c1.841,0.567,3.293,2.02,3.86,3.86
			c0.567-1.841,2.02-3.293,3.86-3.86C448.253,635.275,446.801,633.823,446.233,631.982z"/>
		<path fill="#FFFFFF" d="M485.34,642.805c-0.302,0.979-1.075,1.753-2.056,2.055c0.98,0.303,1.753,1.076,2.056,2.056
			c0.302-0.979,1.075-1.753,2.055-2.056C486.416,644.558,485.642,643.784,485.34,642.805z"/>
		<path fill="#FFFFFF" d="M265,534.157c-0.302,0.98-1.075,1.753-2.055,2.056c0.98,0.302,1.753,1.075,2.055,2.055
			c0.302-0.979,1.075-1.753,2.055-2.055C266.075,535.91,265.302,535.138,265,534.157z"/>
		<path fill="#FFFFFF" d="M303.403,635.172c-0.302,0.98-1.075,1.753-2.056,2.056c0.98,0.302,1.753,1.075,2.056,2.055
			c0.302-0.979,1.075-1.753,2.055-2.055C304.479,636.925,303.705,636.152,303.403,635.172z"/>
		<path fill="#FFFFFF" d="M166.724,563.037c-0.302,0.979-1.075,1.753-2.056,2.055c0.98,0.303,1.753,1.075,2.056,2.056
			c0.302-0.98,1.075-1.753,2.055-2.056C167.799,564.79,167.025,564.017,166.724,563.037z"/>
		<path fill="#FFFFFF" d="M321.329,569.944c-0.302,0.979-1.076,1.753-2.056,2.055c0.98,0.303,1.753,1.075,2.056,2.056
			c0.302-0.98,1.075-1.753,2.055-2.056C322.404,571.697,321.63,570.924,321.329,569.944z"/>
		<path fill="#FFFFFF" d="M382.075,544.263c-0.302,0.98-1.075,1.754-2.055,2.056c0.98,0.302,1.753,1.075,2.055,2.056
			c0.302-0.98,1.076-1.754,2.056-2.056C383.15,546.017,382.377,545.243,382.075,544.263z"/>
		<path fill="#FFFFFF" d="M370.875,635.172c-0.302,0.98-1.075,1.753-2.055,2.056c0.98,0.302,1.753,1.075,2.055,2.055
			c0.302-0.979,1.075-1.753,2.055-2.055C371.95,636.925,371.176,636.152,370.875,635.172z"/>
		<path fill="#FFFFFF" d="M222.242,583.672c-0.302,0.98-1.075,1.754-2.055,2.056c0.98,0.302,1.753,1.075,2.055,2.056
			c0.302-0.98,1.076-1.754,2.056-2.056C223.317,585.426,222.544,584.652,222.242,583.672z"/>
		<path fill="#FFFFFF" d="M270.54,676.065c-0.302,0.979-1.075,1.753-2.055,2.055c0.98,0.303,1.753,1.075,2.055,2.056
			c0.302-0.98,1.076-1.753,2.056-2.056C271.616,677.818,270.842,677.045,270.54,676.065z"/>
		<path fill="#FFFFFF" d="M426.92,548.085c-0.302,0.979-1.075,1.753-2.055,2.055c0.98,0.302,1.753,1.075,2.055,2.056
			c0.302-0.98,1.076-1.754,2.056-2.056C427.996,549.838,427.223,549.064,426.92,548.085z"/>
		<path fill="#FFFFFF" d="M225.708,548.085c-0.302,0.979-1.075,1.753-2.055,2.055c0.98,0.302,1.753,1.075,2.055,2.056
			c0.302-0.98,1.075-1.754,2.055-2.056C226.784,549.838,226.01,549.064,225.708,548.085z"/>
		<path fill="#FFFFFF" d="M204.836,620.518c-0.302,0.979-1.075,1.753-2.055,2.055c0.98,0.303,1.753,1.076,2.055,2.056
			c0.302-0.979,1.075-1.753,2.055-2.056C205.911,622.271,205.138,621.497,204.836,620.518z"/>
	</g>
	<g>
		<path fill="#FFFFFF" d="M876.577,657.354c-0.932,3.022-3.316,5.407-6.339,6.339c3.022,0.932,5.407,3.316,6.339,6.339
			c0.932-3.022,3.316-5.407,6.339-6.339C879.894,662.761,877.509,660.376,876.577,657.354z"/>
		<path fill="#FFFFFF" d="M1073.297,656.122c-0.772,2.508-2.752,4.487-5.26,5.261c2.508,0.772,4.487,2.752,5.26,5.261
			c0.773-2.509,2.753-4.488,5.262-5.261C1076.05,660.609,1074.07,658.63,1073.297,656.122z"/>
		<path fill="#FFFFFF" d="M906.401,749.05c-0.772,2.508-2.752,4.487-5.261,5.261c2.509,0.772,4.488,2.752,5.261,5.261
			c0.773-2.509,2.752-4.488,5.261-5.261C909.153,753.537,907.175,751.558,906.401,749.05z"/>
		<path fill="#FFFFFF" d="M967.181,631.329c-0.773,2.509-2.752,4.487-5.261,5.261c2.509,0.773,4.487,2.752,5.261,5.261
			c0.772-2.509,2.752-4.487,5.261-5.261C969.933,635.816,967.953,633.838,967.181,631.329z"/>
		<path fill="#FFFFFF" d="M840.043,686.833c-0.567,1.841-2.02,3.293-3.86,3.86c1.841,0.567,3.293,2.02,3.86,3.86
			c0.567-1.841,2.02-3.293,3.86-3.86C842.063,690.126,840.61,688.674,840.043,686.833z"/>
		<path fill="#FFFFFF" d="M1095.18,730.5c-0.567,1.841-2.02,3.293-3.86,3.86c1.841,0.567,3.293,2.02,3.86,3.86
			c0.567-1.841,2.02-3.293,3.86-3.86C1097.199,733.793,1095.747,732.341,1095.18,730.5z"/>
		<path fill="#FFFFFF" d="M948.288,679.112c-0.567,1.841-2.02,3.294-3.86,3.86c1.841,0.567,3.293,2.02,3.86,3.86
			c0.567-1.841,2.02-3.293,3.86-3.86C950.308,682.406,948.855,680.953,948.288,679.112z"/>
		<path fill="#FFFFFF" d="M1004.678,670.813c-0.303,0.979-1.075,1.753-2.056,2.055c0.98,0.302,1.753,1.075,2.056,2.056
			c0.302-0.98,1.075-1.754,2.055-2.056C1005.753,672.565,1004.979,671.792,1004.678,670.813z"/>
		<path fill="#FFFFFF" d="M1043.081,771.826c-0.302,0.98-1.075,1.754-2.056,2.056c0.98,0.302,1.754,1.075,2.056,2.056
			c0.302-0.98,1.075-1.754,2.056-2.056C1044.156,773.58,1043.383,772.807,1043.081,771.826z"/>
		<path fill="#FFFFFF" d="M957.81,778.409c-0.303,0.98-1.075,1.754-2.056,2.056c0.98,0.302,1.753,1.075,2.056,2.056
			c0.302-0.98,1.075-1.754,2.055-2.056C958.885,780.163,958.111,779.39,957.81,778.409z"/>
		<path fill="#FFFFFF" d="M906.401,699.691c-0.302,0.98-1.075,1.753-2.056,2.056c0.98,0.302,1.754,1.075,2.056,2.055
			c0.302-0.979,1.075-1.753,2.056-2.055C907.477,701.444,906.703,700.672,906.401,699.691z"/>
		<path fill="#FFFFFF" d="M1061.006,706.599c-0.302,0.98-1.075,1.754-2.055,2.056c0.979,0.302,1.753,1.075,2.055,2.055
			c0.303-0.979,1.076-1.753,2.056-2.055C1062.082,708.353,1061.309,707.579,1061.006,706.599z"/>
		<path fill="#FFFFFF" d="M1121.753,680.918c-0.302,0.979-1.075,1.753-2.056,2.055c0.98,0.303,1.754,1.075,2.056,2.056
			c0.302-0.98,1.075-1.753,2.056-2.056C1122.828,682.671,1122.055,681.897,1121.753,680.918z"/>
		<path fill="#FFFFFF" d="M1110.553,771.826c-0.303,0.98-1.075,1.754-2.056,2.056c0.98,0.302,1.753,1.075,2.056,2.056
			c0.302-0.98,1.075-1.754,2.055-2.056C1111.628,773.58,1110.854,772.807,1110.553,771.826z"/>
		<path fill="#FFFFFF" d="M961.92,720.327c-0.302,0.979-1.075,1.753-2.056,2.055c0.98,0.302,1.754,1.075,2.056,2.056
			c0.302-0.98,1.075-1.754,2.056-2.056C962.995,722.08,962.222,721.307,961.92,720.327z"/>
		<path fill="#FFFFFF" d="M1007.604,791.928c-0.302,0.98-1.075,1.753-2.056,2.056c0.98,0.302,1.754,1.075,2.056,2.055
			c0.302-0.979,1.075-1.753,2.056-2.055C1008.68,793.681,1007.906,792.908,1007.604,791.928z"/>
		<path fill="#FFFFFF" d="M1008.163,630.915c-0.302,0.979-1.075,1.753-2.056,2.055c0.98,0.302,1.754,1.075,2.056,2.056
			c0.302-0.98,1.075-1.754,2.056-2.056C1009.238,632.668,1008.465,631.895,1008.163,630.915z"/>
		<path fill="#FFFFFF" d="M927.129,647.907c-0.302,0.98-1.075,1.754-2.056,2.056c0.98,0.302,1.754,1.075,2.056,2.056
			c0.302-0.98,1.075-1.754,2.056-2.056C928.204,649.661,927.431,648.888,927.129,647.907z"/>
		<path fill="#FFFFFF" d="M870.238,734.36c-0.302,0.979-1.075,1.753-2.055,2.056c0.979,0.302,1.753,1.075,2.055,2.055
			c0.302-0.979,1.075-1.753,2.056-2.055C871.313,736.113,870.54,735.34,870.238,734.36z"/>
	</g>
	<g>
		<path fill="#FFFFFF" d="M773.651,55.566c-0.694,2.251-2.47,4.027-4.721,4.721c2.251,0.693,4.026,2.47,4.721,4.721
			c0.693-2.251,2.47-4.027,4.721-4.721C776.121,59.593,774.345,57.817,773.651,55.566z"/>
		<path fill="#FFFFFF" d="M1029.623,78.209c-0.773,2.508-2.752,4.488-5.261,5.261c2.509,0.773,4.487,2.752,5.261,5.261
			c0.773-2.508,2.752-4.488,5.261-5.261C1032.375,82.697,1030.396,80.717,1029.623,78.209z"/>
		<path fill="#FFFFFF" d="M929.859,158.667c-0.772,2.509-2.752,4.488-5.261,5.261c2.509,0.773,4.488,2.752,5.261,5.261
			c0.773-2.508,2.753-4.487,5.262-5.261C932.612,163.155,930.633,161.176,929.859,158.667z"/>
		<path fill="#FFFFFF" d="M1056.27,203.35c-0.772,2.508-2.752,4.488-5.261,5.261c2.509,0.773,4.488,2.752,5.261,5.261
			c0.773-2.509,2.753-4.488,5.261-5.261C1059.022,207.838,1057.043,205.858,1056.27,203.35z"/>
		<path fill="#FFFFFF" d="M833.475,79.609c-0.567,1.841-2.02,3.293-3.86,3.86c1.841,0.567,3.293,2.02,3.86,3.86
			c0.567-1.841,2.02-3.293,3.86-3.86C835.494,82.902,834.042,81.45,833.475,79.609z"/>
		<path fill="#FFFFFF" d="M1072.892,134.857c-0.567,1.841-2.02,3.293-3.86,3.86c1.841,0.567,3.293,2.02,3.86,3.86
			c0.567-1.841,2.02-3.293,3.86-3.86C1074.911,138.15,1073.459,136.698,1072.892,134.857z"/>
		<path fill="#FFFFFF" d="M925.999,83.47c-0.566,1.841-2.02,3.293-3.86,3.86c1.841,0.567,3.294,2.02,3.86,3.86
			c0.567-1.841,2.021-3.293,3.86-3.86C928.02,86.763,926.566,85.311,925.999,83.47z"/>
		<path fill="#FFFFFF" d="M982.389,75.169c-0.302,0.98-1.075,1.753-2.055,2.056c0.979,0.302,1.753,1.075,2.055,2.055
			c0.303-0.98,1.076-1.753,2.056-2.055C983.465,76.922,982.691,76.149,982.389,75.169z"/>
		<path fill="#FFFFFF" d="M1031.575,149.896c-0.302,0.98-1.075,1.753-2.056,2.055c0.98,0.302,1.754,1.076,2.056,2.056
			c0.302-0.98,1.075-1.753,2.056-2.056C1032.65,151.65,1031.877,150.876,1031.575,149.896z"/>
		<path fill="#FFFFFF" d="M892.294,170.47c-0.302,0.98-1.075,1.753-2.055,2.055c0.979,0.302,1.753,1.075,2.055,2.055
			c0.303-0.98,1.075-1.753,2.056-2.055C893.369,172.223,892.597,171.45,892.294,170.47z"/>
		<path fill="#FFFFFF" d="M884.113,104.048c-0.302,0.98-1.075,1.753-2.056,2.056c0.98,0.302,1.754,1.075,2.056,2.055
			c0.302-0.98,1.075-1.753,2.056-2.055C885.188,105.802,884.415,105.029,884.113,104.048z"/>
		<path fill="#FFFFFF" d="M1038.718,110.956c-0.302,0.98-1.075,1.753-2.055,2.056c0.979,0.302,1.753,1.075,2.055,2.055
			c0.302-0.98,1.075-1.753,2.056-2.055C1039.793,112.709,1039.02,111.936,1038.718,110.956z"/>
		<path fill="#FFFFFF" d="M1108.138,127.572c-0.302,0.98-1.075,1.753-2.056,2.055c0.98,0.302,1.754,1.075,2.056,2.056
			c0.302-0.98,1.075-1.753,2.056-2.056C1109.213,129.325,1108.439,128.552,1108.138,127.572z"/>
		<path fill="#FFFFFF" d="M1088.264,176.184c-0.302,0.98-1.075,1.753-2.055,2.056c0.979,0.302,1.753,1.075,2.055,2.055
			c0.303-0.98,1.076-1.753,2.056-2.055C1089.34,177.937,1088.566,177.164,1088.264,176.184z"/>
		<path fill="#FFFFFF" d="M939.632,124.684c-0.302,0.98-1.075,1.753-2.056,2.056c0.98,0.302,1.754,1.075,2.056,2.055
			c0.302-0.98,1.075-1.753,2.055-2.055C940.707,126.437,939.934,125.664,939.632,124.684z"/>
		<path fill="#FFFFFF" d="M993.396,128.794c-0.302,0.98-1.075,1.753-2.056,2.055c0.98,0.302,1.754,1.076,2.056,2.056
			c0.302-0.98,1.075-1.753,2.056-2.056C994.471,130.548,993.697,129.774,993.396,128.794z"/>
		<path fill="#FFFFFF" d="M962.706,52.265c-0.302,0.98-1.075,1.753-2.055,2.055c0.979,0.302,1.753,1.076,2.055,2.056
			c0.303-0.98,1.075-1.753,2.056-2.056C963.781,54.018,963.009,53.245,962.706,52.265z"/>
		<path fill="#FFFFFF" d="M904.841,52.265c-0.302,0.98-1.075,1.753-2.056,2.055c0.98,0.302,1.754,1.076,2.056,2.056
			c0.302-0.98,1.075-1.753,2.056-2.056C905.916,54.018,905.143,53.245,904.841,52.265z"/>
		<path fill="#FFFFFF" d="M847.95,138.717c-0.302,0.98-1.075,1.753-2.056,2.055c0.98,0.302,1.754,1.075,2.056,2.056
			c0.302-0.98,1.075-1.753,2.056-2.056C849.025,140.471,848.252,139.697,847.95,138.717z"/>
	</g>
	<g>
		<path fill="#FFFFFF" d="M1168.587,350.677c-0.772,2.509-2.752,4.488-5.261,5.261c2.509,0.773,4.488,2.752,5.261,5.261
			c0.773-2.508,2.753-4.488,5.261-5.261C1171.34,355.165,1169.36,353.186,1168.587,350.677z"/>
		<path fill="#FFFFFF" d="M1078.443,430.971c-0.772,2.508-2.752,4.488-5.26,5.261c2.508,0.773,4.487,2.752,5.26,5.261
			c0.773-2.508,2.753-4.488,5.262-5.261C1081.196,435.459,1079.217,433.479,1078.443,430.971z"/>
		<path fill="#FFFFFF" d="M1173.848,493.549c-0.772,2.508-2.752,4.487-5.261,5.261c2.509,0.773,4.488,2.752,5.261,5.261
			c0.773-2.509,2.753-4.488,5.261-5.261C1176.601,498.036,1174.621,496.057,1173.848,493.549z"/>
		<path fill="#FFFFFF" d="M1070.778,477.71c-0.567,1.841-2.02,3.293-3.86,3.86c1.841,0.567,3.293,2.02,3.86,3.86
			c0.567-1.841,2.02-3.293,3.86-3.86C1072.798,481.003,1071.346,479.551,1070.778,477.71z"/>
		<path fill="#FFFFFF" d="M1190.47,425.056c-0.567,1.841-2.02,3.293-3.86,3.86c1.841,0.567,3.293,2.02,3.86,3.86
			c0.567-1.841,2.02-3.293,3.86-3.86C1192.489,428.349,1191.037,426.896,1190.47,425.056z"/>
		<path fill="#FFFFFF" d="M1107.563,409.217c-0.567,1.841-2.02,3.293-3.86,3.86c1.841,0.567,3.293,2.02,3.86,3.86
			c0.567-1.841,2.02-3.293,3.86-3.86C1109.583,412.51,1108.131,411.058,1107.563,409.217z"/>
		<path fill="#FFFFFF" d="M1099.968,365.368c-0.303,0.98-1.075,1.753-2.056,2.055c0.98,0.302,1.753,1.075,2.056,2.056
			c0.302-0.98,1.075-1.753,2.055-2.056C1101.043,367.121,1100.27,366.348,1099.968,365.368z"/>
		<path fill="#FFFFFF" d="M1138.371,466.382c-0.302,0.98-1.075,1.753-2.056,2.055c0.98,0.302,1.754,1.075,2.056,2.055
			c0.302-0.98,1.075-1.753,2.056-2.055C1139.446,468.136,1138.673,467.362,1138.371,466.382z"/>
		<path fill="#FFFFFF" d="M1018.309,502.015c-0.303,0.98-1.076,1.753-2.056,2.056c0.979,0.302,1.753,1.075,2.056,2.055
			c0.302-0.98,1.075-1.753,2.055-2.055C1019.384,503.768,1018.61,502.995,1018.309,502.015z"/>
		<path fill="#FFFFFF" d="M1058.364,343.455c-0.302,0.98-1.075,1.753-2.055,2.055c0.979,0.302,1.753,1.076,2.055,2.056
			c0.303-0.98,1.075-1.753,2.056-2.056C1059.439,345.208,1058.667,344.435,1058.364,343.455z"/>
		<path fill="#FFFFFF" d="M1156.296,401.154c-0.302,0.98-1.075,1.753-2.055,2.056c0.979,0.302,1.753,1.075,2.055,2.055
			c0.303-0.98,1.075-1.753,2.056-2.055C1157.371,402.908,1156.599,402.134,1156.296,401.154z"/>
		<path fill="#FFFFFF" d="M1217.043,375.473c-0.303,0.98-1.075,1.753-2.056,2.056c0.98,0.302,1.753,1.075,2.056,2.055
			c0.302-0.98,1.075-1.753,2.055-2.055C1218.118,377.227,1217.345,376.454,1217.043,375.473z"/>
		<path fill="#FFFFFF" d="M1205.843,466.382c-0.303,0.98-1.075,1.753-2.056,2.055c0.98,0.302,1.753,1.075,2.056,2.055
			c0.302-0.98,1.075-1.753,2.055-2.055C1206.918,468.136,1206.145,467.362,1205.843,466.382z"/>
		<path fill="#FFFFFF" d="M984.586,491.917c-0.302,0.98-1.075,1.753-2.056,2.055c0.98,0.302,1.754,1.076,2.056,2.056
			c0.302-0.98,1.075-1.753,2.056-2.056C985.661,493.67,984.888,492.897,984.586,491.917z"/>
		<path fill="#FFFFFF" d="M1105.508,507.275c-0.302,0.98-1.075,1.753-2.055,2.056c0.979,0.302,1.753,1.075,2.055,2.055
			c0.303-0.98,1.076-1.753,2.056-2.055C1106.584,509.029,1105.811,508.255,1105.508,507.275z"/>
		<path fill="#FFFFFF" d="M1103.453,325.47c-0.303,0.98-1.075,1.753-2.056,2.055c0.98,0.302,1.753,1.076,2.056,2.056
			c0.302-0.98,1.075-1.753,2.055-2.056C1104.528,327.224,1103.755,326.45,1103.453,325.47z"/>
		<path fill="#FFFFFF" d="M1145.151,314.661c-0.302,0.98-1.075,1.753-2.056,2.056c0.98,0.302,1.754,1.075,2.056,2.055
			c0.302-0.98,1.075-1.753,2.056-2.055C1146.227,316.415,1145.453,315.641,1145.151,314.661z"/>
		<path fill="#FFFFFF" d="M1041.33,475.207c-0.302,0.98-1.075,1.753-2.055,2.055c0.979,0.302,1.753,1.075,2.055,2.055
			c0.303-0.98,1.075-1.753,2.056-2.055C1042.405,476.959,1041.633,476.187,1041.33,475.207z"/>
	</g>
	<g id="Moon" display="none">
		<linearGradient id="SVGID_26_" gradientUnits="userSpaceOnUse" x1="847.5508" y1="502.9111" x2="462.0147" y2="188.8552">
			<stop  offset="0.2644" style="stop-color:#ADB7B4"/>
			<stop  offset="0.6427" style="stop-color:#E2E7E8"/>
		</linearGradient>
		<path display="inline" fill="url(#SVGID_26_)" d="M793.578,317.512c0.122,2.495,0.366,4.99,0.366,7.485
			c0,86.199-69.836,156.032-156.035,156.032c-19.771,0-38.629-3.832-56.086-10.521l-6.936,7.782
			c-12.41-6.262-43.313-24.393-43.313-24.393l2.067-13.016c-30.051-27.072-49.457-65.639-51.402-108.834
			c-4.503-3.278-9.187-7.051-9.187-7.051c-6.265-22.997,0-36.928,0-36.928l15.452-7.907c4.563-15.333,11.436-29.685,20.258-42.707
			c-1.459-6.992,0.668-14.596,5.961-20.258c7.238-7.663,19.04-9.974,24.517-19.646c10.34-18.375,34.614-20.805,49.334-20.501
			c15.511-5.168,32.059-8.091,49.335-8.091c10.585,0,20.866,1.033,30.84,3.101c1.28,0.184,2.495,0.428,3.713,0.73
			c0.244,0.06,0.487,0.125,0.729,0.185c0.671,0.184,1.401,0.303,2.069,0.547c9.429,2.251,18.432,5.412,27.069,9.368h0.063
			c2.13,0.974,4.256,1.948,6.326,3.042c1.765,0.915,3.467,1.824,5.172,2.798h0.06c29.991,16.788,53.896,43.129,67.462,75.006
			C789.81,267.996,802.825,280.709,793.578,317.512z"/>
		<linearGradient id="SVGID_27_" gradientUnits="userSpaceOnUse" x1="642.5771" y1="278.3008" x2="505.7101" y2="220.5124">
			<stop  offset="0.2551" style="stop-color:#C6D3D7"/>
			<stop  offset="0.7361" style="stop-color:#9C9B9B"/>
		</linearGradient>
		<path display="inline" fill="url(#SVGID_27_)" d="M598.279,268.519c-16.146,20.091-39.71,27.963-52.625,17.584
			c-12.918-10.384-10.298-35.085,5.849-55.183c16.149-20.08,39.707-27.963,52.625-17.578
			C617.042,223.72,614.426,248.422,598.279,268.519z"/>
		<linearGradient id="SVGID_28_" gradientUnits="userSpaceOnUse" x1="673.6162" y1="302.061" x2="782.8441" y2="395.6855">
			<stop  offset="0.217" style="stop-color:#B4BFBD"/>
			<stop  offset="0.6053" style="stop-color:#7C7B7B"/>
		</linearGradient>
		<path display="inline" fill="url(#SVGID_28_)" d="M740.891,358.585c-14.376,17.894-35.537,24.761-47.252,15.345
			c-11.721-9.41-9.562-31.557,4.818-49.444c14.376-17.894,35.527-24.761,47.249-15.339
			C757.421,318.551,755.268,340.698,740.891,358.585z"/>
		<linearGradient id="SVGID_29_" gradientUnits="userSpaceOnUse" x1="546.874" y1="271.6113" x2="624.5693" y2="271.6113">
			<stop  offset="0.2551" style="stop-color:#C6D3D7"/>
			<stop  offset="0.7361" style="stop-color:#9C9B9B"/>
		</linearGradient>
		<path display="inline" fill="url(#SVGID_29_)" d="M624.569,240.027c0,0-4.282,84.967-77.695,57.814
			C546.874,297.842,604.96,316.921,624.569,240.027z"/>
		<linearGradient id="SVGID_30_" gradientUnits="userSpaceOnUse" x1="618.3906" y1="349.3804" x2="738.1226" y2="364.0748">
			<stop  offset="0.2551" style="stop-color:#C6D3D7"/>
			<stop  offset="0.4753" style="stop-color:#9C9B9B"/>
		</linearGradient>
		<path display="inline" fill="url(#SVGID_30_)" d="M675.261,330.822c0,0-22.435,32.16,7.779,52.031
			C683.04,382.853,666.291,362.206,675.261,330.822z"/>
		<linearGradient id="SVGID_31_" gradientUnits="userSpaceOnUse" x1="704.7354" y1="279.0283" x2="715.3528" y2="306.4873">
			<stop  offset="0" style="stop-color:#C6D3D7"/>
			<stop  offset="0.7361" style="stop-color:#9C9B9B"/>
		</linearGradient>
		<path display="inline" fill="url(#SVGID_31_)" d="M734.976,290.679c0,0-33.659-9.402-44.931,16.911
			C690.045,307.59,702.344,291.25,734.976,290.679z"/>
		<linearGradient id="SVGID_32_" gradientUnits="userSpaceOnUse" x1="585.5396" y1="380.7627" x2="500.0355" y2="333.3955">
			<stop  offset="0.0507" style="stop-color:#C6D3D7"/>
			<stop  offset="0.5106" style="stop-color:#9C9B9B"/>
		</linearGradient>
		<path display="inline" fill="url(#SVGID_32_)" d="M585.765,367.508c0,12.695-10.815,22.985-24.155,22.985
			c-13.343,0-24.161-10.29-24.161-22.985c0-12.695,10.818-22.99,24.161-22.99C574.95,344.518,585.765,354.813,585.765,367.508z"/>
		<linearGradient id="SVGID_33_" gradientUnits="userSpaceOnUse" x1="608.687" y1="390.7026" x2="701.8475" y2="465.231">
			<stop  offset="0.1016" style="stop-color:#C6D3D7"/>
			<stop  offset="0.8124" style="stop-color:#9C9B9B"/>
		</linearGradient>
		<path display="inline" fill="url(#SVGID_33_)" d="M684.799,432.267c0,12.696-10.818,22.985-24.157,22.985
			c-13.344,0-24.158-10.289-24.158-22.985c0-12.695,10.814-22.99,24.158-22.99C673.98,409.277,684.799,419.572,684.799,432.267z"/>
		<linearGradient id="SVGID_34_" gradientUnits="userSpaceOnUse" x1="579.3599" y1="434.1719" x2="667.9329" y2="431.1307">
			<stop  offset="0.2463" style="stop-color:#C6D3D7"/>
			<stop  offset="0.4521" style="stop-color:#9C9B9B"/>
		</linearGradient>
		<path display="inline" fill="url(#SVGID_34_)" d="M634.9,409.277c0,0-23.614,21.529,0,45.975
			C634.9,455.252,599.328,434.709,634.9,409.277z"/>
		<linearGradient id="SVGID_35_" gradientUnits="userSpaceOnUse" x1="478.9478" y1="520.0586" x2="808.2946" y2="314.7519">
			<stop  offset="0" style="stop-color:#ADB7B4"/>
			<stop  offset="1" style="stop-color:#FFFFFF"/>
		</linearGradient>
		<path display="inline" fill="url(#SVGID_35_)" d="M781.412,263.736c-1.449-3.405-3.022-6.742-4.702-10.015
			c0.017,1.017,0.038,2.032,0.038,3.053c0,99.087-80.325,179.413-179.413,179.413c-31.968,0-61.977-8.371-87.972-23.025
			c6.981,10.174,15.133,19.482,24.278,27.72l-2.067,13.016c0,0,30.903,18.131,43.313,24.393l6.936-7.782
			c17.457,6.689,36.315,10.521,56.086,10.521c86.199,0,156.035-69.833,156.035-156.032c0-2.496-0.244-4.991-0.366-7.485
			C802.825,280.709,789.81,267.996,781.412,263.736z"/>
	</g>
	<linearGradient id="SVGID_36_" gradientUnits="userSpaceOnUse" x1="499.2271" y1="126.9702" x2="441.9012" y2="210.4666">
		<stop  offset="0.1594" style="stop-color:#FFF9C8"/>
		<stop  offset="0.5057" style="stop-color:#FFEC00"/>
	</linearGradient>
	<path fill="url(#SVGID_36_)" d="M483.908,131.535c-2.608,8.462-9.284,15.138-17.746,17.746c8.462,2.607,15.138,9.284,17.746,17.746
		c2.607-8.462,9.284-15.138,17.746-17.746C493.192,146.673,486.516,139.997,483.908,131.535z"/>
</g>
</svg>
