<?xml version="1.0" encoding="utf-8"?>
<!-- Generator: Adobe Illustrator 16.0.0, SVG Export Plug-In . SVG Version: 6.00 Build 0)  -->
<!DOCTYPE svg PUBLIC "-//W3C//DTD SVG 1.1//EN" "http://www.w3.org/Graphics/SVG/1.1/DTD/svg11.dtd">
<svg version="1.1" id="Layer_1" xmlns="http://www.w3.org/2000/svg" xmlns:xlink="http://www.w3.org/1999/xlink" x="0px" y="0px"
	 width="823.577px" height="828.435px" viewBox="0 0 823.577 828.435" enable-background="new 0 0 823.577 828.435"
	 xml:space="preserve">
<g>
	<linearGradient id="SVGID_1_" gradientUnits="userSpaceOnUse" x1="869.4219" y1="810.3174" x2="274.8423" y2="290.061">
		<stop  offset="0" style="stop-color:#DBE2F3"/>
		<stop  offset="1" style="stop-color:#EAEFF8"/>
	</linearGradient>
	<path fill="url(#SVGID_1_)" d="M768.374,540.125C691.53,721.061,486.837,822.422,309.326,795.08
		c-28.885-4.449-108.072-17.703-178.183-80.227C-3.822,594.492-32.686,356.158,76.188,188.199
		C155.428,65.954,297.475-3.342,432.446,0.124c29.072,0.747,140.492,5.348,238.412,86.09c14.381,11.86,46.104,40.041,74.691,84.748
		C812.683,275.943,818.452,422.205,768.374,540.125z"/>
	<g>
		
			<linearGradient id="SVGID_2_" gradientUnits="userSpaceOnUse" x1="471.7432" y1="33.5469" x2="320.9175" y2="752.4178" gradientTransform="matrix(1 5.000000e-004 -5.000000e-004 1 -7.2398 1.5356)">
			<stop  offset="0" style="stop-color:#201B59"/>
			<stop  offset="1" style="stop-color:#2D2D84"/>
		</linearGradient>
		<path fill="url(#SVGID_2_)" d="M383.187,602.008c-8.065-0.004-15.75-3.475-21.083-9.523c-5.334-6.049-7.817-14.107-6.813-22.109
			l2.87-21.383c0.439-3.268,3.44-5.555,6.708-5.121c3.267,0.438,5.559,3.441,5.121,6.709l-2.863,21.332
			c-0.572,4.557,0.858,9.197,3.928,12.678c3.072,3.482,7.496,5.48,12.14,5.482c11.656,0.006,21.144-9.473,21.15-21.129
			l0.268-556.188c0.002-3.295,2.676-5.966,5.971-5.964s5.965,2.675,5.965,5.97l-0.268,556.186
			C416.269,587.186,401.425,602.016,383.187,602.008z"/>
		<g>
			<linearGradient id="SVGID_3_" gradientUnits="userSpaceOnUse" x1="22.0459" y1="-69.1685" x2="462.0423" y2="522.8273">
				<stop  offset="0" style="stop-color:#F37064"/>
				<stop  offset="1" style="stop-color:#F5928F"/>
			</linearGradient>
			<path fill="url(#SVGID_3_)" d="M2.271,286.874c75.715-6.136,143.618,5.485,205.191,31.489L412.786,73.908
				C412.786,73.908,126.397,56.979,2.271,286.874z"/>
			<linearGradient id="SVGID_4_" gradientUnits="userSpaceOnUse" x1="820.2822" y1="-189.3896" x2="468.2825" y2="448.6094">
				<stop  offset="0" style="stop-color:#F37064"/>
				<stop  offset="1" style="stop-color:#F5928F"/>
			</linearGradient>
			<path fill="url(#SVGID_4_)" d="M821.312,287.269c-75.707-6.208-143.621,5.347-205.221,31.292L411.001,73.907
				C411.001,73.907,697.407,57.255,821.312,287.269z"/>
			<linearGradient id="SVGID_5_" gradientUnits="userSpaceOnUse" x1="646.3389" y1="-254.0244" x2="522.3381" y2="39.9774">
				<stop  offset="0" style="stop-color:#F37064"/>
				<stop  offset="1" style="stop-color:#F5928F"/>
			</linearGradient>
			<path fill="url(#SVGID_5_)" d="M411.896,73.177c0,0-164.169,7.221-203.542,245.187l25.458-5.651
				c116.542-25.872,239.418-25.813,355.936,0.171l25.451,5.676C576.058,80.557,411.896,73.177,411.896,73.177z"/>
			
				<linearGradient id="SVGID_6_" gradientUnits="userSpaceOnUse" x1="7.3857" y1="287.5244" x2="15.4893" y2="287.5244" gradientTransform="matrix(1 5.000000e-004 -5.000000e-004 1 -7.2398 1.5356)">
				<stop  offset="0" style="stop-color:#E1483D"/>
				<stop  offset="1" style="stop-color:#E9625B"/>
			</linearGradient>
			<path fill="url(#SVGID_6_)" d="M3.282,294.938l-2.094-0.451c-0.851-0.185-1.359-0.897-1.135-1.594l2.825-8.772
				c0.225-0.696,1.097-1.111,1.948-0.928l2.093,0.451c0.852,0.185,1.359,0.897,1.135,1.595l-2.825,8.771
				C5.005,294.706,4.133,295.121,3.282,294.938z"/>
			
				<linearGradient id="SVGID_7_" gradientUnits="userSpaceOnUse" x1="210.8086" y1="318.1807" x2="218.9121" y2="318.1807" gradientTransform="matrix(1 5.000000e-004 -5.000000e-004 1 -7.2398 1.5356)">
				<stop  offset="0" style="stop-color:#E1483D"/>
				<stop  offset="1" style="stop-color:#E9625B"/>
			</linearGradient>
			<path fill="url(#SVGID_7_)" d="M206.69,325.696l-2.094-0.452c-0.851-0.184-1.359-0.896-1.135-1.593l2.826-8.772
				c0.224-0.696,1.096-1.112,1.947-0.928l2.093,0.451c0.852,0.184,1.36,0.897,1.135,1.594l-2.825,8.771
				C208.413,325.464,207.541,325.88,206.69,325.696z"/>
			
				<linearGradient id="SVGID_8_" gradientUnits="userSpaceOnUse" x1="822.8594" y1="287.5088" x2="830.9629" y2="287.5088" gradientTransform="matrix(1 5.000000e-004 -5.000000e-004 1 -7.2398 1.5356)">
				<stop  offset="0" style="stop-color:#E1483D"/>
				<stop  offset="1" style="stop-color:#E9625B"/>
			</linearGradient>
			<path fill="url(#SVGID_8_)" d="M820.292,295.331l2.096-0.449c0.852-0.184,1.359-0.896,1.137-1.593l-2.816-8.774
				c-0.225-0.697-1.096-1.113-1.947-0.931l-2.094,0.449c-0.852,0.184-1.361,0.896-1.137,1.593l2.816,8.774
				C818.569,295.098,819.442,295.514,820.292,295.331z"/>
			
				<linearGradient id="SVGID_9_" gradientUnits="userSpaceOnUse" x1="619.4375" y1="318.1729" x2="627.541" y2="318.1729" gradientTransform="matrix(1 5.000000e-004 -5.000000e-004 1 -7.2398 1.5356)">
				<stop  offset="0" style="stop-color:#E1483D"/>
				<stop  offset="1" style="stop-color:#E9625B"/>
			</linearGradient>
			<path fill="url(#SVGID_9_)" d="M616.856,325.894l2.094-0.449c0.852-0.184,1.361-0.896,1.137-1.593l-2.816-8.774
				c-0.225-0.697-1.096-1.113-1.947-0.931l-2.094,0.45c-0.852,0.183-1.359,0.896-1.137,1.592l2.816,8.775
				C615.134,325.66,616.005,326.076,616.856,325.894z"/>
		</g>
		
			<linearGradient id="SVGID_10_" gradientUnits="userSpaceOnUse" x1="405.144" y1="71.4326" x2="431.998" y2="71.4326" gradientTransform="matrix(1 5.000000e-004 -5.000000e-004 1 -7.2398 1.5356)">
			<stop  offset="0" style="stop-color:#E1483D"/>
			<stop  offset="1" style="stop-color:#E9625B"/>
		</linearGradient>
		<path fill="url(#SVGID_10_)" d="M422.72,76.166l-22.852-0.011c-1.105-0.001-2-0.896-2-2.001l0.002-1.967
			c0-1.105,0.896-1.999,2-1.999l22.852,0.011c1.105,0.001,2.002,0.896,2,2.001v1.967C424.72,75.271,423.823,76.167,422.72,76.166z"
			/>
	</g>
	<g>
		
			<linearGradient id="SVGID_11_" gradientUnits="userSpaceOnUse" x1="-1062.6558" y1="505.0088" x2="-1070.7869" y2="421.3755" gradientTransform="matrix(1 0 0 1 1541.9561 0)">
			<stop  offset="0" style="stop-color:#F9BABA"/>
			<stop  offset="1" style="stop-color:#F5928F"/>
		</linearGradient>
		<path fill="url(#SVGID_11_)" d="M515.253,453.432c0,0-26.293,59.988-63.67,69.275c-7.234,1.408-15.732,0.791-19.531,3.152
			c-4.318,2.684,0.932,9.918,3.033,15.402c2.1,5.484,2.916,2.918,3.852,1.166c0.932-1.75-2.996-7.271,2.139-9.449
			c5.133-2.18,3.576,1.166,1.166,4.043c-2.412,2.879-2.334,7.313-2.178,7.547c0.154,0.232,4.045-1.711,7.701-3.424
			c3.137-1.469,4.895-5.506,5.332-6.623c7.4-0.863,53.723-8.148,73.414-56.859C526.511,477.662,528.407,429.301,515.253,453.432z"/>
		<path fill="#98B1DC" d="M624.554,595.533c-0.291,0-0.547-0.211-0.592-0.506c-0.031-0.197-3.166-19.668-9.146-23.074
			c-0.963-0.549-1.922-0.617-2.936-0.215c-8.039,3.199-3.938,21.539-3.895,21.725c0.072,0.322-0.129,0.645-0.451,0.719
			c-0.322,0.072-0.645-0.129-0.719-0.451c-0.182-0.795-4.363-19.531,4.621-23.107c1.352-0.539,2.689-0.441,3.973,0.287
			c6.479,3.691,9.607,23.105,9.738,23.93c0.051,0.328-0.174,0.635-0.5,0.686C624.616,595.531,624.583,595.533,624.554,595.533z"/>
		<linearGradient id="SVGID_12_" gradientUnits="userSpaceOnUse" x1="594.8896" y1="596.3145" x2="632.8408" y2="596.3145">
			<stop  offset="0" style="stop-color:#5560AB"/>
			<stop  offset="1" style="stop-color:#4C57A6"/>
		</linearGradient>
		<polygon fill="url(#SVGID_12_)" points="632.841,593.563 601.8,590.693 594.89,594.525 600.812,601.936 629.163,599.047 		"/>
		
			<linearGradient id="SVGID_13_" gradientUnits="userSpaceOnUse" x1="-959.7075" y1="915.8848" x2="-934.4741" y2="915.8848" gradientTransform="matrix(0.997 0.0777 -0.0777 0.997 1655.8489 -49.9565)">
			<stop  offset="0" style="stop-color:#201B59"/>
			<stop  offset="1" style="stop-color:#2D2D84"/>
		</linearGradient>
		<path fill="url(#SVGID_13_)" d="M628.356,782.578l0.514,11.877c0.098,2.252,1.717,4.154,3.93,4.584
			c3.738,0.725,9.756,1.637,15.727,1.475c2.619-0.072,4.512-2.574,3.914-5.127c-1.088-4.652-3.197-11.676-6.693-15.984
			l-13.049-1.018C630.286,778.195,628.251,780.16,628.356,782.578z"/>
		
			<linearGradient id="SVGID_14_" gradientUnits="userSpaceOnUse" x1="-1066.3374" y1="1015.3916" x2="-1030.0225" y2="590.9608" gradientTransform="matrix(0.997 0.0777 -0.0777 0.997 1655.8489 -49.9565)">
			<stop  offset="0" style="stop-color:#F9BABA"/>
			<stop  offset="1" style="stop-color:#F5928F"/>
		</linearGradient>
		<path fill="url(#SVGID_14_)" d="M536.886,636.797l-3.213,12.785c0,0,1.551,75.293,0.533,105.281
			c-0.16,4.701-1.732,9.238-4.504,13.039l-14.449,19.828l34.098-16.693l0.959-3.928l-4.764-7.752l13.516-83.156
			c0.793-4.885,0.162-9.896-1.816-14.432l-5.754-13.193L536.886,636.797z"/>
		
			<linearGradient id="SVGID_15_" gradientUnits="userSpaceOnUse" x1="-1076.9492" y1="911.2734" x2="-1036.1162" y2="911.2734" gradientTransform="matrix(0.997 0.0777 -0.0777 0.997 1655.8489 -49.9565)">
			<stop  offset="0" style="stop-color:#201B59"/>
			<stop  offset="1" style="stop-color:#2D2D84"/>
		</linearGradient>
		<path fill="url(#SVGID_15_)" d="M512.87,790.58l10.402,0.813c1.947,0.15,3.854-0.6,5.162-2.051
			c3.57-3.961,10.932-11.658,14.16-11.621c4.348,0.047,2.596,15.381,2.596,15.381l2.424,0.188l4.561-18.865
			c1.148-4.748-0.871-9.695-5.012-12.285c0,0-1.561,7.234-7.172,10.051c-5.613,2.816-22.971,13.115-22.971,13.115
			s-1.992-0.445-4.236-0.217C509.456,785.424,509.534,790.32,512.87,790.58z"/>
		
			<linearGradient id="SVGID_16_" gradientUnits="userSpaceOnUse" x1="-993.2871" y1="1021.7139" x2="-956.9617" y2="597.1605" gradientTransform="matrix(0.997 0.0777 -0.0777 0.997 1655.8489 -49.9565)">
			<stop  offset="0" style="stop-color:#F9BABA"/>
			<stop  offset="1" style="stop-color:#F5928F"/>
		</linearGradient>
		<path fill="url(#SVGID_16_)" d="M581.056,646.434c0,0,36.82,85.34,42.23,104.59c5.41,19.252,6.6,35.051,6.576,36.537
			c-0.035,2.322,2.664,4.762,10.584,5.379c4.09,0.318,6.217-1.164,7.322-2.674c0.941-1.287,1.117-2.977,0.523-4.457
			c-2.105-5.256-8.777-22.041-11.145-29.602c-2.824-9.027-7.275-49.291-10.338-63.408c-3.063-14.115-6.572-29.445-23.52-44.633
			C603.29,648.166,591.864,635.086,581.056,646.434z"/>
		<linearGradient id="SVGID_17_" gradientUnits="userSpaceOnUse" x1="523.1992" y1="494.5215" x2="632.2006" y2="327.5195">
			<stop  offset="0" style="stop-color:#5560AB"/>
			<stop  offset="1" style="stop-color:#4C57A6"/>
		</linearGradient>
		<path fill="url(#SVGID_17_)" d="M564.229,509.99c-7.465-48.104,22.857-72.615,22.857-72.615
			c-9.059-10.164-22.76-17.855-33.268-22.725c-9.488-4.396-20.699-2.828-28.613,4.01c-8.707,7.523-18.182,18.178-16.912,28.152
			c1.344,10.559,16.922,63.932,16.922,63.932S542.69,520.744,564.229,509.99z"/>
		<linearGradient id="SVGID_18_" gradientUnits="userSpaceOnUse" x1="705.9844" y1="396.666" x2="645.9841" y2="474.6664">
			<stop  offset="0" style="stop-color:#201B59"/>
			<stop  offset="1" style="stop-color:#2D2D84"/>
		</linearGradient>
		<path fill="url(#SVGID_18_)" d="M587.12,535.303c-3.471-14.021-22.891-25.313-22.891-25.313
			c-21.539,10.754-39.014,0.754-39.014,0.754s-5.281,15.234-3.6,29.906s12.057,108.932,12.057,108.932
			c27.324,7.791,70.9-0.164,70.9-0.164C589.339,616.643,590.591,549.322,587.12,535.303z"/>
		
			<linearGradient id="SVGID_19_" gradientUnits="userSpaceOnUse" x1="-1068.8076" y1="579.0615" x2="-1073.7234" y2="481.6397" gradientTransform="matrix(0.997 0.0777 -0.0777 0.997 1655.8489 -49.9565)">
			<stop  offset="0" style="stop-color:#F9BABA"/>
			<stop  offset="1" style="stop-color:#F5928F"/>
		</linearGradient>
		<path fill="url(#SVGID_19_)" d="M552.216,384.924l5.889,41.416c0.588,3.652-2.635,2.811-6.205,1.844
			c-5.85-1.58-13.322-4.482-15.52-9.303c-0.225-0.49-0.313-1.031-0.344-1.568l-1.693-28.533c-0.135-2.264,1.246-4.344,3.385-5.098
			l7.773-2.746C548.491,379.879,551.712,381.79,552.216,384.924z"/>
		<polygon fill="#8193CA" points="647.823,667.797 658.466,661.678 632.841,593.563 626.69,597.715 		"/>
		<path fill="#98B1DC" d="M618.935,602.939c-0.016,0-0.031,0-0.049-0.002c-0.33-0.025-0.576-0.314-0.551-0.645
			c0.016-0.197,1.381-19.943-4.217-26.346c-1.051-1.203-2.248-1.826-3.654-1.906c-1.375-0.063-2.582,0.395-3.707,1.439
			c-6.041,5.629-6.398,25.176-6.4,25.373c-0.006,0.328-0.271,0.592-0.6,0.592c-0.004,0-0.006,0-0.008,0
			c-0.332-0.006-0.598-0.277-0.592-0.609c0.012-0.824,0.367-20.256,6.783-26.232c1.355-1.264,2.91-1.859,4.59-1.76
			c1.723,0.098,3.234,0.875,4.492,2.314c6.016,6.881,4.525,27.025,4.51,27.229C619.507,602.701,619.245,602.939,618.935,602.939z"/>
		
			<linearGradient id="SVGID_20_" gradientUnits="userSpaceOnUse" x1="-1011.6572" y1="655.748" x2="-1024.9135" y2="519.3989" gradientTransform="matrix(0.997 0.0777 -0.0777 0.997 1655.8489 -49.9565)">
			<stop  offset="0" style="stop-color:#F9BABA"/>
			<stop  offset="1" style="stop-color:#F5928F"/>
		</linearGradient>
		<path fill="url(#SVGID_20_)" d="M572.239,456.107c1.523,2.02,24.59,29.461,31.195,60.082s4.385,51.068,4.385,51.068
			s-6.713,5.004-4.299,8.555c2.412,3.549,1.775,5.965,4.859,6.654s6.908,1.658,6.441-4.43c-0.465-6.086,6.801-7.313,5.594-10.994
			c-1.201-3.662,7.023-102.488-32.762-129.293c-0.188-0.127-0.375-0.252-0.566-0.375
			C570.269,443.451,569.792,452.863,572.239,456.107z"/>
		<polygon fill="#98B1DC" points="594.872,594.748 626.69,597.715 647.823,667.797 602.142,668.99 		"/>
		<g>
			
				<linearGradient id="SVGID_21_" gradientUnits="userSpaceOnUse" x1="-953.9722" y1="793.2637" x2="-959.694" y2="734.4113" gradientTransform="matrix(0.997 0.0777 -0.0777 0.997 1655.8489 -49.9565)">
				<stop  offset="0" style="stop-color:#DBE2F3"/>
				<stop  offset="1" style="stop-color:#EAEFF8"/>
			</linearGradient>
			<path fill="url(#SVGID_21_)" d="M648.464,666.701c-0.035,0-0.072-0.006-0.107-0.014c-0.227-0.061-0.361-0.291-0.303-0.518
				l2.043-7.787l-16.115-50.002c-0.07-0.223,0.051-0.461,0.271-0.533c0.23-0.068,0.465,0.051,0.535,0.273l16.152,50.119
				c0.023,0.078,0.025,0.16,0.006,0.238l-2.074,7.906C648.821,666.574,648.651,666.701,648.464,666.701z"/>
		</g>
		<g>
			
				<linearGradient id="SVGID_22_" gradientUnits="userSpaceOnUse" x1="-942.5166" y1="787.4229" x2="-942.8634" y2="783.8557" gradientTransform="matrix(0.997 0.0777 -0.0777 0.997 1655.8489 -49.9565)">
				<stop  offset="0" style="stop-color:#DBE2F3"/>
				<stop  offset="1" style="stop-color:#EAEFF8"/>
			</linearGradient>
			<path fill="url(#SVGID_22_)" d="M657.696,661.818c-0.061,0-0.123-0.014-0.182-0.043l-5.51-2.633
				c-0.211-0.102-0.301-0.354-0.199-0.564c0.102-0.209,0.359-0.299,0.564-0.199l5.508,2.633c0.213,0.102,0.301,0.354,0.201,0.564
				C658.007,661.729,657.854,661.818,657.696,661.818z"/>
		</g>
		<g>
			
				<linearGradient id="SVGID_23_" gradientUnits="userSpaceOnUse" x1="-1091.709" y1="1122.3418" x2="-1033.298" y2="1162.0172" gradientTransform="matrix(0.991 0.1338 -0.1338 0.991 1756.7273 -602.4965)">
				<stop  offset="0" style="stop-color:#F9BABA"/>
				<stop  offset="1" style="stop-color:#F5928F"/>
			</linearGradient>
			<path fill="url(#SVGID_23_)" d="M545.7,352.074c0,0-12.6,3.424-23.031,19.556c-10.43,16.13-5.451,24.901,2.004,27.021
				c7.457,2.117,18.848,3.486,32.377-6.02C570.579,383.128,562.001,348.199,545.7,352.074z"/>
			
				<linearGradient id="SVGID_24_" gradientUnits="userSpaceOnUse" x1="-989.7681" y1="1047.8047" x2="-1087.739" y2="1149.734" gradientTransform="matrix(0.991 0.1338 -0.1338 0.991 1756.7273 -602.4965)">
				<stop  offset="0" style="stop-color:#201B59"/>
				<stop  offset="1" style="stop-color:#2D2D84"/>
			</linearGradient>
			<path fill="url(#SVGID_24_)" d="M550.208,382.345c0,0,12.395-23.987-9.908-27.302l-5.754,2.966c0,0-6.313-15.08,8.043-19.934
				c14.357-4.854,33.633,3.796,36.912,22.697c3.279,18.9-1.654,30.153-12.35,37.542c-10.697,7.387-13.297-2.979-13.297-2.979
				s6.283-7.412,4.758-12.036c-1.527-4.625-7.105-0.045-7.105-0.045L550.208,382.345z"/>
			
				<linearGradient id="SVGID_25_" gradientUnits="userSpaceOnUse" x1="-1088.2041" y1="1117.1875" x2="-1029.7987" y2="1156.8591" gradientTransform="matrix(0.991 0.1338 -0.1338 0.991 1756.7273 -602.4965)">
				<stop  offset="0" style="stop-color:#F9BABA"/>
				<stop  offset="1" style="stop-color:#F5928F"/>
			</linearGradient>
			<path fill="url(#SVGID_25_)" d="M552.333,385.49c0,0,6.301-12.368,11.668-6.38c5.369,5.989-6.549,11.325-11.15,12.954
				L552.333,385.49z"/>
			
				<linearGradient id="SVGID_26_" gradientUnits="userSpaceOnUse" x1="-948.0132" y1="1087.9336" x2="-1045.9858" y2="1189.8647" gradientTransform="matrix(0.991 0.1338 -0.1338 0.991 1756.7273 -602.4965)">
				<stop  offset="0" style="stop-color:#201B59"/>
				<stop  offset="1" style="stop-color:#2D2D84"/>
			</linearGradient>
			<path fill="url(#SVGID_26_)" d="M568.792,357.087c0,0,43.314-13.326,50.443,31.853c7.129,45.182,12.055,59.664,22.793,51.873
				c0,0-1.768,16.879-22.389,9.334C566.114,430.564,598.69,367.863,568.792,357.087z"/>
		</g>
	</g>
	<g>
		
			<linearGradient id="SVGID_27_" gradientUnits="userSpaceOnUse" x1="-4740.604" y1="544.7646" x2="-4694.2798" y2="544.7646" gradientTransform="matrix(-1 0 0 1 -4431.666 0)">
			<stop  offset="0" style="stop-color:#A22C25"/>
			<stop  offset="1" style="stop-color:#C1423D"/>
		</linearGradient>
		<path fill="url(#SVGID_27_)" d="M292.264,520.89c4.752,5.072,11.75,9.455,16.674,12.189c-7.354,9.09-17.305,18.191-30.477,27.1
			l-3.77,8.461l-12.078-14.477C262.614,554.163,284.286,543.378,292.264,520.89z"/>
		
			<linearGradient id="SVGID_28_" gradientUnits="userSpaceOnUse" x1="-4677.5908" y1="689.9805" x2="-4676.4292" y2="817.7714" gradientTransform="matrix(-1 0 0 1 -4431.666 0)">
			<stop  offset="0" style="stop-color:#5560AB"/>
			<stop  offset="1" style="stop-color:#4C57A6"/>
		</linearGradient>
		<path fill="url(#SVGID_28_)" d="M227.622,795.464c-0.004-0.258,0.014-0.52,0.08-0.785c3.912-15.51,23.33-25.17,23.33-25.17
			l7.695,0.602c4.426,13.672,3.855,22.057,3.145,25.791c-0.02,0.104-0.051,0.203-0.078,0.305
			C255.446,796.774,242.381,797.144,227.622,795.464z"/>
		
			<linearGradient id="SVGID_29_" gradientUnits="userSpaceOnUse" x1="-4607.063" y1="742.1152" x2="-4733.4365" y2="841.3442" gradientTransform="matrix(-1 0 0 1 -4431.666 0)">
			<stop  offset="0" style="stop-color:#201B59"/>
			<stop  offset="1" style="stop-color:#2D2D84"/>
		</linearGradient>
		<path fill="url(#SVGID_29_)" d="M261.793,796.206c-0.344,1.248-1.264,2.219-2.441,2.467c-9.031,1.898-23.381,0.371-29.406-0.418
			c-1.33-0.174-2.301-1.402-2.324-2.791C242.381,797.144,255.446,796.774,261.793,796.206z"/>
		
			<linearGradient id="SVGID_30_" gradientUnits="userSpaceOnUse" x1="-4684.3652" y1="743.5479" x2="-4691.001" y2="801.4614" gradientTransform="matrix(-1 0 0 1 -4431.666 0)">
			<stop  offset="0" style="stop-color:#A22C25"/>
			<stop  offset="1" style="stop-color:#C1423D"/>
		</linearGradient>
		<path fill="url(#SVGID_30_)" d="M261.823,758.649l-3.26,15.689c-0.24,1.148-1.123,2.01-2.191,2.111
			c-1.311,0.123-3.176,0.195-5.049-0.08c-1.684-0.248-2.854-1.957-2.555-3.791l2.266-13.93H261.823z"/>
		
			<linearGradient id="SVGID_31_" gradientUnits="userSpaceOnUse" x1="-4584.6143" y1="770.707" x2="-4710.9873" y2="869.9354" gradientTransform="matrix(-1 0 0 1 -4431.666 0)">
			<stop  offset="0" style="stop-color:#201B59"/>
			<stop  offset="1" style="stop-color:#2D2D84"/>
		</linearGradient>
		<path fill="url(#SVGID_31_)" d="M194.299,796.05c8.496-0.238,12.893-1.24,15.164-2.168c0.006,0.844,0.002,1.705-0.027,2.596
			c-0.027,0.951-0.732,1.711-1.6,1.707l-46.66-0.303c-1.49-0.01-2.359-1.736-1.715-3.102
			C165.579,795.286,181.163,796.417,194.299,796.05z"/>
		
			<linearGradient id="SVGID_32_" gradientUnits="userSpaceOnUse" x1="-4617.082" y1="689.4248" x2="-4615.9199" y2="817.2249" gradientTransform="matrix(-1 0 0 1 -4431.666 0)">
			<stop  offset="0" style="stop-color:#5560AB"/>
			<stop  offset="1" style="stop-color:#4C57A6"/>
		</linearGradient>
		<path fill="url(#SVGID_32_)" d="M159.461,794.78c0.057-0.119,0.105-0.24,0.186-0.352c4.121-5.758,14.615-17.223,35.355-22.195
			l9.947-0.314c0,0,4.43,7.699,4.514,21.963c-2.271,0.928-6.668,1.93-15.164,2.168C181.163,796.417,165.579,795.286,159.461,794.78z
			"/>
		
			<linearGradient id="SVGID_33_" gradientUnits="userSpaceOnUse" x1="-4630.3154" y1="749.7422" x2="-4636.9507" y2="807.6513" gradientTransform="matrix(-1 0 0 1 -4431.666 0)">
			<stop  offset="0" style="stop-color:#A22C25"/>
			<stop  offset="1" style="stop-color:#C1423D"/>
		</linearGradient>
		<path fill="url(#SVGID_33_)" d="M206.795,756.841c-0.111,0.742-1.475,12.012-2.002,16.383c-0.125,1.039-0.879,1.842-1.826,1.955
			c-1.695,0.203-4.436,0.387-6.834-0.105c-1.295-0.266-2.23-1.508-2.23-2.953v-17.693L206.795,756.841z"/>
		
			<linearGradient id="SVGID_34_" gradientUnits="userSpaceOnUse" x1="-4551.478" y1="484.9414" x2="-4763.6968" y2="814.2465" gradientTransform="matrix(-1 0 0 1 -4431.666 0)">
			<stop  offset="0" style="stop-color:#201B59"/>
			<stop  offset="1" style="stop-color:#2D2D84"/>
		</linearGradient>
		<path fill="url(#SVGID_34_)" d="M214.778,551.147c0,0-23.996,91.193-23.563,205.953c0.008,2.094,1.477,3.898,3.523,4.33
			c3.018,0.635,7.453,1.391,11.123,1.287c1.961-0.055,3.6-1.508,3.93-3.441c3.365-19.732,22.674-130.891,33.674-148.936
			c0,0,7.238,99.002,4.926,150.365c-0.059,1.277,0.877,2.385,2.148,2.531c1.926,0.223,5.008,0.393,8.93-0.025
			c1.488-0.156,2.689-1.283,2.902-2.766c2.396-16.699,16.191-116.1,15.605-187.705c-0.033-4.037-10.68-21.594-10.68-21.594H214.778z
			"/>
		
			<linearGradient id="SVGID_35_" gradientUnits="userSpaceOnUse" x1="-5457.1211" y1="419.4326" x2="-5491.2002" y2="753.1198" gradientTransform="matrix(-1 0 0 1 -5199.4346 0)">
			<stop  offset="0" style="stop-color:#F37064"/>
			<stop  offset="1" style="stop-color:#F5928F"/>
		</linearGradient>
		<path fill="url(#SVGID_35_)" d="M198.088,450.577c-4.188-20.092,9.967-39.279,30.377-41.439
			c22.732-2.406,45.461,2.645,56.691,4.059c5.699,0.719,10.914,3.527,14.67,7.875c14.898,17.242,47.59,64.443,9.111,112.008
			c-4.924-2.734-11.922-7.117-16.674-12.189c4.256-12,4.605-27.336-4.316-46.143c-0.305,1.492-0.682,2.967-1.139,4.42
			c-12.293,38.938-12.953,71.346-12.926,78.836c0.002,0.992-0.568,1.92-1.488,2.291c-16.168,6.52-47.383,2.652-57.854,1.092
			c-1.918-0.287-3.209-2.072-2.943-3.992C215.084,532.142,204.743,482.497,198.088,450.577z"/>
		
			<linearGradient id="SVGID_36_" gradientUnits="userSpaceOnUse" x1="-4669.7061" y1="373.3579" x2="-4695.042" y2="482.8459" gradientTransform="matrix(-1 0 0 1 -4431.666 0)">
			<stop  offset="0" style="stop-color:#A22C25"/>
			<stop  offset="1" style="stop-color:#C1423D"/>
		</linearGradient>
		<path fill="url(#SVGID_36_)" d="M257.184,381.886l3.119,31.867c0,0-17.928,5.4-30.967-3.801l9.166-28.963L257.184,381.886z"/>
		<g>
			
				<linearGradient id="SVGID_37_" gradientUnits="userSpaceOnUse" x1="-4927.4854" y1="-4449.5811" x2="-4972.4316" y2="-4390.1206" gradientTransform="matrix(0.6854 -0.7281 0.7281 0.6854 6859.1748 -185.7948)">
				<stop  offset="0" style="stop-color:#A22C25"/>
				<stop  offset="1" style="stop-color:#C1423D"/>
			</linearGradient>
			<path fill="url(#SVGID_37_)" d="M247.991,345.564c0.434,0.406,18.211,35.317,18.211,35.317l-20.15,9.727l-21.766-30.585
				C224.286,360.023,240.768,338.765,247.991,345.564z"/>
			
				<linearGradient id="SVGID_38_" gradientUnits="userSpaceOnUse" x1="-4961.813" y1="-4435.3018" x2="-4908.123" y2="-4435.3018" gradientTransform="matrix(0.6854 -0.7281 0.7281 0.6854 6859.1748 -185.7948)">
				<stop  offset="0" style="stop-color:#201B59"/>
				<stop  offset="1" style="stop-color:#2D2D84"/>
			</linearGradient>
			<path fill="url(#SVGID_38_)" d="M233.202,360.871c-0.361,0.93-0.271,1.968,0.24,2.822l10.051,16.753
				c0.152,0.254,0.334,0.483,0.551,0.686c1.195,1.114,5.289,4.353,8.453-0.058c2.697-3.758,5.229-7.175,7.939-8.584
				c1.584-0.823,3.533-0.166,4.336,1.428c1.656,3.281,4.863,9.971,6.877,16.314c0.506,1.591-0.314,3.298-1.861,3.923
				c-4.08,1.652-12.143,4.643-19.299,5.631c-1.176,0.162-2.34-0.334-3.039-1.293c-3.078-4.217-11.756-16.003-14.717-18.953
				c-2.752-2.741-7.83-1.707-10.117-1.05c-0.869,0.249-1.795,0.129-2.568-0.337c-2.322-1.398-6.373-4.881-2.666-10.776
				c0.922-1.465,0.451-3.418-0.996-4.369c-2.592-1.705-5.404-4.905-2.725-10.088c2.713-5.247,7.557-5.718,10.857-5.314
				c1.459,0.179,2.941-0.587,3.5-1.946c0.25-0.605,0.742-1.121,1.658-1.308c1.73-0.351,2.865-1.932,2.525-3.663
				c-0.582-2.969-0.143-6.826,4.598-9.432c8.693-4.78,16.309,3.009,18.244,9.583c1.938,6.575-7.783,11.222-13.898,11.997
				C236.655,353.407,234.192,358.309,233.202,360.871z"/>
			
				<linearGradient id="SVGID_39_" gradientUnits="userSpaceOnUse" x1="-4993.3145" y1="-4402.4941" x2="-4957.2642" y2="-4439.4805" gradientTransform="matrix(0.6854 -0.7281 0.7281 0.6854 6859.1748 -185.7948)">
				<stop  offset="0" style="stop-color:#A22C25"/>
				<stop  offset="1" style="stop-color:#C1423D"/>
			</linearGradient>
			<path fill="url(#SVGID_39_)" d="M236.506,385.691c0,0-3.865-11.312-8.814-10.896c-4.947,0.415-8.844,5.345-2.711,10.887
				C232.61,392.575,236.506,385.691,236.506,385.691z"/>
		</g>
		<linearGradient id="SVGID_40_" gradientUnits="userSpaceOnUse" x1="287.8794" y1="452.0234" x2="294.1499" y2="452.0234">
			<stop  offset="0" style="stop-color:#E1483D"/>
			<stop  offset="1" style="stop-color:#E9625B"/>
		</linearGradient>
		<path fill="url(#SVGID_40_)" d="M289.581,471.835c6.521-17.852,4.156-39.408,4.131-39.623l-1.797,0.205
			c0.023,0.213,2.34,21.354-4.035,38.797L289.581,471.835z"/>
		
			<linearGradient id="SVGID_41_" gradientUnits="userSpaceOnUse" x1="-4670.4941" y1="573.3623" x2="-4688.2905" y2="605.0336" gradientTransform="matrix(-1 0 0 1 -4431.666 0)">
			<stop  offset="0" style="stop-color:#201B59"/>
			<stop  offset="1" style="stop-color:#2D2D84"/>
		</linearGradient>
		<path fill="url(#SVGID_41_)" d="M244.348,608.017c0.402,0,0.77-0.271,0.875-0.678c1.99-7.676,16.891-16.109,17.041-16.195
			c0.436-0.244,0.592-0.795,0.346-1.23c-0.244-0.436-0.793-0.592-1.23-0.348c-0.641,0.359-15.727,8.898-17.908,17.318
			c-0.125,0.484,0.166,0.979,0.648,1.104C244.196,608.007,244.272,608.017,244.348,608.017z"/>
		<g>
			<g>
				
					<linearGradient id="SVGID_42_" gradientUnits="userSpaceOnUse" x1="-4217.4014" y1="734.5732" x2="-4218.6709" y2="617.3306" gradientTransform="matrix(-1 0 0 1 -4035.8838 0)">
					<stop  offset="0" style="stop-color:#5560AB"/>
					<stop  offset="1" style="stop-color:#4C57A6"/>
				</linearGradient>
				<path fill="url(#SVGID_42_)" d="M231.473,619.474l-1.031,32.086c-0.18,5.596-4.771,10.047-10.396,10.08l-76.834,0.453
					c-3.758,0.021-6.961-2.709-7.508-6.41c-1.203-8.104-2.734-22.6-1.01-36.209H231.473z"/>
				<path fill="#FFFFFF" d="M145.163,660.032c0-0.063,0.051-0.115,0.115-0.115l0.693-0.004l0,0c0.064,0,0.117,0.051,0.117,0.115
					c0,0.063-0.051,0.115-0.115,0.115l-0.695,0.004l0,0C145.215,660.147,145.163,660.097,145.163,660.032z M147.477,660.019
					c0-0.063,0.051-0.115,0.115-0.115l0.693-0.004h0.002c0.063,0,0.115,0.051,0.115,0.115c0,0.063-0.051,0.115-0.115,0.115
					l-0.693,0.004h-0.002C147.53,660.134,147.477,660.083,147.477,660.019z M149.792,660.005c0-0.063,0.051-0.115,0.115-0.115
					l0.693-0.004h0.002c0.064,0,0.115,0.051,0.115,0.115c0,0.063-0.051,0.115-0.115,0.115l-0.693,0.004h-0.002
					C149.844,660.12,149.792,660.069,149.792,660.005z M152.106,659.993c0-0.064,0.053-0.117,0.115-0.117l0.695-0.004l0,0
					c0.064,0,0.115,0.051,0.117,0.115c0,0.063-0.053,0.115-0.117,0.115l-0.693,0.004l0,0
					C152.159,660.106,152.106,660.056,152.106,659.993z M154.422,659.979c-0.002-0.064,0.051-0.117,0.113-0.117l0.695-0.004
					c0.059,0.008,0.115,0.051,0.117,0.115c0,0.063-0.053,0.115-0.115,0.115l-0.695,0.004l0,0
					C154.473,660.093,154.422,660.042,154.422,659.979z M156.737,659.964c0-0.063,0.051-0.115,0.115-0.115l0.693-0.004h0.002
					c0.063,0,0.115,0.051,0.115,0.115c0,0.063-0.051,0.115-0.115,0.115l-0.695,0.004l0,0
					C156.788,660.079,156.737,660.028,156.737,659.964z M159.051,659.952c0-0.064,0.051-0.117,0.115-0.117l0.693-0.004h0.002
					c0.063,0,0.115,0.051,0.115,0.115c0,0.063-0.051,0.115-0.115,0.115l-0.695,0.004l0,0
					C159.104,660.065,159.051,660.015,159.051,659.952z M161.366,659.938c0-0.064,0.051-0.117,0.115-0.117l0.695-0.004l0,0
					c0.063,0,0.115,0.051,0.115,0.115c0,0.063-0.051,0.115-0.115,0.115l-0.693,0.004c-0.002,0-0.002,0-0.002,0
					C161.418,660.052,161.366,660.001,161.366,659.938z M163.68,659.925c0-0.064,0.051-0.117,0.115-0.117l0.693-0.004
					c0.059,0,0.117,0.051,0.117,0.115c0,0.063-0.051,0.115-0.115,0.115l-0.693,0.004h-0.002
					C163.733,660.038,163.68,659.987,163.68,659.925z M165.995,659.911c0-0.064,0.051-0.117,0.115-0.117l0.693-0.004h0.002
					c0.064,0,0.115,0.051,0.115,0.115s-0.051,0.115-0.115,0.115l-0.693,0.004c0,0,0,0-0.002,0
					C166.047,660.024,165.995,659.974,165.995,659.911z M168.309,659.897c0-0.064,0.053-0.117,0.115-0.117l0.695-0.004l0,0
					c0.064,0,0.117,0.051,0.117,0.115c0,0.063-0.053,0.115-0.115,0.115l-0.695,0.006l0,0
					C168.362,660.013,168.309,659.96,168.309,659.897z M143.645,660.009c-0.23-0.047-0.461-0.104-0.686-0.172
					c-0.061-0.018-0.096-0.082-0.076-0.143c0.018-0.063,0.082-0.098,0.143-0.078c0.217,0.064,0.441,0.121,0.664,0.166
					c0.063,0.012,0.104,0.072,0.09,0.135c-0.01,0.055-0.059,0.094-0.113,0.094C143.661,660.011,143.653,660.011,143.645,660.009z
					 M170.625,659.884c0-0.064,0.051-0.117,0.115-0.117l0.693-0.004l0,0c0.064,0,0.115,0.051,0.117,0.115
					c0,0.064-0.053,0.115-0.115,0.115l-0.695,0.006l0,0C170.676,659.999,170.625,659.946,170.625,659.884z M172.94,659.87
					c0-0.064,0.051-0.117,0.115-0.117l0.693-0.004c0.059-0.01,0.117,0.051,0.117,0.115s-0.053,0.115-0.115,0.115l-0.695,0.004l0,0
					C172.991,659.983,172.94,659.933,172.94,659.87z M175.254,659.856c0-0.064,0.051-0.117,0.115-0.117l0.693-0.004h0.002
					c0.063,0,0.115,0.051,0.115,0.115s-0.051,0.115-0.115,0.115l-0.695,0.006l0,0C175.307,659.972,175.254,659.919,175.254,659.856z
					 M177.569,659.843c0-0.064,0.051-0.117,0.115-0.117l0.695-0.004l0,0c0.063,0,0.115,0.051,0.115,0.115s-0.051,0.115-0.115,0.117
					l-0.695,0.004l0,0C177.622,659.958,177.569,659.905,177.569,659.843z M179.883,659.829c0-0.064,0.051-0.117,0.115-0.117
					l0.695-0.004l0,0c0.063,0,0.115,0.051,0.115,0.115s-0.051,0.115-0.113,0.117L180,659.944h-0.002
					C179.936,659.944,179.883,659.892,179.883,659.829z M182.2,659.815c-0.002-0.064,0.051-0.117,0.113-0.117l0.695-0.004l0,0
					c0.064,0,0.115,0.051,0.115,0.115c0.002,0.064-0.051,0.115-0.115,0.115l-0.693,0.004l0,0
					C182.25,659.929,182.198,659.878,182.2,659.815z M184.512,659.802c0-0.064,0.053-0.117,0.115-0.117l0.695-0.004l0,0
					c0.064,0,0.115,0.051,0.115,0.115c0.002,0.064-0.051,0.115-0.113,0.117l-0.695,0.004l0,0
					C184.565,659.917,184.512,659.864,184.512,659.802z M186.829,659.788c0-0.064,0.051-0.117,0.113-0.117l0.695-0.004
					c0.061,0.008,0.115,0.051,0.117,0.115c0,0.064-0.053,0.115-0.115,0.117l-0.695,0.004l0,0
					C186.879,659.903,186.829,659.851,186.829,659.788z M189.143,659.774c0-0.064,0.051-0.117,0.115-0.117l0.693-0.004h0.002
					c0.063,0,0.115,0.051,0.115,0.115s-0.051,0.115-0.115,0.115l-0.695,0.004l0,0C189.194,659.888,189.143,659.837,189.143,659.774z
					 M191.458,659.761c0-0.064,0.051-0.117,0.115-0.117l0.693-0.004c0.002,0,0.002,0,0.002,0c0.063,0,0.115,0.051,0.115,0.115
					s-0.051,0.115-0.115,0.117l-0.695,0.004l0,0C191.51,659.876,191.458,659.823,191.458,659.761z M193.772,659.747
					c0-0.064,0.051-0.117,0.115-0.117l0.695-0.004l0,0c0.063,0,0.115,0.051,0.115,0.115c0.002,0.064-0.051,0.115-0.115,0.117
					l-0.695,0.004l0,0C193.825,659.862,193.772,659.81,193.772,659.747z M196.086,659.733c0-0.064,0.051-0.117,0.115-0.117
					l0.695-0.004c0.061,0,0.115,0.051,0.115,0.115s-0.051,0.115-0.115,0.117l-0.693,0.004h-0.002
					C196.139,659.849,196.088,659.796,196.086,659.733z M198.401,659.72c0.002-0.064,0.053-0.117,0.115-0.117l0.695-0.004l0,0
					c0.064,0,0.115,0.051,0.115,0.115c0.002,0.064-0.049,0.115-0.115,0.117l-0.693,0.004l0,0
					C198.454,659.835,198.401,659.782,198.401,659.72z M200.717,659.706c-0.002-0.064,0.051-0.117,0.115-0.117l0.693-0.004h0.002
					c0.063,0,0.113,0.051,0.115,0.115c0,0.064-0.051,0.115-0.115,0.117l-0.695,0.004l0,0
					C200.768,659.821,200.717,659.769,200.717,659.706z M203.032,659.692c-0.002-0.064,0.051-0.117,0.113-0.117l0.695-0.004l0,0
					c0.064,0,0.117,0.051,0.117,0.115s-0.053,0.115-0.115,0.117l-0.695,0.004l0,0C203.083,659.808,203.032,659.755,203.032,659.692z
					 M205.346,659.679c0-0.064,0.051-0.117,0.115-0.117l0.693-0.004c0.061-0.01,0.117,0.053,0.117,0.115
					c0,0.064-0.051,0.115-0.115,0.117l-0.693,0.004h-0.002C205.397,659.794,205.346,659.741,205.346,659.679z M207.661,659.665
					c0-0.064,0.051-0.117,0.115-0.117l0.693-0.004h0.002c0.063,0,0.115,0.051,0.115,0.115s-0.051,0.115-0.115,0.117l-0.693,0.004
					l0,0C207.713,659.78,207.661,659.729,207.661,659.665z M209.975,659.651c0-0.064,0.053-0.115,0.115-0.117l0.695-0.004l0,0
					c0.063,0,0.115,0.051,0.115,0.115s-0.051,0.115-0.115,0.117l-0.693,0.004l0,0C210.028,659.767,209.975,659.714,209.975,659.651z
					 M212.29,659.638c0-0.064,0.051-0.115,0.115-0.117l0.695-0.004l0,0c0.064,0,0.115,0.051,0.115,0.115
					c0.002,0.064-0.051,0.117-0.115,0.117l-0.693,0.004h-0.002C212.342,659.753,212.29,659.7,212.29,659.638z M214.604,659.624
					c0-0.064,0.053-0.115,0.115-0.117l0.695-0.004l0,0c0.064,0,0.115,0.051,0.115,0.115c0.002,0.064-0.051,0.117-0.115,0.117
					l-0.693,0.004l0,0C214.657,659.739,214.606,659.688,214.604,659.624z M216.918,659.61c0.002-0.064,0.053-0.115,0.115-0.117
					l0.695-0.004l0,0c0.064,0,0.115,0.053,0.117,0.115c0,0.064-0.051,0.115-0.115,0.117l-0.695,0.004l0,0
					C216.971,659.726,216.92,659.675,216.918,659.61z M219.233,659.548c-0.008-0.063,0.037-0.119,0.102-0.127
					c0.225-0.027,0.453-0.061,0.678-0.104c0.063-0.012,0.123,0.031,0.135,0.094s-0.029,0.123-0.092,0.135
					c-0.23,0.043-0.463,0.078-0.693,0.105c-0.006,0-0.01,0-0.014,0C219.29,659.651,219.239,659.608,219.233,659.548z M141.45,659.19
					c-0.203-0.117-0.404-0.244-0.594-0.379c-0.053-0.037-0.066-0.109-0.027-0.162c0.037-0.053,0.107-0.064,0.16-0.027
					c0.186,0.131,0.379,0.254,0.576,0.367c0.057,0.031,0.074,0.102,0.045,0.156c-0.023,0.039-0.063,0.059-0.102,0.059
					C141.489,659.204,141.467,659.2,141.45,659.19z M221.485,659.044c-0.021-0.061,0.01-0.127,0.07-0.148
					c0.213-0.076,0.426-0.162,0.635-0.256c0.059-0.025,0.127,0,0.154,0.059c0.025,0.059-0.002,0.127-0.061,0.152
					c-0.213,0.096-0.432,0.184-0.65,0.264c-0.012,0.004-0.025,0.006-0.039,0.006C221.547,659.12,221.502,659.091,221.485,659.044z
					 M223.561,658.034c-0.035-0.053-0.02-0.125,0.033-0.16c0.191-0.125,0.379-0.258,0.559-0.396
					c0.051-0.039,0.125-0.027,0.164,0.023c0.037,0.051,0.027,0.123-0.023,0.16c-0.184,0.141-0.377,0.277-0.572,0.406
					c-0.02,0.014-0.041,0.02-0.063,0.02C223.62,658.087,223.583,658.067,223.561,658.034z M139.627,657.72
					c-0.156-0.176-0.305-0.359-0.443-0.549c-0.039-0.051-0.027-0.123,0.025-0.162c0.051-0.037,0.123-0.025,0.16,0.025
					c0.135,0.184,0.279,0.361,0.432,0.529c0.043,0.049,0.039,0.121-0.01,0.164c-0.021,0.02-0.049,0.029-0.076,0.029
					C139.682,657.757,139.653,657.745,139.627,657.72z M225.348,656.573c-0.047-0.043-0.049-0.117-0.004-0.164
					c0.156-0.164,0.309-0.338,0.453-0.514c0.041-0.049,0.113-0.057,0.164-0.016c0.049,0.041,0.057,0.113,0.016,0.162
					c-0.148,0.18-0.305,0.357-0.465,0.527c-0.023,0.023-0.053,0.035-0.084,0.035C225.399,656.604,225.37,656.595,225.348,656.573z
					 M138.368,655.747c-0.092-0.215-0.174-0.438-0.246-0.662c-0.02-0.061,0.014-0.125,0.076-0.145
					c0.061-0.02,0.125,0.014,0.145,0.074c0.068,0.217,0.148,0.432,0.238,0.641c0.025,0.059-0.002,0.127-0.061,0.152
					c-0.016,0.006-0.031,0.01-0.045,0.01C138.43,655.817,138.387,655.79,138.368,655.747z M226.752,654.739
					c-0.055-0.031-0.072-0.102-0.041-0.158c0.115-0.197,0.223-0.4,0.322-0.605c0.029-0.057,0.098-0.08,0.154-0.053
					c0.059,0.029,0.082,0.098,0.055,0.154c-0.104,0.209-0.213,0.418-0.33,0.621c-0.023,0.037-0.061,0.057-0.102,0.057
					C226.792,654.755,226.772,654.751,226.752,654.739z M137.792,653.481c-0.033-0.223-0.066-0.453-0.1-0.688
					c-0.008-0.063,0.035-0.121,0.098-0.131c0.066-0.01,0.123,0.035,0.131,0.1c0.033,0.232,0.066,0.463,0.1,0.688
					c0.01,0.063-0.035,0.121-0.098,0.131c-0.006,0-0.012,0-0.018,0C137.848,653.581,137.799,653.54,137.792,653.481z
					 M227.694,652.63c-0.061-0.018-0.096-0.082-0.076-0.143c0.064-0.219,0.123-0.441,0.172-0.664
					c0.014-0.063,0.076-0.102,0.139-0.088c0.061,0.014,0.102,0.074,0.088,0.137c-0.051,0.229-0.111,0.457-0.178,0.68
					c-0.016,0.051-0.061,0.084-0.111,0.084C227.717,652.636,227.706,652.634,227.694,652.63z M137.473,651.187
					c-0.027-0.225-0.059-0.455-0.088-0.689c-0.008-0.063,0.037-0.121,0.1-0.129c0.064-0.006,0.121,0.037,0.131,0.102
					c0.029,0.232,0.059,0.461,0.088,0.688c0.008,0.064-0.037,0.123-0.1,0.131c-0.006,0-0.01,0-0.016,0
					C137.532,651.288,137.481,651.245,137.473,651.187z M228.118,650.36c-0.064-0.004-0.113-0.059-0.109-0.121
					c0.004-0.078,0.008-0.156,0.01-0.234l0.016-0.457c0.002-0.064,0.057-0.113,0.119-0.113c0.063,0.002,0.113,0.057,0.111,0.119
					l-0.014,0.459c-0.004,0.08-0.008,0.16-0.012,0.238c-0.002,0.063-0.055,0.109-0.115,0.109
					C228.122,650.36,228.12,650.36,228.118,650.36z M137.19,648.888c-0.025-0.227-0.053-0.457-0.078-0.689
					c-0.008-0.064,0.037-0.121,0.102-0.129c0.064-0.006,0.121,0.039,0.129,0.102c0.025,0.232,0.051,0.463,0.078,0.689
					c0.008,0.064-0.039,0.121-0.102,0.129c-0.006,0-0.01,0-0.014,0C137.247,648.989,137.198,648.946,137.19,648.888z
					 M228.198,648.048c-0.064-0.002-0.115-0.057-0.113-0.119l0.023-0.695c0.002-0.063,0.057-0.117,0.119-0.111
					c0.063,0.002,0.113,0.055,0.111,0.119l-0.021,0.693c-0.002,0.063-0.053,0.113-0.115,0.113
					C228.2,648.048,228.2,648.048,228.198,648.048z M136.938,646.585c-0.023-0.229-0.045-0.459-0.068-0.691
					c-0.006-0.064,0.041-0.121,0.104-0.127c0.064-0.006,0.121,0.041,0.127,0.104c0.023,0.232,0.045,0.463,0.068,0.691
					c0.008,0.064-0.039,0.121-0.104,0.127c-0.004,0-0.008,0-0.012,0C136.997,646.688,136.946,646.646,136.938,646.585z
					 M228.272,645.733c-0.064-0.002-0.113-0.055-0.113-0.119l0.023-0.693c0.002-0.064,0.059-0.109,0.119-0.113
					c0.064,0.002,0.115,0.057,0.111,0.119l-0.021,0.695c-0.002,0.063-0.053,0.111-0.115,0.111
					C228.274,645.733,228.272,645.733,228.272,645.733z M136.721,644.278c-0.02-0.229-0.041-0.461-0.059-0.693
					c-0.006-0.063,0.041-0.119,0.105-0.125c0.063-0.004,0.119,0.043,0.125,0.107c0.018,0.23,0.039,0.461,0.059,0.689
					c0.006,0.064-0.041,0.121-0.105,0.127c-0.004,0-0.008,0-0.01,0C136.776,644.384,136.725,644.339,136.721,644.278z
					 M228.346,643.421c-0.064-0.002-0.113-0.057-0.113-0.119l0.023-0.695c0.002-0.064,0.063-0.113,0.119-0.111
					c0.064,0.002,0.113,0.055,0.111,0.119l-0.021,0.693c-0.002,0.064-0.053,0.113-0.115,0.113
					C228.348,643.421,228.348,643.421,228.346,643.421z M136.536,641.97c-0.016-0.23-0.033-0.461-0.049-0.693
					c-0.004-0.064,0.045-0.119,0.109-0.125c0.064-0.004,0.119,0.045,0.123,0.107c0.016,0.232,0.031,0.463,0.049,0.693
					c0.004,0.064-0.043,0.119-0.107,0.125c-0.004,0-0.006,0-0.01,0C136.592,642.077,136.54,642.03,136.536,641.97z M228.42,641.106
					c-0.064-0.002-0.113-0.055-0.111-0.119l0.021-0.693c0.002-0.064,0.063-0.119,0.119-0.113c0.064,0.002,0.115,0.057,0.111,0.119
					l-0.021,0.695c-0.002,0.063-0.055,0.111-0.115,0.111C228.422,641.106,228.422,641.106,228.42,641.106z M136.387,639.657
					c-0.014-0.23-0.025-0.463-0.039-0.695c-0.002-0.064,0.047-0.117,0.111-0.121c0.063-0.01,0.117,0.045,0.121,0.109
					c0.012,0.232,0.023,0.463,0.037,0.693c0.004,0.064-0.045,0.117-0.109,0.121c-0.002,0-0.004,0-0.006,0
					C136.442,639.765,136.391,639.718,136.387,639.657z M228.495,638.794c-0.064-0.004-0.115-0.057-0.111-0.121l0.021-0.693
					c0.002-0.064,0.063-0.113,0.119-0.111c0.064,0.002,0.115,0.055,0.113,0.119l-0.023,0.693c-0.002,0.063-0.053,0.113-0.115,0.113
					C228.497,638.794,228.497,638.794,228.495,638.794z M136.274,637.343c-0.01-0.23-0.02-0.463-0.027-0.695
					c-0.002-0.064,0.049-0.117,0.111-0.119c0.066,0.002,0.119,0.047,0.121,0.111c0.008,0.232,0.016,0.463,0.025,0.693
					c0.004,0.064-0.047,0.117-0.109,0.121c-0.002,0-0.004,0-0.006,0C136.327,637.454,136.276,637.405,136.274,637.343z
					 M228.569,636.479c-0.064-0.002-0.113-0.057-0.111-0.119l0.021-0.693c0.002-0.064,0.063-0.119,0.119-0.113
					c0.064,0.002,0.115,0.055,0.113,0.119l-0.023,0.693c-0.002,0.064-0.053,0.113-0.115,0.113
					C228.571,636.479,228.571,636.479,228.569,636.479z M136.2,635.026c-0.006-0.23-0.012-0.463-0.016-0.695
					c0-0.064,0.051-0.117,0.115-0.117l0,0c0.064,0,0.115,0.051,0.117,0.113c0.004,0.232,0.008,0.463,0.014,0.693
					c0.002,0.064-0.049,0.117-0.113,0.119h-0.002C136.252,635.14,136.202,635.089,136.2,635.026z M228.643,634.165
					c-0.064-0.002-0.113-0.055-0.111-0.119l0.021-0.693c0.002-0.064,0.063-0.113,0.119-0.113c0.064,0.004,0.115,0.057,0.113,0.121
					l-0.023,0.693c-0.002,0.063-0.053,0.111-0.115,0.111C228.645,634.165,228.645,634.165,228.643,634.165z M136.165,632.71
					c-0.002-0.232-0.002-0.463-0.002-0.695c0-0.064,0.053-0.117,0.115-0.117c0.064,0,0.117,0.053,0.117,0.117
					c0,0.23,0,0.463,0.002,0.693c0,0.064-0.053,0.115-0.115,0.117l0,0C136.217,632.825,136.165,632.772,136.165,632.71z
					 M228.717,631.853c-0.064-0.002-0.113-0.057-0.111-0.119l0.021-0.693c0.004-0.064,0.057-0.109,0.119-0.113
					c0.064,0.002,0.115,0.055,0.113,0.119l-0.023,0.693c0,0.063-0.053,0.113-0.115,0.113
					C228.719,631.853,228.719,631.853,228.717,631.853z M136.288,630.511c-0.063-0.002-0.115-0.055-0.113-0.119
					c0.002-0.23,0.006-0.463,0.01-0.693c0.002-0.064,0.053-0.105,0.119-0.115c0.064,0.002,0.115,0.055,0.113,0.119
					c-0.004,0.23-0.008,0.463-0.012,0.693c0,0.064-0.053,0.115-0.115,0.115H136.288z M228.792,629.538
					c-0.063-0.002-0.113-0.055-0.111-0.119l0.021-0.693c0.004-0.064,0.057-0.113,0.119-0.113c0.064,0.002,0.115,0.057,0.113,0.121
					l-0.023,0.693c0,0.063-0.053,0.111-0.115,0.111C228.795,629.538,228.793,629.538,228.792,629.538z M136.34,628.196
					c-0.064-0.004-0.113-0.057-0.111-0.121c0.008-0.23,0.016-0.463,0.025-0.693c0.002-0.064,0.061-0.115,0.121-0.111
					c0.063,0.002,0.113,0.057,0.109,0.119c-0.008,0.232-0.018,0.463-0.025,0.693c-0.002,0.063-0.053,0.113-0.115,0.113
					C136.342,628.196,136.342,628.196,136.34,628.196z M228.866,627.226c-0.063-0.002-0.113-0.057-0.111-0.119l0.023-0.695
					c0.002-0.064,0.057-0.115,0.119-0.111c0.064,0.002,0.113,0.055,0.111,0.119l-0.023,0.693c0,0.063-0.053,0.113-0.115,0.113
					C228.87,627.226,228.868,627.226,228.866,627.226z M136.442,625.884c-0.064-0.004-0.113-0.059-0.109-0.123
					c0.014-0.23,0.027-0.463,0.041-0.693c0.004-0.064,0.059-0.115,0.123-0.109c0.064,0.004,0.113,0.061,0.107,0.123
					c-0.014,0.232-0.027,0.463-0.041,0.693c-0.002,0.061-0.055,0.109-0.115,0.109C136.446,625.884,136.444,625.884,136.442,625.884z
					 M228.942,624.911c-0.064-0.002-0.115-0.055-0.113-0.119l0.023-0.693c0-0.064,0.059-0.111,0.119-0.113
					c0.063,0.002,0.113,0.057,0.111,0.119l-0.021,0.695c-0.002,0.063-0.053,0.111-0.115,0.111
					C228.944,624.911,228.942,624.911,228.942,624.911z M136.596,623.573c-0.064-0.004-0.111-0.061-0.107-0.125
					c0.02-0.23,0.039-0.461,0.059-0.691c0.006-0.064,0.059-0.107,0.125-0.105c0.064,0.006,0.111,0.061,0.105,0.125
					c-0.02,0.23-0.039,0.461-0.059,0.691c-0.004,0.061-0.055,0.105-0.115,0.105C136.602,623.573,136.598,623.573,136.596,623.573z
					 M229.016,622.599c-0.064-0.002-0.113-0.057-0.113-0.121l0.023-0.693c0.002-0.064,0.064-0.115,0.119-0.111
					c0.064,0.002,0.113,0.055,0.111,0.119l-0.021,0.693c-0.002,0.063-0.055,0.113-0.115,0.113
					C229.018,622.599,229.016,622.599,229.016,622.599z M136.807,621.269c-0.064-0.008-0.109-0.064-0.104-0.127
					c0.025-0.23,0.049-0.461,0.076-0.691c0.008-0.064,0.064-0.111,0.129-0.102c0.063,0.006,0.107,0.064,0.102,0.127
					c-0.027,0.23-0.053,0.459-0.076,0.689c-0.006,0.061-0.057,0.104-0.115,0.104C136.815,621.269,136.811,621.269,136.807,621.269z
					 M229.09,620.284c-0.064-0.002-0.115-0.057-0.113-0.119l0.023-0.693c0.002-0.064,0.064-0.111,0.119-0.113
					c0.064,0.002,0.113,0.057,0.111,0.119l-0.021,0.695c-0.002,0.063-0.053,0.111-0.115,0.111
					C229.092,620.284,229.092,620.284,229.09,620.284z M137.522,619.474c0-0.063,0.053-0.115,0.117-0.115h0.693
					c0.064,0,0.117,0.053,0.117,0.115c0,0.064-0.053,0.117-0.117,0.117h-0.693C137.575,619.591,137.522,619.538,137.522,619.474z
					 M139.838,619.474c0-0.063,0.051-0.115,0.115-0.115h0.693c0.064,0,0.117,0.053,0.117,0.115c0,0.064-0.053,0.117-0.117,0.117
					h-0.693C139.889,619.591,139.838,619.538,139.838,619.474z M142.153,619.474c0-0.063,0.051-0.115,0.115-0.115h0.695
					c0.063,0,0.115,0.053,0.115,0.115c0,0.064-0.053,0.117-0.115,0.117h-0.695C142.204,619.591,142.153,619.538,142.153,619.474z
					 M144.467,619.474c0-0.063,0.051-0.115,0.115-0.115h0.695c0.063,0,0.115,0.053,0.115,0.115c0,0.064-0.053,0.117-0.115,0.117
					h-0.695C144.518,619.591,144.467,619.538,144.467,619.474z M146.782,619.474c0-0.063,0.053-0.115,0.115-0.115h0.695
					c0.064,0,0.115,0.053,0.115,0.115c0,0.064-0.051,0.117-0.115,0.117h-0.695C146.834,619.591,146.782,619.538,146.782,619.474z
					 M149.096,619.474c0-0.063,0.053-0.115,0.115-0.115h0.695c0.064,0,0.115,0.053,0.115,0.115c0,0.064-0.051,0.117-0.115,0.117
					h-0.695C149.149,619.591,149.096,619.538,149.096,619.474z M151.411,619.474c0-0.063,0.053-0.115,0.117-0.115h0.693
					c0.064,0,0.117,0.053,0.117,0.115c0,0.064-0.053,0.117-0.117,0.117h-0.693C151.463,619.591,151.411,619.538,151.411,619.474z
					 M153.725,619.474c0-0.063,0.053-0.115,0.117-0.115h0.693c0.064,0,0.117,0.053,0.117,0.115c0,0.064-0.053,0.117-0.117,0.117
					h-0.693C153.778,619.591,153.725,619.538,153.725,619.474z M156.042,619.474c0-0.063,0.051-0.115,0.115-0.115h0.695
					c0.063,0,0.115,0.053,0.115,0.115c0,0.064-0.053,0.117-0.115,0.117h-0.695C156.092,619.591,156.042,619.538,156.042,619.474z
					 M158.356,619.474c0-0.063,0.051-0.115,0.115-0.115h0.695c0.063,0,0.115,0.053,0.115,0.115c0,0.064-0.053,0.117-0.115,0.117
					h-0.695C158.407,619.591,158.356,619.538,158.356,619.474z M160.67,619.474c0-0.063,0.053-0.115,0.117-0.115h0.693
					c0.064,0,0.115,0.053,0.115,0.115c0,0.064-0.051,0.117-0.115,0.117h-0.693C160.723,619.591,160.67,619.538,160.67,619.474z
					 M162.987,619.474c0-0.063,0.051-0.115,0.113-0.115h0.695c0.064,0,0.115,0.053,0.115,0.115c0,0.064-0.051,0.117-0.115,0.117
					H163.1C163.038,619.591,162.987,619.538,162.987,619.474z M165.299,619.474c0-0.063,0.053-0.115,0.117-0.115h0.693
					c0.064,0,0.117,0.053,0.117,0.115c0,0.064-0.053,0.117-0.117,0.117h-0.693C165.352,619.591,165.299,619.538,165.299,619.474z
					 M167.616,619.474c0-0.063,0.051-0.115,0.115-0.115h0.693c0.064,0,0.117,0.053,0.117,0.115c0,0.064-0.053,0.117-0.117,0.117
					h-0.693C167.667,619.591,167.616,619.538,167.616,619.474z M169.93,619.474c0-0.063,0.051-0.115,0.115-0.115h0.695
					c0.063,0,0.115,0.053,0.115,0.115c0,0.064-0.053,0.117-0.115,0.117h-0.695C169.981,619.591,169.93,619.538,169.93,619.474z
					 M172.245,619.474c0-0.063,0.053-0.115,0.115-0.115h0.695c0.063,0,0.115,0.053,0.115,0.115c0,0.064-0.053,0.117-0.115,0.117
					h-0.695C172.297,619.591,172.245,619.538,172.245,619.474z M174.559,619.474c0-0.063,0.053-0.115,0.115-0.115h0.695
					c0.064,0,0.115,0.053,0.115,0.115c0,0.064-0.051,0.117-0.115,0.117h-0.695C174.612,619.591,174.559,619.538,174.559,619.474z
					 M176.875,619.474c0-0.063,0.051-0.115,0.113-0.115h0.695c0.064,0,0.115,0.053,0.115,0.115c0,0.064-0.051,0.117-0.115,0.117
					h-0.695C176.926,619.591,176.875,619.538,176.875,619.474z M179.188,619.474c0-0.063,0.053-0.115,0.117-0.115h0.693
					c0.064,0,0.115,0.053,0.115,0.115c0,0.064-0.051,0.117-0.115,0.117h-0.693C179.241,619.591,179.188,619.538,179.188,619.474z
					 M181.502,619.474c0-0.063,0.053-0.115,0.117-0.115h0.693c0.064,0,0.117,0.053,0.117,0.115c0,0.064-0.053,0.117-0.117,0.117
					h-0.693C181.555,619.591,181.502,619.538,181.502,619.474z M183.819,619.474c0-0.063,0.051-0.115,0.115-0.115h0.695
					c0.064,0,0.115,0.053,0.115,0.115c0,0.064-0.051,0.117-0.115,0.117h-0.695C183.87,619.591,183.819,619.538,183.819,619.474z
					 M186.133,619.474c0-0.063,0.051-0.115,0.115-0.115h0.695c0.064,0,0.115,0.053,0.115,0.115c0,0.064-0.051,0.117-0.115,0.117
					h-0.695C186.184,619.591,186.133,619.538,186.133,619.474z M188.448,619.474c0-0.063,0.053-0.115,0.117-0.115h0.693
					c0.064,0,0.115,0.053,0.115,0.115c0,0.064-0.051,0.117-0.115,0.117h-0.693C188.5,619.591,188.448,619.538,188.448,619.474z
					 M190.762,619.474c0-0.063,0.053-0.115,0.117-0.115h0.693c0.064,0,0.115,0.053,0.115,0.115c0,0.064-0.051,0.117-0.115,0.117
					h-0.693C190.815,619.591,190.762,619.538,190.762,619.474z M193.079,619.474c0-0.063,0.051-0.115,0.115-0.115h0.693
					c0.064,0,0.115,0.053,0.115,0.115c0,0.064-0.051,0.117-0.115,0.117h-0.693C193.129,619.591,193.079,619.538,193.079,619.474z
					 M195.393,619.474c0-0.063,0.051-0.115,0.115-0.115h0.693c0.064,0,0.117,0.053,0.117,0.115c0,0.064-0.053,0.117-0.117,0.117
					h-0.693C195.444,619.591,195.393,619.538,195.393,619.474z M197.708,619.474c0-0.063,0.053-0.115,0.115-0.115h0.695
					c0.064,0,0.115,0.053,0.115,0.115c0,0.064-0.051,0.117-0.115,0.117h-0.695C197.76,619.591,197.708,619.538,197.708,619.474z
					 M200.022,619.474c0-0.063,0.051-0.115,0.115-0.115h0.695c0.064,0,0.115,0.053,0.115,0.115c0,0.064-0.051,0.117-0.115,0.117
					h-0.695C200.073,619.591,200.022,619.538,200.022,619.474z M202.336,619.474c0-0.063,0.053-0.115,0.115-0.115h0.695
					c0.064,0,0.115,0.053,0.115,0.115c0,0.064-0.051,0.117-0.115,0.117h-0.695C202.389,619.591,202.336,619.538,202.336,619.474z
					 M204.651,619.474c0-0.063,0.053-0.115,0.117-0.115h0.693c0.064,0,0.117,0.053,0.117,0.115c0,0.064-0.053,0.117-0.117,0.117
					h-0.693C204.704,619.591,204.651,619.538,204.651,619.474z M206.967,619.474c0-0.063,0.051-0.115,0.115-0.115h0.693
					c0.064,0,0.117,0.053,0.117,0.115c0,0.064-0.053,0.117-0.117,0.117h-0.693C207.018,619.591,206.967,619.538,206.967,619.474z
					 M209.282,619.474c0-0.063,0.051-0.115,0.115-0.115h0.695c0.063,0,0.115,0.053,0.115,0.115c0,0.064-0.053,0.117-0.115,0.117
					h-0.695C209.333,619.591,209.282,619.538,209.282,619.474z M211.596,619.474c0-0.063,0.051-0.115,0.115-0.115h0.693
					c0.066,0,0.117,0.053,0.117,0.115c0,0.064-0.051,0.117-0.117,0.117h-0.693C211.647,619.591,211.596,619.538,211.596,619.474z
					 M213.911,619.474c0-0.063,0.053-0.115,0.115-0.115h0.695c0.064,0,0.115,0.053,0.115,0.115c0,0.064-0.051,0.117-0.115,0.117
					h-0.695C213.963,619.591,213.911,619.538,213.911,619.474z M216.225,619.474c0-0.063,0.053-0.115,0.115-0.115h0.695
					c0.064,0,0.115,0.053,0.115,0.115c0,0.064-0.051,0.117-0.115,0.117h-0.695C216.278,619.591,216.225,619.538,216.225,619.474z
					 M218.542,619.474c0-0.063,0.051-0.115,0.115-0.115h0.693c0.064,0,0.117,0.053,0.117,0.115c0,0.064-0.053,0.117-0.117,0.117
					h-0.693C218.592,619.591,218.542,619.538,218.542,619.474z M220.856,619.474c0-0.063,0.051-0.115,0.115-0.115h0.695
					c0.063,0,0.115,0.053,0.115,0.115c0,0.064-0.053,0.117-0.115,0.117h-0.695C220.907,619.591,220.856,619.538,220.856,619.474z
					 M223.17,619.474c0-0.063,0.051-0.115,0.115-0.115h0.695c0.063,0,0.115,0.053,0.115,0.115c0,0.064-0.053,0.117-0.115,0.117
					h-0.695C223.221,619.591,223.17,619.538,223.17,619.474z M225.485,619.474c0-0.063,0.053-0.115,0.115-0.115h0.695
					c0.064,0,0.115,0.053,0.115,0.115c0,0.064-0.051,0.117-0.115,0.117H225.6C225.538,619.591,225.485,619.538,225.485,619.474z
					 M227.799,619.474c0-0.063,0.053-0.115,0.117-0.115h0.693c0.064,0,0.115,0.053,0.115,0.115c0,0.064-0.051,0.117-0.115,0.117
					h-0.693C227.852,619.591,227.799,619.538,227.799,619.474z"/>
				
					<linearGradient id="SVGID_43_" gradientUnits="userSpaceOnUse" x1="-4177.0342" y1="1280.6133" x2="-4181.0347" y2="1235.8588" gradientTransform="matrix(-1 0 0 1 -4035.8838 0)">
					<stop  offset="0" style="stop-color:#5560AB"/>
					<stop  offset="1" style="stop-color:#4C57A6"/>
				</linearGradient>
				<path fill="url(#SVGID_43_)" d="M208.956,596.183l-0.23-2.475c-0.262-0.592-0.803-1.01-1.443-1.111
					c-2.395-0.381-8.33-1.051-11.189,1.086l-0.426,2.875L208.956,596.183z"/>
				<linearGradient id="SVGID_44_" gradientUnits="userSpaceOnUse" x1="219.9385" y1="557.1777" x2="209.4364" y2="575.9315">
					<stop  offset="0" style="stop-color:#5560AB"/>
					<stop  offset="1" style="stop-color:#4C57A6"/>
				</linearGradient>
				<path fill="url(#SVGID_44_)" d="M201.477,593.802c0.553,0.133,1.105,0.133,1.658-0.002c0.668-0.166,1.141-0.764,1.141-1.449
					v-7.75h-3.943v7.744C200.333,593.034,200.805,593.638,201.477,593.802z"/>
				
					<linearGradient id="SVGID_45_" gradientUnits="userSpaceOnUse" x1="-4139.1431" y1="1277.2275" x2="-4143.1436" y2="1232.4729" gradientTransform="matrix(-1 0 0 1 -4035.8838 0)">
					<stop  offset="0" style="stop-color:#5560AB"/>
					<stop  offset="1" style="stop-color:#4C57A6"/>
				</linearGradient>
				<path fill="url(#SVGID_45_)" d="M170.762,596.183l-0.23-2.475c-0.262-0.592-0.803-1.01-1.443-1.111
					c-2.395-0.381-8.33-1.051-11.188,1.086l-0.428,2.875L170.762,596.183z"/>
				<linearGradient id="SVGID_46_" gradientUnits="userSpaceOnUse" x1="179.1289" y1="560.6563" x2="169.8779" y2="577.658">
					<stop  offset="0" style="stop-color:#5560AB"/>
					<stop  offset="1" style="stop-color:#4C57A6"/>
				</linearGradient>
				<path fill="url(#SVGID_46_)" d="M163.286,593.802c0.551,0.133,1.102,0.133,1.656-0.002c0.668-0.166,1.141-0.764,1.141-1.449
					v-8.566h-3.943v8.561C162.139,593.034,162.612,593.638,163.286,593.802z"/>
				<linearGradient id="SVGID_47_" gradientUnits="userSpaceOnUse" x1="208.6655" y1="557.4111" x2="183.6657" y2="583.0775">
					<stop  offset="0" style="stop-color:#5560AB"/>
					<stop  offset="1" style="stop-color:#4C57A6"/>
				</linearGradient>
				<path fill="url(#SVGID_47_)" d="M204.676,586.501l-42.406-0.84c-0.967-0.02-1.787-0.436-1.953-1.002
					c-0.232-0.795-0.438-1.982-0.133-3.213c0.348-1.4,2.363-2.441,4.742-2.475c7.91-0.113,28.051-0.109,39.15,2.516
					c1.174,0.277,2.045,0.877,2.342,1.607c0.283,0.697,0.471,1.627,0.102,2.574C206.323,586.171,205.543,586.519,204.676,586.501z"
					/>
				<path fill="#98B1DC" d="M205.411,585.21c0.117,0,0.217-0.053,0.23-0.123c0.006-0.041,0.162-0.998-0.256-1.922
					c-0.32-0.705-1.254-1.273-2.439-1.48c-2.363-0.414-6.883-1.119-10.576-1.182c-0.133,0.004-0.234,0.059-0.238,0.135
					c-0.002,0.076,0.098,0.139,0.225,0.143c3.643,0.061,8.117,0.76,10.461,1.17c1.031,0.18,1.844,0.674,2.121,1.287
					c0.396,0.875,0.244,1.811,0.242,1.82c-0.014,0.076,0.08,0.145,0.207,0.152C205.395,585.21,205.403,585.21,205.411,585.21z"/>
				
					<linearGradient id="SVGID_48_" gradientUnits="userSpaceOnUse" x1="-4215.1396" y1="581.9717" x2="-4229.1074" y2="712.3356" gradientTransform="matrix(-1 0 0 1 -4035.8838 0)">
					<stop  offset="0" style="stop-color:#5560AB"/>
					<stop  offset="1" style="stop-color:#4C57A6"/>
				</linearGradient>
				<path fill="url(#SVGID_48_)" d="M228.631,595.218c-13.701-0.176-72.967-0.799-90.182,1.279c-1.484,0.18-2.693,1.264-3.014,2.715
					c-1.018,4.598-3.064,15.281-2.822,25.871c0.033,1.441,1.09,2.658,2.514,2.928l39.297,7.434h13.959l41.871-8.322
					c1.479-0.293,2.564-1.543,2.643-3.039c0.271-5.328,0.697-17.83-0.744-25.877C231.846,596.497,230.375,595.239,228.631,595.218z"
					/>
				<path fill="#FFFFFF" d="M187.936,632.081c-0.012-0.063,0.029-0.123,0.092-0.137l0.682-0.135
					c0.063-0.012,0.123,0.029,0.135,0.092c0.014,0.063-0.027,0.123-0.09,0.135l-0.682,0.137c-0.008,0-0.016,0.002-0.021,0.002
					C187.997,632.175,187.948,632.136,187.936,632.081z M174.85,632.058c0-0.063,0.051-0.115,0.115-0.115h0.695
					c0.064,0,0.115,0.053,0.115,0.115c0,0.064-0.051,0.117-0.115,0.117h-0.695C174.901,632.175,174.85,632.122,174.85,632.058z
					 M177.165,632.058c0-0.063,0.051-0.115,0.115-0.115h0.695c0.063,0,0.115,0.053,0.115,0.115c0,0.064-0.053,0.117-0.115,0.117
					h-0.695C177.215,632.175,177.165,632.122,177.165,632.058z M179.479,632.058c0-0.063,0.053-0.115,0.117-0.115h0.693
					c0.064,0,0.115,0.053,0.115,0.115c0,0.064-0.051,0.117-0.115,0.117h-0.693C179.532,632.175,179.479,632.122,179.479,632.058z
					 M181.795,632.058c0-0.063,0.051-0.115,0.115-0.115h0.693c0.064,0,0.115,0.053,0.115,0.115c0,0.064-0.051,0.117-0.115,0.117
					h-0.693C181.846,632.175,181.795,632.122,181.795,632.058z M184.11,632.058c0-0.063,0.051-0.115,0.115-0.115h0.693
					c0.064,0,0.115,0.053,0.115,0.115c0,0.064-0.051,0.117-0.115,0.117h-0.693C184.161,632.175,184.11,632.122,184.11,632.058z
					 M186.424,632.058c0-0.063,0.051-0.115,0.115-0.115h0.693c0.064,0,0.117,0.053,0.117,0.115c0,0.064-0.053,0.117-0.117,0.117
					h-0.693C186.475,632.175,186.424,632.122,186.424,632.058z M173.348,631.913l-0.682-0.129c-0.064-0.014-0.105-0.074-0.094-0.137
					c0.014-0.063,0.072-0.104,0.137-0.092l0.682,0.129c0.063,0.014,0.104,0.072,0.092,0.137c-0.01,0.055-0.059,0.094-0.113,0.094
					C173.362,631.915,173.356,631.915,173.348,631.913z M190.208,631.63c-0.014-0.063,0.029-0.123,0.092-0.137l0.68-0.135
					c0.064-0.014,0.123,0.029,0.137,0.092c0.012,0.063-0.029,0.123-0.092,0.135l-0.68,0.137c-0.01,0-0.016,0.002-0.023,0.002
					C190.266,631.724,190.219,631.685,190.208,631.63z M171.073,631.481l-0.682-0.129c-0.063-0.012-0.104-0.07-0.092-0.135
					c0.012-0.063,0.072-0.104,0.135-0.092l0.684,0.129c0.063,0.012,0.104,0.072,0.092,0.135c-0.012,0.057-0.061,0.096-0.113,0.096
					C171.088,631.485,171.081,631.483,171.073,631.481z M192.477,631.179c-0.012-0.063,0.029-0.123,0.092-0.137l0.682-0.135
					c0.063-0.014,0.123,0.027,0.135,0.09c0.012,0.064-0.027,0.125-0.09,0.137l-0.682,0.135c-0.008,0.002-0.016,0.004-0.021,0.004
					C192.538,631.272,192.489,631.233,192.477,631.179z M168.799,631.052l-0.682-0.129c-0.064-0.012-0.105-0.072-0.092-0.135
					c0.012-0.063,0.07-0.105,0.135-0.092l0.682,0.129c0.063,0.012,0.104,0.072,0.092,0.135c-0.01,0.055-0.059,0.094-0.113,0.094
					C168.813,631.054,168.807,631.054,168.799,631.052z M194.749,630.728c-0.014-0.063,0.027-0.123,0.09-0.137l0.682-0.135
					c0.064-0.014,0.123,0.029,0.137,0.09c0.012,0.064-0.029,0.125-0.092,0.137l-0.682,0.137c-0.006,0-0.014,0.002-0.021,0.002
					C194.807,630.821,194.76,630.782,194.749,630.728z M166.526,630.622l-0.684-0.129c-0.063-0.012-0.104-0.072-0.092-0.135
					c0.012-0.064,0.072-0.104,0.135-0.094l0.682,0.129c0.064,0.012,0.104,0.072,0.094,0.137c-0.012,0.055-0.061,0.094-0.113,0.094
					C166.54,630.624,166.532,630.624,166.526,630.622z M197.018,630.276c-0.012-0.063,0.029-0.125,0.092-0.137l0.68-0.135
					c0.063-0.014,0.125,0.027,0.137,0.09c0.012,0.064-0.027,0.125-0.09,0.137l-0.682,0.135c-0.008,0.002-0.016,0.004-0.023,0.004
					C197.079,630.37,197.03,630.331,197.018,630.276z M164.25,630.192l-0.682-0.131c-0.064-0.012-0.105-0.07-0.092-0.135
					c0.01-0.063,0.07-0.104,0.133-0.092l0.684,0.129c0.063,0.012,0.104,0.072,0.092,0.135c-0.01,0.057-0.059,0.096-0.113,0.096
					C164.264,630.194,164.258,630.192,164.25,630.192z M199.29,629.825c-0.014-0.063,0.027-0.125,0.09-0.137l0.682-0.135
					c0.064-0.014,0.123,0.027,0.137,0.09c0.012,0.064-0.029,0.125-0.092,0.137l-0.682,0.135c-0.008,0.002-0.014,0.002-0.023,0.002
					C199.348,629.917,199.299,629.88,199.29,629.825z M161.977,629.761l-0.684-0.129c-0.063-0.012-0.104-0.072-0.092-0.135
					s0.072-0.105,0.135-0.092l0.682,0.129c0.064,0.012,0.104,0.072,0.094,0.135c-0.012,0.055-0.061,0.094-0.113,0.094
					C161.991,629.763,161.983,629.763,161.977,629.761z M201.559,629.374c-0.012-0.063,0.027-0.125,0.09-0.137l0.682-0.135
					c0.064-0.014,0.123,0.027,0.137,0.092c0.012,0.061-0.029,0.123-0.092,0.135l-0.68,0.135c-0.008,0.002-0.016,0.002-0.023,0.002
					C201.62,629.466,201.569,629.429,201.559,629.374z M159.702,629.331l-0.682-0.129c-0.064-0.012-0.105-0.072-0.092-0.135
					c0.01-0.064,0.07-0.104,0.133-0.094l0.684,0.129c0.063,0.012,0.104,0.072,0.092,0.137c-0.01,0.055-0.059,0.094-0.113,0.094
					C159.715,629.333,159.709,629.333,159.702,629.331z M203.831,628.923c-0.014-0.064,0.027-0.125,0.09-0.137l0.682-0.135
					c0.063-0.014,0.123,0.027,0.135,0.09c0.014,0.063-0.027,0.123-0.09,0.137l-0.682,0.135c-0.008,0.002-0.016,0.002-0.023,0.002
					C203.889,629.015,203.84,628.978,203.831,628.923z M157.426,628.901l-0.682-0.131c-0.063-0.012-0.104-0.072-0.092-0.135
					s0.072-0.104,0.135-0.092l0.682,0.129c0.064,0.012,0.104,0.072,0.092,0.135c-0.01,0.057-0.059,0.096-0.111,0.096
					C157.442,628.903,157.434,628.903,157.426,628.901z M206.1,628.472c-0.012-0.064,0.027-0.125,0.09-0.137l0.682-0.135
					c0.064-0.014,0.123,0.027,0.137,0.09c0.012,0.063-0.029,0.125-0.092,0.137l-0.68,0.135c-0.008,0.002-0.016,0.002-0.023,0.002
					C206.159,628.563,206.11,628.526,206.1,628.472z M155.153,628.47l-0.684-0.129c-0.063-0.012-0.104-0.072-0.092-0.135
					s0.072-0.104,0.135-0.092l0.684,0.129c0.063,0.012,0.104,0.072,0.092,0.135c-0.01,0.057-0.059,0.094-0.113,0.094
					C155.167,628.472,155.159,628.472,155.153,628.47z M208.372,628.021c-0.014-0.063,0.027-0.125,0.09-0.137l0.682-0.135
					c0.063-0.014,0.123,0.027,0.137,0.09c0.01,0.063-0.029,0.123-0.092,0.137l-0.682,0.135c-0.008,0.002-0.016,0.002-0.023,0.002
					C208.43,628.112,208.381,628.075,208.372,628.021z M152.877,628.04l-0.682-0.129c-0.063-0.012-0.104-0.072-0.092-0.135
					s0.072-0.104,0.135-0.094l0.682,0.131c0.064,0.012,0.105,0.072,0.092,0.135c-0.01,0.055-0.059,0.094-0.113,0.094
					C152.893,628.042,152.885,628.042,152.877,628.04z M210.641,627.567c-0.014-0.063,0.027-0.123,0.09-0.135l0.682-0.137
					c0.064-0.012,0.123,0.029,0.135,0.092c0.014,0.063-0.027,0.123-0.09,0.137l-0.68,0.135c-0.01,0.002-0.016,0.002-0.023,0.002
					C210.7,627.661,210.651,627.624,210.641,627.567z M150.604,627.61l-0.682-0.129c-0.063-0.012-0.105-0.074-0.094-0.137
					s0.074-0.104,0.135-0.092l0.684,0.129c0.063,0.012,0.104,0.072,0.092,0.135c-0.01,0.057-0.059,0.096-0.113,0.096
					C150.618,627.612,150.61,627.61,150.604,627.61z M212.911,627.116c-0.012-0.063,0.029-0.123,0.092-0.135l0.68-0.137
					c0.064-0.012,0.125,0.029,0.137,0.092s-0.029,0.123-0.09,0.137l-0.682,0.135c-0.008,0.002-0.016,0.002-0.023,0.002
					C212.971,627.21,212.922,627.173,212.911,627.116z M148.329,627.179l-0.682-0.129c-0.063-0.012-0.104-0.072-0.092-0.135
					s0.072-0.104,0.135-0.092l0.682,0.129c0.063,0.012,0.105,0.072,0.092,0.135c-0.01,0.057-0.057,0.094-0.113,0.094
					C148.344,627.181,148.336,627.181,148.329,627.179z M215.182,626.665c-0.014-0.063,0.027-0.123,0.09-0.135l0.682-0.137
					c0.063-0.014,0.123,0.029,0.137,0.092c0.012,0.063-0.029,0.123-0.092,0.137l-0.682,0.135c-0.008,0.002-0.014,0.002-0.021,0.002
					C215.241,626.759,215.192,626.72,215.182,626.665z M146.055,626.749l-0.684-0.129c-0.063-0.012-0.104-0.072-0.092-0.135
					c0.012-0.064,0.072-0.104,0.135-0.094l0.684,0.131c0.063,0.012,0.104,0.072,0.092,0.135c-0.01,0.055-0.059,0.094-0.113,0.094
					C146.069,626.751,146.061,626.751,146.055,626.749z M143.78,626.319l-0.682-0.129c-0.063-0.012-0.104-0.072-0.092-0.137
					c0.012-0.063,0.072-0.104,0.135-0.092l0.682,0.129c0.063,0.012,0.105,0.072,0.092,0.137c-0.01,0.055-0.059,0.094-0.113,0.094
					C143.795,626.321,143.788,626.319,143.78,626.319z M217.452,626.214c-0.012-0.063,0.029-0.123,0.092-0.135l0.682-0.137
					c0.061-0.012,0.123,0.029,0.135,0.092c0.014,0.063-0.029,0.123-0.092,0.135l-0.68,0.137c-0.008,0.002-0.016,0.002-0.023,0.002
					C217.51,626.308,217.463,626.269,217.452,626.214z M141.506,625.888l-0.684-0.129c-0.063-0.012-0.104-0.072-0.092-0.135
					s0.072-0.104,0.135-0.092l0.684,0.129c0.063,0.012,0.104,0.072,0.092,0.135c-0.01,0.057-0.059,0.094-0.113,0.094
					C141.52,625.89,141.512,625.89,141.506,625.888z M219.723,625.763c-0.014-0.063,0.027-0.123,0.09-0.135l0.682-0.137
					c0.063-0.012,0.123,0.029,0.135,0.092c0.014,0.063-0.027,0.123-0.09,0.135l-0.682,0.137c-0.008,0.002-0.016,0.002-0.023,0.002
					C219.782,625.856,219.733,625.817,219.723,625.763z M139.231,625.458l-0.682-0.129c-0.064-0.012-0.104-0.072-0.092-0.135
					c0.01-0.063,0.072-0.104,0.135-0.092l0.682,0.129c0.063,0.012,0.105,0.072,0.092,0.135c-0.01,0.055-0.059,0.094-0.113,0.094
					C139.247,625.46,139.239,625.46,139.231,625.458z M221.993,625.312c-0.012-0.063,0.027-0.123,0.09-0.137l0.682-0.135
					c0.063-0.012,0.123,0.029,0.137,0.092c0.012,0.063-0.027,0.123-0.092,0.135l-0.68,0.137c-0.008,0-0.016,0.002-0.023,0.002
					C222.051,625.405,222.002,625.366,221.993,625.312z M136.958,625.028l-0.684-0.129c-0.063-0.012-0.104-0.072-0.092-0.137
					c0.012-0.063,0.072-0.104,0.135-0.092L137,624.8c0.063,0.012,0.104,0.072,0.092,0.137c-0.01,0.055-0.059,0.094-0.113,0.094
					C136.971,625.03,136.963,625.028,136.958,625.028z M224.262,624.86c-0.012-0.063,0.029-0.123,0.092-0.137l0.68-0.135
					c0.064-0.014,0.125,0.029,0.137,0.092c0.014,0.063-0.027,0.123-0.09,0.135l-0.682,0.137c-0.008,0-0.016,0.002-0.023,0.002
					C224.321,624.954,224.274,624.915,224.262,624.86z M226.534,624.409c-0.014-0.063,0.027-0.123,0.09-0.137l0.682-0.135
					c0.063-0.012,0.123,0.029,0.137,0.092c0.012,0.063-0.029,0.123-0.092,0.135l-0.682,0.137c-0.006,0-0.016,0.002-0.021,0.002
					C226.592,624.503,226.543,624.464,226.534,624.409z M228.803,623.958c-0.012-0.063,0.029-0.123,0.092-0.137l0.514-0.102
					c0.008-0.059,0.055-0.105,0.121-0.1c0.063,0.002,0.111,0.057,0.109,0.121l-0.01,0.17l-0.689,0.137
					c-0.008,0.002-0.016,0.004-0.023,0.004C228.864,624.052,228.815,624.013,228.803,623.958z M135.866,623.415v-0.066
					c0-0.209,0-0.42,0.002-0.629c0-0.063,0.064-0.117,0.117-0.115c0.063,0.002,0.115,0.053,0.113,0.117
					c0,0.209-0.002,0.418-0.002,0.627v0.066c0,0.064-0.051,0.115-0.115,0.115S135.866,623.479,135.866,623.415z M229.592,622.231
					c-0.063-0.002-0.113-0.057-0.109-0.119c0.008-0.225,0.02-0.457,0.027-0.695c0.002-0.064,0.055-0.113,0.121-0.111
					c0.064,0.002,0.113,0.057,0.111,0.121c-0.01,0.238-0.02,0.469-0.029,0.693c-0.002,0.063-0.055,0.111-0.115,0.111
					C229.596,622.231,229.594,622.231,229.592,622.231z M136.01,621.216c-0.064-0.002-0.115-0.055-0.113-0.119
					c0.006-0.23,0.014-0.463,0.021-0.693c0.004-0.064,0.061-0.113,0.121-0.111c0.064,0.002,0.113,0.057,0.111,0.119
					c-0.01,0.23-0.016,0.463-0.023,0.693c0,0.063-0.053,0.111-0.115,0.111H136.01z M229.68,619.917
					c-0.064-0.002-0.115-0.055-0.111-0.119c0.006-0.227,0.014-0.457,0.02-0.693c0.002-0.064,0.053-0.113,0.119-0.113
					c0.064,0.004,0.113,0.057,0.113,0.119c-0.008,0.236-0.014,0.469-0.021,0.695c-0.002,0.063-0.053,0.111-0.115,0.111
					C229.682,619.917,229.68,619.917,229.68,619.917z M136.102,618.905c-0.064-0.004-0.113-0.059-0.109-0.121
					c0.014-0.232,0.025-0.465,0.041-0.695c0.004-0.064,0.057-0.111,0.121-0.109c0.064,0.004,0.113,0.061,0.109,0.123
					c-0.014,0.23-0.027,0.461-0.039,0.693c-0.006,0.061-0.057,0.109-0.115,0.109C136.106,618.905,136.104,618.905,136.102,618.905z
					 M229.743,617.603c-0.064,0-0.115-0.053-0.113-0.117c0.004-0.229,0.008-0.459,0.012-0.693c0.002-0.064,0.057-0.115,0.119-0.115
					c0.063,0.002,0.115,0.055,0.113,0.119c-0.004,0.234-0.008,0.465-0.014,0.695c-0.002,0.063-0.053,0.111-0.115,0.111
					C229.743,617.603,229.743,617.603,229.743,617.603z M136.252,616.595c-0.064-0.006-0.111-0.061-0.107-0.125
					c0.02-0.232,0.037-0.463,0.057-0.693c0.006-0.063,0.061-0.109,0.125-0.105c0.064,0.006,0.111,0.061,0.105,0.125
					c-0.018,0.23-0.037,0.461-0.055,0.691c-0.006,0.061-0.057,0.107-0.117,0.107C136.258,616.595,136.256,616.595,136.252,616.595z
					 M229.778,615.288c-0.063,0-0.115-0.053-0.115-0.117c0.004-0.229,0.004-0.461,0.006-0.693c0-0.064,0.053-0.115,0.115-0.115
					h0.002c0.063,0,0.115,0.053,0.115,0.117c-0.002,0.232-0.004,0.465-0.006,0.693c0,0.064-0.053,0.115-0.115,0.115H229.778z
					 M136.454,614.288c-0.063-0.008-0.109-0.064-0.102-0.127c0.023-0.232,0.045-0.463,0.07-0.691
					c0.006-0.064,0.063-0.111,0.127-0.104c0.064,0.006,0.111,0.063,0.104,0.127c-0.025,0.229-0.049,0.459-0.07,0.691
					c-0.008,0.059-0.057,0.104-0.115,0.104C136.463,614.288,136.459,614.288,136.454,614.288z M229.67,612.858
					c-0.002-0.23-0.004-0.463-0.006-0.695c0-0.063,0.051-0.115,0.115-0.115h0.002c0.063,0,0.115,0.051,0.115,0.113
					c0.002,0.232,0.004,0.465,0.004,0.695c0.002,0.064-0.051,0.117-0.115,0.117l0,0C229.721,612.974,229.67,612.921,229.67,612.858z
					 M136.706,611.985c-0.063-0.008-0.109-0.064-0.102-0.129c0.029-0.232,0.057-0.461,0.086-0.689
					c0.008-0.064,0.066-0.109,0.129-0.102c0.064,0.008,0.109,0.066,0.1,0.129c-0.027,0.229-0.057,0.459-0.084,0.689
					c-0.008,0.059-0.057,0.102-0.115,0.102C136.715,611.985,136.711,611.985,136.706,611.985z M229.643,610.546
					c-0.004-0.232-0.008-0.463-0.014-0.695c-0.002-0.063,0.049-0.117,0.113-0.117c0.061,0.002,0.115,0.049,0.117,0.113
					c0.006,0.23,0.01,0.463,0.016,0.693c0,0.064-0.051,0.117-0.113,0.119c-0.002,0-0.002,0-0.002,0
					C229.698,610.659,229.645,610.608,229.643,610.546z M137.002,609.688c-0.064-0.01-0.107-0.068-0.1-0.131
					c0.033-0.232,0.066-0.461,0.1-0.688c0.008-0.064,0.068-0.105,0.131-0.1c0.063,0.01,0.107,0.068,0.098,0.133
					c-0.033,0.227-0.066,0.455-0.098,0.688c-0.008,0.057-0.059,0.098-0.115,0.098C137.012,609.688,137.008,609.688,137.002,609.688z
					 M229.581,608.233c-0.01-0.232-0.018-0.463-0.027-0.693c-0.004-0.064,0.047-0.119,0.109-0.121
					c0.061-0.002,0.119,0.047,0.121,0.109c0.01,0.232,0.02,0.465,0.027,0.695c0.002,0.064-0.047,0.119-0.111,0.121
					c0,0-0.002,0-0.004,0C229.633,608.345,229.583,608.296,229.581,608.233z M137.342,607.397c-0.064-0.01-0.107-0.07-0.098-0.133
					c0.037-0.232,0.074-0.461,0.111-0.686c0.01-0.064,0.068-0.107,0.133-0.096c0.063,0.01,0.105,0.07,0.096,0.133
					c-0.037,0.225-0.074,0.453-0.111,0.686c-0.008,0.057-0.059,0.098-0.113,0.098C137.354,607.399,137.348,607.399,137.342,607.397z
					 M229.471,605.921c-0.012-0.232-0.027-0.463-0.043-0.693c-0.004-0.063,0.045-0.117,0.109-0.123
					c0.064-0.004,0.119,0.045,0.123,0.109c0.014,0.23,0.029,0.461,0.041,0.693c0.004,0.064-0.043,0.119-0.107,0.123
					c-0.002,0-0.004,0-0.008,0C229.526,606.03,229.475,605.983,229.471,605.921z M137.721,605.112
					c-0.063-0.01-0.105-0.07-0.094-0.133c0.041-0.234,0.082-0.463,0.123-0.686c0.012-0.063,0.072-0.104,0.135-0.094
					c0.063,0.012,0.104,0.072,0.092,0.135c-0.039,0.225-0.08,0.451-0.121,0.684c-0.01,0.057-0.059,0.096-0.113,0.096
					C137.735,605.114,137.729,605.114,137.721,605.112z M229.309,603.614c-0.02-0.23-0.041-0.461-0.063-0.689
					c-0.006-0.064,0.041-0.121,0.104-0.127c0.064-0.004,0.121,0.041,0.127,0.104c0.021,0.23,0.043,0.461,0.061,0.693
					c0.008,0.064-0.041,0.119-0.104,0.125c-0.004,0-0.008,0.002-0.012,0.002C229.364,603.722,229.313,603.675,229.309,603.614z
					 M138.143,602.835c-0.064-0.012-0.105-0.072-0.092-0.135c0.045-0.236,0.09-0.463,0.135-0.684
					c0.014-0.061,0.074-0.102,0.137-0.09c0.063,0.014,0.104,0.074,0.09,0.137c-0.043,0.219-0.088,0.445-0.135,0.68
					c-0.01,0.057-0.059,0.094-0.113,0.094C138.159,602.837,138.149,602.837,138.143,602.835z M229.073,601.315
					c-0.027-0.23-0.057-0.461-0.088-0.688c-0.008-0.063,0.037-0.121,0.1-0.129c0.064-0.012,0.121,0.035,0.131,0.098
					c0.031,0.229,0.061,0.459,0.088,0.691c0.008,0.063-0.037,0.121-0.1,0.129c-0.006,0-0.01,0-0.016,0
					C229.131,601.417,229.081,601.374,229.073,601.315z M138.606,600.565c-0.063-0.014-0.104-0.074-0.088-0.137l0.111-0.512
					c0.02-0.09,0.104-0.16,0.209-0.174l0.027-0.002c0.064-0.008,0.102,0.037,0.109,0.1c0.008,0.064-0.057,0.119-0.119,0.127
					l-0.113,0.51c-0.01,0.055-0.059,0.09-0.111,0.09C138.622,600.567,138.616,600.567,138.606,600.565z M140.374,599.692
					c-0.006-0.063,0.041-0.119,0.104-0.125c0.225-0.021,0.457-0.043,0.693-0.064c0.064-0.006,0.119,0.041,0.125,0.104
					c0.006,0.064-0.041,0.121-0.104,0.127c-0.238,0.021-0.467,0.043-0.691,0.064c-0.004,0-0.008,0-0.012,0
					C140.43,599.798,140.379,599.753,140.374,599.692z M142.68,599.493c-0.004-0.063,0.043-0.119,0.105-0.123
					c0.227-0.018,0.459-0.035,0.695-0.053c0.063-0.006,0.119,0.043,0.123,0.107s-0.043,0.119-0.107,0.125
					c-0.234,0.016-0.467,0.033-0.691,0.051c-0.004,0-0.006,0-0.01,0C142.737,599.601,142.684,599.554,142.68,599.493z
					 M144.989,599.333c-0.004-0.064,0.045-0.119,0.109-0.123l0.693-0.043c0.064-0.008,0.119,0.045,0.123,0.109
					c0.004,0.063-0.045,0.117-0.109,0.121l-0.691,0.043c-0.004,0-0.006,0-0.01,0C145.043,599.44,144.995,599.394,144.989,599.333z
					 M147.301,599.198c-0.004-0.064,0.045-0.119,0.109-0.121l0.693-0.037c0.059-0.004,0.119,0.047,0.121,0.109
					c0.004,0.064-0.045,0.119-0.109,0.123l-0.693,0.035c-0.002,0-0.004,0-0.006,0C147.356,599.308,147.303,599.259,147.301,599.198z
					 M149.614,599.083c-0.004-0.063,0.045-0.117,0.109-0.119l0.695-0.031c0.059,0.004,0.117,0.047,0.119,0.109
					c0.004,0.064-0.045,0.119-0.109,0.121l-0.695,0.031c0,0-0.002,0-0.004,0C149.667,599.194,149.616,599.146,149.614,599.083z
					 M228.743,599.03l-0.037-0.207c-0.012-0.061-0.059-0.104-0.119-0.104l-0.152-0.002c-0.064,0-0.113-0.053-0.115-0.117
					c0.002-0.063,0.053-0.115,0.117-0.115l0,0l0.152,0.002c0.172,0.002,0.314,0.125,0.346,0.295l0.035,0.209
					c0.012,0.063-0.031,0.123-0.094,0.133c-0.006,0.002-0.014,0.002-0.02,0.002C228.801,599.126,228.75,599.087,228.743,599.03z
					 M151.926,598.985c-0.004-0.064,0.047-0.119,0.111-0.121l0.693-0.027c0.072,0.004,0.117,0.049,0.121,0.113
					c0.002,0.063-0.049,0.117-0.111,0.119l-0.695,0.027c-0.002,0-0.002,0-0.004,0C151.979,599.097,151.928,599.048,151.926,598.985z
					 M154.239,598.899c-0.002-0.064,0.049-0.117,0.113-0.121l0.693-0.021c0.061,0,0.117,0.047,0.119,0.111s-0.049,0.117-0.111,0.119
					l-0.693,0.023c-0.002,0-0.004,0-0.006,0C154.293,599.011,154.243,598.962,154.239,598.899z M156.553,598.823
					c-0.002-0.064,0.047-0.117,0.111-0.119l0.695-0.02c0.061,0.004,0.117,0.047,0.119,0.111s-0.049,0.117-0.113,0.119l-0.693,0.021
					c-0.002,0-0.002,0-0.004,0C156.606,598.937,156.555,598.886,156.553,598.823z M158.866,598.757c0-0.063,0.049-0.117,0.113-0.119
					l0.695-0.018h0.002c0.064,0,0.115,0.051,0.117,0.113c0.002,0.064-0.051,0.117-0.113,0.119l-0.695,0.018h-0.002
					C158.92,598.87,158.87,598.821,158.866,598.757z M161.18,598.698c0-0.063,0.049-0.117,0.113-0.117l0.695-0.016h0.002
					c0.063,0,0.115,0.049,0.115,0.111c0.002,0.064-0.049,0.117-0.111,0.119l-0.695,0.016h-0.002
					C161.235,598.812,161.182,598.763,161.18,598.698z M163.495,598.647c0-0.064,0.051-0.117,0.115-0.117l0.693-0.016
					c0.061-0.006,0.117,0.051,0.119,0.113c0,0.064-0.051,0.117-0.113,0.119l-0.695,0.014h-0.002
					C163.547,598.761,163.497,598.71,163.495,598.647z M165.809,598.603c0-0.064,0.051-0.117,0.113-0.119l0.695-0.012
					c0.063-0.004,0.117,0.049,0.119,0.113c0,0.064-0.051,0.117-0.115,0.119l-0.693,0.012h-0.002
					C165.862,598.716,165.811,598.665,165.809,598.603z M226.813,598.698l-0.695-0.01c-0.064,0-0.115-0.053-0.115-0.117
					c0.002-0.063,0.061-0.115,0.119-0.113l0.693,0.008c0.064,0,0.115,0.053,0.115,0.117
					C226.928,598.647,226.877,598.698,226.813,598.698L226.813,598.698z M168.125,598.562c-0.002-0.063,0.049-0.115,0.113-0.117
					l0.693-0.012c0.002,0,0.002,0,0.002,0c0.064,0,0.115,0.051,0.117,0.115c0,0.064-0.051,0.117-0.115,0.117l-0.693,0.012
					c-0.002,0-0.002,0-0.002,0C168.176,598.677,168.125,598.626,168.125,598.562z M224.497,598.671l-0.693-0.008
					c-0.064,0-0.115-0.053-0.115-0.117c0-0.063,0.053-0.113,0.115-0.113h0.002l0.693,0.006c0.064,0.002,0.115,0.055,0.115,0.117
					c0,0.064-0.053,0.115-0.115,0.115C224.499,598.671,224.499,598.671,224.497,598.671z M222.18,598.646l-0.693-0.006
					c-0.064-0.002-0.115-0.053-0.115-0.117c0-0.063,0.053-0.115,0.115-0.115c0.002,0,0.002,0,0.002,0l0.695,0.008
					c0.063,0,0.115,0.053,0.113,0.117c0,0.063-0.051,0.113-0.115,0.113H222.18z M170.44,598.526
					c-0.002-0.063,0.049-0.115,0.113-0.117l0.693-0.01c0.002,0,0.002,0,0.002,0c0.064,0,0.115,0.051,0.117,0.115
					c0,0.063-0.051,0.115-0.115,0.117l-0.693,0.01c-0.002,0-0.002,0-0.002,0C170.491,598.642,170.44,598.591,170.44,598.526z
					 M219.866,598.624l-0.695-0.008c-0.063,0-0.115-0.053-0.113-0.115c0-0.064,0.051-0.115,0.115-0.115l0,0l0.695,0.006
					c0.064,0,0.115,0.053,0.115,0.117C219.981,598.571,219.93,598.624,219.866,598.624L219.866,598.624z M172.754,598.497
					c-0.002-0.064,0.049-0.117,0.115-0.117l0.693-0.008c0,0,0,0,0.002,0c0.063,0,0.115,0.051,0.115,0.113
					c0,0.064-0.051,0.117-0.115,0.117l-0.693,0.008c-0.002,0-0.002,0-0.002,0C172.807,598.61,172.754,598.56,172.754,598.497z
					 M217.549,598.603l-0.693-0.006c-0.064,0-0.115-0.053-0.115-0.117c0-0.063,0.053-0.115,0.115-0.115l0,0l0.695,0.006
					c0.064,0.002,0.115,0.055,0.115,0.117c0,0.064-0.053,0.115-0.115,0.115H217.549z M175.069,598.472
					c0-0.064,0.051-0.117,0.113-0.117l0.695-0.008h0.002c0.063,0,0.115,0.051,0.115,0.115c0,0.063-0.051,0.115-0.115,0.117
					l-0.693,0.006h-0.002C175.122,598.585,175.071,598.534,175.069,598.472z M215.235,598.583l-0.695-0.004
					c-0.063-0.002-0.115-0.055-0.115-0.117c0-0.064,0.057-0.125,0.117-0.115l0.695,0.006c0.063,0,0.115,0.053,0.113,0.115
					C215.35,598.532,215.299,598.583,215.235,598.583L215.235,598.583z M212.918,598.565l-0.693-0.004
					c-0.064,0-0.115-0.053-0.115-0.117s0.053-0.115,0.115-0.115l0,0l0.695,0.006c0.064,0,0.115,0.053,0.115,0.115
					C213.034,598.515,212.983,598.565,212.918,598.565L212.918,598.565z M177.383,598.448c0-0.064,0.051-0.115,0.115-0.117
					l0.695-0.006c0.066-0.004,0.115,0.051,0.115,0.115c0,0.063-0.051,0.115-0.115,0.117l-0.693,0.006c-0.002,0,0,0,0,0
					C177.436,598.563,177.383,598.513,177.383,598.448z M210.604,598.55l-0.695-0.004c-0.064,0-0.115-0.053-0.115-0.115
					c0-0.064,0.053-0.115,0.117-0.115l0,0l0.693,0.004c0.064,0,0.115,0.053,0.115,0.115
					C210.719,598.499,210.667,598.55,210.604,598.55L210.604,598.55z M179.698,598.429c0-0.063,0.051-0.115,0.115-0.115l0.695-0.006
					c0.064-0.004,0.115,0.051,0.115,0.115c0.002,0.064-0.051,0.115-0.115,0.117l-0.693,0.004h-0.002
					C179.75,598.544,179.698,598.493,179.698,598.429z M208.288,598.536l-0.695-0.004c-0.063,0-0.115-0.053-0.115-0.115
					c0.002-0.064,0.053-0.115,0.117-0.115l0,0l0.695,0.004c0.063,0,0.115,0.053,0.115,0.115c0,0.064-0.053,0.115-0.115,0.115
					H208.288z M182.012,598.413c0-0.063,0.053-0.115,0.115-0.115l0.695-0.004l0,0c0.064,0,0.115,0.051,0.117,0.115
					c0,0.063-0.053,0.115-0.115,0.115l-0.695,0.006l0,0C182.065,598.53,182.014,598.478,182.012,598.413z M205.973,598.524
					l-0.695-0.002c-0.064-0.002-0.115-0.053-0.115-0.117s0.053-0.115,0.117-0.115h-0.002l0.695,0.004
					c0.064,0,0.115,0.051,0.115,0.115S206.038,598.524,205.973,598.524L205.973,598.524z M184.327,598.401
					c0-0.064,0.053-0.115,0.117-0.115l0.693-0.004l0,0c0.064,0,0.117,0.051,0.117,0.115s-0.051,0.115-0.115,0.117l-0.695,0.002l0,0
					C184.379,598.517,184.329,598.466,184.327,598.401z M203.657,598.515l-0.693-0.002c-0.064-0.002-0.115-0.053-0.115-0.117
					c0-0.063,0.051-0.115,0.115-0.115l0,0l0.695,0.002c0.063,0.002,0.115,0.053,0.115,0.117c-0.002,0.064-0.053,0.115-0.115,0.115
					H203.657z M186.643,598.392c0-0.063,0.051-0.115,0.115-0.115l0.693-0.002h0.002c0.063,0,0.115,0.051,0.115,0.115
					c0,0.063-0.053,0.115-0.115,0.115l-0.695,0.002l0,0C186.694,598.507,186.643,598.456,186.643,598.392z M201.342,598.507
					l-0.695-0.002c-0.064,0-0.115-0.053-0.115-0.117c0-0.063,0.051-0.115,0.115-0.115l0,0l0.695,0.002
					c0.064,0.002,0.115,0.053,0.115,0.117S201.405,598.507,201.342,598.507L201.342,598.507z M188.958,598.386
					c0-0.064,0.051-0.115,0.115-0.117h0.695l0,0c0.063,0,0.115,0.051,0.115,0.115s-0.051,0.115-0.115,0.115l-0.695,0.002l0,0
					C189.01,598.501,188.958,598.448,188.958,598.386z M199.028,598.501l-0.695-0.002c-0.064,0-0.117-0.051-0.115-0.115
					c0-0.064,0.051-0.115,0.115-0.115l0,0h0.693c0.064,0.002,0.117,0.053,0.117,0.117c0,0.063-0.053,0.115-0.117,0.115H199.028z
					 M191.272,598.382c0-0.064,0.053-0.115,0.115-0.115l0.695-0.002l0,0c0.064,0,0.115,0.053,0.117,0.115
					c0,0.064-0.053,0.117-0.117,0.117h-0.695l0,0C191.325,598.497,191.272,598.444,191.272,598.382z M196.709,598.497l-0.693-0.002
					c-0.064,0-0.115-0.051-0.115-0.115c0-0.063,0.053-0.115,0.115-0.115l0,0l0.695,0.002c0.064,0,0.115,0.051,0.115,0.115
					C196.827,598.444,196.774,598.497,196.709,598.497L196.709,598.497z M193.704,598.495c-0.064,0-0.117-0.051-0.117-0.115
					s0.053-0.115,0.117-0.115h0.693c0.064,0,0.115,0.051,0.115,0.115s-0.051,0.115-0.115,0.115H193.704z"/>
				
					<linearGradient id="SVGID_49_" gradientUnits="userSpaceOnUse" x1="-4214.1255" y1="598.0596" x2="-4219.6279" y2="641.6563" gradientTransform="matrix(-1 0 0 1 -4035.8838 0)">
					<stop  offset="0" style="stop-color:#201B59"/>
					<stop  offset="1" style="stop-color:#2D2D84"/>
				</linearGradient>
				<path fill="url(#SVGID_49_)" d="M175.739,641.306h12.229c1.604,0,2.953-1.191,3.145-2.775l1.412-11.77
					c0.225-1.873-1.246-3.523-3.143-3.523H174.69c-1.859,0-3.316,1.586-3.152,3.428l1.049,11.77
					C172.731,640.06,174.1,641.306,175.739,641.306z"/>
				<linearGradient id="SVGID_50_" gradientUnits="userSpaceOnUse" x1="209.5566" y1="590.1152" x2="135.8919" y2="700.7791">
					<stop  offset="0" style="stop-color:#5560AB"/>
					<stop  offset="1" style="stop-color:#4C57A6"/>
				</linearGradient>
				<path fill="url(#SVGID_50_)" d="M177.243,639.142h9.309c1.219,0,2.246-0.908,2.393-2.113l1.074-8.957
					c0.17-1.426-0.949-2.682-2.393-2.682h-11.182c-1.414,0-2.523,1.207-2.398,2.609l0.799,8.957
					C174.954,638.192,175.995,639.142,177.243,639.142z"/>
			</g>
			<g>
				
					<linearGradient id="SVGID_51_" gradientUnits="userSpaceOnUse" x1="-4235.2832" y1="431.8809" x2="-4271.6953" y2="788.4144" gradientTransform="matrix(-1 0 0 1 -4035.8838 0)">
					<stop  offset="0" style="stop-color:#F37064"/>
					<stop  offset="1" style="stop-color:#F5928F"/>
				</linearGradient>
				<path fill="url(#SVGID_51_)" d="M181.514,528.179c1.004-26.979,2.811-61.871,5.74-76.523
					c5.092-25.455,23.092-35.082,23.092-35.082c38.363,5.646,0.668,72.418,0.668,72.418l-12.178,42.15
					C194.954,529.38,189.147,527.724,181.514,528.179z"/>
				
					<linearGradient id="SVGID_52_" gradientUnits="userSpaceOnUse" x1="-4210.4067" y1="434.4219" x2="-4246.8193" y2="790.9581" gradientTransform="matrix(-1 0 0 1 -4035.8838 0)">
					<stop  offset="0" style="stop-color:#A22C25"/>
					<stop  offset="1" style="stop-color:#C1423D"/>
				</linearGradient>
				<path fill="url(#SVGID_52_)" d="M181.514,528.179c7.633-0.455,13.439,1.201,17.322,2.963l-9.885,34.219
					c0,0,1.697,18.668,0.172,20.725c-1.525,2.059-13.748,1.336-13.748-2.057c0-3.395,5.092-20.365,5.092-20.365
					S180.772,548.071,181.514,528.179z"/>
			</g>
		</g>
	</g>
</g>
</svg>
