<?xml version="1.0" encoding="utf-8"?>
<!-- Generator: Adobe Illustrator 16.0.0, SVG Export Plug-In . SVG Version: 6.00 Build 0)  -->
<!DOCTYPE svg PUBLIC "-//W3C//DTD SVG 1.1//EN" "http://www.w3.org/Graphics/SVG/1.1/DTD/svg11.dtd">
<svg version="1.1" id="Layer_1" xmlns="http://www.w3.org/2000/svg" xmlns:xlink="http://www.w3.org/1999/xlink" x="0px" y="0px"
	 width="827.497px" height="829.948px" viewBox="0 0 827.497 829.948" enable-background="new 0 0 827.497 829.948"
	 xml:space="preserve">
<g>
	<linearGradient id="SVGID_1_" gradientUnits="userSpaceOnUse" x1="856.2095" y1="931.2505" x2="262.5829" y2="290.5108">
		<stop  offset="0" style="stop-color:#DBE2F3"/>
		<stop  offset="1" style="stop-color:#EAEFF8"/>
	</linearGradient>
	<path fill="url(#SVGID_1_)" d="M773.484,566.118c-81.567,190.657-296.883,272.549-465.585,258.586
		c-46.063-3.812-138.742-11.483-211.106-79.915C-42.179,613.367-20.776,338.662,112.259,176.93
		c17.132-20.828,135.719-160.371,320.514-158.503c135.297,1.368,230.26,77.795,241.808,87.316
		c14.587,12.028,46.761,40.61,75.757,85.955C818.467,298.241,824.457,446.976,773.484,566.118z"/>
	<g>
		<g>
			<path fill="#98B1DC" d="M199.052,431.921c0,0,2.229-93.692-40.926-118.768c-43.153-25.076-125.203-40.754-128.279-175.287
				C28.046,59.105,26.098,24.669,24.792,9.654c-0.51-5.857,4.695-10.585,10.473-9.497c40.87,7.699,173.64,39.39,201.476,130.011
				C269.74,237.599,199.052,431.921,199.052,431.921z"/>
			<path fill="#C0CFEB" d="M66.873,37.588c44.863,40.011,96.739,110.824,124.389,181.636c3.55,11.67,13.931,36.488,18.439,80.583
				c4.027,36.776,2.025,75.637-2.857,101.362c-0.309,1.626-1.877,2.694-3.504,2.386c-2.796-0.53-2.424-3.538-2.398-3.443
				c5.576-43.95,3.261-98.654-9.517-148.013c-16.324-60.607-52.733-119.367-90.393-169.205l-3.876-4.907
				c-29.177-37.47-35.318-37.746-32.592-40.358C65.208,37.012,66.216,37.006,66.873,37.588z"/>
		</g>
		<g>
			<path fill="#C0CFEB" d="M268.401,612.057c5.839,2.862-55.273-73.985-74.417-194.682c-9.02-56.875-9.138-128.135-41.537-155.596
				c-26.964-22.855-118.72-8.426-148.742-2.942c-3.752,0.685-5.015,5.424-2.095,7.876c14.397,12.091,45.197,40.612,53.222,69.355
				c10.577,37.886,46.596,61.984,78.843,68.505c32.246,6.521,50.184,12.851,65.894,64.419
				C215.277,520.563,251.811,603.922,268.401,612.057z"/>
			<linearGradient id="SVGID_2_" gradientUnits="userSpaceOnUse" x1="69.6411" y1="-97.0776" x2="123.6408" y2="396.9217">
				<stop  offset="0" style="stop-color:#DBE2F3"/>
				<stop  offset="1" style="stop-color:#EAEFF8"/>
			</linearGradient>
			<path fill="url(#SVGID_2_)" d="M45.929,274.845c38.304,1.604,79.421,19.077,100.285,51.853l1.971,3.128
				c4.548,7.333,30.326,59.466,44.644,102.682c0.178,0.538-0.114,1.119-0.652,1.299c-0.915,0.303-1.374-0.705-1.286-0.615
				c-9.976-24.414-24.302-55.366-35.712-78.513c-12.237-25.257-20.801-42.362-48.712-58.746
				c-31.065-17.646-60.744-19.462-60.655-19.443c-0.452-0.046-0.783-0.451-0.736-0.904C45.12,275.149,45.498,274.828,45.929,274.845
				z"/>
		</g>
		<g>
			<path fill="#98B1DC" d="M242.204,622.167c3.464,1.827-19.517-37.728-21.28-72.576c-1.763-34.849-9.624-94.327-39.677-129.906
				c-30.051-35.579-62.961-38.825-104.428-6.48c-34.557,26.954-56.112,40.557-68.753,43.085c-3.131,0.627-4.728,4.16-3.205,6.966
				c8.108,14.931,31.031,49.229,69.521,46.813c49.095-3.08,108.595-34.995,126.73-8.371c18.134,26.624,15.806,41.521,16.362,54.14
				C218.034,568.455,219.275,610.078,242.204,622.167z"/>
			<path fill="#C0CFEB" d="M67.156,455.925c17.87-14.42,46.974-28.589,72.409-25.947c33.093,4.487,55.138,23.088,67.163,50.775
				c4.701,11.756,6.635,18.032,9.414,32.443c0.223,1.15-1.795,1.494-2.131,0.371c-2.022-6.77-4.025-13.857-7.021-21.188
				c-17.443-47.293-54.679-53.663-56.127-54.631c-2.814,0.234-19.881-10.519-60.374,7.82c-7.563,3.465-14.922,7.419-21.832,11.78
				l-0.039,0.024c-0.5,0.315-1.209,0.23-1.584-0.191C66.687,456.794,66.748,456.253,67.156,455.925z"/>
		</g>
	</g>
	<g>
		<g>
			
				<linearGradient id="SVGID_3_" gradientUnits="userSpaceOnUse" x1="725.0708" y1="-208.3652" x2="144.5538" y2="718.5887" gradientTransform="matrix(0.9994 0.0355 -0.0355 0.9994 111.1464 60.2213)">
				<stop  offset="0" style="stop-color:#201B59"/>
				<stop  offset="1" style="stop-color:#2D2D84"/>
			</linearGradient>
			<path fill="url(#SVGID_3_)" d="M236.431,89.972l429.422,11.378c23.69,0.627,42.733,19.711,43.312,43.403l15.202,623.422
				c0.452,18.54-14.537,33.771-33.082,33.617l-492.408-4.096c-17.426-0.145-31.344-14.555-30.882-31.975l16.602-626.591
				C185.335,111.243,208.542,89.234,236.431,89.972z"/>
			<path fill="#98B1DC" d="M271.121,788.843c-0.014,0-0.027,0-0.04-0.001l-55.053-2.171c-18.313-0.723-32.815-16.214-32.33-34.534
				l2.202-83.147c0.016-0.543,0.46-0.974,1-0.974c0.009,0,0.018,0,0.026,0.001c0.553,0.014,0.989,0.474,0.974,1.025l-2.202,83.147
				c-0.456,17.231,13.185,31.804,30.408,32.483l55.053,2.171c0.551,0.021,0.98,0.487,0.96,1.038
				C272.097,788.421,271.655,788.843,271.121,788.843z"/>
			<path fill="#98B1DC" d="M187.583,644.261c-0.01,0-0.019,0-0.028-0.001c-0.552-0.015-0.987-0.474-0.973-1.026l0.357-13.465
				c0.014-0.543,0.46-0.974,0.999-0.974c0.01,0,0.019,0,0.027,0.001c0.553,0.014,0.987,0.474,0.974,1.025l-0.357,13.465
				C188.568,643.83,188.122,644.261,187.583,644.261z"/>
			<g>
				<linearGradient id="SVGID_4_" gradientUnits="userSpaceOnUse" x1="661.6226" y1="766.5337" x2="349.6231" y2="304.5339">
					<stop  offset="0" style="stop-color:#5560AB"/>
					<stop  offset="1" style="stop-color:#4C57A6"/>
				</linearGradient>
				<path fill="url(#SVGID_4_)" d="M237.885,84.961c58.431,9.506,259.432,39.444,426.495,31.063
					c7.619-0.382,14.064,5.553,14.268,13.179l16.667,626.238c0.229,8.586-6.514,15.746-15.099,16.025
					c-70.23,2.292-359.436,10.682-462.154-2.836c-6.251-0.822-10.87-6.227-10.74-12.531L220.861,99.15
					C221.045,90.226,229.076,83.528,237.885,84.961z"/>
			</g>
			<g>
				<path fill="#C0CFEB" d="M254.136,117.69c54.486,8.864,241.921,36.782,397.708,28.967c7.105-0.357,13.116,5.178,13.305,12.29
					l15.542,583.969c0.214,8.008-6.073,14.684-14.079,14.944c-65.49,2.138-335.177,9.962-430.961-2.644
					c-5.83-0.768-10.137-5.807-10.016-11.686l12.626-612.609C238.432,122.6,245.92,116.354,254.136,117.69z"/>
			</g>
			
				<linearGradient id="SVGID_5_" gradientUnits="userSpaceOnUse" x1="-42.4136" y1="2875.0083" x2="-239.992" y2="3134.918" gradientTransform="matrix(0.9997 0.0265 -0.0265 0.9997 648.2228 -2924.3689)">
				<stop  offset="0" style="stop-color:#201B59"/>
				<stop  offset="1" style="stop-color:#2D2D84"/>
			</linearGradient>
			<path fill="url(#SVGID_5_)" d="M480.024,11.481C464.799,0.28,451.306,0.136,441.737,2.686
				c-8.729,2.326-14.563,10.539-13.978,19.554l2.91,44.8l48.608,5.615C479.278,72.655,509.884,33.45,480.024,11.481z
				 M457.642,46.969c-6.709-0.178-12.005-5.761-11.827-12.471s5.762-12.005,12.472-11.828c6.709,0.178,12.005,5.762,11.827,12.471
				C469.935,41.852,464.352,47.147,457.642,46.969z"/>
			<g>
				<path fill="#C0CFEB" d="M435.177,49.438c-0.839-0.333-1.458-1.126-1.52-2.089l-0.463-7.136c-0.087-1.33,0.921-2.478,2.251-2.563
					c1.329-0.089,2.48,0.918,2.566,2.253l0.463,7.135c0.087,1.33-0.922,2.478-2.252,2.563
					C435.855,49.625,435.5,49.565,435.177,49.438z M434.27,35.456c-0.84-0.333-1.458-1.125-1.52-2.089l-0.353-5.417
					c-0.596-9.176,5.392-17.545,14.235-19.902c6.055-1.614,12.255-1.706,18.427-0.27c1.277,0.318,2.107,1.599,1.803,2.899
					c-0.301,1.298-1.599,2.107-2.897,1.805c-5.392-1.256-10.805-1.176-16.088,0.231c-6.625,1.765-11.109,8.041-10.662,14.927
					l0.353,5.417c0.086,1.33-0.922,2.477-2.252,2.563C434.948,35.644,434.592,35.584,434.27,35.456z"/>
			</g>
			
				<linearGradient id="SVGID_6_" gradientUnits="userSpaceOnUse" x1="-20.7397" y1="2891.4819" x2="-218.3197" y2="3151.3938" gradientTransform="matrix(0.9997 0.0265 -0.0265 0.9997 648.2228 -2924.3689)">
				<stop  offset="0" style="stop-color:#201B59"/>
				<stop  offset="1" style="stop-color:#2D2D84"/>
			</linearGradient>
			<path fill="url(#SVGID_6_)" d="M363.406,94.16l0.596-22.47c0.204-7.756,6.798-13.798,14.543-13.327l154.777,9.412
				c6.869,0.418,12.294,5.992,12.523,12.87l0.723,21.625L363.406,94.16z"/>
			<path fill="#C0CFEB" d="M415.274,66.632l6.662,0.176L415.274,66.632z"/>
			<path fill="#C0CFEB" d="M371.119,88.395c-0.914-0.362-1.551-1.267-1.522-2.309l0.241-9.09c0.098-3.732,1.644-7.202,4.354-9.772
				c2.709-2.57,6.258-3.932,9.991-3.833l24.492,0.65c1.327,0.039,2.386,1.144,2.35,2.479c-0.035,1.333-1.145,2.384-2.478,2.35
				l-24.494-0.65c-5.043-0.133-9.256,3.861-9.389,8.906l-0.241,9.09c-0.036,1.333-1.146,2.384-2.479,2.35
				C371.654,88.556,371.376,88.497,371.119,88.395z"/>
			
				<linearGradient id="SVGID_7_" gradientUnits="userSpaceOnUse" x1="-45.6377" y1="2907.3794" x2="-182.0637" y2="3157.8853" gradientTransform="matrix(0.9997 0.0265 -0.0265 0.9997 648.2228 -2924.3689)">
				<stop  offset="0" style="stop-color:#201B59"/>
				<stop  offset="1" style="stop-color:#2D2D84"/>
			</linearGradient>
			<path fill="url(#SVGID_7_)" d="M315.082,84.65l270.904,7.171c9.74,0.258,17.883,7.488,19.29,17.13l0.194,1.331
				c1.541,10.561-6.808,19.962-17.478,19.68l-277.931-7.364c-6.385-0.169-11.332-5.643-10.856-12.012l0.928-12.424
				C300.712,90.39,307.292,84.444,315.082,84.65z"/>
		</g>
		<g opacity="0.89">
			<g>
				<path fill="#FFFFFF" d="M327.763,487.495c-0.046,0.001-0.093,0.001-0.138,0.001l-50.471-0.201
					c-7.272-0.03-13.304-5.004-14.029-11.568l-4.674-42.32c-0.277-2.519,0.491-5.012,2.164-7.023
					c1.868-2.249,4.705-3.668,7.783-3.896l0,0c4.256-0.313,10.116-0.847,16.564-1.432c14.04-1.275,29.953-2.722,39.306-2.891
					c0.07,0,0.138-0.003,0.206-0.003c6.691-0.037,12.471,4.01,14.1,9.898c2.688,9.723,2.561,28.132,2.17,47.745
					C340.615,482.237,334.806,487.457,327.763,487.495z M268.704,426.594c-1.972,0.146-3.765,1.026-4.922,2.421
					c-0.952,1.143-1.391,2.543-1.236,3.938l4.674,42.32c0.495,4.484,4.773,7.882,9.952,7.902l50.471,0.203
					c0.032-0.001,0.066-0.001,0.099-0.001c4.826-0.027,8.802-3.443,8.887-7.655c0.385-19.295,0.519-37.376-2.022-46.567
					c-1.126-4.067-5.529-7.07-10.261-6.873c-9.203,0.165-25.729,1.668-39.009,2.872
					C278.861,425.743,272.977,426.277,268.704,426.594L268.704,426.594z"/>
				<path opacity="0.6" fill="#FFFFFF" d="M274.148,430.812c10.598-0.784,33.628-3.253,44.556-3.45
					c4.63-0.083,8.707,2.692,9.816,6.701c2.152,7.786,1.96,23.334,1.674,37.683c-0.085,4.298-4.013,7.75-8.832,7.73l-40.331-0.161
					c-4.96-0.02-9.097-3.379-9.583-7.78l-3.734-33.817C267.326,434.218,270.219,431.103,274.148,430.812z"/>
				<g opacity="0.6">
					<path fill="#FFFFFF" d="M371.675,443.303c-2.199-0.04-3.53,1.665-2.957,3.789l4.709,17.458c0.574,2.125,2.843,3.853,5.043,3.84
						l254.396-1.424c2.2-0.013,3.95-1.822,3.891-4.021l-0.298-10.826c-0.061-2.199-1.909-4.032-4.109-4.072L371.675,443.303z"/>
				</g>
			</g>
			<g>
				<path fill="#FFFFFF" d="M326.673,599.417c-0.046,0.001-0.092,0.001-0.139,0.002l-50.471-0.202
					c-7.272-0.03-13.303-5.003-14.027-11.568l-4.676-42.32c-0.277-2.518,0.492-5.011,2.164-7.023
					c1.868-2.249,4.706-3.667,7.784-3.896l0,0c4.256-0.313,10.117-0.847,16.564-1.432c14.04-1.274,29.953-2.722,39.305-2.89
					c0.071-0.001,0.138-0.004,0.207-0.004c6.69-0.037,12.471,4.01,14.1,9.898c2.688,9.723,2.56,28.133,2.169,47.745
					C339.525,594.161,333.716,599.379,326.673,599.417z M267.614,538.517c-1.971,0.146-3.765,1.027-4.922,2.421
					c-0.952,1.144-1.392,2.543-1.237,3.938l4.676,42.32c0.494,4.485,4.772,7.882,9.951,7.903l50.47,0.202
					c0.033-0.001,0.066-0.001,0.101-0.001c4.825-0.027,8.801-3.443,8.886-7.654c0.385-19.295,0.519-37.377-2.022-46.568
					c-1.127-4.067-5.53-7.07-10.262-6.873c-9.202,0.166-25.729,1.668-39.008,2.873C277.772,537.666,271.886,538.2,267.614,538.517
					L267.614,538.517z"/>
				<path opacity="0.6" fill="#FFFFFF" d="M273.058,542.735c10.598-0.783,33.627-3.253,44.555-3.449
					c4.631-0.084,8.708,2.691,9.817,6.7c2.151,7.787,1.96,23.334,1.674,37.684c-0.085,4.297-4.013,7.75-8.832,7.73l-40.332-0.161
					c-4.959-0.021-9.097-3.379-9.582-7.78l-3.735-33.818C266.236,546.142,269.13,543.026,273.058,542.735z"/>
				<g opacity="0.6">
					<path fill="#FFFFFF" d="M370.585,555.226c-2.199-0.039-3.53,1.666-2.957,3.789l4.71,17.459c0.572,2.124,2.841,3.852,5.041,3.84
						l254.397-1.425c2.2-0.013,3.95-1.821,3.89-4.021l-0.297-10.827c-0.061-2.199-1.909-4.031-4.109-4.071L370.585,555.226z"/>
				</g>
			</g>
			<g>
				<path fill="#FFFFFF" d="M325.583,711.341c-0.047,0-0.093,0-0.139,0.001l-50.47-0.202c-7.273-0.029-13.305-5.003-14.028-11.568
					l-4.675-42.32c-0.278-2.518,0.491-5.011,2.163-7.023c1.869-2.248,4.706-3.667,7.784-3.896l0,0
					c4.256-0.313,10.116-0.847,16.564-1.433c14.041-1.274,29.953-2.721,39.306-2.89c0.07-0.001,0.138-0.003,0.206-0.003
					c6.69-0.037,12.471,4.01,14.1,9.898c2.688,9.723,2.561,28.132,2.169,47.744C338.435,706.083,332.626,711.302,325.583,711.341z
					 M266.524,650.441c-1.972,0.146-3.766,1.026-4.922,2.42c-0.952,1.144-1.392,2.543-1.237,3.938l4.676,42.32
					c0.493,4.486,4.772,7.883,9.952,7.904l50.469,0.201c0.032,0,0.066,0,0.101,0c4.824-0.027,8.801-3.443,8.886-7.655
					c0.386-19.295,0.519-37.376-2.022-46.567c-1.127-4.068-5.53-7.07-10.261-6.874c-9.203,0.167-25.729,1.669-39.009,2.872
					C276.682,649.589,270.797,650.123,266.524,650.441L266.524,650.441z"/>
				<path opacity="0.6" fill="#FFFFFF" d="M271.968,654.658c10.598-0.783,33.627-3.252,44.556-3.449
					c4.63-0.084,8.707,2.691,9.816,6.701c2.152,7.786,1.96,23.334,1.674,37.683c-0.086,4.298-4.013,7.75-8.832,7.73l-40.331-0.161
					c-4.96-0.02-9.098-3.379-9.584-7.78l-3.734-33.817C265.146,658.065,268.04,654.949,271.968,654.658z"/>
				<g opacity="0.6">
					<path fill="#FFFFFF" d="M369.497,667.15c-2.2-0.04-3.53,1.665-2.957,3.789l4.709,17.458c0.572,2.124,2.842,3.853,5.041,3.84
						l254.397-1.425c2.2-0.012,3.95-1.821,3.89-4.021l-0.297-10.827c-0.061-2.199-1.909-4.031-4.109-4.07L369.497,667.15z"/>
				</g>
			</g>
			<g display="none">
				<path fill="#FFFFFF" d="M294.374,291.422h-18.83v-84.981h-19.458v-16.607h57.743v16.607h-19.455V291.422z"/>
				<path fill="#FFFFFF" d="M367.888,291.422l-5.837-25.64h-26.474l-5.837,25.64h-18.899l25.153-102.005h25.64l25.224,102.005
					H367.888z M358.507,249.035l-5.419-23.625c-0.325-1.436-1.055-5.038-2.188-10.805c-1.137-5.768-1.819-9.624-2.051-11.569
					c-0.603,3.984-1.367,8.373-2.293,13.167c-0.927,4.795-3.335,15.738-7.227,32.832H358.507z"/>
				<path fill="#FFFFFF" d="M454.19,291.422h-19.664l-14.523-36.411l-13.479,36.411h-19.665l23.209-52.809l-21.472-48.779h19.039
					l13.411,33.423l11.604-33.423h19.803l-21.471,49.612L454.19,291.422z"/>
			</g>
			<linearGradient id="SVGID_8_" gradientUnits="userSpaceOnUse" x1="564.8989" y1="169.3457" x2="212.7743" y2="533.6122">
				<stop  offset="0" style="stop-color:#F5928F"/>
				<stop  offset="1" style="stop-color:#F37064"/>
			</linearGradient>
			<path fill="url(#SVGID_8_)" d="M279.169,434.295L279.169,434.295c3.47-2.036,7.934-0.821,9.893,2.691l9.216,16.52
				c0.923,1.654,3.335,1.55,4.111-0.178l22.857-50.889c1.141-2.538,4.921-1.68,4.879,1.103c-0.232,15.565-4.362,45.153-29.234,69.92
				c0,0-13.706-5.327-24.743-29.564C274.553,440.397,275.852,436.243,279.169,434.295z"/>
			<linearGradient id="SVGID_9_" gradientUnits="userSpaceOnUse" x1="625.2358" y1="227.6626" x2="273.1066" y2="591.9338">
				<stop  offset="0" style="stop-color:#F5928F"/>
				<stop  offset="1" style="stop-color:#F37064"/>
			</linearGradient>
			<path fill="url(#SVGID_9_)" d="M284.229,549.794L284.229,549.794c3.469-2.036,7.933-0.821,9.893,2.691l9.216,16.52
				c0.922,1.654,3.335,1.549,4.111-0.178l22.857-50.889c1.141-2.539,4.921-1.681,4.879,1.102
				c-0.233,15.566-4.363,45.154-29.234,69.921c0,0-13.706-5.327-24.744-29.565C279.612,555.895,280.912,551.741,284.229,549.794z"/>
		</g>
		<g opacity="0.6">
			<path fill="#FFFFFF" d="M475.289,198.564c-2.199-0.05-3.601,1.664-3.113,3.81l2.402,10.581c0.487,2.146,2.686,3.891,4.886,3.879
				l152.571-0.854c2.2-0.012,3.957-1.822,3.904-4.021l-0.138-5.74c-0.052-2.2-1.896-4.04-4.094-4.09L475.289,198.564z"/>
		</g>
		<g opacity="0.6">
			<path fill="#FFFFFF" d="M475.358,236.545c-2.199-0.05-3.601,1.665-3.113,3.81l2.402,10.582c0.487,2.145,2.686,3.891,4.886,3.878
				l152.571-0.854c2.2-0.012,3.957-1.821,3.904-4.021l-0.138-5.741c-0.053-2.199-1.895-4.04-4.095-4.09L475.358,236.545z"/>
		</g>
		<g opacity="0.6">
			<path fill="#FFFFFF" d="M475.267,272.976c-2.199-0.05-3.6,1.664-3.113,3.81l2.402,10.582c0.487,2.145,2.686,3.891,4.886,3.878
				l152.571-0.854c2.2-0.012,3.957-1.822,3.904-4.021l-0.137-5.74c-0.053-2.2-1.896-4.04-4.095-4.09L475.267,272.976z"/>
		</g>
		<g opacity="0.6">
			<path fill="#FFFFFF" d="M258.776,329.761c-2.199-0.05-3.573,1.658-3.053,3.795l3.124,12.841c0.52,2.138,2.745,3.881,4.945,3.874
				l187.165-0.611c2.199-0.007,3.958-1.813,3.907-4.012l-0.172-7.402c-0.051-2.199-1.892-4.04-4.091-4.091L258.776,329.761z"/>
		</g>
	</g>
	<g>
		<g>
			<g>
				
					<linearGradient id="SVGID_10_" gradientUnits="userSpaceOnUse" x1="82.8774" y1="827.4741" x2="134.0322" y2="827.4741" gradientTransform="matrix(-1 0 0 1 783.9541 0)">
					<stop  offset="0" style="stop-color:#66CDF3"/>
					<stop  offset="1" style="stop-color:#4B5AA8"/>
				</linearGradient>
				<path fill="url(#SVGID_10_)" d="M651.367,825c8.764,0.757,23.972,1.987,35.962,2.516c7.208,0.316,11.357-0.389,13.748-1.346
					c-0.005,0.27-0.013,0.523-0.023,0.76c-0.057,1.262-1.082,2.271-2.356,2.343c-22.655,1.265-40.674,0.438-47.089,0.048
					c-1.326-0.082-2.116-1.523-1.438-2.653C650.509,826.101,650.92,825.546,651.367,825z"/>
				
					<linearGradient id="SVGID_11_" gradientUnits="userSpaceOnUse" x1="82.8745" y1="817.4478" x2="132.5874" y2="817.4478" gradientTransform="matrix(-1 0 0 1 783.9541 0)">
					<stop  offset="0" style="stop-color:#201B59"/>
					<stop  offset="1" style="stop-color:#2D2D84"/>
				</linearGradient>
				<path fill="url(#SVGID_11_)" d="M687.329,827.515c-11.99-0.528-27.198-1.759-35.962-2.516
					c8.615-10.571,35.962-17.695,35.962-17.695h7.724c5.313,7.657,6.082,14.947,6.024,18.865
					C698.686,827.126,694.537,827.832,687.329,827.515z"/>
				
					<linearGradient id="SVGID_12_" gradientUnits="userSpaceOnUse" x1="87.6011" y1="803.4507" x2="102.0103" y2="803.4507" gradientTransform="matrix(-1 0 0 1 783.9541 0)">
					<stop  offset="0" style="stop-color:#F9BABA"/>
					<stop  offset="1" style="stop-color:#F5928F"/>
				</linearGradient>
				<path fill="url(#SVGID_12_)" d="M696.353,794.695l-0.723,14.303c-0.078,1.549-1.237,2.85-2.789,3.072
					c-1.543,0.221-3.61,0.248-5.802-0.48c-1.349-0.449-2.35-1.586-2.598-2.971l-2.498-13.924H696.353z"/>
			</g>
			<g>
				<g>
					
						<linearGradient id="SVGID_13_" gradientUnits="userSpaceOnUse" x1="-19.1011" y1="826.3706" x2="0.5015" y2="826.3706" gradientTransform="matrix(-1 0 0 1 783.9541 0)">
						<stop  offset="0" style="stop-color:#66CDF3"/>
						<stop  offset="1" style="stop-color:#4B5AA8"/>
					</linearGradient>
					<path fill="url(#SVGID_13_)" d="M796.672,827.408c3.8-0.53,5.52-2.505,6.24-4.615c0.005,0.02,0.01,0.038,0.015,0.057
						c0.559,2.227-0.737,4.533-3.328,5.631c-3.133,1.326-6.558,1.553-9.216,1.443c-2.853-0.117-5.471-1.298-6.909-3.188
						l-0.021-0.028C786.315,828.125,790.334,828.292,796.672,827.408z"/>
					
						<linearGradient id="SVGID_14_" gradientUnits="userSpaceOnUse" x1="-18.9585" y1="811.2769" x2="9.8149" y2="811.2769" gradientTransform="matrix(-1 0 0 1 783.9541 0)">
						<stop  offset="0" style="stop-color:#201B59"/>
						<stop  offset="1" style="stop-color:#2D2D84"/>
					</linearGradient>
					<path fill="url(#SVGID_14_)" d="M778.754,794.603h6.369c9.702-0.198,15.795,20.266,17.789,28.189
						c-0.721,2.11-2.44,4.085-6.24,4.615c-6.338,0.884-10.357,0.717-13.22-0.7c-5.241-6.897-7.841-16.999-9.09-22.896
						C772.942,797.107,778.754,794.603,778.754,794.603z"/>
				</g>
				
					<linearGradient id="SVGID_15_" gradientUnits="userSpaceOnUse" x1="-4.0029" y1="791.439" x2="13.2173" y2="791.439" gradientTransform="matrix(-1 0 0 1 783.9541 0)">
					<stop  offset="0" style="stop-color:#F9BABA"/>
					<stop  offset="1" style="stop-color:#F5928F"/>
				</linearGradient>
				<path fill="url(#SVGID_15_)" d="M784.305,781.328l3.537,14.067c0.434,1.725-0.393,3.509-1.986,4.327
					c-1.979,1.016-4.765,2.082-7.325,1.773c-1.203-0.145-2.204-0.993-2.602-2.127l-5.192-14.801L784.305,781.328z"/>
			</g>
			<linearGradient id="SVGID_16_" gradientUnits="userSpaceOnUse" x1="821.3442" y1="509.1733" x2="712.3447" y2="709.1724">
				<stop  offset="0" style="stop-color:#5560AB"/>
				<stop  offset="0.104" style="stop-color:#525CA9"/>
				<stop  offset="0.3411" style="stop-color:#4E58A7"/>
				<stop  offset="1" style="stop-color:#4C57A6"/>
			</linearGradient>
			<path fill="url(#SVGID_16_)" d="M788.524,785.394c-4.4,3.903-18.714,4.418-18.714,4.418
				c-51.558-123.744-72.648-141.323-72.648-141.323c7.445,46.706,1.2,150.109,1.2,150.109c-8.508,3.755-19.477,0-19.477,0
				c-0.69-76.465-12.444-143.149-26.328-195.723c34.847-0.783,53.378-12.708,59.429-17.493
				C741.034,632.212,788.524,785.394,788.524,785.394z"/>
			
				<linearGradient id="SVGID_17_" gradientUnits="userSpaceOnUse" x1="1200.9312" y1="-2081.1836" x2="1116.9316" y2="-1881.1847" gradientTransform="matrix(-1 0 0 1 783.9541 0)">
				<stop  offset="0" style="stop-color:#F5928F"/>
				<stop  offset="1" style="stop-color:#F37064"/>
			</linearGradient>
			<path fill="url(#SVGID_17_)" d="M703.136,443.076c6.596,32.9,4.231,91.785,2.68,118.644c-0.437,7.55,4.833,18.015,9.093,25.154
				c0.669,1.12,0.256,2.554-0.904,3.149c-7.132,3.666-31.291,15.025-59.292,16.438c-1.867,0.094-3.534-1.178-4.018-2.983
				c-20.771-77.554-44.896-127.11-44.896-127.11C632.434,433.834,703.136,443.076,703.136,443.076z"/>
			<linearGradient id="SVGID_18_" gradientUnits="userSpaceOnUse" x1="675.937" y1="649.9341" x2="784.9423" y2="446.9243">
				<stop  offset="0" style="stop-color:#5560AB"/>
				<stop  offset="1" style="stop-color:#4C57A6"/>
			</linearGradient>
			<path fill="url(#SVGID_18_)" d="M693.644,645.56c0.293,0,0.589-0.08,0.858-0.242c0.777-0.477,1.024-1.49,0.551-2.268
				c-0.277-0.457-6.946-11.236-20.442-17.747c-0.819-0.394-1.808-0.054-2.205,0.769c-0.396,0.821-0.052,1.81,0.77,2.205
				c12.582,6.07,18.994,16.388,19.058,16.49C692.544,645.277,693.087,645.56,693.644,645.56z"/>
			<g>
				
					<linearGradient id="SVGID_19_" gradientUnits="userSpaceOnUse" x1="74.8911" y1="540.4321" x2="13.5905" y2="594.7152" gradientTransform="matrix(-1 0 0 1 783.9541 0)">
					<stop  offset="0" style="stop-color:#F9BABA"/>
					<stop  offset="1" style="stop-color:#F5928F"/>
				</linearGradient>
				<path fill="url(#SVGID_19_)" d="M744.508,537.498c-2.119,15.327-8.379,32.044-20.9,49.801l-4.76-3.88
					c0,0,5.495-22.295,2.371-47.597C728.943,534.315,738.066,535.869,744.508,537.498z"/>
				
					<linearGradient id="SVGID_20_" gradientUnits="userSpaceOnUse" x1="1153.8442" y1="-2100.9873" x2="1069.844" y2="-1900.9865" gradientTransform="matrix(-1 0 0 1 783.9541 0)">
					<stop  offset="0" style="stop-color:#F5928F"/>
					<stop  offset="1" style="stop-color:#F37064"/>
				</linearGradient>
				<path fill="url(#SVGID_20_)" d="M695.769,483.669l7.367-40.594c0,0,49.223,37.625,41.372,94.422
					c-6.442-1.629-15.565-3.183-23.289-1.676C718.968,517.595,712.248,497.809,695.769,483.669z"/>
			</g>
			<g>
				
					<linearGradient id="SVGID_21_" gradientUnits="userSpaceOnUse" x1="1655.7241" y1="-2811.7852" x2="1571.7202" y2="-2611.7759" gradientTransform="matrix(-0.9695 0.2449 0.2449 0.9695 788.0544 25.3609)">
					<stop  offset="0" style="stop-color:#F5928F"/>
					<stop  offset="1" style="stop-color:#F37064"/>
				</linearGradient>
				<path fill="url(#SVGID_21_)" d="M605.029,476.693l28.442,35.02c3.072,24.704-7.179,38.311-20.048,45.787
					c-3.623-10.697-8.611-18.818-12.713-24.272C613.813,510.448,605.029,476.693,605.029,476.693z"/>
				
					<linearGradient id="SVGID_22_" gradientUnits="userSpaceOnUse" x1="299.6533" y1="462.7554" x2="350.4365" y2="462.7554" gradientTransform="matrix(-0.9695 0.2449 0.2449 0.9695 788.0544 25.3609)">
					<stop  offset="0" style="stop-color:#F9BABA"/>
					<stop  offset="1" style="stop-color:#F5928F"/>
				</linearGradient>
				<path fill="url(#SVGID_22_)" d="M600.71,533.227c4.102,5.454,9.09,13.575,12.713,24.272
					c-33.387,23.711-50.087,9.061-50.087,9.061v-4.684c0-4.151,2.755-7.847,6.771-8.9
					C583.538,549.451,595.932,541.534,600.71,533.227z"/>
			</g>
			
				<linearGradient id="SVGID_23_" gradientUnits="userSpaceOnUse" x1="142.8799" y1="416.5532" x2="142.3526" y2="506.7071" gradientTransform="matrix(-1 0 0 1 783.9541 0)">
				<stop  offset="0" style="stop-color:#F9BABA"/>
				<stop  offset="1" style="stop-color:#F5928F"/>
			</linearGradient>
			<path fill="url(#SVGID_23_)" d="M623.305,425.85l9.172,33.719c1.03,3.788,5.128,5.822,8.773,4.365
				c3.934-1.572,8.924-3.719,13.22-6.038c4.587-2.477,6.021-8.375,3.118-12.704l-19.07-28.435L623.305,425.85z"/>
		</g>
		<g>
			
				<linearGradient id="SVGID_24_" gradientUnits="userSpaceOnUse" x1="-180.897" y1="2102.064" x2="-225.2752" y2="2160.7727" gradientTransform="matrix(-0.9897 -0.1428 -0.1428 0.9897 732.9608 -1704.5156)">
				<stop  offset="0" style="stop-color:#F9BABA"/>
				<stop  offset="1" style="stop-color:#F5928F"/>
			</linearGradient>
			<path fill="url(#SVGID_24_)" d="M603.238,400.231c-0.084,0.579,7.65,38.479,7.65,38.479l21.546-4.876l-1.993-37.011
				C630.441,396.824,604.636,390.538,603.238,400.231z"/>
			<path fill="#2A3385" d="M625.595,405.072l2.574,19.4c0.033,0.248,0.033,0.494-0.002,0.742c-0.217,1.521-1.349,6.698-6.575,5.218
				c-4.742-1.343-9.09-2.498-12.094-1.58c-1.349,0.413-2.162,1.778-1.88,3.16c0.704,3.443,2.433,11.173,4.96,17.659
				c0.513,1.316,1.954,2.008,3.31,1.612c4.087-1.19,12.635-3.944,18.993-7.771c0.861-0.519,1.375-1.456,1.332-2.461
				c-0.206-4.897-0.779-19.785-0.297-23.959c0.453-3.917,5.26-6.264,7.349-7.105c0.685-0.275,1.222-0.815,1.495-1.501
				c0.967-2.424,2.301-8.032-4.768-10.331c-1.479-0.48-2.259-2.076-1.733-3.54c1.047-2.915,1.488-7.363-3.979-9.813
				c-5.558-2.491-9.709,0.472-11.95,2.88c-0.906,0.974-2.36,1.122-3.484,0.411c-0.641-0.404-1.465-0.537-2.461,0.084
				c-1.343,0.836-3.121,0.266-3.813-1.156c-1.331-2.732-4.044-5.658-9.485-4.727c-9.655,1.654-10.748,12.353-8.201,18.623
				c2.547,6.27,12.913,3.882,18.113,0.721c3.954-2.403,9.083,0.116,11.313,1.461C625.018,403.527,625.486,404.253,625.595,405.072z"
				/>
			
				<linearGradient id="SVGID_25_" gradientUnits="userSpaceOnUse" x1="-245.8931" y1="2148.5562" x2="-210.299" y2="2112.0376" gradientTransform="matrix(-0.9897 -0.1428 -0.1428 0.9897 732.9608 -1704.5156)">
				<stop  offset="0" style="stop-color:#F9BABA"/>
				<stop  offset="1" style="stop-color:#F5928F"/>
			</linearGradient>
			<path fill="url(#SVGID_25_)" d="M636.784,424.167c0,0-3.97-11.115,0.108-13.837s10.118-1.309,8.788,6.743
				C644.026,427.088,636.784,424.167,636.784,424.167z"/>
		</g>
		<g>
			<g>
				<path fill="#2A3385" d="M796.454,492.401L434.099,611.318l17.294,53.394l364.442-116.019
					c7.741-2.464,12.579-10.123,11.515-18.176c-1.095-8.272-4.818-19.638-14.958-33.129
					C808.707,492.483,802.285,490.488,796.454,492.401z"/>
				<g>
					<path fill="#2A3385" d="M337.844,668.577l42.978-25.565c4.14,5.434,7.781,13.791,8.001,26.443l-49.515,3.754
						C336.679,673.408,335.578,669.925,337.844,668.577z"/>
					
						<linearGradient id="SVGID_26_" gradientUnits="userSpaceOnUse" x1="648.0474" y1="156.0483" x2="393.8705" y2="417.2662" gradientTransform="matrix(-0.7907 0.6122 0.6122 0.7907 755.8904 110.0386)">
						<stop  offset="0" style="stop-color:#F9BABA"/>
						<stop  offset="1" style="stop-color:#F5928F"/>
					</linearGradient>
					<path fill="url(#SVGID_26_)" d="M434.099,611.318c22.057,24.776,17.294,53.394,17.294,53.394l-62.57,4.743
						c-0.22-12.652-3.861-21.01-8.001-26.443L434.099,611.318z"/>
				</g>
			</g>
			<path fill="#98B1DC" d="M802.842,507.934c0.345-0.267,0.501-0.729,0.355-1.166c-0.182-0.554-0.78-0.854-1.333-0.671
				L455.66,620.479c-0.555,0.185-0.854,0.78-0.671,1.333c0.183,0.555,0.78,0.854,1.334,0.672l346.204-114.383
				C802.644,508.062,802.75,508.005,802.842,507.934z"/>
			<path fill="#98B1DC" d="M810.835,527.947c0.345-0.267,0.501-0.73,0.356-1.167c-0.183-0.554-0.78-0.854-1.334-0.671
				L463.653,640.49c-0.555,0.186-0.854,0.779-0.671,1.334c0.183,0.555,0.78,0.854,1.333,0.672L810.52,528.114
				C810.637,528.075,810.744,528.018,810.835,527.947z"/>
		</g>
		
			<linearGradient id="SVGID_27_" gradientUnits="userSpaceOnUse" x1="99.0981" y1="567.77" x2="37.7983" y2="622.0524" gradientTransform="matrix(-1 0 0 1 783.9541 0)">
			<stop  offset="0" style="stop-color:#F9BABA"/>
			<stop  offset="1" style="stop-color:#F5928F"/>
		</linearGradient>
		<path fill="url(#SVGID_27_)" d="M720.811,582.743l-22.22-1.811l-9.623,8.87c0,0,2.276,3.146,9.394,1.338
			c7.118-1.809,16.867-2.252,16.867-2.252s9.825,4.429,9.945-3.859L720.811,582.743z"/>
		
			<linearGradient id="SVGID_28_" gradientUnits="userSpaceOnUse" x1="203.5454" y1="567.6226" x2="220.8335" y2="567.6226" gradientTransform="matrix(-1 0 0 1 783.9541 0)">
			<stop  offset="0" style="stop-color:#F9BABA"/>
			<stop  offset="1" style="stop-color:#F5928F"/>
		</linearGradient>
		<path fill="url(#SVGID_28_)" d="M578.11,575.836c-1.922,1.501-8.505-1.633-12.533-3.8c-1.964-1.056-2.915-3.352-2.24-5.477
			c0.969-3.058,2.585-7.004,4.575-7.502C571.213,558.233,586.029,569.65,578.11,575.836z"/>
	</g>
	<g>
		
			<linearGradient id="SVGID_29_" gradientUnits="userSpaceOnUse" x1="-4229.3672" y1="353.8403" x2="-4200.5371" y2="426.1605" gradientTransform="matrix(-1 0 0 1 -4089.5381 0)">
			<stop  offset="0" style="stop-color:#201B59"/>
			<stop  offset="1" style="stop-color:#2D2D84"/>
		</linearGradient>
		<path fill="url(#SVGID_29_)" d="M122.735,392.743c0,0-9.72,4.728-11.508,10.158c-1.434,4.358-12.181,4.919-13.242,13.489
			c-0.548,4.425-3.822,7.968-8.229,8.644c-10.977,1.682-27.892,7.382-30.599,26.439c-2.065,14.546,5.35,20.062,13.132,21.971
			c5.717,1.402,9.515,6.962,8.358,12.732c-1.109,5.535,0.544,11.934,10.134,16.993c21.488,11.339,42.947-26.862,42.947-26.862
			l4.397-66.699L122.735,392.743z"/>
		
			<linearGradient id="SVGID_30_" gradientUnits="userSpaceOnUse" x1="-4401.2046" y1="-65.8037" x2="-4347.9434" y2="55.3771" gradientTransform="matrix(-0.9776 -0.2106 -0.2106 0.9776 -4108.8564 -453.6069)">
			<stop  offset="0" style="stop-color:#F9BABA"/>
			<stop  offset="1" style="stop-color:#F5928F"/>
		</linearGradient>
		<path fill="url(#SVGID_30_)" d="M239.657,376.931c0,0-42.903,67.862-93.921,80.969c0,0,9.94,28.313,17.613,31.555
			c0,0,62.767-52.371,78.896-102.881L239.657,376.931z"/>
		
			<linearGradient id="SVGID_31_" gradientUnits="userSpaceOnUse" x1="-4123.9771" y1="816.8374" x2="-4099.5303" y2="816.8374" gradientTransform="matrix(-1 0 0 1 -4089.5381 0)">
			<stop  offset="0" style="stop-color:#5560AB"/>
			<stop  offset="1" style="stop-color:#4C57A6"/>
		</linearGradient>
		<path fill="url(#SVGID_31_)" d="M34.41,810.974l-1.391,11.432c-0.264,2.168-1.971,3.883-4.142,4.131
			c-3.664,0.419-9.545,0.848-15.299,0.24c-2.525-0.268-4.165-2.824-3.396-5.245c1.402-4.413,3.969-11.037,7.668-14.935h12.681
			C32.876,806.597,34.693,808.647,34.41,810.974z"/>
		
			<linearGradient id="SVGID_32_" gradientUnits="userSpaceOnUse" x1="-4227.2769" y1="913.2427" x2="-4192.0962" y2="502.0684" gradientTransform="matrix(-1 0 0 1 -4089.5381 0)">
			<stop  offset="0" style="stop-color:#F9BABA"/>
			<stop  offset="1" style="stop-color:#F5928F"/>
		</linearGradient>
		<path fill="url(#SVGID_32_)" d="M133.729,677.066l2.14,12.591c0,0-7.167,72.601-8.442,101.64
			c-0.199,4.553,0.979,9.053,3.368,12.934l12.463,20.238l-31.675-18.691l-0.629-3.865l5.185-7.129l-6.792-81.33
			c-0.399-4.777,0.587-9.569,2.84-13.801l6.551-12.309L133.729,677.066z"/>
		
			<linearGradient id="SVGID_33_" gradientUnits="userSpaceOnUse" x1="-4237.5542" y1="812.3745" x2="-4197.9971" y2="812.3745" gradientTransform="matrix(-1 0 0 1 -4089.5381 0)">
			<stop  offset="0" style="stop-color:#5560AB"/>
			<stop  offset="1" style="stop-color:#4C57A6"/>
		</linearGradient>
		<path fill="url(#SVGID_33_)" d="M145.343,827.4h-10.107c-1.893,0-3.677-0.869-4.831-2.368c-3.15-4.095-9.68-12.083-12.801-12.291
			c-4.203-0.28-3.665,14.659-3.665,14.659h-2.356l-2.983-18.564c-0.751-4.672,1.572-9.299,5.767-11.486c0,0,0.962,7.104,6.17,10.246
			c5.209,3.143,21.196,14.396,21.196,14.396s1.959-0.279,4.108,0.109C149.03,822.677,148.584,827.4,145.343,827.4z"/>
		
			<linearGradient id="SVGID_34_" gradientUnits="userSpaceOnUse" x1="-4156.5083" y1="919.3599" x2="-4121.3184" y2="508.0799" gradientTransform="matrix(-1 0 0 1 -4089.5381 0)">
			<stop  offset="0" style="stop-color:#F9BABA"/>
			<stop  offset="1" style="stop-color:#F5928F"/>
		</linearGradient>
		<path fill="url(#SVGID_34_)" d="M90.345,683.046c0,0-41.989,79.648-48.663,97.834c-6.676,18.186-9.013,33.355-9.103,34.792
			c-0.14,2.245-2.932,4.397-10.628,4.397c-3.972,0-5.918-1.592-6.87-3.133c-0.813-1.314-0.854-2.959-0.169-4.346
			c2.429-4.916,10.137-20.624,12.991-27.748c3.408-8.508,10.739-47.059,14.761-60.461c4.021-13.404,8.565-27.943,26.075-41.336
			C68.74,683.046,80.759,671.273,90.345,683.046z"/>
		<linearGradient id="SVGID_35_" gradientUnits="userSpaceOnUse" x1="217.7866" y1="393.918" x2="111.7875" y2="539.9166">
			<stop  offset="0" style="stop-color:#F5928F"/>
			<stop  offset="1" style="stop-color:#F37064"/>
		</linearGradient>
		<path fill="url(#SVGID_35_)" d="M116.872,552.537c10.83-45.896-16.608-71.854-16.608-71.854
			c17.313-16.618,48.858-24.181,48.858-24.181s30.101,22.006,26.529,39.23c-2.093,10.096-21.158,60.471-21.158,60.471
			S136.864,564.545,116.872,552.537z"/>
		<linearGradient id="SVGID_36_" gradientUnits="userSpaceOnUse" x1="-167.1699" y1="863.813" x2="240.8695" y2="524.7801">
			<stop  offset="0" style="stop-color:#5560AB"/>
			<stop  offset="1" style="stop-color:#4C57A6"/>
		</linearGradient>
		<path fill="url(#SVGID_36_)" d="M92.856,575.259c4.408-13.279,24.016-22.723,24.016-22.723
			c19.992,12.009,37.621,3.666,37.621,3.666s3.954,15.111,1.226,29.155c-2.729,14.044-19.85,104.299-19.85,104.299
			c-26.975,5.466-68.462-5.499-68.462-5.499C84.588,653.652,88.449,588.539,92.856,575.259z"/>
		
			<linearGradient id="SVGID_37_" gradientUnits="userSpaceOnUse" x1="-4231.1357" y1="507.9487" x2="-4224.5273" y2="459.6022" gradientTransform="matrix(-1 0 0 1 -4089.5381 0)">
			<stop  offset="0" style="stop-color:#F9BABA"/>
			<stop  offset="1" style="stop-color:#F5928F"/>
		</linearGradient>
		<path fill="url(#SVGID_37_)" d="M129.443,426.171l-8.806,39.555c-0.844,3.484,2.333,2.914,5.856,2.25
			c5.768-1.088,13.203-3.327,15.688-7.816c0.254-0.457,0.379-0.973,0.451-1.49l3.783-27.428c0.301-2.177-0.876-4.289-2.885-5.179
			l-7.3-3.237C133.42,421.58,130.166,423.183,129.443,426.171z"/>
		
			<linearGradient id="SVGID_38_" gradientUnits="userSpaceOnUse" x1="-4203.8979" y1="531.5073" x2="-4159.998" y2="531.5073" gradientTransform="matrix(-1 0 0 1 -4089.5381 0)">
			<stop  offset="0" style="stop-color:#F9BABA"/>
			<stop  offset="1" style="stop-color:#F5928F"/>
		</linearGradient>
		<path fill="url(#SVGID_38_)" d="M100.263,480.682c0,0-61.462,43.974-7.86,90.179c0,0,2.044,2.313,6.063,3.515
			c2.031,0.606,8.035,5.149,11.08,7.519c0.979,0.762,2.393,0.502,3.051-0.549c0.516-0.823,0.576-1.854,0.161-2.731l-7.609-16.09
			c-2.112-1.972-5.348-2.112-7.623-0.33c-1.452,1.137-3.578,0.661-4.392-0.994c-4.142-8.439-11.967-33.26,20.058-61.306
			c1.203-1.055,1.509-2.799,0.769-4.218C111.71,491.354,106.565,482.771,100.263,480.682z"/>
		<g>
			
				<linearGradient id="SVGID_39_" gradientUnits="userSpaceOnUse" x1="-4351.0532" y1="15.3579" x2="-4293.3911" y2="-87.261" gradientTransform="matrix(-0.9809 -0.1943 -0.1943 0.9809 -4111.5986 -410.7511)">
				<stop  offset="0" style="stop-color:#F9BABA"/>
				<stop  offset="1" style="stop-color:#F5928F"/>
			</linearGradient>
			<path fill="url(#SVGID_39_)" d="M146.31,390.113c0,0,9.375,6.347,13.403,22.508s-2.518,21.958-9.229,21.603
				c-6.71-0.354-16.44-2.431-24.871-14.024C117.183,408.605,134.024,382.358,146.31,390.113z"/>
			<path fill="#2A3385" d="M134.115,413.68c0,0-3.435-23.157,15.792-19.615l3.887,4.047c0,0,9.412-10.598-1.003-18.61
				c-10.414-8.011-24.866-5.96-32.862,8.625c-7.995,14.585-10.897,24.834-4.196,33.897c6.703,9.063,11.743,1.289,11.743,1.289
				s-3.073-7.844-0.522-11.209c2.55-3.366,5.84,1.958,5.84,1.958L134.115,413.68z"/>
			
				<linearGradient id="SVGID_40_" gradientUnits="userSpaceOnUse" x1="-4338.7798" y1="22.2554" x2="-4281.1182" y2="-80.3632" gradientTransform="matrix(-0.9809 -0.1943 -0.1943 0.9809 -4111.5986 -410.7511)">
				<stop  offset="0" style="stop-color:#F9BABA"/>
				<stop  offset="1" style="stop-color:#F5928F"/>
			</linearGradient>
			<path fill="url(#SVGID_40_)" d="M131.488,415.664c0,0-1.696-11.915-7.781-8.509c-6.084,3.406,2.193,11.13,5.512,13.758
				L131.488,415.664z"/>
		</g>
		<g>
			
				<linearGradient id="SVGID_41_" gradientUnits="userSpaceOnUse" x1="-4411.729" y1="-61.1777" x2="-4358.4683" y2="60.0027" gradientTransform="matrix(-0.9776 -0.2106 -0.2106 0.9776 -4108.8564 -453.6069)">
				<stop  offset="0" style="stop-color:#F9BABA"/>
				<stop  offset="1" style="stop-color:#F5928F"/>
			</linearGradient>
			<path fill="url(#SVGID_41_)" d="M239.362,390.901c0.131,1.4-5.074,2.368-6.731-3.6c0.455-2.591,1.264-13.937,3.25-15.7
				c10.581-9.388,29.448-19.948,29.448-19.948c2.109,3.221-0.658,5.343-0.658,5.343l-9.417,6.356
				c0.982,3.254,2.416,6.131,2.577,9.846c0.123,2.813-0.916,5.567-2.783,7.701c-1.874,2.142-4.397,4.907-6.672,7.006
				C244.07,391.878,239.362,390.901,239.362,390.901z"/>
			<linearGradient id="SVGID_42_" gradientUnits="userSpaceOnUse" x1="238.3481" y1="376.5854" x2="252.6895" y2="376.5854">
				<stop  offset="0" style="stop-color:#F9BABA"/>
				<stop  offset="1" style="stop-color:#F5928F"/>
			</linearGradient>
			<path fill="url(#SVGID_42_)" d="M244.478,386.276l-1.439-0.592c0.191-0.466,4.711-11.448,6.896-13.733
				c0.831-0.866,1.231-1.608,1.195-2.207c-0.019-0.324-0.18-0.644-0.483-0.97l-7.621,4.076l-3.365,5.27l-1.313-0.839l3.584-5.613
				l8.927-4.772l0.402,0.328c0.903,0.738,1.369,1.531,1.423,2.425c0.065,1.065-0.465,2.17-1.622,3.381
				C249.415,374.749,245.75,383.174,244.478,386.276z"/>
		</g>
	</g>
</g>
<g opacity="0.6">
	<path fill="#FFFFFF" d="M258.776,239.029c-2.199-0.05-3.573,1.658-3.053,3.795l3.124,12.841c0.52,2.138,2.745,3.881,4.945,3.874
		l187.165-0.611c2.199-0.007,3.958-1.813,3.907-4.012l-0.172-7.402c-0.051-2.199-1.892-4.04-4.091-4.091L258.776,239.029z"/>
</g>
<g opacity="0.6">
	<path fill="#FFFFFF" d="M258.776,282.991c-2.199-0.05-3.573,1.658-3.053,3.795l3.124,12.841c0.52,2.138,2.745,3.881,4.945,3.874
		l187.165-0.611c2.199-0.007,3.958-1.813,3.907-4.012l-0.172-7.402c-0.051-2.199-1.892-4.04-4.091-4.091L258.776,282.991z"/>
</g>
</svg>
